<svg xmlns="http://www.w3.org/2000/svg" width="68" height="68" viewBox="0 0 68 68">
  <g id="Group_144" data-name="Group 144" transform="translate(-56.062 -39)">
    <circle id="Ellipse_1" data-name="Ellipse 1" cx="34" cy="34" r="34" transform="translate(56.062 39)" fill="#6e1515"/>
    <g id="Layer_2" data-name="Layer 2" transform="translate(69.45 52.917)">
      <g id="Layer_1" data-name="Layer 1" transform="translate(0 0)">
        <path id="Path_399" data-name="Path 399" d="M20.568,150.9a20.044,20.044,0,0,1-14.517-6.283A21.629,21.629,0,0,1,0,129.538v-.968H41.137v.968a21.632,21.632,0,0,1-6.055,15.082A20.029,20.029,0,0,1,20.568,150.9Zm-18.682-20.4c.487,10.267,8.68,18.464,18.682,18.464s18.2-8.2,18.683-18.464Z" transform="translate(0.001 -116.825)" fill="#fff"/>
        <path id="Path_400" data-name="Path 400" d="M151.891,359.768H135.36V352.29h16.531Zm-14.36-2.171H149.72v-3.137H137.531Z" transform="translate(-122.993 -320.105)" fill="#fff"/>
        <path id="Path_401" data-name="Path 401" d="M351.8,18.548,346.03,29.534l-1.34-.7,5.983-11.39Q351.256,17.976,351.8,18.548Z" transform="translate(-313.197 -15.848)" fill="#fff"/>
        <path id="Path_402" data-name="Path 402" d="M128.408,9.951l-.868-.914c2.375-2.248,2.187-3.063,2.127-3.2-.121-.274-.667-.44-1.148-.584-.716-.212-1.528-.457-1.777-1.244-.333-1.053.6-2.284,3.015-3.986l.731,1.032c-2.71,1.91-2.54,2.569-2.538,2.576.048.152.6.316.933.414a2.721,2.721,0,0,1,1.947,1.292C131.313,6.457,130.543,7.925,128.408,9.951Z" transform="translate(-115.103 -0.02)" fill="#fff"/>
        <path id="Path_403" data-name="Path 403" d="M191.942,9.951l-.869-.914c2.375-2.248,2.193-3.063,2.127-3.2-.121-.274-.666-.44-1.148-.584-.715-.212-1.527-.457-1.777-1.244-.332-1.053.6-2.284,3.015-3.986l.731,1.032c-2.714,1.909-2.545,2.567-2.542,2.574.048.152.6.316.933.414a2.719,2.719,0,0,1,1.946,1.292C194.85,6.457,194.078,7.925,191.942,9.951Z" transform="translate(-172.831 -0.02)" fill="#fff"/>
        <path id="Path_404" data-name="Path 404" d="M256.858,9.951l-.868-.914c2.371-2.248,2.187-3.063,2.127-3.2-.121-.274-.667-.44-1.148-.584-.716-.212-1.528-.457-1.777-1.244-.333-1.053.6-2.284,3.015-3.986l.731,1.032c-2.714,1.909-2.544,2.567-2.544,2.574.048.152.6.316.933.414a2.721,2.721,0,0,1,1.947,1.292C259.763,6.457,258.994,7.925,256.858,9.951Z" transform="translate(-231.817 -0.02)" fill="#fff"/>
      </g>
    </g>
  </g>
</svg>
