<svg xmlns="http://www.w3.org/2000/svg" width="26.093" height="26.092" viewBox="0 0 26.093 26.092">
  <g id="logout" transform="translate(0 -0.004)">
    <path id="Path_1714" data-name="Path 1714" d="M16.308,14.137a1.087,1.087,0,0,0-1.087,1.087v4.349a1.088,1.088,0,0,1-1.087,1.087H10.872V4.352A2.191,2.191,0,0,0,9.391,2.286l-.322-.108h5.064a1.088,1.088,0,0,1,1.087,1.087V6.527a1.087,1.087,0,1,0,2.174,0V3.265A3.266,3.266,0,0,0,14.133,0H2.446A.854.854,0,0,0,2.33.028C2.278.023,2.228,0,2.174,0A2.176,2.176,0,0,0,0,2.178V21.747a2.191,2.191,0,0,0,1.481,2.067L8.023,26a2.251,2.251,0,0,0,.674.1,2.176,2.176,0,0,0,2.174-2.174V22.835h3.262a3.266,3.266,0,0,0,3.262-3.262V15.224a1.087,1.087,0,0,0-1.087-1.087Zm0,0" transform="translate(0)" fill="#451111"/>
    <path id="Path_1715" data-name="Path 1715" d="M288.973,111.333l-4.349-4.349a1.087,1.087,0,0,0-1.856.769v3.262h-4.349a1.087,1.087,0,1,0,0,2.174h4.349v3.262a1.087,1.087,0,0,0,1.856.769l4.349-4.349a1.086,1.086,0,0,0,0-1.537Zm0,0" transform="translate(-263.199 -101.226)" fill="#451111"/>
  </g>
</svg>
