<svg id="mc_symbol" xmlns="http://www.w3.org/2000/svg" width="131.39" height="86.9" viewBox="0 0 131.39 86.9">
  <g id="Group_3" data-name="Group 3" opacity="0">
    <rect id="Rectangle_4" data-name="Rectangle 4" width="131.39" height="86.9" fill="#828282"/>
  </g>
  <rect id="Rectangle_5" data-name="Rectangle 5" width="34.66" height="56.61" transform="translate(48.37 15.14)" fill="#828282"/>
  <path id="Path_3" data-name="Path 3" d="M51.94,43.45a35.94,35.94,0,0,1,13.75-28.3,36,36,0,1,0,0,56.61A35.94,35.94,0,0,1,51.94,43.45Z" fill="#828282"/>
  <path id="Path_4" data-name="Path 4" d="M120.5,65.76V64.6h.5v-.24h-1.19v.24h.47v1.16Zm2.31,0v-1.4h-.36l-.42,1-.42-1h-.36v1.4h.26V64.7l.39.91h.27l.39-.91v1.06Z" fill="#828282"/>
  <path id="Path_5" data-name="Path 5" d="M123.94,43.45a36,36,0,0,1-58.25,28.3,36,36,0,0,0,0-56.61,36,36,0,0,1,58.25,28.3Z" fill="#828282"/>
</svg>
