<svg xmlns="http://www.w3.org/2000/svg" width="291.764" height="91.305" viewBox="0 0 291.764 91.305">
  <g id="visa" transform="translate(0 -100.23)">
    <g id="Group_2" data-name="Group 2">
      <g id="Group_1" data-name="Group 1">
        <path id="Path_1" data-name="Path 1" d="M119.259,100.23l-14.643,91.122h23.405l14.634-91.122Zm70.6,37.118c-8.179-4.039-13.193-6.765-13.193-10.9.1-3.756,4.24-7.6,13.485-7.6a40.729,40.729,0,0,1,17.433,3.374l2.124.948,3.182-19.065a59.074,59.074,0,0,0-21.007-3.756c-23.113,0-39.388,12.017-39.489,29.2-.191,12.683,11.652,19.721,20.515,23.943,9.054,4.331,12.136,7.139,12.136,10.987-.1,5.908-7.321,8.634-14.059,8.634-9.336,0-14.351-1.4-21.964-4.7l-3.082-1.4-3.273,19.813c5.5,2.444,15.609,4.6,26.1,4.705,24.563,0,40.546-11.835,40.747-30.152C209.6,151.335,203.351,143.639,189.857,137.348Zm83.034-36.836H254.783c-5.58,0-9.82,1.605-12.236,7.331l-34.766,83.509h24.563l6.765-18.08H266.59l3.51,18.153h21.664Zm-26.97,54.514c.474.046,9.428-29.514,9.428-29.514l7.13,29.514ZM85.059,100.23,62.128,162.139l-2.5-12.209c-4.24-14.087-17.533-29.4-32.368-37l21,78.33H73.024l36.8-91.021H85.059Z" fill="#828282"/>
      </g>
    </g>
    <path id="Path_2" data-name="Path 2" d="M51.916,111.982c-1.787-6.948-7.486-11.634-15.226-11.734H.374L0,101.934c28.329,6.984,52.107,28.474,59.821,48.688Z" fill="#828282"/>
  </g>
</svg>
