<svg xmlns="http://www.w3.org/2000/svg" viewBox="0 0 18 14.95"><defs><style>.cls-1{fill:#0079c1;}</style></defs><title>back_arrow</title><g id="Layer_2" data-name="Layer 2"><g id="Layer_1-2" data-name="Layer 1"><path class="cls-1" d="M17,6.06H5L8.76,2.28a1,1,0,0,0,.29-.7,1,1,0,0,0-.29-.7L8.17.29A1,1,0,0,0,7.47,0a.94.94,0,0,0-.69.29L.29,6.78a1,1,0,0,0,0,1.39l6.49,6.49a.94.94,0,0,0,.69.29,1,1,0,0,0,.7-.29l.59-.59a1,1,0,0,0,.29-.69,1,1,0,0,0-.29-.68L4.93,8.88H17a1,1,0,0,0,1-1V7A1,1,0,0,0,17,6.06Z"/></g></g></svg>