<svg xmlns="http://www.w3.org/2000/svg" viewBox="0 0 38.33 24.46"><title>card</title><g id="Layer_2" data-name="Layer 2"><g id="Layer_1-2" data-name="Layer 1"><path d="M2.51,24.46H35.83a2.52,2.52,0,0,0,2.5-2.54V2.54A2.52,2.52,0,0,0,35.83,0H2.51A2.53,2.53,0,0,0,0,2.54V21.92A2.53,2.53,0,0,0,2.51,24.46Zm34.57-2.54a1.27,1.27,0,0,1-1.25,1.29H2.51a1.28,1.28,0,0,1-1.26-1.29V20.44H37.08v1.48ZM1.25,2.54A1.28,1.28,0,0,1,2.51,1.25H35.83a1.27,1.27,0,0,1,1.25,1.29V14.16H1.25Z"/><rect x="5.33" y="8.4" width="10" height="1"/><rect x="8.33" y="3.4" width="11" height="3"/><rect x="12.33" y="11.4" width="16" height="1"/></g></g></svg>