<svg xmlns="http://www.w3.org/2000/svg" viewBox="0 0 1296 94"><defs><style>.cls-1{fill:#e89853;}.cls-2{fill:#fff;}</style></defs><title>completed</title><g id="Layer_2" data-name="Layer 2"><g id="Layer_1-2" data-name="Layer 1"><path class="cls-1" d="M26,35A14,14,0,1,1,12,49,14,14,0,0,1,26,35m0-12A26,26,0,1,0,52,49,26,26,0,0,0,26,23Z"/><polygon class="cls-1" points="1242 39 44 39 44 56 1242 56 1242 39 1242 39"/><circle class="cls-2" cx="1249" cy="47" r="36"/><path class="cls-1" d="M1249,22a25,25,0,1,1-25,25,25,25,0,0,1,25-25m0-22a47,47,0,1,0,47,47,47,47,0,0,0-47-47Z"/><circle class="cls-2" cx="653" cy="49" r="20"/><path class="cls-1" d="M653,35a14,14,0,1,1-14,14,14,14,0,0,1,14-14m0-12a26,26,0,1,0,26,26,26,26,0,0,0-26-26Z"/></g></g></svg>