<svg id="Layer_1" enable-background="new 0 0 510.822 510.822" height="512" viewBox="0 0 510.822 510.822" width="512" xmlns="http://www.w3.org/2000/svg"><path d="m134.896 315.715c-36.08 0-65.434 29.353-65.434 65.433s29.354 65.433 65.434 65.433 65.433-29.353 65.433-65.433c-.001-36.08-29.353-65.433-65.433-65.433z"/><path d="m399.32 315.715c-36.08 0-65.434 29.353-65.434 65.433s29.354 65.433 65.434 65.433 65.433-29.353 65.433-65.433-29.353-65.433-65.433-65.433z"/><path d="m507.523 252.362-77.178-100.737c-3.028-3.952-7.723-6.27-12.701-6.27h-65.827v150.751c69.854-39.174 157.135 19.403 143.62 101.01 8.55-.326 15.385-7.34 15.385-15.969v-119.054c0-3.518-1.159-6.938-3.299-9.731z"/><path d="m303.208 397.148c-4.211-25.383 1.691-51.246 16.61-72.265v-244.641c0-8.836-7.163-16-16-16h-287.818c-8.837 0-16 7.164-16 16v300.906c0 8.836 7.163 16 16 16h22.783c-9.901-59.679 36.362-113.433 96.113-113.433 59.775 0 106.008 53.784 96.112 113.433z"/></svg>