<?xml version="1.0" encoding="utf-8"?>
<!-- Svg Vector Icons : http://www.onlinewebfonts.com/icon -->
<!DOCTYPE svg PUBLIC "-//W3C//DTD SVG 1.1//EN" "http://www.w3.org/Graphics/SVG/1.1/DTD/svg11.dtd">
<svg version="1.1" xmlns="http://www.w3.org/2000/svg" xmlns:xlink="http://www.w3.org/1999/xlink" x="0px" y="0px" viewBox="0 0 1000 1000" enable-background="new 0 0 1000 1000" xml:space="preserve">
<metadata> Svg Vector Icons : http://www.onlinewebfonts.com/icon </metadata>
<g><path d="M765.4,382.6c-40.8,0-81,0-121.8,0c-15.7,25.2-30.6,52.4-46.3,78.3c0,0.7-0.7,0.7-1.4,0.7c-17.7,0-34.7,0-52.4,0h-0.7c1.4-2,2.7-4.8,4.1-6.8c14.3-23.8,27.9-47.6,42.2-71.5c0,0,0-0.7,0.7-0.7c-40.8,0-81,0-121.8,0l-0.7,0.7c-25.9,44.2-51.7,88.5-77.6,132c-1.4,2-2,4.1-3.4,6.1c0.7,0,1.4,0,2,0c98,0,196.7-0.7,294.7-0.7c1.4,0,1.4-0.7,2-1.4c24.5-42.2,49.7-83.7,74.2-125.9C761.3,390.1,763.4,386,765.4,382.6z"/><path d="M257.7,454.7c2,0,4.1,0,6.1,0.7c3.4,0.7,4.8,3.4,3.4,6.8c-0.7,2.7-2,4.8-3.4,7.5c-7.5,12.9-15,25.9-22.5,38.1c-0.7,1.4-1.4,2.7-2,4.1c-1.4,4.1,0,6.8,3.4,7.5c2.7,0.7,4.8,1.4,7.5,1.4c31.3,0,63.3,0,94.6,0c1.4,0,1.4-0.7,2-1.4c8.8-15,17.7-29.9,26.5-44.9c2.7-4.1,4.8-8.2,5.4-12.9c4.8-21.8,0-40.2-13.6-56.5c-10.2-12.3-23.8-18.4-38.8-21.1c-2,0-4.1-0.7-6.1-0.7c-83.7,0-167.4,0-251.1,0c0,1.4-0.7,0.7-0.7,1.4c-12.3,21.1-25.2,42.9-37.4,64c-1.4,2-2.7,4.8-4.1,6.8c0.7,0,1.4,0,2,0C105.3,454.7,181.5,454.7,257.7,454.7z"/><path d="M723.9,521.4c0.7,0,1.4,0,1.4,0c42.2,0,84.4-0.7,126.6-0.7c0.7,0,1.4-0.7,2-1.4c20.4-34,40.2-68.7,60.6-102.8c6.8-11.6,13.6-23.1,20.4-34c-42.9,0-86.4,0-129.3,0c0,1.4-0.7,0.7-0.7,1.4c-25.9,44.2-51.7,88.5-77.6,132C725.9,517.4,724.6,519.4,723.9,521.4z"/><path d="M336,537.8c-0.7,0-1.4,0-2,0c-46.3,0-93.2,0-139.5,0c-1.4,0-2.7,0-4.1,0c-2-0.7-4.1-0.7-6.1-1.4s-3.4-3.4-2-5.4c0.7-2,2-4.8,2.7-6.8c7.5-12.2,14.3-24.5,21.8-37.4c1.4-2,2.7-4.8,3.4-7.5c1.4-3.4,0-6.1-3.4-6.8c-2,0-4.1,0-6.8,0c-34.7,0-68.7,0-103.4,0c-1.4,0-2,0.7-2.7,1.4C67.8,518,42,562.3,15.4,607.2c-2,3.4-3.4,6.1-5.4,9.5c0.7,0,1.4,0,2,0c68.7,0,138.2,0,206.9,0c5.4,0,10.9-0.7,16.3-1.4c18.4-2.7,34.7-9.5,50.4-20.4c16.3-11.6,29.9-25.9,41.5-42.2C329.9,548,333.3,543.2,336,537.8C336,538.5,336,537.8,336,537.8z"/><path d="M988,537.8c-79.6,0-159.3,0-238.9,0c-11.6,0-23.1,0-34.7,0c-1.4,0-1.4,0.7-2,1.4c-4.1,7.5-8.2,14.3-12.3,21.8c-1.4,2-2.7,4.8-3.4,7.5c-3.4,10.2-3.4,19.7,2,28.6c4.1,6.1,9.5,10.2,15.7,13.6c10.2,4.8,20.4,6.1,31.3,6.1c65.3,0,131.3,0,196.7,0c1.4,0,1.4-0.7,2-1.4c12.9-21.8,25.9-43.6,38.1-65.3c2-4.1,4.8-8.2,7.5-12.3C989.3,537.8,988.6,537.8,988,537.8z"/><path d="M376.8,538.5c-0.7,0-1.4,0-2,1.4c-15,25.2-29.9,50.4-44.9,76.2c0,0.7-0.7,0-0.7,1.4c0.7,0,0.7,0,1.4,0c39.5,0,79.6,0,119.1,0c0.7,0,1.4,0,2-1.4c13.6-23.1,27.9-47,41.5-70.1c1.4-2,2.7-4.8,4.1-6.8c-0.7,0-0.7,0-1.4,0C456.4,538.5,417,538.5,376.8,538.5z"/><path d="M553.1,537.8c-0.7,0-1.4,0.7-2,1.4c-15,25.2-29.9,50.4-44.9,76.2c0,0.7-0.7,0-0.7,1.4c0.7,0,0.7,0,1.4,0c40.2,0,79.6,0,119.8,0c0.7,0,1.4,0,2-1.4c14.3-23.8,28.6-48.3,42.2-72.1c0.7-1.4,2-3.4,3.4-5.4c-0.7,0-1.4,0-1.4,0C632.7,537.8,593.2,537.8,553.1,537.8z"/></g>
</svg>