<svg xmlns="http://www.w3.org/2000/svg" viewBox="0 0 110 26.65"><defs><style>.cls-1{fill:#009ee3;}.cls-1,.cls-2,.cls-3{fill-rule:evenodd;}.cls-2{fill:#113984;}.cls-3{fill:#172c70;}</style></defs><title>paypal</title><g id="Layer_2" data-name="Layer 2"><g id="Layer_1-2" data-name="Layer 1"><path class="cls-1" d="M9.6,6.27h7.52c4,0,5.55,2.05,5.32,5.05C22.05,16.27,19.05,19,15.08,19h-2c-.54,0-.91.37-1.06,1.34L11.16,26c-.06.37-.25.58-.54.61H5.9c-.45,0-.61-.34-.49-1.07L8.29,7.35A1.15,1.15,0,0,1,9.6,6.27Z"/><path class="cls-2" d="M42.23,5.94c2.54,0,4.88,1.37,4.56,4.8-.39,4.07-2.57,6.33-6,6.34h-3c-.43,0-.64.35-.75,1.08l-.58,3.7c-.09.55-.38.83-.8.83h-2.8c-.45,0-.6-.29-.5-.92L34.64,6.94c.11-.73.39-1,.88-1Zm-4.56,7.94H40c1.43-.06,2.38-1.05,2.47-2.83a1.72,1.72,0,0,0-1.87-1.88H38.41l-.74,4.7ZM54.4,21.55c.26-.23.52-.35.48-.06l-.09.69c0,.35.09.54.43.54H57.7c.42,0,.63-.16.73-.81L60,12.29c.08-.49,0-.72-.4-.72H56.82c-.25,0-.37.14-.43.51l-.1.59c0,.31-.2.37-.33.06-.46-1.1-1.65-1.59-3.3-1.56-3.83.08-6.42,3-6.7,6.73a4.62,4.62,0,0,0,4.59,5.15,4.92,4.92,0,0,0,3.86-1.49h0Zm-2.08-1.48a2.5,2.5,0,0,1-2.57-2.93,3.58,3.58,0,0,1,3.44-2.93,2.5,2.5,0,0,1,2.56,2.93,3.56,3.56,0,0,1-3.43,2.93Zm12.51-8.53H62.31c-.52,0-.73.39-.57.86l3.13,9.17L61.8,25.94c-.26.36-.06.69.31.69h2.83a.85.85,0,0,0,.84-.41L75.42,12.4c.29-.42.15-.87-.33-.87H72.4c-.46,0-.64.19-.91.57l-4,5.82-1.8-5.84c-.1-.35-.36-.54-.85-.54Z"/><path class="cls-1" d="M85.43,5.94c2.54,0,4.88,1.37,4.56,4.8-.39,4.07-2.57,6.33-6,6.34H81c-.43,0-.64.35-.76,1.08l-.58,3.7c-.09.55-.37.83-.8.83H76c-.44,0-.6-.29-.5-.92L77.85,6.93c.11-.73.38-1,.88-1h6.7Zm-4.55,7.94h2.28c1.42-.06,2.37-1.05,2.46-2.83a1.71,1.71,0,0,0-1.86-1.88H81.61l-.73,4.7ZM97.6,21.55c.26-.23.52-.35.48-.06l-.09.69c0,.35.1.54.43.54h2.49c.42,0,.62-.16.72-.81l1.54-9.62c.07-.49,0-.72-.41-.72H100c-.25,0-.37.14-.43.51l-.11.59c0,.31-.19.37-.32.06-.47-1.1-1.65-1.59-3.3-1.56-3.84.08-6.42,3-6.7,6.73a4.62,4.62,0,0,0,4.58,5.15,4.91,4.91,0,0,0,3.86-1.49h0Zm-2.08-1.48A2.49,2.49,0,0,1,93,17.14a3.57,3.57,0,0,1,3.43-2.93A2.51,2.51,0,0,1,99,17.14a3.57,3.57,0,0,1-3.44,2.93ZM107,22.74h-2.87a.34.34,0,0,1-.35-.32v-.07l2.52-16a.51.51,0,0,1,.48-.39h2.87a.35.35,0,0,1,.36.33.13.13,0,0,1,0,.06l-2.52,16a.49.49,0,0,1-.48.39Z"/><path class="cls-2" d="M4.9,0h7.52c2.12,0,4.63.07,6.32,1.55a5.09,5.09,0,0,1,1.57,4.27c-.46,5.75-3.9,9-8.51,9H8.09c-.63,0-1,.41-1.22,1.55l-1,6.59c-.07.43-.25.68-.58.71H.61c-.52,0-.7-.38-.57-1.24L3.38,1.25A1.33,1.33,0,0,1,4.9,0Z"/><path class="cls-3" d="M7,15.67,8.29,7.35A1.15,1.15,0,0,1,9.6,6.27h7.52a7.43,7.43,0,0,1,3,.55c-.75,5.12-4.06,8-8.39,8H8.06A1.08,1.08,0,0,0,7,15.67Z"/></g></g></svg>