<svg xmlns="http://www.w3.org/2000/svg" viewBox="0 0 1289 94"><defs><style>.cls-1{fill:#e89853;}.cls-2{fill:#fff;}</style></defs><title>pending</title><g id="Layer_2" data-name="Layer 2"><g id="Layer_1-2" data-name="Layer 1"><path class="cls-1" d="M26,33A14,14,0,1,1,12,47,14,14,0,0,1,26,33m0-12A26,26,0,1,0,52,47,26,26,0,0,0,26,21Z"/><polygon class="cls-1" points="1242 37 44 37 44 54 1242 54 1242 37 1242 37"/><circle class="cls-2" cx="644" cy="47" r="36"/><path class="cls-1" d="M644,22a25,25,0,1,1-25,25,25,25,0,0,1,25-25m0-22a47,47,0,1,0,47,47A47,47,0,0,0,644,0Z"/><circle class="cls-2" cx="1263" cy="47" r="20"/><path class="cls-1" d="M1263,33a14,14,0,1,1-14,14,14,14,0,0,1,14-14m0-12a26,26,0,1,0,26,26,26,26,0,0,0-26-26Z"/></g></g></svg>