<svg xmlns="http://www.w3.org/2000/svg" viewBox="0 0 2414.73 2759.99"><defs><style>.cls-1{opacity:0.3;}.cls-2{fill:#371a45;}.cls-3{fill:#fff;}.cls-4{opacity:0.35;}.cls-5{opacity:0.7;}.cls-6{fill:#111a28;}.cls-7{fill:#ffa539;}.cls-8{fill:#d62727;}.cls-9{opacity:0.6;isolation:isolate;}.cls-10{fill:#86c21f;}.cls-11{fill:#c4522d;}.cls-12{fill:#ffc929;}.cls-13{fill:#afafb2;}</style></defs><title>burger</title><g id="Layer_2" data-name="Layer 2"><g id="Layer_1-2" data-name="Layer 1"><g class="cls-1"><ellipse class="cls-2" cx="1207.36" cy="2603.05" rx="1207.36" ry="156.94"/></g><rect class="cls-3" x="547.36" y="1167.45" width="1324.81" height="1038.8" rx="156.16"/><path class="cls-3" d="M1872.17,1323.61v726.46A156.18,156.18,0,0,1,1716,2206.26H703.51a156.17,156.17,0,0,1-156.14-156.19V1323.61a156.17,156.17,0,0,1,156.14-156.15H1716A156.17,156.17,0,0,1,1872.17,1323.61Z"/><g class="cls-4"><path class="cls-2" d="M1872.17,1411.63v638.44A156.18,156.18,0,0,1,1716,2206.26H703.51a156.17,156.17,0,0,1-156.14-156.19V1411.63a156.16,156.16,0,0,1,156.14-156.14H1716A156.17,156.17,0,0,1,1872.17,1411.63Z"/></g><path class="cls-2" d="M1716,2223.51H703.53c-95.63,0-173.43-77.8-173.43-173.43V1323.62c0-95.63,77.8-173.43,173.43-173.43H1716c95.63,0,173.43,77.8,173.43,173.43v726.46C1889.43,2145.71,1811.63,2223.51,1716,2223.51ZM703.53,1184.71c-76.59,0-138.91,62.31-138.91,138.91v726.46c0,76.59,62.32,138.91,138.91,138.91H1716c76.6,0,138.91-62.32,138.91-138.91V1323.62c0-76.6-62.31-138.91-138.91-138.91Z"/><path class="cls-3" d="M1519.73,1290.85c272.17,475.08,265.9,1041.31,265.9,1041.31H648.45s-6.27-566.23,265.9-1041.31"/><path class="cls-2" d="M1802.7,2349.42H631.38l-.19-17.07c0-1.43-1.21-145.35,31.1-345.44,29.84-184.75,95.19-457,237.08-704.64a17.26,17.26,0,1,1,30,17.16C688.87,1719.14,667.67,2217.18,665.87,2314.9H1768.22c-1.81-97.72-23-595.76-263.47-1015.47a17.26,17.26,0,0,1,30-17.16c141.88,247.66,207.24,519.89,237.08,704.64,32.31,200.09,31.12,344,31.1,345.44Z"/><path class="cls-3" d="M1739,1951.84c-59.71-44.9-47-119.7-183.15-184.89h-674c-136.17,65.19-123.44,140-183.15,184.89-86.14,64.69-290.27,58.94-271.06-197.69,6.64-68.4,33.25-137.13,72.71-204.1,187.24-317.73,663.51-594.38,663.51-594.38h110s476.27,276.65,663.51,594.38c39.46,67,66.07,135.7,72.71,204.1C2029.22,2010.78,1825.09,2016.53,1739,1951.84Z"/><path class="cls-3" d="M1739,1951.84c-17.09-12.85-28.26-28.14-38.68-45-21.67-35-40.1-76.64-102.18-116.5-18-20.28-43.63-41-84.79-60.73h-589c-41.16,19.74-66.77,40.45-84.79,60.73-62.07,39.86-80.51,81.48-102.18,116.5-10.42,16.84-21.59,32.13-38.68,45-86.14,64.68-290.24,58.92-271-197.68,6.64-68.41,33.26-137.16,72.7-204.11C687.55,1232.3,1163.8,955.67,1163.8,955.67h110S1750,1232.3,1937.31,1550.05c39.43,67,66.06,135.7,72.69,204.11C2029.24,2010.76,1825.09,2016.52,1739,1951.84Z"/><g class="cls-4"><path class="cls-2" d="M1700.27,1906.86c-21.67-35-40.1-76.64-102.18-116.5-18-20.28-43.63-41-84.79-60.73h-589c-41.16,19.74-66.77,40.45-84.79,60.73-62.07,39.86-80.51,81.48-102.18,116.5-83.83,37.42-225,12.22-210-188.4,5.8-59.76,29.06-119.86,63.54-178.36,163.67-277.68,579.86-519.46,579.86-519.46h96.13s416.24,241.78,579.86,519.46c34.48,58.5,57.74,118.6,63.54,178.36C1925.29,1919.08,1784.1,1944.28,1700.27,1906.86Z"/></g><path class="cls-2" d="M589.18,2003.82c-29.26,0-59.16-6.38-86.46-21.31-48-26.26-103-87.42-92.36-229.66,6.51-67,31.75-138.07,75.06-211.55,187.4-318,650.12-589.17,669.72-600.56a17.26,17.26,0,0,1,17.35,29.85c-4.73,2.75-474.56,278.12-657.33,588.24-40.73,69.11-64.42,135.38-70.41,197-7.29,97.7,18.47,165.75,74.54,196.42,56.41,30.86,129.18,15.72,169-14.2,19.25-14.46,30.29-33.14,43.07-54.77,23.27-39.39,52.24-88.42,143-131.87,47.62-22.8,73.43-73.29,69-135.06-3.9-54.78-34.77-118.52-94.94-137.43C780,1457.36,703,1499.36,613.21,1607.25l-3.61,4.36c-18.5,22.43-41.55,50.33-66.93,44.66-14-3.15-23.81-15.27-29.07-36a17.26,17.26,0,1,1,33.45-8.49,38.88,38.88,0,0,0,3.8,10.23c8.52-3.71,25.46-24.26,32.12-32.33l3.71-4.48c99.79-119.85,188.8-165.38,272.13-139.2,65.51,20.58,113.34,88.06,119,167.91,5.36,75.3-28.58,139.93-88.56,168.65-81.3,38.92-106.22,81.09-128.2,118.3C747,1924.58,733.76,1947,709,1965.62,678.78,1988.34,634.75,2003.82,589.18,2003.82Z"/><path class="cls-2" d="M1848.42,2003.82c-45.58,0-89.59-15.48-119.84-38.2-24.74-18.59-38-41-52-64.8-22-37.21-46.9-79.38-128.19-118.3-60-28.72-93.93-93.35-88.57-168.65,5.68-79.85,53.51-147.33,119-167.91,83.33-26.18,172.34,19.35,272.13,139.2l3.71,4.48c6.66,8.07,23.6,28.62,32.12,32.33a39,39,0,0,0,3.79-10.23,17.26,17.26,0,1,1,33.46,8.49c-5.26,20.77-15,32.89-29.07,36-25.48,5.7-48.43-22.23-66.93-44.66l-3.61-4.36c-89.83-107.88-166.76-149.89-235.25-128.36-60.17,18.91-91,82.65-94.94,137.43-4.39,61.77,21.42,112.26,69,135.06,90.76,43.45,119.73,92.48,143,131.87,12.78,21.63,23.82,40.31,43.06,54.77,39.83,29.92,112.59,45.07,169,14.2,56.06-30.67,81.82-98.72,74.49-196.8-6-61.2-29.64-127.47-70.37-196.59-182.85-310.25-652.6-585.49-657.33-588.24a17.26,17.26,0,0,1,17.34-29.85c19.61,11.39,482.33,282.59,669.73,600.56,43.31,73.49,68.55,144.53,75,211.16,10.67,142.63-44.32,203.79-92.31,230C1907.58,1997.44,1877.68,2003.82,1848.42,2003.82Z"/><path class="cls-3" d="M1900.65,834.4h0a14.73,14.73,0,0,1-17.19-11.77l-78.08-417a14.72,14.72,0,0,1,11.77-17.18h0A154.51,154.51,0,0,1,1997.46,511.9l26.62,142.19A154.52,154.52,0,0,1,1900.65,834.4Z"/><path class="cls-2" d="M1897.93,837.75a17.87,17.87,0,0,1-17.52-14.55l-78.07-417a17.84,17.84,0,0,1,14.24-20.8A157.59,157.59,0,0,1,2000.5,511.33l26.63,142.19a157.59,157.59,0,0,1-125.91,183.92h0A17.53,17.53,0,0,1,1897.93,837.75Zm-52-448.87a153,153,0,0,0-28.18,2.63,11.64,11.64,0,0,0-9.29,13.57l78.08,417a11.64,11.64,0,0,0,13.57,9.29h0a151.41,151.41,0,0,0,121-176.69l-26.62-142.19A151.52,151.52,0,0,0,1845.9,388.88Z"/><g class="cls-4"><path class="cls-2" d="M2011.6,587.41l12.5,66.69a154.58,154.58,0,0,1-123.46,180.33,14.77,14.77,0,0,1-17.19-11.8l-20.79-110.84a14.75,14.75,0,0,0,14.78,6.12l9.88-1.88A154.39,154.39,0,0,0,2011.6,587.41Z"/></g><path class="cls-2" d="M1897.93,851.91a32,32,0,0,1-31.43-26.1l-78.08-417A32,32,0,0,1,1814,371.5a171.77,171.77,0,0,1,200.46,137.22l26.63,142.19a171.77,171.77,0,0,1-137.22,200.45h0A32.24,32.24,0,0,1,1897.93,851.91ZM1822.82,405l77.13,412a137.22,137.22,0,0,0,107.16-159.67l-26.62-142.2A137.25,137.25,0,0,0,1822.82,405Z"/><path class="cls-3" d="M440.8,646.18h0A14.72,14.72,0,0,1,458,658l78.08,417a14.73,14.73,0,0,1-11.76,17.19h0A154.52,154.52,0,0,1,344,968.68L317.37,826.49A154.51,154.51,0,0,1,440.8,646.18Z"/><path class="cls-2" d="M495.53,1097.9A157.71,157.71,0,0,1,341,969.25L314.32,827.06A157.59,157.59,0,0,1,440.23,643.14h0A17.82,17.82,0,0,1,461,657.38l78.08,417a17.82,17.82,0,0,1-14.24,20.8A159.52,159.52,0,0,1,495.53,1097.9ZM441.37,649.23a151.41,151.41,0,0,0-121,176.69L347,968.11a151.41,151.41,0,0,0,176.69,121A11.64,11.64,0,0,0,533,1075.5l-78.08-417a11.67,11.67,0,0,0-13.57-9.29Z"/><g class="cls-4"><path class="cls-2" d="M514.44,959.24l21.64,115.68a14.76,14.76,0,0,1-11.79,17.2A154.45,154.45,0,0,1,344,968.71l-11.22-59.92a154.55,154.55,0,0,0,155,63.29l15.22-2.85A14.91,14.91,0,0,0,514.44,959.24Z"/></g><path class="cls-2" d="M495.5,1112.06A171.9,171.9,0,0,1,327,971.86L300.4,829.67A171.75,171.75,0,0,1,437.62,629.22h0A32,32,0,0,1,475,654.77l78.08,417a32,32,0,0,1-25.55,37.33A173.45,173.45,0,0,1,495.5,1112.06Zm-54-448.42A137.24,137.24,0,0,0,334.33,823.32L361,965.51a137.24,137.24,0,0,0,157.67,110.08Z"/><circle class="cls-3" cx="1170.81" cy="740.27" r="722.92"/><path class="cls-2" d="M1170.28,1466.34c-363.67,0-678.38-273.62-720.77-643.4C427.43,630.28,481.7,440.55,602.32,288.7S895.48,41.06,1088.14,19s382.4,32.18,534.25,152.8S1870,464.94,1892.1,657.6c45.59,397.72-240.9,758.38-638.62,804A731.35,731.35,0,0,1,1170.28,1466.34Zm1.94-1446a731.32,731.32,0,0,0-83.37,4.78C897.83,47,726.77,142,607.18,292.56s-173.4,338.66-151.5,529.68c42,366.6,354.07,637.87,714.6,637.89a721.21,721.21,0,0,0,82.5-4.72c394.32-45.2,678.36-402.78,633.16-797.1-21.89-191-116.86-362.08-267.41-481.67C1490,74.52,1334,20.36,1172.22,20.36Z"/><g class="cls-4"><path class="cls-2" d="M1870.75,559.33A719.67,719.67,0,0,1,1889,658c45.4,396.66-239.28,755.06-635.92,800.55s-755-239.27-800.55-635.91c-1.32-11.41-2.36-22.86-3.1-34.16C538,1132.51,868.8,1367.3,1231.73,1325.72,1617,1281.54,1896.53,942.22,1870.75,559.33Z"/></g><path class="cls-2" d="M1170.26,1480.5c-370.75,0-691.6-279-734.81-655.94C412.93,628.13,468.26,434.7,591.23,279.89s298.88-252.47,495.3-275,389.85,32.82,544.66,155.79,252.47,298.87,275,495.29h0c46.47,405.48-245.6,773.17-651.07,819.65A746.34,746.34,0,0,1,1170.26,1480.5Zm1.94-1446a716.37,716.37,0,0,0-81.74,4.69c-187.26,21.46-355,114.56-472.2,262.15s-170,332-148.52,519.26C510.94,1180,816.85,1446,1170.29,1446a708.55,708.55,0,0,0,80.87-4.63c386.57-44.31,665-394.85,620.71-781.42h0C1850.41,472.66,1757.31,305,1609.72,187.73,1483.68,87.61,1330.77,34.52,1172.2,34.52Z"/><path class="cls-2" d="M1888.84,676.67c18.23,140.28-10.38,276.44-74.26,394.32-47.89,88.37-269.54,261-565.58,302.13-274.49,38.18-543.56-75.85-612.45-149-91.88-97.64-154.34-222-172.57-362.25-48.24-371.23,250.71-566.58,644.19-617.71S1840.6,305.43,1888.84,676.67Z"/><path class="cls-2" d="M1135,1398.13c-238.66,0-448.83-96.15-511-162.23C526.22,1132,465,1003.43,446.86,864.05c-23.6-181.57,31-331,162.3-444.19C723.81,321,895.59,254.33,1106,227s393.47-6.77,529.58,59.48c155.85,75.87,246.83,206.4,270.43,388h0c18.11,139.39-8.24,279.35-76.21,404.77-47.12,87-265.14,267.44-578.37,311A845.08,845.08,0,0,1,1135,1398.13Zm143.09-1148a1315.41,1315.41,0,0,0-167.7,11.09C906.76,287.69,741.22,351.58,631.7,446,509.76,551.12,459.09,690.27,481.1,859.6c17.16,132.14,75.27,254.08,168,352.64,65.9,70,329.18,181.11,597.5,143.78,297.34-41.36,510-214.21,552.78-293.25,64.48-119,89.49-251.74,72.32-383.88h0C1825,319.31,1511.87,250.14,1278.1,250.14Z"/><g class="cls-5"><ellipse class="cls-3" cx="1650.74" cy="656.32" rx="127.93" ry="92.7" transform="translate(912.68 2272.18) rotate(-87.13)"/></g><g class="cls-5"><ellipse class="cls-3" cx="1570.78" cy="922.27" rx="58.72" ry="50.39" transform="matrix(0.19, -0.98, 0.98, 0.19, 370.3, 2292.22)"/></g><g class="cls-4"><path class="cls-6" d="M1705.27,348.35c97.9,71.79,164.17,179.2,183.56,328.3C1907.06,817,1878.42,953.11,1814.6,1071c-47.91,88.37-269.58,261-565.61,302.15-104.52,14.57-208.23,7-300.45-12,362.81-58.41,632.64-269.93,692-379.54C1721.65,832,1758,659.2,1734.79,481.19A731,731,0,0,0,1705.27,348.35Z"/></g><path class="cls-2" d="M476.5,555.48a17.24,17.24,0,0,1-15.09-25.54c101.6-200.71,331.49-338.12,630.84-377,297.26-38.62,554.09,32,704.9,193.65a17.26,17.26,0,0,1-21.6,26.78l-1.87-1.18-1.17-1.4c-143-153.91-389.33-220.83-675.81-183.61C808.64,224.58,588.23,355.37,492,546l-.85,1.49A17.36,17.36,0,0,1,476.5,555.48Z"/><g class="cls-5"><path class="cls-3" d="M652.67,1061.88S490.11,710.59,668.51,539,1131,331.11,1126.68,350.18c0,0-304.47,117-395.18,381.46C661.55,935.61,652.67,1061.88,652.67,1061.88Z"/></g><g class="cls-4"><path class="cls-2" d="M658.54,1983C654.61,1852.29,909.26,1747.4,1220,1747.4c309.61,0,561.46,104.89,561.46,235.58-1.12,173.88-250.72,235.58-561.46,235.58C910.39,2218.56,664.71,2158.54,658.54,1983Z"/></g><path class="cls-7" d="M1781.45,1890.44c-.25,41.08-14.4,75.89-39.94,105.12-82.48,94.49-284.19,130.49-521.52,130.49-242.78,0-446.3-36.92-525.76-137.54-21.88-27.68-34.35-60.19-35.7-98.07-2.69-90.12,117.55-168,294.36-207.63,79.63-17.81,170.68-27.93,267.1-27.93,90.17,0,175.47,8.9,251,24.74C1655,1718.13,1781.45,1797.8,1781.45,1890.44Z"/><g class="cls-4"><path class="cls-2" d="M1781.48,1857.91c-39.46,145.93-279,199-571.17,199-280.07,0-509.18-47.81-564.33-182.33a103.79,103.79,0,0,0-5.1,35.08c6.34,180.39,258.77,242.06,576.9,242.06,319.29,0,575.75-63.4,576.9-242.06C1794.68,1891.91,1790.1,1874.59,1781.48,1857.91Z"/></g><path class="cls-2" d="M1220,2143.3c-169.68,0-304.42-17.84-400.46-53-115.11-42.16-175.09-109.19-178.25-199.23V1891c-1.08-35.94,14.1-70.37,45.12-102.34,89-91.74,298.48-151,533.59-151,324.52,0,578.73,111.06,578.73,252.84C1797.66,2055.91,1597.54,2143.3,1220,2143.3ZM675.79,1889.92c6.43,180.89,299.49,218.86,544.21,218.86,202.72,0,543-28.38,544.21-218.43,0-118.23-249.22-218.21-544.21-218.21-222.76,0-427.24,56.48-508.82,140.55C686.92,1837.69,675,1863.68,675.79,1889.92Z"/><path class="cls-8" d="M1332.75,1834.37c0,81.33-157.06,147.52-351.13,147.52s-351.13-65.63-351.13-147.52c0-20.76,10.1-40.95,29.17-58.9,53.85-52.16,177.81-88.62,322-88.62,182.86,0,333.18,58.33,349.44,134.06A54.86,54.86,0,0,1,1332.75,1834.37Z"/><g class="cls-9"><path class="cls-3" d="M629,1822.53c283.6,207.14,549,65.85,624.74,16.94v-.73a43.29,43.29,0,0,0-.39-5.33c-439.3,174-590.24-56.93-590.24-56.93-11.5,9.53-20.64,19.46-26.87,29.89A68.72,68.72,0,0,0,629,1822.53Z"/></g><path class="cls-2" d="M981.62,2001.86c-211.56,0-371.1-72-371.1-167.49,0-26.22,12.26-51.62,35.45-73.44,58.9-57.06,190.73-94,335.65-94,194.9,0,349.93,62.86,368.9,149.5a75.57,75.57,0,0,1,2.2,18c0,47.91-40.85,91.48-115,122.67C1169,1985.94,1078,2001.86,981.62,2001.86Zm0-295c-133,0-256.82,33.36-308.06,83-10.65,10-23.09,25.69-23.09,44.55,0,60.32,136,127.54,331.15,127.54s331.15-67.22,331.15-127.54a35.71,35.71,0,0,0-1.08-8.62c-.06-.21-.11-.43-.15-.65C1299.31,1768.22,1169.71,1706.82,981.62,1706.82Z"/><path class="cls-2" d="M1009.1,1926.79c-193.74,0-347.79-62.1-366.31-147.67a17.26,17.26,0,0,1,4.86-16c58.62-56.79,189.71-93.49,334-93.49,193.89.6,347.92,62.7,366.31,147.67a17.23,17.23,0,0,1-4.86,16C1284.45,1890.09,1153.36,1926.79,1009.1,1926.79Zm-329.66-145.9c23.38,55.2,150.19,111.38,329.66,111.38,129.45,0,246.07-29.89,302.17-76.77-23.37-54.78-150.14-110.84-329.7-111.39C852.17,1704.11,735.54,1734,679.44,1780.89Z"/><path class="cls-8" d="M1787.06,1834.39c0,72.92-140.22,131.81-313.54,131.81-172.76,0-312.59-58.5-313.55-131.08v-.73a43.58,43.58,0,0,1,.39-5.33c.23-1.57.45-3.19.73-4.76,12.34-68.43,147.52-121.72,313-121.72,119.47,0,223.8,28,276.53,69.55,11.49,9.54,20.64,19.46,26.86,29.9a68.65,68.65,0,0,1,7.24,16.15A57,57,0,0,1,1787.06,1834.39Z"/><g class="cls-9"><path class="cls-3" d="M1786.36,1813.33c-283.59,207.15-549,65.85-624.74,16.94v-.73a41.41,41.41,0,0,1,.4-5.32c439.3,174,590.24-56.94,590.24-56.94,11.5,9.54,20.64,19.47,26.86,29.9A68.84,68.84,0,0,1,1786.36,1813.33Z"/></g><path class="cls-2" d="M1473.53,1986.15c-190.13,0-333.52-65.25-333.52-151.78a79.29,79.29,0,0,1,1.4-13.39c14.48-80.3,154.37-138.4,332.68-138.4,120.34,0,231,28.29,288.89,73.83l.4.32c29,24,43.67,50.16,43.67,77.64C1807.05,1920.9,1663.67,1986.15,1473.53,1986.15Zm.56-263.62c-169.45,0-284.19,54.65-293.32,105.29a45.55,45.55,0,0,0-.81,6.55c0,52.9,120.57,111.84,293.57,111.84s293.57-58.94,293.57-111.84c0-15-9.76-30.69-29-46.73C1687.62,1748.09,1584.06,1722.53,1474.09,1722.53Z"/><path class="cls-2" d="M1437.07,1911.08c-119.75,0-229.8-28.06-287.2-73.25a17.26,17.26,0,0,1-6.31-16.62c14.2-78.75,153-135.91,330-135.91,119.73.55,229.72,28.6,287.12,73.17a17.28,17.28,0,0,1,6.4,16.7C1752.84,1853.92,1614.07,1911.08,1437.07,1911.08Zm-256.51-93.56c53.94,36.61,150.55,59,256.51,59,160,0,271.74-48.94,293-97.63-54-36.16-150.66-58.62-256.57-59.11C1313.45,1719.82,1201.68,1768.81,1180.56,1817.52Z"/><path class="cls-10" d="M1745,1773.25c-54.41,23-71.8-20.75-113.31-3.36s-35.89,91.43-113.3,104.33c-77.4,11.78-139.66-44.88-181.73-44.88s-62.26,74-141.35,74-97.6-67.31-138-72.91c-40.39-5-68.43,69-144.72,41.5-75.16-27.48-77.4-76.28-115.54-94.79s-79.65,53.29-142.47-18.51c-22.21-25.35-21.26-60.07-10.66-94.46,1.79-5.94,3.93-11.94,6.28-17.83,22.33-56.09,64.39-106.46,64.39-106.46l953,15.7c62,36.46,94.91,79.59,107.3,118.07a119.12,119.12,0,0,1,5.84,32.2C1782,1738.2,1767.71,1763.66,1745,1773.25Z"/><g class="cls-9"><path class="cls-3" d="M1774.89,1673.69c-513.78,235.84-960.6,83.86-1130.95-9.48,1.79-5.94,3.93-11.94,6.28-17.83,22.33-56.09,64.39-106.46,64.39-106.46l953,15.7C1729.57,1592.08,1762.5,1635.21,1774.89,1673.69Z"/></g><g class="cls-4"><path class="cls-2" d="M1779.06,1727.58a89,89,0,0,1-27.17,14.33c-22.88,7.24-47.62,4-71.62,4.83A206.2,206.2,0,0,0,1575,1780.11c-19.8,12.9-37.58,29.39-59.4,38.48-72.8,30.29-159.24-31.13-232.83-2.92-27.43,10.54-50.7,32.93-80,35.28-26.64,2.13-51.09-13-75.72-23.33a224,224,0,0,0-127.94-13.24c-28,5.39-57,16.21-84.3,7.91-31.64-9.54-51.33-41.85-81.45-55.36-35-15.71-76.67-3.09-113.69-13.35-22.21-6.12-41-21.54-53.18-40.89-5.94-9.43-9.14-33.49-16.32-45.83-6.62,16.66-11.45,33.81-13,50.32a119.13,119.13,0,0,1,2.09-34.86c-5.57,28.17-3.05,55.44,15.26,76.35,62.82,71.8,104.33,0,142.47,18.51s40.38,67.31,115.54,94.79c76.28,27.49,104.33-46.55,144.72-41.5,40.38,5.6,58.89,72.91,138,72.91s99.28-74,141.35-74S1441,1886,1518.39,1874.22c77.41-12.9,71.8-86.94,113.3-104.33s58.9,26.36,113.31,3.36c20-8.45,33.43-29.23,35.5-56.14A89.2,89.2,0,0,1,1779.06,1727.58Z"/></g><path class="cls-2" d="M1195.33,1920.62c-54.54,0-84.79-28.79-106.89-49.82-12.29-11.69-22.91-21.79-33.47-23.26-8.82-1.14-20,7-32.89,16.47-25.44,18.57-60.29,44-115.3,24.18-49.89-18.24-71-45.32-87.89-67.07-9.91-12.74-17.73-22.8-29.34-28.44-7.08-3.42-16.37-.21-31,5.31-27.66,10.46-69.48,26.27-117-28-71.71-82,54.36-234.72,59.77-241.19a16.93,16.93,0,0,1,13.53-6.19l953,15.71a17.26,17.26,0,0,1,8.46,2.38c80.25,47.17,125.68,113.09,121.51,176.35-2.22,33.85-19.47,60.79-46.13,72.06-35.32,14.93-58.7,6.39-77.49-.49-15-5.48-23.37-8.08-35.86-2.86-11.22,4.7-18.31,17.34-27.3,33.34-14.94,26.6-35.4,63-89.84,72.1-52.53,8-97.5-11.84-133.63-27.78-19.66-8.67-38.23-16.86-50.94-16.86-10.32,0-20.29,9-35.71,23.65C1278.59,1891.49,1248,1920.62,1195.33,1920.62Zm-142.07-107.7a49.31,49.31,0,0,1,6.23.4c21.79,3,37.52,18,52.74,32.47,20.83,19.82,42.36,40.31,83.1,40.31,38.83,0,60.7-20.79,81.84-40.89,17.14-16.3,34.87-33.15,59.5-33.15,20,0,40.79,9.17,64.87,19.79,33.71,14.87,71.92,31.74,114.27,25.28,37.87-6.32,51.13-29.93,65.17-54.92,10.76-19.16,21.89-39,44.06-48.27,25.57-10.71,45.26-3.5,61.07,2.28,16.4,6,29.36,10.75,52.18,1.11,14.38-6.08,23.77-22,25.13-42.53,2.5-38-22.76-94.87-100.7-142l-940-15.49c-33.46,42.41-96.39,142.85-55.15,190,31.7,36.23,52.48,28.36,78.76,18.42,17.56-6.64,37.46-14.17,58.26-4.07,18.84,9.14,30.37,24,41.52,38.29,15.69,20.16,31.91,41,72.42,55.82,37.68,13.57,59.78-2.54,83.17-19.61C1017.39,1824.7,1033.53,1812.92,1053.26,1812.92Z"/><path class="cls-11" d="M652.37,1526.43c0-130.69,250.72-235.58,561.47-235.58,309.61,0,561.46,104.89,561.46,235.58S1524.58,1762,1213.84,1762,652.37,1657.12,652.37,1526.43Z"/><path class="cls-2" d="M1213.84,1779.27c-324.52,0-578.73-111.06-578.73-252.84s254.21-252.84,578.73-252.84,578.72,111.06,578.72,252.84S1538.35,1779.27,1213.84,1779.27Zm0-471.16c-148.14,0-286.85,24-390.59,67.44-97.63,40.92-153.62,95.92-153.62,150.88s56,110,153.62,150.88c103.74,43.49,242.46,67.44,390.59,67.44s286.84-24,390.58-67.44c97.63-40.92,153.62-95.92,153.62-150.88C1758,1408.09,1508.83,1308.11,1213.84,1308.11Z"/><path class="cls-12" d="M1672.64,1450.17s-102.48,136-252.3,219.88c-66.86,37.47-143.08,64.5-223.91,64.5-84,0-158.79-28.55-221.56-67.31-132.87-82-212-209.78-212-209.78Z"/><g class="cls-4"><path class="cls-2" d="M1672.64,1437.32s-102.48,136-252.3,219.87c-171.46,18.12-322.46,12.17-445.47-2.8-132.87-82-212-209.78-212-209.78Z"/></g><path class="cls-2" d="M1196.45,1751.79c-268.47,0-441-273.61-448.25-285.26L732,1440.42l975.46-7.81-21,27.92C1677.48,1472.43,1463.92,1751.79,1196.45,1751.79ZM795.68,1474.44c49.85,67.55,198.68,242.83,400.77,242.83s378-179.13,439.3-249.57Z"/><path class="cls-7" d="M615.35,1368.26c-4.49-139.11,268.11-251.85,599.61-251.85,330.37,0,599.6,112.18,599.6,251.85-1.12,185.66-268.11,251.84-599.6,251.84C882.9,1620.1,620.4,1556.16,615.35,1368.26Z"/><g class="cls-4"><path class="cls-2" d="M1808.42,1356c-1.12,185.66-268.11,251.85-599.6,251.85-332.06,0-594.56-63.95-599.61-251.85-.67-20.14,4.49-39.66,14.81-58.39,65.85,129.79,298.17,176.18,580.93,176.18,285.5,0,523.15-49.08,584.29-181.34C1801.75,1312.7,1808.42,1334,1808.42,1356Z"/></g><g class="cls-9"><path class="cls-3" d="M627.33,1386.37c27.43-127,286.46-226.12,597.26-226.12,312.33,0,570,100.27,597.19,229.23a181,181,0,0,0,2.42-28.43c0-139.66-269.24-251.84-599.61-251.84C893.1,1109.21,620.5,1222,625,1361.05A191.88,191.88,0,0,0,627.33,1386.37Z"/></g><path class="cls-2" d="M1215,1637.36c-181.87,0-326-19-428.37-56.51C664.11,1536,600.7,1464.64,598.1,1368.78c-1.21-37.86,14.79-74.21,47.57-108.06,95-98.15,318.49-161.57,569.29-161.57,345.9,0,616.86,118.21,616.86,269.11-.57,95.16-63.56,166.36-187.22,211.74C1540.89,1618.07,1396.34,1637.36,1215,1637.36Zm0-503.69c-238.19,0-457,60.71-544.49,151.06-26,26.89-38.78,54.8-37.87,83v.09c5.22,194.27,319.56,235,582.35,235,217,0,581.11-30.49,582.34-234.69C1797.3,1241.1,1530.62,1133.67,1215,1133.67Z"/><g class="cls-4"><ellipse class="cls-2" cx="1204.24" cy="1216.03" rx="33.47" ry="12.73"/></g><g class="cls-4"><ellipse class="cls-2" cx="1062.12" cy="1251.39" rx="33.47" ry="12.73"/></g><g class="cls-4"><ellipse class="cls-2" cx="1207.47" cy="1282.38" rx="33.47" ry="12.73"/></g><g class="cls-4"><ellipse class="cls-2" cx="1324.61" cy="1328.64" rx="33.47" ry="12.73"/></g><g class="cls-4"><ellipse class="cls-2" cx="1062.12" cy="1338.89" rx="33.47" ry="12.73"/></g><g class="cls-4"><ellipse class="cls-2" cx="1375.67" cy="1251.39" rx="33.47" ry="12.73"/></g><g class="cls-4"><path class="cls-2" d="M839.08,1926.64c-73.75,24.61-111.17,43.34-144.85,61.87-21.88-27.68-34.35-60.19-35.7-98.07-2.69-90.12,117.55-168,294.36-207.63C977.63,1776.76,941.17,1892.58,839.08,1926.64Z"/></g><g class="cls-4"><path class="cls-2" d="M1781.45,1890.44c-.25,41.08-14.4,75.89-39.94,105.12-37.46-20.91-74.41-41.2-157.53-68.92-103.23-34.43-139.34-152.53-113-247C1655,1718.13,1781.45,1797.8,1781.45,1890.44Z"/></g><path class="cls-3" d="M500.29,1550.07c-39.45,66.93-66.07,135.69-72.71,204.06-19.19,256.66,184.93,262.41,271.07,197.69,59.72-44.87,79-73.43,188.77-134.69,140.47-78.39,102.85-309.17-33.78-354.71-68.5-21.52-149.58,8.74-253.69,133.78-21.07,25.3-56.35,72.13-69.62,19.78"/><path class="cls-2" d="M589.18,2003.82c-29.26,0-59.16-6.38-86.46-21.31-48-26.26-103-87.42-92.36-229.66,6.51-67,31.75-138.07,75.06-211.55a17.26,17.26,0,0,1,29.74,17.53c-40.73,69.11-64.42,135.38-70.41,197-7.29,97.7,18.47,165.75,74.54,196.42,56.41,30.86,129.18,15.72,169-14.2,16.93-12.72,30.78-24.3,44.17-35.5,34.53-28.87,67.14-56.15,146.56-100.46,56.28-31.41,85.79-93.67,78.94-166.56-7-74.17-51.08-137.14-109.77-156.7-68.16-21.42-145.13,20.55-235,128.45l-3.61,4.36c-18.5,22.43-41.55,50.33-66.93,44.66-14-3.15-23.81-15.27-29.07-36a17.26,17.26,0,1,1,33.45-8.49,38.88,38.88,0,0,0,3.8,10.23c8.52-3.71,25.46-24.26,32.12-32.33l3.71-4.48c99.79-119.85,188.8-165.38,272.13-139.2,72.86,24.28,125.16,97.37,133.51,186.31,8.17,86.92-27.91,161.66-96.49,199.93-76.58,42.74-108,69-141.24,96.81-13.73,11.48-27.92,23.35-45.57,36.61C678.78,1988.34,634.75,2003.82,589.18,2003.82Z"/><path class="cls-3" d="M1937.31,1550.07c39.45,66.93,66.07,135.69,72.71,204.06,19.19,256.66-184.93,262.41-271.07,197.69-59.72-44.87-79-73.43-188.77-134.69-140.47-78.39-102.85-309.17,33.78-354.71,68.5-21.52,149.58,8.74,253.69,133.78,21.07,25.3,56.35,72.13,69.62,19.78"/><g class="cls-4"><path class="cls-2" d="M1739,1951.8c-59.72-44.85-79-73.41-188.78-134.69-45.44-25.32-72.23-66.6-83.07-112.38,13.82,23.48,34,41.66,61.49,51.49,73.75,26.42,151.15,54.34,210.36,82.23,128.39,60.39,248.16,60.73,269.46-98,.63,4.53,1.13,9.11,1.59,13.69C2029.19,2010.81,1825.09,2016.52,1739,1951.8Z"/></g><g class="cls-4"><path class="cls-2" d="M698.63,1951.8c59.72-44.85,79-73.41,188.78-134.69,45.44-25.32,72.23-66.6,83.07-112.38-13.82,23.48-34,41.66-61.49,51.49-73.74,26.42-151.15,54.34-210.36,82.23-128.39,60.39-248.16,60.73-269.46-98-.63,4.53-1.13,9.11-1.59,13.69C408.39,2010.81,612.49,2016.52,698.63,1951.8Z"/></g><path class="cls-2" d="M1848.42,2003.82c-45.58,0-89.59-15.48-119.84-38.2-17.65-13.26-31.85-25.13-45.58-36.62-33.25-27.8-64.65-54.06-141.23-96.8-68.58-38.27-104.65-113-96.49-199.93,8.35-88.94,60.65-162,133.22-186.22,83.63-26.27,172.63,19.26,272.42,139.11l3.71,4.48c6.66,8.07,23.6,28.62,32.12,32.33a39.26,39.26,0,0,0,3.8-10.23,17.26,17.26,0,1,1,33.45,8.49c-5.26,20.77-15,32.89-29.07,36-25.48,5.7-48.43-22.23-66.93-44.66l-3.61-4.36c-89.83-107.88-166.76-149.89-235.25-128.36-58.41,19.47-102.53,82.44-109.49,156.61-6.85,72.89,22.67,135.15,78.95,166.56,79.41,44.31,112,71.59,146.55,100.46,13.39,11.2,27.24,22.78,44.16,35.5,39.82,29.91,112.59,45.06,169,14.2,56.06-30.67,81.82-98.72,74.49-196.8-6-61.2-29.64-127.47-70.37-196.59a17.26,17.26,0,0,1,29.75-17.52c43.3,73.48,68.54,144.52,75,211.15,10.67,142.63-44.32,203.79-92.31,230C1907.58,1997.44,1877.68,2003.82,1848.42,2003.82Z"/><path class="cls-2" d="M1883.19,1995.92a12.94,12.94,0,0,1-9.22-22c109.86-111.59,3.79-326.17,2.71-328.33a12.94,12.94,0,0,1,23.12-11.65c4.77,9.47,115.52,233.31-7.38,358.15A12.93,12.93,0,0,1,1883.19,1995.92Z"/><path class="cls-2" d="M552,1995.92a12.91,12.91,0,0,1-9.22-3.86c-122.91-124.84-12.16-348.68-7.39-358.15a12.94,12.94,0,0,1,23.12,11.65c-1.08,2.16-107.14,216.74,2.71,328.33a12.94,12.94,0,0,1-9.22,22Z"/><path class="cls-3" d="M885.74,2237.76c-76.27-277.22-247.66-268.29-311.64-233.1-37.32,20.53-80.67,51-110.57,124.27C413.34,1947,169.34,1967,160.3,2214.5c-5.32,145.67,47,250.07,85,296.32,37.55,45.7,65.55,60.95,105.55,66,37,4.7,115.4-1.52,150.48-16.55,58.43-25,129.16-90.87,278.07-97.55,0,0,202.22,2.38,428,.9,225.74,1.48,428-.9,428-.9,148.9,6.68,219.63,72.51,278.06,97.55,35.08,15,113.46,21.25,150.48,16.55,40-5.08,68-20.33,105.55-66,38-46.25,90.33-150.65,85-296.32-9-247.51-253-267.53-303.24-85.57-29.9-73.23-73.24-103.74-110.57-124.27-64-35.19-235.37-44.12-311.63,233.1h0a31.09,31.09,0,0,1-31.09,31.09h-580a32.18,32.18,0,0,1-32.16-31.09Z"/><g class="cls-4"><path class="cls-2" d="M432.76,2070.27c-2.44-5.12-4-8.77-4.79-10.54C428.81,2061.5,430.45,2065.11,432.76,2070.27Z"/></g><g class="cls-4"><path class="cls-2" d="M1980.14,2070.27c2.31-5.16,3.95-8.77,4.79-10.54C1984.17,2061.5,1982.58,2065.15,1980.14,2070.27Z"/></g><g class="cls-4"><path class="cls-2" d="M2169.42,2510.82c-37.54,45.7-65.55,60.94-105.54,66-37,4.71-115.4-1.51-150.47-16.54-58.46-25-129.18-90.88-278.06-97.56,0,0-202.26,2.39-428,.92-225.73,1.47-427.95-.92-427.95-.92-148.92,6.68-219.65,72.53-278.06,97.56-35.07,15-113.48,21.25-150.48,16.54-40-5.08-68-20.32-105.54-66-38-46.23-90.33-150.64-85-296.33a345.21,345.21,0,0,1,3.28-36.87c12,102.26,51.4,176.18,81.72,213.05,37.55,45.69,65.52,60.94,105.54,66l1.13.13c114.91,15,190.42-74,146.32-181.22-32.67-79.25-44.6-138.8-34.77-146.66,18.31-14.74,102.22,208.86,234.85,203.23,175-7.43,167.73-154.55,167.73-154.55a249.25,249.25,0,0,1,20.33,32c44.9,82.48,130.57,134.52,224.48,134.27,31.28,0,63.58-.21,96.42-.42,37.23.24,73.81.38,109,.45,86.59.16,166.61-47.94,205.43-125.35,12.6-25.12,25-41,25-41s-7.26,147.12,167.74,154.55c132.63,5.63,157.66-179,251.79-242.18-20.35,13.66-24.64,93.67-49.66,177.22-27.72,92.57,39.39,187.53,136,189.89a76.83,76.83,0,0,0,11.25-.41c40-5.08,68-20.33,105.54-66,30.33-36.87,69.72-110.79,81.73-213.05a347.82,347.82,0,0,1,3.28,36.87C2259.76,2360.18,2207.43,2464.59,2169.42,2510.82Z"/></g><path class="cls-2" d="M483.49,2268.43,466.15,2200c-2.85-11.22-6.1-22.26-8.77-33.32s-5.51-22-7-33.38l-.07-.54a15.47,15.47,0,0,1,29.54-8.19A157,157,0,0,1,490,2159.75a247.13,247.13,0,0,1,3.58,36.28,333.51,333.51,0,0,1-.56,36.33,239.5,239.5,0,0,1-5.12,36.07,2.25,2.25,0,0,1-4.37.05Z"/><path class="cls-2" d="M416.25,2594.19a17.45,17.45,0,1,1,4.66-.65A17.26,17.26,0,0,1,416.25,2594.19Z"/><path class="cls-2" d="M1926.84,2268.43a240.79,240.79,0,0,1-5.12-36.07,338.63,338.63,0,0,1-.56-36.33,248.5,248.5,0,0,1,3.58-36.28,157.5,157.5,0,0,1,10.18-35.19,15.47,15.47,0,0,1,29.54,8.18l-.08.55c-1.53,11.37-4.45,22.26-7,33.38s-5.93,22.1-8.77,33.32l-17.35,68.44v0a2.25,2.25,0,0,1-4.38,0Z"/><path class="cls-2" d="M1523.44,2236.24c9.53-51.21,25.85-102.11,53.55-148.35,3.47-5.76,7.3-11.33,11-17,4-5.49,7.92-11,12.12-16.38,8.73-10.46,17.8-20.78,28.15-30,5-4.81,10.48-9.06,15.88-13.42,2.74-2.15,5.68-4,8.52-6.07s5.73-4,8.77-5.75a202.62,202.62,0,0,1,37.85-18.58,194.26,194.26,0,0,1,83.79-11.46,184.78,184.78,0,0,1,42,8.62,151.87,151.87,0,0,1,20.32,8.46c3.49,1.73,6.41,3.39,9.3,5s5.86,3.45,8.79,5.16c23.45,14,45.59,32.4,63.07,54.23s30.87,46.3,41.09,71.47l-33.57,2c5.72-19.57,13.72-38.75,24.88-56.33a171.34,171.34,0,0,1,42.36-46.12,155.9,155.9,0,0,1,57.38-26.73,150.24,150.24,0,0,1,63.43-1.16,159.22,159.22,0,0,1,58.13,24.55,182.51,182.51,0,0,1,44.61,43.47c12.25,16.69,21.37,35.19,28.46,54.12,1.61,4.78,3.67,9.46,4.91,14.33l4.05,14.54c1.28,4.85,2.08,9.78,3.14,14.67a149.38,149.38,0,0,1,2.54,14.74l2,14.78c.49,4.94.72,9.87,1.09,14.81.89,9.93.74,19.58.91,29.33a577.16,577.16,0,0,1-2.75,58.33,524.29,524.29,0,0,1-24.78,114.3c-13,37-29.69,72.79-53.39,105.3-3.05,4-6.19,8.1-9.33,11.94s-6.3,7.55-9.68,11.23a247.08,247.08,0,0,1-21.36,21.47,168.2,168.2,0,0,1-25.32,18.75,136.79,136.79,0,0,1-29.48,13.14,174,174,0,0,1-30.74,6.41,256.82,256.82,0,0,1-30.31,1.55,500.61,500.61,0,0,1-58.57-3.57c-9.72-1.23-19.42-2.56-29.19-4.5a235.46,235.46,0,0,1-29.58-7.39,124,124,0,0,1-14.85-5.84c-4.64-2.12-9.24-4.26-13.54-6.58-4.45-2.26-8.74-4.57-12.92-6.92l-12.53-7c-16.49-9.39-32.55-18.53-48.91-26.81a477.55,477.55,0,0,0-50-21.77,427.76,427.76,0,0,0-105.94-23.49c-9-.52-17.68-1.51-27-1.7l-28.3.06-56.59.12-113.17.24-226.36.48L981,2480.44l-113.18-.24-56.59-.12L783,2480c-9.28.19-18,1.18-27,1.7a427.68,427.68,0,0,0-105.93,23.49A477.71,477.71,0,0,0,600,2527c-16.36,8.28-32.41,17.42-48.91,26.81l-12.52,7q-6.27,3.53-12.92,6.92c-4.31,2.32-8.9,4.46-13.54,6.58a124.63,124.63,0,0,1-14.85,5.84,235.6,235.6,0,0,1-29.59,7.39c-9.76,1.94-19.46,3.27-29.18,4.5a500.61,500.61,0,0,1-58.57,3.57,256.71,256.71,0,0,1-30.31-1.55,174.29,174.29,0,0,1-30.75-6.41,136.71,136.71,0,0,1-29.47-13.14,168.2,168.2,0,0,1-25.32-18.75,248.64,248.64,0,0,1-21.37-21.47c-3.37-3.68-6.49-7.47-9.68-11.23s-6.28-7.94-9.33-11.94c-23.7-32.51-40.37-68.35-53.39-105.3a523.69,523.69,0,0,1-24.77-114.3,577.17,577.17,0,0,1-2.76-58.33c.17-9.75,0-19.4.92-29.33.36-4.94.59-9.87,1.08-14.81l2-14.78a149.42,149.42,0,0,1,2.55-14.74c1.05-4.89,1.86-9.82,3.14-14.67l4.05-14.54c1.23-4.87,3.29-9.55,4.91-14.33,7.09-18.93,16.21-37.43,28.46-54.12a182.3,182.3,0,0,1,44.6-43.47,159.26,159.26,0,0,1,58.14-24.55A150.25,150.25,0,0,1,356,1995a154.49,154.49,0,0,1,57.3,26.82A171.2,171.2,0,0,1,455.53,2068a217.89,217.89,0,0,1,24.64,56.32l-32.62-1.94c10.35-25.07,23.74-49.44,41.38-71s39.58-39.82,62.95-53.8c2.92-1.7,5.82-3.55,8.75-5.17s5.78-3.32,9.22-5a152,152,0,0,1,20.15-8.47,185.69,185.69,0,0,1,41.78-8.74,195.12,195.12,0,0,1,83.84,10.21,203.56,203.56,0,0,1,38.2,18.14c3.08,1.72,6,3.66,8.89,5.66s5.85,3.87,8.64,6c5.5,4.3,11.07,8.55,16.1,13.32a275.65,275.65,0,0,1,51.9,63.39c28,46.36,44.18,97.7,51.94,149.4a5.8,5.8,0,0,1-11,3.17l0-.12c-10.28-23.7-20.23-47.12-31.44-69.71a516.51,516.51,0,0,0-37.57-64.44c-3.49-5-7.35-9.8-10.87-14.79-3.82-4.73-7.63-9.47-11.56-14.06-8.16-8.89-16.38-17.7-25.51-25.32-18-15.55-38.07-28.24-60-36a160.54,160.54,0,0,0-68.37-9.63,150.23,150.23,0,0,0-33.83,6.68,117.06,117.06,0,0,0-15.55,6.33c-2.35,1.12-5.06,2.62-7.79,4.16s-5.3,3-7.94,4.6c-20.84,12.51-39.1,27.73-54.14,46.15s-26.81,39.66-36.13,62.22l-18.92,45.79-13.7-47.72a183,183,0,0,0-20.56-47.07,136.66,136.66,0,0,0-33.66-37c-26.46-20-61-28.28-93.39-21.76s-61.49,26.85-81.5,54.46c-10.13,13.78-17.88,29.47-24,45.82-1.38,4.16-3.2,8.14-4.26,12.43L186,2153.18c-1.13,4.27-1.82,8.68-2.77,13a125.39,125.39,0,0,0-2.27,13.15l-1.77,13.28c-.44,4.45-.63,9-1,13.43-.83,8.88-.68,18.12-.85,27.25A543.27,543.27,0,0,0,179.9,2288,489.85,489.85,0,0,0,203,2394.62c12,34.18,27.66,67.48,48.55,96.06,2.69,3.49,5.28,6.9,8.11,10.36s5.79,6.95,8.8,10.22A215,215,0,0,0,287,2529.92c12.85,11.47,26.64,20,42.2,24.79a139.65,139.65,0,0,0,24.62,5.09,224,224,0,0,0,26.21,1.3,469.17,469.17,0,0,0,54.41-3.33c17.92-2.25,36.15-5.24,52.09-10.4A160.64,160.64,0,0,0,509.89,2537q6-3,12-6.45l12.17-6.83c16.31-9.28,33.07-18.84,50.4-27.6a510.17,510.17,0,0,1,53.76-23.39,462.27,462.27,0,0,1,114.58-25.43c9.83-.6,20-1.64,29.55-1.84l28.33.06,56.67.12,113.33.24,226.65.47,226.66-.47,113.33-.24,56.66-.12,28.33-.06c9.59.2,19.72,1.24,29.55,1.84a462.17,462.17,0,0,1,114.58,25.43,509.26,509.26,0,0,1,53.76,23.39c17.34,8.76,34.09,18.32,50.4,27.6l12.17,6.83q6.06,3.42,12,6.45a160.64,160.64,0,0,0,23.38,10.33c15.94,5.16,34.16,8.15,52.09,10.4a469,469,0,0,0,54.41,3.33,223.79,223.79,0,0,0,26.2-1.3,139.47,139.47,0,0,0,24.62-5.09c15.57-4.74,29.35-13.32,42.21-24.79a214.92,214.92,0,0,0,18.53-18.66c3-3.27,5.89-6.77,8.81-10.22s5.42-6.87,8.1-10.36c20.89-28.58,36.55-61.88,48.55-96.06A489.27,489.27,0,0,0,2234.82,2288a540.34,540.34,0,0,0,2.58-54.73c-.17-9.13,0-18.37-.84-27.25-.34-4.48-.54-9-1-13.43l-1.77-13.28a122.84,122.84,0,0,0-2.27-13.15c-.94-4.33-1.63-8.74-2.77-13l-3.55-12.74c-1.06-4.29-2.88-8.27-4.27-12.43-6.13-16.35-13.87-32-24-45.82-20-27.61-49-48.08-81.51-54.46s-67,1.71-93.31,21.85c-26.7,20-44.61,50.72-53.81,84.07l-13.63,49.4-19.94-47.41c-9.46-22.46-21.34-43.57-36.41-61.79a209.62,209.62,0,0,0-54-45.73c-2.64-1.53-5.18-3.13-7.9-4.61s-5.41-3-7.71-4.15a116,116,0,0,0-15.37-6.35,150.79,150.79,0,0,0-33.58-6.79,161.34,161.34,0,0,0-68.41,8.37c-22.07,7.48-42.54,19.86-60.79,35.32-9.29,7.55-17.66,16.34-25.84,25.32-4,4.59-7.9,9.29-11.8,14-3.64,5-7.46,9.77-11,14.84a465.45,465.45,0,0,0-37.55,64.84c-10.93,22.79-20.51,46.4-29.84,70.37l0,.09a5.77,5.77,0,0,1-11-3.14Z"/><path class="cls-13" d="M2169.42,2510.82c-37.54,45.7-65.55,60.94-105.54,66-16.46,2.1-41,2-66.39,0a.16.16,0,0,1-.09,0c-62.87-16.71-30.28-106.59-12.89-208.6,16-93.69-10.67-165.3,42.67-262.61,64.72-118.09,149-68.16,154.09-65.05a.67.67,0,0,1,.25.17c40.06,32.71,69.84,90.29,72.91,173.78C2259.76,2360.18,2207.43,2464.59,2169.42,2510.82Z"/><path class="cls-13" d="M416.42,2576.89h0c-25,2-49.27,2-65.52,0-40-5.08-68-20.32-105.54-66-38-46.23-90.33-150.64-85-296.33,3.07-84,33.18-141.74,73.62-174.37,0,0,.08,0,.13-.08,3.52-2.23,88.15-53.68,153.5,65.55,53.33,97.31,26.71,168.92,42.67,262.61C447.58,2470.17,479.2,2560.09,416.42,2576.89Z"/><g class="cls-5"><path class="cls-3" d="M387.57,2105.59c32.63,59.56,35.32,109.49,36.2,160.77-3.53-35.24-12.14-71.52-34.44-112.22-66.78-121.83-153.25-69.25-156.86-67,0,0-.08,0-.13.08C196.77,2116,169,2163.72,160,2231.33c0-5.54.13-11.17.34-16.84,3.07-84,33.18-141.74,73.62-174.37,0,0,.08,0,.13-.08C237.59,2037.81,322.22,1986.36,387.57,2105.59Z"/></g><path class="cls-13" d="M426.58,2340.27c-2.48-25.7-2.43-50-2.81-73.91C426.2,2291.14,426.16,2315.37,426.58,2340.27Z"/><g class="cls-4"><path class="cls-2" d="M416.42,2576.89h0c-25,2-49.27,2-65.52,0-40-5.08-68-20.32-105.54-66-21.16-25.74-46.78-69.54-64.38-128.46,2.86,3.9,5.67,7.55,8.4,10.87,37.54,45.7,65.36,62.34,105.54,66,72.09,6.61,123.68-60.73,132.58-110.79q1.08,9.7,2.78,19.74C447.58,2470.17,479.2,2560.09,416.42,2576.89Z"/></g><path class="cls-2" d="M412.82,2597.26l-8.3-7.82a17.24,17.24,0,0,1-5.36-13.79v-14.72l15.56-1.22.6-.05c33.6-2.66,63.2-8.35,79.2-15.22,13.47-5.77,27.85-14,44.52-23.49,51.94-29.64,123.08-70.23,239.59-75.46l.49,0h.49c2,0,204.65,2.37,427.63.92,223.21,1.45,425.88-.9,427.9-.92h.49l.49,0c116.44,5.23,187.58,45.81,239.52,75.44,16.69,9.51,31.1,17.73,44.56,23.5,16,6.85,45.35,12.52,78.57,15.16A17.26,17.26,0,0,1,1996,2594c-17.65-1.41-61.71-6-89.44-17.85-15.26-6.54-31.2-15.62-48.06-25.24-51.54-29.4-115.66-66-223.49-70.92-11.37.13-209.89,2.35-427.81.92-217.68,1.42-416.17-.79-427.54-.92-107.9,4.94-172,41.53-223.56,70.94-16.84,9.61-32.75,18.69-48,25.22-26.4,11.34-67.93,16-87.39,17.69Z"/><path class="cls-2" d="M234.08,2057.3a17.27,17.27,0,0,1-9.7-31.56,17.67,17.67,0,0,1,9.9-3.09,17.26,17.26,0,0,1,8.53,32.26q-.51.3-1,.57A17.37,17.37,0,0,1,234.08,2057.3Z"/><path class="cls-2" d="M2181.27,2057.8a17.18,17.18,0,0,1-12.21-5.06l11.49-11.49,8.54-16.13a19.44,19.44,0,0,1,4.38,3.21,17.27,17.27,0,0,1-12.2,29.47Z"/><g class="cls-5"><path class="cls-3" d="M2025.25,2105.59c-32.64,59.56-35.32,109.49-36.21,160.77,3.53-35.24,12.14-71.52,34.44-112.22,66.78-121.83,153.25-69.25,156.86-67,0,0,.09,0,.13.08,35.57,28.73,63.33,76.48,72.36,144.09,0-5.54-.13-11.17-.34-16.84-3.06-84-33.18-141.74-73.62-174.37,0,0-.08,0-.12-.08C2175.22,2037.81,2090.59,1986.36,2025.25,2105.59Z"/></g><g class="cls-4"><path class="cls-2" d="M1996.39,2576.89h0c25,2,49.26,2,65.51,0,40-5.08,68-20.32,105.54-66,21.17-25.74,46.79-69.54,64.38-128.46-2.85,3.9-5.67,7.55-8.4,10.87-37.54,45.7-65.36,62.34-105.54,66-72.09,6.61-123.68-60.73-132.58-110.79q-1.08,9.7-2.77,19.74C1965.23,2470.17,1933.61,2560.09,1996.39,2576.89Z"/></g><path class="cls-2" d="M2245.28,2163.16h-.73l-233-10.88a15.36,15.36,0,0,1,1.44-30.69l233,10.87a15.36,15.36,0,0,1-.71,30.71Z"/><path class="cls-2" d="M2254.61,2265.64l-.8,0-262.69-13.36a15.36,15.36,0,0,1,1.56-30.69l262.69,13.36a15.36,15.36,0,0,1-.76,30.71Z"/><path class="cls-2" d="M2239.66,2376.43l-.8,0-252.32-12.81a15.36,15.36,0,0,1,1.56-30.69l252.32,12.81a15.36,15.36,0,0,1-.76,30.71Z"/><path class="cls-2" d="M2191.4,2494.9l-.75,0-226-10.87a15.36,15.36,0,0,1,.72-30.71h.76l226,10.88a15.36,15.36,0,0,1-.73,30.71Z"/><path class="cls-2" d="M2034.31,2593.75c-11.57,0-24.3-.51-37.43-1.54h-6l-1.75-1.84c-60.51-19.6-45.6-93.59-29.84-171.83,3.45-17.13,7-34.85,10.1-52.92,5.34-31.32,5.75-60.72,6.14-89.15.75-54.74,1.53-111.36,38.21-178.26,24.84-45.33,55.64-73.13,91.53-82.62,40.32-10.66,73.86,6,82.37,10.86l2.16.7,2.15,2.22c47.28,39,74.92,104.51,77.86,184.56,5.14,140.46-42.34,250.51-88.49,306.65-38,46.26-69.3,65.64-115.47,71.5A254.94,254.94,0,0,1,2034.31,2593.75Zm-34-32.1c24.06,1.84,47,1.82,61.67-.05,33.22-4.22,58.3-15.12,95.61-60.53h0c14.71-17.89,87.76-115.77,81.53-286-2.62-71-26.23-128.44-66.51-161.81-4.37-2.52-29.53-15.85-59.48-7.94-27.43,7.25-51.8,30-72.44,67.68-33,60.2-33.69,110.58-34.43,163.92-.41,29.6-.83,60.21-6.56,93.88-3.16,18.53-6.78,36.48-10.27,53.83C1973.17,2505.1,1965.63,2551.46,2000.27,2561.65Z"/><path class="cls-2" d="M722.53,2481.52a12.94,12.94,0,0,1-10.42-20.61c.49-.68,51.27-72.56,35.73-209.26-9.76-85.93-45.12-152.65-99.55-187.86-36.08-23.34-76.51-29.62-113.84-17.69a12.94,12.94,0,0,1-7.88-24.66c44.2-14.12,93.69-6.61,135.78,20.61,61.06,39.5,100.56,112.9,111.22,206.68,16.77,147.55-38.25,224.32-40.6,227.52A12.94,12.94,0,0,1,722.53,2481.52Z"/><path class="cls-2" d="M1689.29,2481.52a12.91,12.91,0,0,1-10.44-5.27c-2.35-3.2-57.37-80-40.6-227.52,10.65-93.78,50.15-167.18,111.21-206.67,42.09-27.24,91.59-34.75,135.79-20.62a12.94,12.94,0,1,1-7.88,24.66c-37.34-11.93-77.76-5.65-113.85,17.69-54.43,35.21-89.79,101.93-99.55,187.86-15.63,137.57,35.22,208.55,35.74,209.26a12.94,12.94,0,0,1-10.42,20.61Z"/><path class="cls-2" d="M380.39,2593.74a257,257,0,0,1-31.46-1.66c-46.16-5.85-77.46-25.23-115.48-71.5-46.15-56.14-93.63-166.19-88.48-306.65,2.94-80.55,30.88-146.3,78.7-185.26l1.44-1.34,1.45-.71c6.25-3.78,40.05-22.41,82.2-11.5,36.14,9.35,67.19,37.31,92.28,83.09,36.67,66.9,37.45,123.51,38.21,178.25.39,28.43.8,57.83,6.13,89.16,3,17.4,6.35,34.48,9.62,51,16.07,81,31.23,157.49-34.61,175.11l-1.95.52H417C404.18,2593.24,391.74,2593.74,380.39,2593.74Zm36-16.85h0ZM242.31,2053.12c-40.39,33.38-64,90.8-66.64,161.93-6.23,170.25,66.81,268.13,81.52,286,37.32,45.42,62.4,56.32,95.61,60.53,14.59,1.85,37.28,1.88,60.93.08,34.82-10.47,27.31-57.51,11.13-139.08-3.31-16.73-6.74-34-9.77-51.82-5.74-33.68-6.16-64.29-6.57-93.89-.73-53.34-1.43-103.71-34.43-163.91-20.85-38.05-45.42-61-73-68.12-27.82-7.2-51.36,4.08-57.33,7.34l-.4.42Z"/><path class="cls-2" d="M169.51,2163.08a15.36,15.36,0,0,1-.71-30.71l232.87-10.92a15.36,15.36,0,1,1,1.44,30.69l-232.88,10.92C170,2163.08,169.74,2163.08,169.51,2163.08Z"/><path class="cls-2" d="M160.13,2265.55a15.36,15.36,0,0,1-.76-30.7l262.69-13.36a15.37,15.37,0,1,1,1.57,30.69l-262.7,13.35C160.66,2265.55,160.4,2265.55,160.13,2265.55Z"/><path class="cls-2" d="M175.05,2376.3a15.37,15.37,0,0,1-.77-30.71l252.36-12.81a15.36,15.36,0,1,1,1.56,30.69l-252.36,12.81C175.57,2376.3,175.31,2376.3,175.05,2376.3Z"/><path class="cls-2" d="M223.3,2494.82a15.36,15.36,0,0,1-.72-30.71l225.73-10.88a15.36,15.36,0,1,1,1.48,30.69L224.05,2494.8Z"/></g></g></svg>