<svg id="Layer_1" data-name="Layer 1" xmlns="http://www.w3.org/2000/svg" viewBox="0 0 558 558"><defs><style>.cls-1{fill:#fe8403;}</style></defs><title>logo</title><path class="cls-1" d="M798,483c0,154.09-124.91,279-279,279S240,637.09,240,483,364.91,204,519,204a277.59,277.59,0,0,1,154.8,46.86c4.64,3.1,9.2,6.33,13.64,9.7,7.19,5.46,14.13,11.26,20.74,17.39q6.39,5.87,12.35,12.13A277.91,277.91,0,0,1,798,483Z" transform="translate(-240 -204)"/><path d="M523.14,633.55c-59.75,0-116.18-24.44-158.89-68.81A236.73,236.73,0,0,1,298,399.67V389.08H748.28v10.59A236.77,236.77,0,0,1,682,564.74C639.32,609.11,582.89,633.55,523.14,633.55ZM318.66,410.27c5.33,112.37,95,202.09,204.48,202.09S722.3,522.64,727.63,410.27Z" transform="translate(-240 -204)"/><path d="M614.3,694.65H433.37V612.8H614.3ZM457.13,670.89H590.54V636.56H457.13Z" transform="translate(-240 -204)"/><path d="M720.53,290.08,657.37,410.32l-14.67-7.71L708.18,278Q714.57,283.82,720.53,290.08Z" transform="translate(-240 -204)"/><path d="M443.64,369.23l-9.5-10c25.95-24.61,23.94-33.53,23.28-35.07-1.32-3-7.3-4.81-12.57-6.38-7.84-2.32-16.72-5-19.45-13.62-3.64-11.52,6.54-25,33-43.63l8,11.29c-29.66,20.91-27.8,28.12-27.78,28.19.52,1.66,6.59,3.46,10.21,4.53,7.77,2.31,17.43,5.18,21.31,14.14C475.43,331,467,347.05,443.64,369.23Z" transform="translate(-240 -204)"/><path d="M507.18,369.23l-9.51-10c25.95-24.61,23.95-33.53,23.28-35.07-1.32-3-7.29-4.81-12.57-6.38-7.83-2.32-16.71-5-19.45-13.62-3.63-11.52,6.54-25,33-43.63l8,11.29c-29.66,20.91-27.81,28.12-27.78,28.19.52,1.66,6.58,3.46,10.21,4.53,7.76,2.31,17.43,5.18,21.3,14.14C539,331,530.56,347.05,507.18,369.23Z" transform="translate(-240 -204)"/><path d="M572.09,369.23l-9.5-10c25.95-24.61,23.94-33.53,23.28-35.07-1.32-3-7.3-4.81-12.57-6.38-7.84-2.32-16.72-5-19.45-13.62-3.64-11.52,6.54-25,33-43.63l8,11.29C565.14,292.71,567,299.92,567,300c.53,1.66,6.59,3.46,10.21,4.53,7.77,2.31,17.43,5.18,21.31,14.14C603.88,331,595.47,347.05,572.09,369.23Z" transform="translate(-240 -204)"/></svg>