<svg xmlns="http://www.w3.org/2000/svg" viewBox="0 0 424.76 693.53"><defs><style>.cls-1{fill:#84745a;}.cls-2{fill:#1c1c1c;}.cls-3{fill:#282424;}.cls-4{fill:#891515;}.cls-5{fill:#333131;}.cls-6{fill:#2b2626;}.cls-7{fill:#4c4545;}.cls-8{fill:#59b523;}.cls-9{fill:#bce233;}.cls-10{fill:#0b8444;}.cls-11{fill:#70ce34;}.cls-12{fill:#abc41a;}.cls-13{fill:#c3d329;}.cls-14{fill:#ffd008;}.cls-15{fill:#ffbf0b;}.cls-16{fill:#ffd527;}.cls-17{fill:#fcd21f;}.cls-18{fill:#efbd50;}.cls-19{fill:#f9a003;}.cls-20{fill:#ffda40;}.cls-21{fill:#ff812c;}.cls-22{fill:#f9aa38;}.cls-23{fill:#f95b15;}.cls-24{fill:#af5b22;}.cls-25{fill:#f9cb70;}.cls-26{fill:#cc6723;}.cls-27{fill:#e29437;}.cls-28{fill:#ffe7bd;}.cls-29{fill:#ffe269;}.cls-30{fill:#ffd97b;}</style></defs><title>pasta</title><g id="Layer_2" data-name="Layer 2"><g id="Layer_10" data-name="Layer 10"><path class="cls-1" d="M40.45,634.65c0-32.52,69.4-58.87,155-58.87s155,26.35,155,58.87-69.4,58.88-155,58.88S40.45,667.17,40.45,634.65Z"/></g><g id="Layer_2-2" data-name="Layer 2"><ellipse class="cls-2" cx="191.65" cy="601.64" rx="99.3" ry="37.82"/><path class="cls-3" d="M376.66,561.24c0,22.12-100.42,73.41-185,73.41-80.5,0-186-48.17-186-70.28s131.18-9.81,186-9.81S376.66,539.12,376.66,561.24Z"/><path class="cls-4" d="M380,548c0,38.82-85.07,70.29-190,70.29S0,586.84,0,548s85.07-70.29,190-70.29S380,509.2,380,548Z"/><ellipse class="cls-5" cx="190.02" cy="541.48" rx="190.02" ry="70.29"/><ellipse class="cls-5" cx="190.02" cy="541.48" rx="190.02" ry="70.29"/><path class="cls-2" d="M330,555c0,30.93-62.18,56-138.87,56S52.28,585.94,52.28,555s62.17-56,138.87-56S330,524.08,330,555Z"/></g><g id="Layer_3" data-name="Layer 3"><path class="cls-6" d="M424.76,17.73a3.27,3.27,0,0,1-3.09,3.44L106.64,38a3.26,3.26,0,0,1-3.43-3.09h0a3.27,3.27,0,0,1,3.09-3.44l315-16.83a3.28,3.28,0,0,1,3.44,3.09Z"/><path class="cls-7" d="M422.31,3a3.27,3.27,0,0,1-3,3.52L104.81,31.37a3.26,3.26,0,0,1-3.51-3h0a3.27,3.27,0,0,1,3-3.52L418.79,0a3.27,3.27,0,0,1,3.52,3Z"/></g><g id="Layer_7" data-name="Layer 7"><path class="cls-8" d="M301.35,565.47c1.7.44,2.91,1.34,3.18,2.59.5,2.32-2.44,4.93-6.57,5.83s-7.89-.26-8.4-2.58a3.17,3.17,0,0,1,.72-2.56c-1.27,1.14-1.93,2.42-1.66,3.63.55,2.56,5,3.77,9.95,2.69s8.5-4,7.94-6.58C306.15,566.82,304.1,565.72,301.35,565.47Z"/><path class="cls-9" d="M298.57,575.07c-4.75,1-9.05,0-9.86-2.41l0,.31c.56,2.56,5,3.77,10,2.7s8.5-4,7.94-6.58a1.84,1.84,0,0,0-.09-.25C306.74,571.31,303.29,574.05,298.57,575.07Z"/><path class="cls-8" d="M300.37,566.78A1.87,1.87,0,0,1,301.9,568c.25,1.12-1.17,2.38-3.17,2.82s-3.81-.13-4.06-1.25a1.57,1.57,0,0,1,.35-1.24,1.92,1.92,0,0,0-.8,1.76c.26,1.24,2.42,1.82,4.81,1.3s4.1-1.94,3.83-3.18C302.69,567.43,301.7,566.9,300.37,566.78Z"/><path class="cls-9" d="M299,571.42c-2.3.5-4.37,0-4.77-1.17,0,0,0,.11,0,.15.27,1.24,2.42,1.83,4.81,1.31s4.1-2,3.84-3.18l-.05-.12C303,569.6,301.31,570.92,299,571.42Z"/><path class="cls-8" d="M76.36,566.61c1.57.78,2.57,1.91,2.58,3.19,0,2.38-3.4,4.33-7.63,4.36s-7.66-1.88-7.68-4.26a3.13,3.13,0,0,1,1.23-2.36c-1.48.86-2.39,2-2.38,3.22,0,2.62,4.13,4.72,9.19,4.68s9.14-2.18,9.12-4.81C80.78,568.92,79,567.43,76.36,566.61Z"/><path class="cls-9" d="M71.67,575.44c-4.87,0-8.85-1.91-9.16-4.39,0,.1,0,.21,0,.31,0,2.62,4.14,4.72,9.19,4.69s9.14-2.19,9.13-4.81a2.34,2.34,0,0,0,0-.26C80.44,573.44,76.5,575.41,71.67,575.44Z"/><path class="cls-8" d="M75.13,567.69a1.88,1.88,0,0,1,1.25,1.54c0,1.15-1.64,2.09-3.69,2.11s-3.7-.91-3.71-2.06a1.53,1.53,0,0,1,.6-1.14,1.9,1.9,0,0,0-1.15,1.55c0,1.27,2,2.28,4.43,2.27s4.42-1.06,4.41-2.33C77.27,568.8,76.41,568.08,75.13,567.69Z"/><path class="cls-9" d="M72.86,572c-2.34,0-4.27-.93-4.42-2.13,0,.06,0,.11,0,.16,0,1.26,2,2.28,4.44,2.26s4.41-1.06,4.41-2.32a.69.69,0,0,1,0-.13C77.1,571,75.2,571.94,72.86,572Z"/><path class="cls-10" d="M160.61,593.9c.5.27.78.63.73,1-.09.7-1.33,1.18-2.77,1.08s-2.52-.75-2.42-1.45a1,1,0,0,1,.52-.66c-.54.21-.89.52-.94.88-.11.77,1.19,1.49,2.91,1.61s3.19-.4,3.29-1.17C162,594.69,161.47,594.21,160.61,593.9Z"/><path class="cls-9" d="M158.64,596.36c-1.65-.12-2.92-.79-2.92-1.52a.29.29,0,0,1,0,.09c-.11.76,1.2,1.49,2.91,1.61s3.19-.4,3.3-1.17v-.08C161.69,596,160.28,596.48,158.64,596.36Z"/><path class="cls-11" d="M209.23,599.65c.35.25.53.54.44.83-.16.54-1.2.84-2.31.66s-1.87-.76-1.7-1.29a.87.87,0,0,1,.49-.49,1.18,1.18,0,0,0-.86.63c-.18.59.74,1.25,2.07,1.46s2.55-.1,2.74-.7C210.22,600.36,209.86,600,209.23,599.65Z"/><path class="cls-9" d="M207.36,601.45c-1.27-.2-2.18-.82-2.08-1.39l0,.07c-.18.59.74,1.24,2.07,1.46s2.55-.11,2.74-.7v-.06C209.8,601.37,208.63,601.65,207.36,601.45Z"/><path class="cls-12" d="M114.14,582.31c-3.51-.18-6.45,1.26-6.55,3.22s2.66,3.7,6.18,3.88,6.45-1.25,6.55-3.21S117.66,582.5,114.14,582.31Zm-.32,6.18c-3.2-.17-5.73-1.62-5.64-3.24s2.75-2.78,5.95-2.61,5.72,1.61,5.64,3.23S117,588.66,113.82,588.49Z"/><path class="cls-13" d="M175.54,598.21c-1.83.16-3.24,1.12-3.15,2.14s1.65,1.72,3.48,1.55,3.24-1.11,3.15-2.14S177.37,598.05,175.54,598.21Zm.29,3.21c-1.67.15-3.08-.41-3.16-1.25s1.22-1.64,2.89-1.79,3.07.41,3.15,1.25S177.49,601.28,175.83,601.42Z"/></g><g id="Layer_4" data-name="Layer 4"><path class="cls-14" d="M252.54,508.38l-.95-.05a55.89,55.89,0,0,0-7.36-.93,130.45,130.45,0,0,0,7.9-18.63c12.26-37.6-30.65-96-42.09-120.55s-16.35-74.37,1.63-144.66S222.85,41.85,196.42,26.32l-86.9,3.82s13.34.27,13.34,20.43S129.68,117.86,97,202.86s-1.09,118.23,16.89,157.46,22.34,88.81-.54,120.41-72.47,89.9-2.72,101.89l35.27,5s95.76,28.47,146.43-8.31C292.31,579.35,342.85,520.23,252.54,508.38Z"/></g><g id="Layer_5" data-name="Layer 5"><path class="cls-15" d="M196.42,26.32h-.11c16.15,34.91,22.3,71.59,25.4,109C221.89,83.76,213,36.09,196.42,26.32Z"/><path class="cls-15" d="M218.45,383.88c-3-5.35-5.72-10.14-7.67-14.13a283,283,0,0,0,9.86,28.57.68.68,0,0,1,0,.14c11.45,32.69,24.52,63.75,18,98.07-1.93,12.54-7.84,23.37-13,34.51,5.66-8.47,13-16.49,18.81-24a130.75,130.75,0,0,0,7.7-18.22C262.25,457.73,234.78,412.51,218.45,383.88Z"/><path class="cls-16" d="M220.66,398.46a.51.51,0,0,0,0-.13,284,284,0,0,1-9.86-28.58c-.26-.52-.51-1-.74-1.53a97.91,97.91,0,0,1-6.7-21.11c2.63,16.22,9.06,32,12.87,47.66,17.54,47.09,34,93.9,2.82,142.63-5.26,8.26-5.33,16.87-1.81,23.6-2.15-10.55,2.1-20.54,8.4-30,5.19-11.14,11.1-22,13-34.51C245.18,462.21,232.11,431.15,220.66,398.46Z"/><path class="cls-17" d="M210.86,581.53c-13.08-19.62,0-42.5,8.17-62.12,3.3-9.88,5.85-19.78,6.67-30.16-.45,3-1,6-1.76,8.91-6.54,27.79-34.33,53.95-22.89,85,2.85,7.12,7.16,11.82,12.48,14.88,4.56.14,9.19.14,13.86,0A63.07,63.07,0,0,1,210.86,581.53Z"/><path class="cls-14" d="M211.23,411c-5-13.21-11.9-25.65-16.72-39,2.2,7.94,4.94,15.76,7.78,23.54,10.55,28.94,22.52,57.4,13.47,89.58-8.17,22.88-21.25,42.5-31.06,65.38-8.17,18,1.64,37.6,18,45.77.89.49,1.81,1,2.73,1.43,2.67.16,5.38.29,8.12.37-5.32-3.06-9.63-7.76-12.48-14.88-11.44-31,16.35-57.21,22.89-85C231,470,224.65,438.11,211.23,411Z"/><path class="cls-18" d="M244.43,507c-.11.14-.22.27-.32.41h.12Z"/><path class="cls-19" d="M258.26,563.55c-4-8.09-13.65-11.72-22.39-10,3.2,9.12,11.54,16.76,20.92,20.66C259.8,571.17,259.53,567.36,258.26,563.55Z"/><path class="cls-14" d="M234.08,546.91a24.75,24.75,0,0,0,1.3,5.2c.14.49.32,1,.49,1.45,8.74-1.73,18.35,1.9,22.39,10,1.27,3.81,1.54,7.62-1.47,10.67a36.72,36.72,0,0,0,9.09,2.53c.81-.89,1.5-1.76,2.19-1.76C271.22,556.09,251.6,544.78,234.08,546.91Z"/><path class="cls-17" d="M234.11,537.31a39.05,39.05,0,0,0,0,9.6c17.52-2.13,37.14,9.18,34,28.08-.69,0-1.38.87-2.19,1.76a28.46,28.46,0,0,0,6.57.18c0-.11.06-.22.1-.34a13.6,13.6,0,0,1-6.12,0,13.6,13.6,0,0,0,6.12,0C279.68,553.66,254.11,537.78,234.11,537.31Z"/><path class="cls-15" d="M237.69,526.87c-.63-.06-1.27-.11-1.89-.13-.63,3.57-1.3,7.1-1.69,10.57,20,.47,45.57,16.35,38.44,39.28,10.08-2.65,9.28-19.37,3.69-27.75-9.54-12.73-22.78-22.94-38.55-22"/><path class="cls-14" d="M237.67,515.36l-.51.63a90.23,90.23,0,0,1-1.36,10.75c.62,0,1.26.07,1.89.13,15.77-1,29,9.24,38.55,22,5.59,8.38,6.39,25.1-3.69,27.75,0,.12-.07.23-.1.34a23.45,23.45,0,0,0,2.79-.42,23.76,23.76,0,0,0,9.17-9.69c.15-.44.25-.87.38-1.3C287.2,539.16,261.85,521.19,237.67,515.36Z"/><path class="cls-15" d="M241.73,510.38c-1.32,1.64-2.68,3.3-4.06,5,24.18,5.83,49.53,23.8,47.12,50.16C294.17,533.36,266.36,519.88,241.73,510.38Z"/><path class="cls-14" d="M284.79,565.52c-.13.43-.23.86-.38,1.3a23.76,23.76,0,0,1-9.17,9.69c6.83-1.48,12.68-6,15.71-14.6,10.15-25.37-10.23-46.8-33.62-52.83-1.56-.25-3.14-.48-4.79-.7l-.95-.05a55.89,55.89,0,0,0-7.36-.93h-.12c-.77,1-1.58,2-2.38,3,24.63,9.5,52.44,23,43.06,55.14"/><path class="cls-20" d="M275.24,576.51c-15.24,3.3-35.35-8.6-39.86-24.4-4.2-11.19,1.16-23.57,1.78-36.12-1.23,1.49-2.46,3-3.69,4.52-8.26,20.27-8.52,43.67,8.44,56.12,21.25,13.07,54,4.9,60.48-19.62,3.08-10.23,1-23-5.36-32.37-7.36-6.76-19.78-12.39-39.7-15.56,23.39,6,43.77,27.46,33.62,52.83-3,8.6-8.88,13.12-15.71,14.6"/><path class="cls-14" d="M297,524.64c6.38,9.34,8.44,22.14,5.36,32.37-6.53,24.52-39.23,32.69-60.48,19.62-17-12.45-16.7-35.85-8.44-56.12-12,15-23,31.48-12.81,49.57,10.62,13.52,28.08,20.19,46.32,21.71a88.29,88.29,0,0,0,25.33-12.44S320.58,546.27,297,524.64Z"/><path class="cls-16" d="M161.07,416.39a97.07,97.07,0,0,1,5.66,57.26c-6.54,36-44.14,60.48-36,99.71a25.93,25.93,0,0,0,5.93,13l9.18,1.31s1.94.57,5.4,1.45c-9.7-15.5-11.44-35-.9-51.71C172.61,499.28,188.67,453.45,161.07,416.39Z"/><path class="cls-16" d="M147.11,424.61a2,2,0,0,0-.37-1.05c3,24.21-.4,47.46-17.54,64.89-15,18.13-43.1,31.56-52.63,52.76-5.13,17.95-.24,33.61,28.22,40.23,1.84.43,3.77.83,5.81,1.18l3.57.51a33.4,33.4,0,0,1-9.84-2.65,37.93,37.93,0,0,1-21-25.1c-4.9-29.43,26.16-42.5,49-57.22C156.92,481.82,152,450.76,147.11,424.61Z"/><path class="cls-20" d="M132.4,498.16c-22.88,14.72-53.94,27.79-49,57.22a37.93,37.93,0,0,0,21,25.1,34.39,34.39,0,0,0,5.21,1.79c-13.81-14.54-14.07-38-4.93-56.32,6.31-11.57,17.36-17.06,27.05-23.85a88.66,88.66,0,0,0,12.2-15.45A39.33,39.33,0,0,1,132.4,498.16Z"/><path class="cls-14" d="M196.86,465.56c-6.26-20.92-19.51-40-32.15-59.16,7.17,15.56,14,30.14,18.36,46,9.81,36-14.71,63.75-24.52,96.44-4.7,14.11-1.85,32.7,14.27,38.52a32.66,32.66,0,0,1-5.82-6.65c-19.73-29.93,17.7-54.76,27.51-82.55A66.71,66.71,0,0,0,196.86,465.56Z"/><path class="cls-14" d="M145.5,393.59c-25-34.45-40-77.06-39.47-119.61-3.8,23.27.35,44.31,6.67,66,1.07,3.68,2.19,7.36,3.35,11.09l-.08.1c18,42.91,38.46,86.11,19.7,127.39a47.43,47.43,0,0,1-6.47,9.9c17.14-17.43,20.55-40.68,17.54-64.89a2,2,0,0,1,.37,1.05c2.74,14.62,5.48,30.77,3.08,45a44.66,44.66,0,0,1-6.33,17,88.66,88.66,0,0,1-12.2,15.45c-9.69,6.79-20.74,12.28-27,23.85-9.14,18.28-8.88,41.78,4.93,56.32a32.93,32.93,0,0,0,4.63.86l1.87.26a66.44,66.44,0,0,1-1.62-41.09c6.54-24.52,37.59-36,42.5-62.11C161.82,450.78,160.19,421.37,145.5,393.59Z"/><path class="cls-14" d="M99.53,579.15l.86.06C100.1,579.19,99.82,579.16,99.53,579.15Z"/><path class="cls-14" d="M132.31,419.28v0c0-.14-.09-.28-.13-.42-.52-1.94-1.13-3.89-1.86-5.87a125.72,125.72,0,0,0-10.7-24.31c-.89-2.15-1.84-4.34-2.86-6.55-28.14-61-38.94-94-25.89-150.69,0,0-24.49,37.09-1.61,103.29,19.06,55.12,42.32,93.81,31.06,134.08a73.47,73.47,0,0,1-7,11.94c-.68.94-1.38,1.89-2.1,2.87l-4.36,5.9c-.13.18-.27.36-.4.55-2.7,3.59-9.25,12.11-22.56,28.55-18.25,22.53-42.65,56.14,15.62,60.55-6.79-.62-51.25-6.2-20-45.09,13.31-16.54,19.39-25.83,22.13-31,2.53-3.26,5-6.51,7.47-9.79,0,.06-.06.11-.1.16a65.08,65.08,0,0,0,10.11-14.54C130.82,460.54,138.06,441.27,132.31,419.28Z"/><path class="cls-20" d="M101.34,311.83c-7.68-17.14-9.36-34.72-7.71-52.4,2.93-31.23,16.3-62.82,25.69-93.08,12.79-45.48,25.56-94.67,4-136.82l-13.78.61s13.35.27,13.35,20.43S129.67,117.86,97,202.86s-1.09,118.23,16.89,157.46a168.7,168.7,0,0,1,13.81,47.35,13.58,13.58,0,0,1,1.45,2.23c20.53,49-24.53,84.17-49.72,123.34a70.12,70.12,0,0,0-2.84,8c9.53-21.2,37.62-34.63,52.63-52.76q-1.59,1.62-3.34,3.18,1.76-1.56,3.34-3.18a47.43,47.43,0,0,0,6.47-9.9C160.19,424.61,117.69,367.4,101.34,311.83Z"/><path class="cls-15" d="M139.79,124.17c5.14-32.3,1.41-64.95-12.91-94.8l-3.59.16c21.59,42.15,8.82,91.34-4,136.82-9.39,30.26-22.76,61.85-25.69,93.08,4-22.28,8.24-44.38,20.79-65.29,12.89-22.28,21.57-46,25.37-70"/><path class="cls-16" d="M146.57,28.51l-.83,0c19.37,78.4,25.75,158.26,9.54,240.78-9.2,44.46-8.33,91.81,14.76,132.58-14.28-38.69-9.76-83.32,1.59-121.14C194.51,199,179.8,119,150.38,43.76Z"/><path class="cls-14" d="M221.71,135.28c-3.1-37.36-9.25-74-25.4-108.95l-5.75.25c24.38,61.81,26.55,128.8,21.89,193.87C218.6,195,221.61,164.51,221.71,135.28Z"/><path class="cls-14" d="M106.25,272.6c7.37-51.6,37.32-97.88,33.54-148.43-3.8,23.94-12.48,47.69-25.37,70-12.55,20.91-16.77,43-20.79,65.29-1.65,17.68,0,35.26,7.71,52.4,3.84,13,9.11,26.17,14.63,39.33l.08-.1C107.88,324.9,101.34,300.38,106.25,272.6Z"/><path class="cls-20" d="M155.28,269.33c16.21-82.52,9.83-162.38-9.54-240.78l-2.9.12c20,57.12,12.39,118.54,10.81,176.91-.87,24.25-8.15,51.26-10.18,77.61-5.27,35.17,2.5,69,17.4,100.29.23.22.43.45.65.68a165.64,165.64,0,0,1-11.08-48.78C148.72,313.41,150.79,291,155.28,269.33Z"/><path class="cls-16" d="M132.4,251.35c7.87-74,27.86-151,3-222.35l-8.54.37c14.32,29.85,18.05,62.5,12.91,94.8,2.55,34-10.2,66.15-21,99.24C109.11,263.1,113.42,305,131,341.05,126.13,311.79,130.08,280.34,132.4,251.35Z"/><path class="cls-20" d="M172.82,587.36c-16.12-5.82-19-24.41-14.27-38.52,9.81-32.69,34.33-60.48,24.52-96.44-4.32-15.86-11.19-30.44-18.36-46-5.67-8.58-11.23-17.17-16-25.92-7-12.8-14.77-25.6-17.51-39-17.78-36.15-22.17-78.23-12.5-118.08-5.27,16.05-10.09,32.34-12.49,49.19-.08.46-.14.91-.22,1.38-.58,42.55,14.48,85.16,39.47,119.61a.05.05,0,0,1,0,0c14.71,27.79,16.34,57.21,11.44,86.64-4.91,26.15-36,37.59-42.5,62.11A66.44,66.44,0,0,0,116,583.39l20.66,3a25.93,25.93,0,0,1-5.93-13c-8.18-39.23,29.42-63.75,36-99.71a97.07,97.07,0,0,0-5.66-57.26c27.6,37.06,11.54,82.89-10.69,121-10.54,16.69-8.8,36.21.9,51.71a311.51,311.51,0,0,0,38.58,7.14A45.11,45.11,0,0,1,172.82,587.36Z"/><path class="cls-14" d="M131.24,341.49c2.74,13.39,10.52,26.19,17.51,39,15.28,28.22,39,54.76,48.11,85.08-2-12.06-6.76-23.78-12.72-35.16-.36-.95-.73-1.9-1.1-2.86a121.68,121.68,0,0,1-13-25.63,147.14,147.14,0,0,1-8.52-17.75c-.22-.23-.42-.46-.65-.68-14.9-31.3-22.67-65.13-17.4-100.3,2-26.35,9.31-53.35,10.18-77.6,1.58-58.37,9.24-119.79-10.81-176.91l-7.42.33c24.84,71.3,4.85,148.34-3,222.35-2.32,29-6.27,60.44-1.38,89.7"/><path class="cls-20" d="M186.16,229.45h0Z"/><path class="cls-15" d="M172.21,27.38l-13,.58c21.25,48.62,30.93,103.11,32.44,157.34C194.81,132.21,186.57,78,172.21,27.38Z"/><path class="cls-16" d="M215.76,485.09c14.6-51.91-25.51-94.16-26.12-144.32l0,.48c5.94-105.5,22.68-212.35-5-314.41l-12.38.54c18.37,64.79,26.73,135.38,13.95,202.06-1.12,8.34-2.37,16.54-3.43,24.94l-.06,1.59c-15.11,57-14.26,117.7,8.89,171v0a212.22,212.22,0,0,0,11.12,28.68,46.41,46.41,0,0,1,4,12.14,61.71,61.71,0,0,1-10.52,46.7c-13.08,16.35-31.06,32.69-27.79,53.94,5.68,17,17.53,25.13,31.8,28.84,1.73.14,3.48.26,5.25.38-.92-.46-1.84-.94-2.73-1.43-16.34-8.17-26.15-27.79-18-45.77C194.51,527.59,207.59,508,215.76,485.09Z"/><path class="cls-20" d="M168.36,568.45c-3.27-21.25,14.71-37.59,27.79-53.94a61.71,61.71,0,0,0,10.52-46.7,46.41,46.41,0,0,0-4-12.14A211.86,211.86,0,0,1,191.56,427c-23.15-53.35-24-114-8.89-171l.06-1.59c1.06-8.4,2.31-16.6,3.43-24.94h0a344,344,0,0,0,5.46-44.14C190.11,131.07,180.43,76.58,159.18,28l-12.61.55,3.81,15.25C179.8,119,194.51,199,171.63,280.77c-11.35,37.82-15.87,82.45-1.59,121.14a121.68,121.68,0,0,0,13,25.63c.37,1,.74,1.91,1.1,2.86,11.2,21.39,18.3,44,10.37,67.76-9.81,27.79-39.23,52.31-24.52,85,3.57,8.31,11.44,10.59,19.87,13.09,3.32.4,6.77.75,10.3,1C185.89,593.58,174,585.49,168.36,568.45Z"/><path class="cls-20" d="M220.66,570.08a31.28,31.28,0,0,1-3.44-9.08c-3.52-6.73-3.45-15.34,1.81-23.6,31.23-48.73,14.72-95.54-2.82-142.64-3.81-15.69-10.24-31.43-12.87-47.65A174.64,174.64,0,0,1,200,319.42c-1.1-24.39,1.64-55.11,10.56-91.46,3.28-11.31,6.95-23.1,11.12-35.46,40.81-121.07-19-166.18-19-166.18h-3.18s43.27,45.15,21.6,130.24c-2.12,8.36-4.42,16.33-6.81,24,1-52.23-4.33-104.75-23.75-154l-6,.26c27.66,101.91,11,208.58,5,313.93a122.14,122.14,0,0,0,4.87,31.2c4.85,13.45,11.84,25.95,16.8,39.25,12,24.24,18.27,52.23,14.39,78-.82,10.38-3.37,20.28-6.67,30.16-8.17,19.62-21.25,42.5-8.17,62.12A63.07,63.07,0,0,0,227.39,598c13.39-.45,27-2.25,39.59-6.24C248.74,590.27,231.28,583.6,220.66,570.08Z"/></g><g id="Layer_6" data-name="Layer 6"><rect class="cls-13" x="79.97" y="571.46" width="5.75" height="5.51" rx="1.18" transform="translate(-493.17 505.01) rotate(-74.94)"/><path class="cls-8" d="M79.73,575.44a1.16,1.16,0,0,0,.85,1.14l3,.82a1.18,1.18,0,0,0,1.45-.84L86,573.3a.41.41,0,0,0,0-.11C85.11,576.3,81.85,576.72,79.73,575.44Z"/><path class="cls-13" d="M123.5,583a.92.92,0,0,1-1.25-.35L121,580.36a.92.92,0,0,1,.35-1.25l2.14-1.19a.93.93,0,0,1,1.26.35l1.27,2.29a.91.91,0,0,1-.36,1.25Z"/><path class="cls-8" d="M124.58,578.09a.92.92,0,0,0-1.11-.17l-2.14,1.19a.92.92,0,0,0-.35,1.25l1.27,2.29.06.07A3.15,3.15,0,0,1,124.58,578.09Z"/><rect class="cls-13" x="100.54" y="581.81" width="3.31" height="3.18" rx="0.68" transform="translate(-487.72 530.56) rotate(-74.95)"/><path class="cls-8" d="M100.4,584.09a.68.68,0,0,0,.5.67l1.74.47a.68.68,0,0,0,.84-.48l.51-1.88v-.07A2.33,2.33,0,0,1,100.4,584.09Z"/><rect class="cls-13" x="166.31" y="596.08" width="3.31" height="3.18" rx="0.68"/><path class="cls-8" d="M166.82,596.11a.68.68,0,0,0-.51.65v1.81a.69.69,0,0,0,.69.69h1.94l.07,0A2.33,2.33,0,0,1,166.82,596.11Z"/><rect class="cls-13" x="151.7" y="591" width="1.9" height="1.98" rx="0.41" transform="translate(-348.51 241.85) rotate(-40.6)"/><path class="cls-8" d="M152.9,590.86a.41.41,0,0,0-.49,0l-.82.71a.4.4,0,0,0,0,.57l.75.88,0,0A1.4,1.4,0,0,1,152.9,590.86Z"/><rect class="cls-13" x="132.67" y="586.35" width="3.31" height="3.18" rx="0.68"/><path class="cls-8" d="M133.18,586.39a.68.68,0,0,0-.51.65v1.81a.69.69,0,0,0,.68.68h2A2.34,2.34,0,0,1,133.18,586.39Z"/><rect class="cls-13" x="56.72" y="551.86" width="5.75" height="5.51" rx="1.18" transform="translate(-463.42 360.69) rotate(-63.52)"/><path class="cls-8" d="M62.89,554a1.19,1.19,0,0,0-.61-1.3l-2.81-1.4a1.19,1.19,0,0,0-1.59.54l-1.51,3s0,.07,0,.11C57.78,552.12,61.06,552.36,62.89,554Z"/><rect class="cls-13" x="56.18" y="545.2" width="3.04" height="2.91" rx="0.63" transform="translate(-457.38 354.66) rotate(-63.53)"/><path class="cls-8" d="M59.44,546.35a.62.62,0,0,0-.32-.69l-1.49-.74a.63.63,0,0,0-.84.28l-.8,1.6a.13.13,0,0,0,0,.06A2.14,2.14,0,0,1,59.44,546.35Z"/><path class="cls-13" d="M274.77,584.56A1.18,1.18,0,0,0,274,586l.85,3.26a1.13,1.13,0,0,0,1.4.83l2.93-.81a1.18,1.18,0,0,0,.8-1.45l-.84-3.26a1.14,1.14,0,0,0-1.41-.84Z"/><path class="cls-8" d="M280,588.14a1.16,1.16,0,0,1-.82,1.15l-2.93.81a1.13,1.13,0,0,1-1.4-.83L274,586s0-.08,0-.12C274.76,589,277.91,589.43,280,588.14Z"/><path class="cls-13" d="M218.94,599.25a.87.87,0,0,0,1.21-.35l1.24-2.29a.94.94,0,0,0-.35-1.25L219,594.17a.87.87,0,0,0-1.21.35l-1.23,2.29a.94.94,0,0,0,.35,1.25Z"/><path class="cls-8" d="M217.91,594.34a.85.85,0,0,1,1.06-.17l2.07,1.19a.94.94,0,0,1,.35,1.25l-1.24,2.29s0,0-.05.07A3.18,3.18,0,0,0,217.91,594.34Z"/><path class="cls-13" d="M234.54,594.71a.69.69,0,0,0-.47.84l.49,1.88a.65.65,0,0,0,.81.48l1.69-.47a.67.67,0,0,0,.46-.83l-.49-1.88a.66.66,0,0,0-.81-.49Z"/><path class="cls-8" d="M237.53,596.78a.67.67,0,0,1-.47.66l-1.69.47a.65.65,0,0,1-.81-.48l-.49-1.88s0,0,0-.07A2.22,2.22,0,0,0,237.53,596.78Z"/><path class="cls-13" d="M179.68,600.24a.67.67,0,0,0,.66.68h1.88a.66.66,0,0,0,.66-.68v-1.81a.66.66,0,0,0-.66-.68h-1.88a.67.67,0,0,0-.66.68Z"/><path class="cls-8" d="M182.39,597.78a.67.67,0,0,1,.49.65v1.81a.66.66,0,0,1-.66.68h-1.94A2.33,2.33,0,0,0,182.39,597.78Z"/><path class="cls-13" d="M195.86,594.76a.39.39,0,0,0,.55,0l.73-.88a.41.41,0,0,0,0-.58l-.79-.7a.38.38,0,0,0-.56.05l-.73.88a.41.41,0,0,0,0,.57Z"/><path class="cls-8" d="M195.83,592.53a.39.39,0,0,1,.48,0l.79.7a.41.41,0,0,1,0,.58l-.73.88,0,0A1.41,1.41,0,0,0,195.83,592.53Z"/><path class="cls-13" d="M212.17,590.52a.68.68,0,0,0,.66.68h1.88a.67.67,0,0,0,.66-.68v-1.81a.67.67,0,0,0-.66-.69h-1.88a.68.68,0,0,0-.66.69Z"/><path class="cls-8" d="M214.88,588.06a.67.67,0,0,1,.49.65v1.81a.67.67,0,0,1-.66.68h-1.94A2.33,2.33,0,0,0,214.88,588.06Z"/><path class="cls-13" d="M200.91,551.19a1.2,1.2,0,0,0,.52-1.59l-1.46-3a1.12,1.12,0,0,0-1.53-.53l-2.72,1.4a1.21,1.21,0,0,0-.51,1.59l1.45,3a1.14,1.14,0,0,0,1.54.53Z"/><path class="cls-8" d="M195.13,548.74a1.18,1.18,0,0,1,.59-1.29l2.72-1.4a1.12,1.12,0,0,1,1.53.53l1.46,3s0,.07,0,.11C200.06,546.83,196.9,547.06,195.13,548.74Z"/><path class="cls-13" d="M299.08,580.46a.64.64,0,0,0,.27-.84l-.77-1.59a.6.6,0,0,0-.81-.29l-1.44.74a.64.64,0,0,0-.27.84l.77,1.6a.6.6,0,0,0,.81.29Z"/><path class="cls-8" d="M296,579.17a.62.62,0,0,1,.31-.69l1.44-.74a.6.6,0,0,1,.81.29l.77,1.59s0,0,0,.06A2,2,0,0,0,296,579.17Z"/><path class="cls-13" d="M303.86,577.63a.8.8,0,0,0,1.09-.37l1-2.12a.84.84,0,0,0-.35-1.13l-1.91-1a.79.79,0,0,0-1.09.37l-1,2.12a.85.85,0,0,0,.35,1.13Z"/><path class="cls-8" d="M302.77,573.2a.8.8,0,0,1,1-.2l1.91,1a.84.84,0,0,1,.35,1.13l-1,2.12-.05.06A2.86,2.86,0,0,0,302.77,573.2Z"/><path class="cls-13" d="M131.4,297.86a.69.69,0,0,0-.86-.42l-1.85.59a.66.66,0,0,0-.44.84l.56,1.66a.69.69,0,0,0,.87.41l1.85-.59a.65.65,0,0,0,.43-.83Z"/><path class="cls-8" d="M129.5,301a.69.69,0,0,1-.69-.44l-.56-1.66a.66.66,0,0,1,.44-.84l1.85-.59h.06A2.24,2.24,0,0,0,129.5,301Z"/><path class="cls-13" d="M119.22,223a.67.67,0,0,0-.64.7l.1,1.88a.68.68,0,0,0,.72.62l1.81-.1a.67.67,0,0,0,.64-.7l-.1-1.88a.67.67,0,0,0-.72-.62Z"/><path class="cls-8" d="M121.83,225.6a.67.67,0,0,1-.62.53l-1.81.1a.68.68,0,0,1-.72-.62l-.1-1.88s0,0,0-.07A2.33,2.33,0,0,0,121.83,225.6Z"/><path class="cls-13" d="M142.44,272.43a.67.67,0,0,0-.64.69l.11,1.88a.66.66,0,0,0,.71.62l1.81-.1a.67.67,0,0,0,.65-.7L145,273a.67.67,0,0,0-.72-.62Z"/><path class="cls-8" d="M145.05,275a.66.66,0,0,1-.62.53l-1.81.1a.66.66,0,0,1-.71-.62l-.11-1.88s0,0,0-.06A2.32,2.32,0,0,0,145.05,275Z"/><path class="cls-13" d="M163,371.18a.63.63,0,0,0,.85.22l1.56-.86a.59.59,0,0,0,.23-.82l-.82-1.4a.63.63,0,0,0-.85-.22l-1.56.86a.59.59,0,0,0-.23.82Z"/><path class="cls-8" d="M164.12,368.05a.62.62,0,0,1,.7.27l.82,1.4a.59.59,0,0,1-.23.82l-1.56.86,0,0A2,2,0,0,0,164.12,368.05Z"/><path class="cls-13" d="M150.86,388.73a.78.78,0,0,0,.43,1.06l2.18.93a.85.85,0,0,0,1.1-.42l.9-2a.78.78,0,0,0-.43-1.06l-2.18-.93a.85.85,0,0,0-1.1.42Z"/><path class="cls-8" d="M155.22,387.39a.78.78,0,0,1,.25.95l-.9,2a.85.85,0,0,1-1.1.42l-2.18-.93-.07,0A2.87,2.87,0,0,0,155.22,387.39Z"/><path class="cls-13" d="M184.23,50.43a1.19,1.19,0,0,0,1.42.87l3.29-.71a1.14,1.14,0,0,0,.89-1.37l-.69-3a1.19,1.19,0,0,0-1.42-.86l-3.29.71a1.14,1.14,0,0,0-.9,1.36Z"/><path class="cls-8" d="M188,45.39a1.16,1.16,0,0,1,1.12.87l.69,3a1.14,1.14,0,0,1-.89,1.37l-3.29.71a.48.48,0,0,1-.12,0C188.68,50.62,189.23,47.49,188,45.39Z"/><path class="cls-13" d="M173.06,329.32a.67.67,0,0,0,.71-.63l.08-1.88a.68.68,0,0,0-.66-.69l-1.8-.07a.67.67,0,0,0-.72.63l-.07,1.88a.65.65,0,0,0,.65.68Z"/><path class="cls-8" d="M170.72,326.51a.65.65,0,0,1,.67-.46l1.8.07a.68.68,0,0,1,.66.69l-.08,1.88a.14.14,0,0,1,0,.06A2.31,2.31,0,0,0,170.72,326.51Z"/><path class="cls-13" d="M164.69,296.45a.67.67,0,0,0,.71-.63l.08-1.88a.67.67,0,0,0-.66-.68l-1.81-.08a.67.67,0,0,0-.71.63l-.08,1.88a.68.68,0,0,0,.66.69Z"/><path class="cls-8" d="M162.34,293.65a.67.67,0,0,1,.67-.47l1.81.08a.67.67,0,0,1,.66.68l-.08,1.88s0,0,0,.06A2.32,2.32,0,0,0,162.34,293.65Z"/><path class="cls-13" d="M160,50a.63.63,0,0,0-.82-.3l-1.63.7a.6.6,0,0,0-.32.8l.68,1.46a.63.63,0,0,0,.83.31l1.63-.7a.6.6,0,0,0,.32-.8Z"/><path class="cls-8" d="M158.6,53a.63.63,0,0,1-.67-.35l-.68-1.46a.6.6,0,0,1,.32-.8l1.63-.7h.05A2,2,0,0,0,158.6,53Z"/><path class="cls-13" d="M185.82,85.89a.79.79,0,0,0-.32-1.1l-2.08-1.14a.85.85,0,0,0-1.14.31l-1.09,1.86a.81.81,0,0,0,.32,1.11l2.08,1.13a.85.85,0,0,0,1.14-.31Z"/><path class="cls-8" d="M181.35,86.79a.79.79,0,0,1-.16-1L182.28,84a.85.85,0,0,1,1.14-.31l2.08,1.14.06,0A2.87,2.87,0,0,0,181.35,86.79Z"/><path class="cls-13" d="M87,271.83a1.2,1.2,0,0,0,1.64.29l2.8-1.86a1.15,1.15,0,0,0,.33-1.6L90,266.16a1.17,1.17,0,0,0-1.63-.29l-2.81,1.86a1.14,1.14,0,0,0-.33,1.6Z"/><path class="cls-8" d="M88.66,265.75a1.16,1.16,0,0,1,1.35.41l1.73,2.5a1.15,1.15,0,0,1-.33,1.6l-2.8,1.86-.11.05C91.18,270.38,90.55,267.27,88.66,265.75Z"/><path class="cls-13" d="M208.54,390a.87.87,0,0,0-.73-1l-2.56-.41a.94.94,0,0,0-1.07.73l-.45,2.34a.87.87,0,0,0,.73,1l2.56.42a.94.94,0,0,0,1.07-.73Z"/><path class="cls-8" d="M204.24,392.57a.85.85,0,0,1-.51-.95l.45-2.34a.94.94,0,0,1,1.07-.73l2.56.41.09,0A3.18,3.18,0,0,0,204.24,392.57Z"/><path class="cls-13" d="M178.77,439.3a.69.69,0,0,0,.95.17l1.61-1.08a.65.65,0,0,0,.19-.92l-1-1.44a.68.68,0,0,0-.94-.17L178,436.94a.65.65,0,0,0-.19.92Z"/><path class="cls-8" d="M179.75,435.8a.67.67,0,0,1,.78.23l1,1.44a.65.65,0,0,1-.19.92l-1.61,1.08-.07,0A2.22,2.22,0,0,0,179.75,435.8Z"/><path class="cls-13" d="M228.23,472.41a.67.67,0,0,0,.43-.84l-.62-1.78a.66.66,0,0,0-.86-.4l-1.71.59a.67.67,0,0,0-.43.85l.61,1.77a.67.67,0,0,0,.87.4Z"/><path class="cls-8" d="M225,470.66a.67.67,0,0,1,.45-.68l1.71-.59a.66.66,0,0,1,.86.4l.62,1.78v.06A2.31,2.31,0,0,0,225,470.66Z"/><path class="cls-13" d="M192.77,481.2a.39.39,0,0,0-.23-.51l-1.07-.4a.42.42,0,0,0-.53.23l-.4,1a.38.38,0,0,0,.22.51l1.07.4a.41.41,0,0,0,.53-.23Z"/><path class="cls-8" d="M190.67,482a.36.36,0,0,1-.13-.45l.4-1a.42.42,0,0,1,.53-.23l1.07.4,0,0A1.42,1.42,0,0,0,190.67,482Z"/><path class="cls-13" d="M157.88,461.81a.66.66,0,0,0,.43-.84l-.61-1.78a.66.66,0,0,0-.86-.4l-1.71.59a.67.67,0,0,0-.43.85l.61,1.77a.66.66,0,0,0,.86.4Z"/><path class="cls-8" d="M154.68,460.06a.67.67,0,0,1,.45-.68l1.71-.59a.66.66,0,0,1,.86.4l.61,1.78s0,0,0,.06A2.31,2.31,0,0,0,154.68,460.06Z"/><path class="cls-13" d="M148.62,485.3a1.2,1.2,0,0,0-1.66,0l-2.39,2.37a1.12,1.12,0,0,0,0,1.62l2.21,2.11a1.21,1.21,0,0,0,1.67,0l2.38-2.37a1.12,1.12,0,0,0,0-1.62Z"/><path class="cls-8" d="M148.2,491.56a1.17,1.17,0,0,1-1.42-.13l-2.21-2.11a1.12,1.12,0,0,1,0-1.62l2.39-2.37s.06,0,.09-.06C144.78,487.53,146,490.44,148.2,491.56Z"/><path class="cls-13" d="M144.71,420.15a.64.64,0,0,0-.88,0l-1.26,1.25a.6.6,0,0,0,0,.86l1.17,1.11a.63.63,0,0,0,.88,0l1.26-1.25a.59.59,0,0,0,0-.86Z"/><path class="cls-8" d="M144.49,423.47a.63.63,0,0,1-.75-.08l-1.17-1.11a.6.6,0,0,1,0-.86l1.26-1.25,0,0A2,2,0,0,0,144.49,423.47Z"/><path class="cls-13" d="M149.64,334a.8.8,0,0,0-.7-.91l-2.35-.29a.84.84,0,0,0-1,.7l-.33,2.13a.79.79,0,0,0,.7.91l2.35.29a.84.84,0,0,0,.95-.7Z"/><path class="cls-8" d="M145.81,336.46a.77.77,0,0,1-.5-.84l.33-2.13a.84.84,0,0,1,1-.7l2.35.29.07,0A2.86,2.86,0,0,0,145.81,336.46Z"/><path class="cls-8" d="M166.49,515.21c1.7.44,2.91,1.34,3.18,2.59.51,2.32-2.43,4.93-6.57,5.83s-7.89-.26-8.39-2.58a3.11,3.11,0,0,1,.72-2.56c-1.28,1.14-1.93,2.43-1.67,3.63.56,2.56,5,3.77,10,2.7s8.49-4,7.93-6.59C171.29,516.56,169.25,515.47,166.49,515.21Z"/><path class="cls-9" d="M163.72,524.82c-4.76,1-9.05-.05-9.87-2.42a2.91,2.91,0,0,0,0,.31c.56,2.57,5,3.77,10,2.7s8.5-4,7.94-6.58a1.84,1.84,0,0,0-.09-.25C171.88,521.06,168.44,523.79,163.72,524.82Z"/><path class="cls-8" d="M165.51,516.52a1.9,1.9,0,0,1,1.54,1.25c.24,1.12-1.18,2.39-3.17,2.82s-3.82-.13-4.06-1.25a1.5,1.5,0,0,1,.35-1.24,1.91,1.91,0,0,0-.81,1.76c.27,1.24,2.42,1.82,4.81,1.3s4.1-1.94,3.84-3.18C167.83,517.17,166.84,516.64,165.51,516.52Z"/><path class="cls-9" d="M164.17,521.16c-2.3.5-4.37,0-4.76-1.17a.71.71,0,0,0,0,.15c.27,1.24,2.43,1.83,4.81,1.31s4.11-2,3.84-3.18c0,0,0-.08,0-.12C168.12,519.34,166.45,520.67,164.17,521.16Z"/><path class="cls-10" d="M201.8,585.32c.5.27.79.63.74,1-.1.7-1.34,1.18-2.77,1.08s-2.52-.75-2.42-1.45a1,1,0,0,1,.52-.66c-.54.21-.9.52-1,.88-.1.77,1.2,1.49,2.91,1.61s3.19-.4,3.3-1.17C203.2,586.11,202.66,585.63,201.8,585.32Z"/><path class="cls-9" d="M199.83,587.78c-1.65-.12-2.91-.79-2.91-1.52a.29.29,0,0,0,0,.09c-.11.77,1.19,1.49,2.91,1.61s3.19-.4,3.29-1.17c0,0,0,0,0-.08C202.89,587.43,201.47,587.9,199.83,587.78Z"/><path class="cls-11" d="M250.42,591.07c.36.25.54.55.45.84-.17.53-1.2.83-2.31.65s-1.88-.75-1.71-1.29a.85.85,0,0,1,.49-.48,1.17,1.17,0,0,0-.85.62c-.18.59.74,1.25,2.07,1.46s2.55-.1,2.73-.7C251.41,591.78,251.06,591.37,250.42,591.07Z"/><path class="cls-9" d="M248.56,592.87c-1.28-.2-2.18-.82-2.08-1.39l0,.07c-.19.59.74,1.25,2.06,1.46s2.56-.11,2.74-.7a.13.13,0,0,0,0-.06C251,592.79,249.83,593.07,248.56,592.87Z"/><path class="cls-12" d="M132.86,499.79c-3.52-.18-6.45,1.26-6.55,3.22s2.66,3.7,6.17,3.88,6.45-1.25,6.56-3.21S136.38,500,132.86,499.79Zm-.33,6.18c-3.2-.17-5.72-1.62-5.64-3.24s2.75-2.78,6-2.61,5.73,1.61,5.64,3.23S135.73,506.14,132.53,506Z"/><path class="cls-13" d="M216.74,589.63c-1.83.16-3.24,1.12-3.15,2.14s1.65,1.72,3.48,1.56,3.23-1.12,3.14-2.15S218.57,589.47,216.74,589.63Zm.28,3.21c-1.67.15-3.07-.41-3.15-1.25s1.22-1.64,2.88-1.79,3.08.41,3.15,1.25S218.69,592.7,217,592.84Z"/><path class="cls-13" d="M242.8,551.75h3.38a1.18,1.18,0,0,1,1.18,1.18v3.14a1.19,1.19,0,0,1-1.19,1.19H242.8a1.19,1.19,0,0,1-1.19-1.19v-3.14a1.18,1.18,0,0,1,1.18-1.18Z" transform="translate(-354.52 646.43) rotate(-74.93)"/><path class="cls-8" d="M241.37,555.73a1.18,1.18,0,0,0,.85,1.15l3,.81a1.18,1.18,0,0,0,1.45-.83l.88-3.27a.4.4,0,0,0,0-.11C246.75,556.59,243.49,557,241.37,555.73Z"/><path class="cls-13" d="M285.14,563.29a.92.92,0,0,1-1.25-.35l-1.27-2.28a.92.92,0,0,1,.36-1.26l2.13-1.19a.93.93,0,0,1,1.26.35l1.27,2.29a.91.91,0,0,1-.36,1.25Z"/><path class="cls-8" d="M286.22,558.38a.92.92,0,0,0-1.11-.17L283,559.4a.92.92,0,0,0-.36,1.26l1.27,2.28s0,0,.06.07A3.15,3.15,0,0,1,286.22,558.38Z"/><rect class="cls-13" x="262.18" y="562.1" width="3.31" height="3.18" rx="0.68" transform="translate(-349.02 672.09) rotate(-74.95)"/><path class="cls-8" d="M262,564.39a.68.68,0,0,0,.49.66l1.75.47a.68.68,0,0,0,.84-.48l.51-1.88v-.07A2.33,2.33,0,0,1,262,564.39Z"/><rect class="cls-13" x="255.56" y="597.38" width="3.31" height="3.18" rx="0.68"/><path class="cls-8" d="M256.07,597.41a.68.68,0,0,0-.51.65v1.81a.68.68,0,0,0,.68.69h1.95l.06,0A2.33,2.33,0,0,1,256.07,597.41Z"/><rect class="cls-13" x="313.34" y="571.29" width="1.89" height="1.98" rx="0.41" transform="translate(-296.77 342.29) rotate(-40.6)"/><path class="cls-8" d="M314.54,571.15a.41.41,0,0,0-.49,0l-.82.71a.4.4,0,0,0,0,.57l.75.88,0,0A1.4,1.4,0,0,1,314.54,571.15Z"/><rect class="cls-13" x="294.31" y="566.64" width="3.31" height="3.18" rx="0.68"/><path class="cls-8" d="M294.82,566.68a.68.68,0,0,0-.51.65v1.81a.69.69,0,0,0,.68.68h2A2.33,2.33,0,0,1,294.82,566.68Z"/><rect class="cls-13" x="218.36" y="532.15" width="5.75" height="5.51" rx="1.18" transform="translate(-356.21 494.47) rotate(-63.52)"/><path class="cls-8" d="M224.53,534.33a1.17,1.17,0,0,0-.61-1.29l-2.81-1.4a1.17,1.17,0,0,0-1.59.53l-1.51,3s0,.07,0,.11C219.42,532.42,222.7,532.65,224.53,534.33Z"/><rect class="cls-13" x="205.79" y="524.78" width="3.04" height="2.91" rx="0.63" transform="translate(-356.18 477.42) rotate(-63.55)"/><path class="cls-8" d="M209.05,525.93a.6.6,0,0,0-.32-.68l-1.49-.74a.62.62,0,0,0-.84.28l-.8,1.6a.11.11,0,0,0,0,.05A2.14,2.14,0,0,1,209.05,525.93Z"/><rect class="cls-13" x="226.24" y="512.72" width="3.89" height="4.06" rx="0.84" transform="translate(-209.05 159.98) rotate(-27.04)"/><path class="cls-8" d="M229.24,512.64a.81.81,0,0,0-1-.2l-2,1a.84.84,0,0,0-.37,1.12L227,516.7l0,.06A2.86,2.86,0,0,1,229.24,512.64Z"/><path class="cls-13" d="M88.48,563.09a.87.87,0,0,0,1.21-.35l1.23-2.28a.93.93,0,0,0-.35-1.25L88.51,558a.87.87,0,0,0-1.21.35l-1.24,2.29a.94.94,0,0,0,.35,1.25Z"/><path class="cls-8" d="M87.44,558.19a.86.86,0,0,1,1.07-.18l2.06,1.2a.93.93,0,0,1,.35,1.25l-1.23,2.28s0,0-.06.07A3.16,3.16,0,0,0,87.44,558.19Z"/><path class="cls-13" d="M165.05,569.63a.68.68,0,0,0-.46.84l.49,1.88a.65.65,0,0,0,.81.48l1.68-.47a.69.69,0,0,0,.47-.84l-.49-1.88a.66.66,0,0,0-.81-.48Z"/><path class="cls-8" d="M168.05,571.69a.67.67,0,0,1-.48.67l-1.68.47a.65.65,0,0,1-.81-.48l-.49-1.88s0-.05,0-.07A2.22,2.22,0,0,0,168.05,571.69Z"/><path class="cls-13" d="M96.07,569.26a.68.68,0,0,0,.66.68h1.89a.68.68,0,0,0,.66-.68v-1.81a.68.68,0,0,0-.66-.69H96.73a.68.68,0,0,0-.66.69Z"/><path class="cls-8" d="M98.78,566.8a.68.68,0,0,1,.5.65v1.81a.68.68,0,0,1-.66.68h-2A2.33,2.33,0,0,0,98.78,566.8Z"/><path class="cls-13" d="M78.16,582.85a.4.4,0,0,0,.56-.05l.73-.88a.41.41,0,0,0,0-.57l-.79-.71a.39.39,0,0,0-.55.05l-.73.88a.41.41,0,0,0,0,.58Z"/><path class="cls-8" d="M78.13,580.62a.39.39,0,0,1,.48,0l.79.71a.41.41,0,0,1,0,.57l-.73.88,0,0A1.42,1.42,0,0,0,78.13,580.62Z"/><path class="cls-13" d="M94.48,578.61a.67.67,0,0,0,.65.68H97a.67.67,0,0,0,.66-.68V576.8a.67.67,0,0,0-.66-.69H95.13a.67.67,0,0,0-.65.69Z"/><path class="cls-8" d="M97.18,576.15a.67.67,0,0,1,.49.65v1.81a.67.67,0,0,1-.66.68H95.07A2.32,2.32,0,0,0,97.18,576.15Z"/><path class="cls-13" d="M187.67,604.14a.64.64,0,0,0,.27-.84l-.77-1.6a.59.59,0,0,0-.81-.28l-1.43.74a.64.64,0,0,0-.28.84l.77,1.6a.61.61,0,0,0,.81.28Z"/><path class="cls-8" d="M184.61,602.84a.62.62,0,0,1,.32-.68l1.43-.74a.59.59,0,0,1,.81.28l.77,1.6,0,.05A2,2,0,0,0,184.61,602.84Z"/><path class="cls-13" d="M146.63,558.46a.79.79,0,0,0,1.09-.37l1.05-2.12a.86.86,0,0,0-.36-1.13l-1.91-1a.79.79,0,0,0-1.08.37l-1,2.12a.85.85,0,0,0,.35,1.13Z"/><path class="cls-8" d="M145.54,554a.8.8,0,0,1,1-.2l1.91,1a.86.86,0,0,1,.36,1.13l-1.05,2.12s0,0-.05.07A2.87,2.87,0,0,0,145.54,554Z"/></g><g id="Layer_8" data-name="Layer 8"><path class="cls-21" d="M272.15,566.75a.57.57,0,0,0-.11-.45,1.24,1.24,0,0,0-.19-.22l-4.76-4.5A2.7,2.7,0,0,0,265,561l-6.37,1.38a1.23,1.23,0,0,0-.23.08.57.57,0,0,0-.34.28l0,.11-2.14,7.58h0c-.08.21,0,.47.31.71l5,4.31a2.92,2.92,0,0,0,2.13.6l6.14-1.19c.52-.09.57-.44.57-.44l2.16-7.63"/><path class="cls-22" d="M272,566.29a.87.87,0,0,0-.18-.22l-4.75-4.49A2.7,2.7,0,0,0,265,561l-6.36,1.38-.23.08a.58.58,0,0,0-.33.28l0,.11a.55.55,0,0,0,0,.25h0a.16.16,0,0,0,0,.07h0a.43.43,0,0,0,0,.07h0l.05.07h0l.14.15,5,4.29a2.66,2.66,0,0,0,1,.52,2.51,2.51,0,0,0,1.11.08l6.12-1.19a.67.67,0,0,0,.57-.4v0A.59.59,0,0,0,272,566.29Z"/><path class="cls-23" d="M270,574.4l.06-.18,2.1-7.45v0a.48.48,0,0,0,0-.31h0a.46.46,0,0,1,0,.3v0a.67.67,0,0,1-.57.4l-6.13,1.19a2.68,2.68,0,0,1-1.11-.08l-.14,0L262,575.9a2.64,2.64,0,0,0,1.25.13l6.14-1.19a.77.77,0,0,0,.46-.23h0a.21.21,0,0,0,.06-.1l0-.06A.43.43,0,0,0,270,574.4Z"/><path class="cls-21" d="M260.88,507.35a.39.39,0,0,0-.08-.31.53.53,0,0,0-.12-.14l-3.24-3.06a1.81,1.81,0,0,0-1.46-.41l-4.33.94-.16.05a.35.35,0,0,0-.22.19l0,.07-1.46,5.17h0c-.06.14,0,.31.21.48l3.39,2.93a1.93,1.93,0,0,0,1.45.4l4.18-.8c.35-.07.39-.3.39-.3l1.47-5.2"/><path class="cls-22" d="M260.79,507a.79.79,0,0,0-.12-.15l-3.23-3.06a1.82,1.82,0,0,0-1.45-.4l-4.33.94-.16.05a.35.35,0,0,0-.22.19l0,.07a.29.29,0,0,0,0,.18h0l0,0h0l0,0h0l0,0h0a.28.28,0,0,0,.09.1l3.39,2.92a1.89,1.89,0,0,0,.69.36,1.82,1.82,0,0,0,.76.05l4.17-.81a.45.45,0,0,0,.38-.27h0A.38.38,0,0,0,260.79,507Z"/><path class="cls-23" d="M259.41,512.56l0-.13,1.43-5.07h0a.32.32,0,0,0,0-.21h0a.31.31,0,0,1,0,.21h0a.45.45,0,0,1-.38.27l-4.18.81a1.64,1.64,0,0,1-.75-.06l-.09,0L254,513.58a1.73,1.73,0,0,0,.86.08l4.17-.8a.54.54,0,0,0,.32-.16h0a.14.14,0,0,0,0-.07l0,0Z"/><path class="cls-21" d="M163,591.68a.41.41,0,0,0-.22-.23,1.06,1.06,0,0,0-.19-.06l-4.33-1a1.85,1.85,0,0,0-1.47.37l-3.27,3a.45.45,0,0,0-.11.13.35.35,0,0,0-.1.27l0,.08,1.33,5.19h0c0,.15.17.27.42.32l4.41.83a2,2,0,0,0,1.46-.38l3.2-2.8c.28-.23.19-.45.19-.45L163,591.69"/><path class="cls-22" d="M162.79,591.45a1.06,1.06,0,0,0-.19-.06l-4.33-1a1.8,1.8,0,0,0-1.45.37l-3.27,3a.6.6,0,0,0-.11.12.37.37,0,0,0-.1.28l0,.07a.36.36,0,0,0,.11.14h0l0,0h0l0,0h0l0,0h0l.13,0,4.4.83a1.9,1.9,0,0,0,.78,0,1.73,1.73,0,0,0,.68-.33l3.2-2.79c.16-.15.23-.3.19-.43h0A.41.41,0,0,0,162.79,591.45Z"/><path class="cls-23" d="M164.36,596.92l0-.13-1.31-5.1h0a.3.3,0,0,0-.13-.17h0a.34.34,0,0,1,.13.17h0c0,.13,0,.28-.19.43l-3.21,2.79a1.5,1.5,0,0,1-.68.33l-.09,0,1.35,5.25a1.7,1.7,0,0,0,.78-.35l3.21-2.8a.51.51,0,0,0,.19-.29h0a.19.19,0,0,0,0-.08s0,0,0,0Z"/><path class="cls-21" d="M268.69,509.88a.14.14,0,0,0,0-.13l0-.07-1.44-1.35a.75.75,0,0,0-.64-.18l-1.92.41-.07,0s-.09.05-.1.09v0l-.65,2.29h0c0,.06,0,.14.1.21l1.5,1.3a.85.85,0,0,0,.64.18l1.85-.36c.16,0,.18-.13.18-.13l.65-2.3"/><path class="cls-22" d="M268.65,509.75a.2.2,0,0,0-.06-.07l-1.43-1.35a.75.75,0,0,0-.64-.18l-1.92.41-.07,0a.22.22,0,0,0-.1.09v0a.11.11,0,0,0,0,.08h0v0h0v0h0l0,0h0l0,0,1.5,1.3a.81.81,0,0,0,.31.15.68.68,0,0,0,.34,0l1.84-.36c.1,0,.16-.07.17-.12h0A.16.16,0,0,0,268.65,509.75Z"/><path class="cls-23" d="M268,512.19v-.06l.64-2.24h0a.31.31,0,0,0,0-.09h0a.1.1,0,0,1,0,.09h0c0,.05-.07.1-.17.12l-1.85.36a.77.77,0,0,1-.33,0h0l-.65,2.31a.69.69,0,0,0,.37,0l1.85-.36a.2.2,0,0,0,.14-.06h0s0,0,0,0h0Z"/><path class="cls-21" d="M176.63,585.36a.17.17,0,0,0,0-.13l-.06-.07-1.43-1.35a.77.77,0,0,0-.65-.18l-1.92.41-.07,0a.16.16,0,0,0-.1.08v0l-.64,2.29h0a.19.19,0,0,0,.09.21l1.5,1.3a.86.86,0,0,0,.65.18l1.85-.36a.18.18,0,0,0,.17-.13l.65-2.3"/><path class="cls-22" d="M176.59,585.23a.18.18,0,0,0-.05-.07l-1.43-1.35a.77.77,0,0,0-.65-.18l-1.91.41-.07,0s-.09,0-.1.08v0a.22.22,0,0,0,0,.08h0v0h0l0,0h0v0h0l0,0,1.5,1.3a.75.75,0,0,0,.31.15.63.63,0,0,0,.33,0l1.85-.36a.21.21,0,0,0,.17-.12h0A.14.14,0,0,0,176.59,585.23Z"/><path class="cls-23" d="M176,587.67l0-.06.63-2.24h0a.1.1,0,0,0,0-.09h0a.14.14,0,0,1,0,.09h0a.21.21,0,0,1-.17.12l-1.85.36a.68.68,0,0,1-.34,0h0l-.65,2.31a.73.73,0,0,0,.38,0l1.85-.36a.26.26,0,0,0,.14-.06h0s0,0,0,0h0Z"/><path class="cls-21" d="M118,508.37a.53.53,0,0,0-.35-.21l-.26,0-5.83.15a2.38,2.38,0,0,0-1.72,1l-3.15,4.87a.58.58,0,0,0-.1.19.5.5,0,0,0,0,.39l0,.08,3.42,6.14h0c.08.18.3.28.64.26l5.85-.42a2.57,2.57,0,0,0,1.72-1l3.13-4.6a.56.56,0,0,0,.09-.64L118,508.39"/><path class="cls-22" d="M117.63,508.16l-.26,0-5.82.15a2.42,2.42,0,0,0-1.72,1l-3.14,4.87a.58.58,0,0,0-.1.19.47.47,0,0,0,0,.38l0,.09a.45.45,0,0,0,.19.14h0l.06,0h0l.06,0h.28l5.84-.41a2.36,2.36,0,0,0,1-.32,2.27,2.27,0,0,0,.75-.64l3.12-4.6a.58.58,0,0,0,.1-.61h0A.52.52,0,0,0,117.63,508.16Z"/><path class="cls-23" d="M121.44,514.56l-.08-.15-3.36-6v0a.48.48,0,0,0-.22-.17h0a.45.45,0,0,1,.21.17h0a.58.58,0,0,1-.1.61l-3.13,4.6a2.42,2.42,0,0,1-.75.65l-.11,0,3.45,6.21a2.23,2.23,0,0,0,.87-.71l3.13-4.6a.71.71,0,0,0,.15-.44h0a.14.14,0,0,0,0-.1.08.08,0,0,0,0,0S121.45,514.57,121.44,514.56Z"/><path class="cls-21" d="M206.94,587.57a.57.57,0,0,0-.27-.38,1.17,1.17,0,0,0-.25-.14l-6-2.5a2.59,2.59,0,0,0-2.19.19l-5.42,3.49-.19.15a.59.59,0,0,0-.21.38v.11l.66,7.77h0c0,.22.17.43.52.56l6.13,2.24a2.8,2.8,0,0,0,2.18-.19l5.27-3.24c.45-.26.38-.6.38-.6l-.66-7.83"/><path class="cls-22" d="M206.66,587.19a1.17,1.17,0,0,0-.25-.14l-6-2.51a2.67,2.67,0,0,0-2.19.19l-5.4,3.5-.19.14a.64.64,0,0,0-.21.38v.12a.51.51,0,0,0,.13.22h0l.05,0h0l.06,0h0l.06,0h0l.18.08,6.11,2.25a2.76,2.76,0,0,0,1.13.12,2.59,2.59,0,0,0,1.05-.31l5.26-3.24c.28-.17.4-.37.38-.57h0A.59.59,0,0,0,206.66,587.19Z"/><path class="cls-23" d="M207.6,595.41v-.19l-.65-7.64h0a.46.46,0,0,0-.15-.28h0a.5.5,0,0,1,.14.28h0a.63.63,0,0,1-.37.57l-5.27,3.24a2.49,2.49,0,0,1-1.06.31h-.14l.67,7.86a2.4,2.4,0,0,0,1.2-.32l5.28-3.23a.94.94,0,0,0,.35-.38h0a.27.27,0,0,0,0-.11.17.17,0,0,0,0-.07A.09.09,0,0,0,207.6,595.41Z"/><path class="cls-21" d="M88,571.1a.35.35,0,0,0-.17-.24.42.42,0,0,0-.16-.09l-3.83-1.61a1.68,1.68,0,0,0-1.4.13L79,571.53l-.12.09a.38.38,0,0,0-.14.24v.07l.42,5h0c0,.15.12.28.34.36l3.92,1.44a1.86,1.86,0,0,0,1.41-.12l3.37-2.08c.29-.17.25-.38.25-.38l-.43-5"/><path class="cls-22" d="M87.86,570.86a.42.42,0,0,0-.16-.09l-3.82-1.61a1.72,1.72,0,0,0-1.4.12L79,571.52a.63.63,0,0,0-.12.1.31.31,0,0,0-.13.24v.07a.29.29,0,0,0,.08.14h0l0,0h0l0,0h0l0,0h0l.12.05L83,573.67a1.88,1.88,0,0,0,.72.08,1.75,1.75,0,0,0,.68-.2l3.37-2.08a.42.42,0,0,0,.24-.36h0A.35.35,0,0,0,87.86,570.86Z"/><path class="cls-23" d="M88.47,576.12V576L88,571.11h0a.38.38,0,0,0-.09-.18h0a.38.38,0,0,1,.09.18h0a.42.42,0,0,1-.24.36l-3.38,2.08a1.55,1.55,0,0,1-.68.2h-.08l.42,5a1.7,1.7,0,0,0,.78-.2l3.38-2.08a.5.5,0,0,0,.22-.24h0s0,0,0-.07v-.08Z"/><path class="cls-21" d="M129.71,521.34a.25.25,0,0,0-.06-.19.32.32,0,0,0-.08-.09l-2.06-1.82a1.07,1.07,0,0,0-.91-.22l-2.66.67-.1,0a.22.22,0,0,0-.13.12v0l-.8,3.22h0c0,.09,0,.2.14.3l2.16,1.74a1.25,1.25,0,0,0,.91.22l2.56-.59c.22,0,.24-.19.24-.19l.8-3.24"/><path class="cls-22" d="M129.65,521.15l-.08-.09-2.06-1.82a1.07,1.07,0,0,0-.91-.22l-2.65.67-.1,0a.22.22,0,0,0-.13.12l0,0a.52.52,0,0,0,0,.11h0l0,0h0l0,0h0l0,0h0l.06.06,2.16,1.74a1.14,1.14,0,0,0,.43.2,1.08,1.08,0,0,0,.47,0l2.56-.59c.13,0,.21-.09.23-.18h0A.23.23,0,0,0,129.65,521.15Z"/><path class="cls-23" d="M128.91,524.59l0-.08.78-3.16h0a.21.21,0,0,0,0-.13h0a.2.2,0,0,1,0,.13h0a.27.27,0,0,1-.23.18l-2.56.59a1.08,1.08,0,0,1-.47,0l-.06,0-.8,3.26a1.09,1.09,0,0,0,.53,0l2.56-.59a.34.34,0,0,0,.2-.1h0l0,0v0Z"/><path class="cls-21" d="M105.6,588.58a.21.21,0,0,0,0-.19l-.08-.09-2.07-1.82a1.09,1.09,0,0,0-.9-.22l-2.67.67-.09,0a.24.24,0,0,0-.14.12v0l-.79,3.22h0c0,.09,0,.2.14.3l2.16,1.74a1.22,1.22,0,0,0,.9.22l2.57-.59c.22,0,.23-.19.23-.19l.8-3.24"/><path class="cls-22" d="M105.54,588.39a.32.32,0,0,0-.08-.09l-2.06-1.82a1.09,1.09,0,0,0-.9-.22l-2.66.67-.09,0a.24.24,0,0,0-.14.12v0a.23.23,0,0,0,0,.11h0v0h0l0,0h0l0,0h0l.07.06,2.15,1.74a1.19,1.19,0,0,0,.44.2,1.08,1.08,0,0,0,.47,0l2.56-.59c.13,0,.21-.09.23-.18h0A.24.24,0,0,0,105.54,588.39Z"/><path class="cls-23" d="M104.8,591.83l0-.08.78-3.16h0a.16.16,0,0,0,0-.13h0a.2.2,0,0,1,0,.13h0a.28.28,0,0,1-.23.18l-2.57.59a1.09,1.09,0,0,1-.47,0l0,0-.81,3.26a1.1,1.1,0,0,0,.53,0l2.57-.59a.31.31,0,0,0,.19-.1h0l0,0v0Z"/><path class="cls-21" d="M66.28,537.67a.25.25,0,0,0-.06-.19l-.08-.09-2.07-1.82a1.09,1.09,0,0,0-.9-.22l-2.66.67-.1,0a.24.24,0,0,0-.14.12v.05l-.79,3.22h0c0,.09,0,.2.14.3l2.16,1.74a1.22,1.22,0,0,0,.9.22l2.57-.59c.22,0,.24-.19.24-.19l.79-3.24"/><path class="cls-22" d="M66.22,537.48l-.09-.09-2.06-1.82a1.08,1.08,0,0,0-.9-.22l-2.66.67-.09,0a.24.24,0,0,0-.14.12v.05a.23.23,0,0,0,0,.11h0l0,0h0l0,0h0l0,0h0a.17.17,0,0,0,.06.06l2.15,1.74a1.27,1.27,0,0,0,.44.2,1.08,1.08,0,0,0,.47,0l2.56-.59c.13,0,.21-.09.23-.18h0A.27.27,0,0,0,66.22,537.48Z"/><path class="cls-23" d="M65.48,540.92l0-.08.77-3.16h0a.32.32,0,0,0,0-.13h0a.2.2,0,0,1,0,.13h0a.28.28,0,0,1-.23.18l-2.57.59a1.09,1.09,0,0,1-.47,0l0,0-.8,3.26a1.08,1.08,0,0,0,.53,0l2.56-.59a.31.31,0,0,0,.19-.1h0l0,0v-.05Z"/><path class="cls-21" d="M207.66,507.25a.57.57,0,0,0-.19-.42,2.13,2.13,0,0,0-.22-.18l-5.45-3.52a2.6,2.6,0,0,0-2.18-.19l-6,2.49a1,1,0,0,0-.21.11.54.54,0,0,0-.28.33V506l-.71,7.77h0c0,.22.1.45.42.64l5.63,3.29a2.85,2.85,0,0,0,2.19.2l5.76-2.26c.48-.19.48-.53.48-.53l.72-7.82"/><path class="cls-22" d="M207.45,506.83a1,1,0,0,0-.22-.18l-5.43-3.52a2.6,2.6,0,0,0-2.18-.19l-5.94,2.48-.21.11a.6.6,0,0,0-.27.34V506a.48.48,0,0,0,.09.24h0a.25.25,0,0,0,0,.07h0l0,.06h0l.06.05h0a.91.91,0,0,0,.16.11l5.62,3.29a2.84,2.84,0,0,0,1.09.32,2.55,2.55,0,0,0,1.09-.12l5.75-2.27c.3-.11.46-.29.47-.49v0A.57.57,0,0,0,207.45,506.83Z"/><path class="cls-23" d="M206.94,515.08l0-.18.7-7.63v0a.5.5,0,0,0-.09-.3h0a.58.58,0,0,1,.09.3h0c0,.2-.17.38-.47.49L201.42,510a2.61,2.61,0,0,1-1.1.13l-.14,0-.73,7.86a2.67,2.67,0,0,0,1.25-.1l5.76-2.26a.81.81,0,0,0,.41-.31h0a.38.38,0,0,0,0-.11s0,0,0-.06S206.94,515.1,206.94,515.08Z"/><path class="cls-21" d="M227.63,595.88a.76.76,0,0,0-.17-.56,2.05,2.05,0,0,0-.25-.27L221,589.71a3.32,3.32,0,0,0-2.72-.62l-7.92,2.13a2,2,0,0,0-.29.11.68.68,0,0,0-.39.37l0,.14-2.21,9.67h0c-.09.26.05.58.43.87l6.53,5.1a3.69,3.69,0,0,0,2.73.62l7.63-1.88c.65-.15.7-.58.7-.58l2.23-9.74"/><path class="cls-22" d="M227.44,595.31a1,1,0,0,0-.25-.26L221,589.7a3.35,3.35,0,0,0-2.72-.61l-7.9,2.13-.28.1a.75.75,0,0,0-.4.38l0,.14a.63.63,0,0,0,.06.32h0a.56.56,0,0,0,0,.08v0l0,.08h0l.06.08h0l.19.17,6.52,5.09a3.45,3.45,0,0,0,1.32.58,3.17,3.17,0,0,0,1.4,0l7.62-1.88c.39-.1.63-.29.68-.54v0A.68.68,0,0,0,227.44,595.31Z"/><path class="cls-23" d="M225.4,605.63l0-.23,2.18-9.5v0a.62.62,0,0,0-.06-.39h0a.66.66,0,0,1,.07.38v0c-.05.25-.28.45-.68.54l-7.63,1.88a3.22,3.22,0,0,1-1.41,0l-.17,0L215.48,608a3.12,3.12,0,0,0,1.59.08l7.64-1.87a1.11,1.11,0,0,0,.57-.32h0a.37.37,0,0,0,.07-.13l0-.07A.19.19,0,0,0,225.4,605.63Z"/><path class="cls-21" d="M149.72,544.23a.45.45,0,0,0-.15-.32l-.17-.14-4.19-2.71a2,2,0,0,0-1.69-.15l-4.58,1.92-.16.08a.42.42,0,0,0-.21.26v.09l-.55,6h0c0,.16.07.34.33.49l4.33,2.53a2.16,2.16,0,0,0,1.68.15l4.44-1.74c.38-.14.37-.4.37-.4l.56-6"/><path class="cls-22" d="M149.56,543.9a1.26,1.26,0,0,0-.17-.13l-4.18-2.71a2,2,0,0,0-1.68-.15L139,542.82l-.16.09a.43.43,0,0,0-.21.26v.09a.45.45,0,0,0,.07.18h0l0,0h0l0,0h0l0,0h0l.13.09,4.32,2.53a2.06,2.06,0,0,0,.84.24,1.9,1.9,0,0,0,.84-.09l4.43-1.74c.23-.09.35-.23.36-.38h0A.49.49,0,0,0,149.56,543.9Z"/><path class="cls-23" d="M149.16,550.26v-.14l.55-5.88h0a.43.43,0,0,0-.07-.23h0a.51.51,0,0,1,.07.23h0c0,.15-.13.29-.36.38l-4.43,1.74a1.94,1.94,0,0,1-.85.09H144l-.56,6a1.9,1.9,0,0,0,1-.08l4.43-1.74a.63.63,0,0,0,.32-.23h0a.39.39,0,0,0,0-.09v0A.09.09,0,0,0,149.16,550.26Z"/><path class="cls-21" d="M123.83,581.87a.68.68,0,0,0-.22-.47,1.84,1.84,0,0,0-.25-.21l-6.19-4a3,3,0,0,0-2.48-.22l-6.76,2.83a1.36,1.36,0,0,0-.24.13.65.65,0,0,0-.31.38v.12l-.82,8.83h0c0,.25.12.51.49.73l6.39,3.73a3.24,3.24,0,0,0,2.49.23l6.54-2.57c.55-.21.55-.6.55-.6l.82-8.89"/><path class="cls-22" d="M123.59,581.39a1,1,0,0,0-.25-.2l-6.17-4a3,3,0,0,0-2.48-.22L108,579.8a1.34,1.34,0,0,0-.24.12.64.64,0,0,0-.31.39v.12a.54.54,0,0,0,.09.27h0l.05.07h0l0,.06h0l.06.06h0l.19.13,6.38,3.73a3,3,0,0,0,1.24.36,2.76,2.76,0,0,0,1.24-.14l6.53-2.56c.34-.14.52-.34.54-.56v0A.65.65,0,0,0,123.59,581.39Z"/><path class="cls-23" d="M123,590.77l0-.21.8-8.67v0a.49.49,0,0,0-.11-.33h0a.58.58,0,0,1,.1.34v0c0,.22-.2.42-.54.56L116.73,585a2.79,2.79,0,0,1-1.25.14l-.15,0-.83,8.93a3,3,0,0,0,1.42-.11l6.55-2.57a.91.91,0,0,0,.46-.35h0a.27.27,0,0,0,0-.12.25.25,0,0,0,0-.07S123,590.79,123,590.77Z"/><path class="cls-24" d="M160.12,507.1h0c-.05-.16-1.93-5.1-9-5.06,0,0-13.13,4.36-12.29,9.88,0,.15,0,.28.07.41-.07,1.52.87,3.86,6,6.11,0,0,3.39,1.32,8.31-1.62s7.34-4,7.32-6.16A13.14,13.14,0,0,0,160.12,507.1Z"/><path class="cls-24" d="M160.11,507.09h0S160.16,507.07,160.11,507.09Z"/><path class="cls-25" d="M151.34,502.54s-12.15,4.12-11.55,8.82S144,515.9,152,511s7.36-4.37,7.36-4.37S157.87,502.3,151.34,502.54Z"/><path class="cls-26" d="M150.75,502.81s-11.19,3.76-10.56,8.26,3.95,4.39,11.32-.18,6.76-4.07,6.76-4.07S156.79,502.67,150.75,502.81Z"/><path class="cls-27" d="M150.36,503.35s-10.43,3.51-9.88,7.61,3.63,4,10.52-.25,6.31-3.77,6.31-3.77S156,503.17,150.36,503.35Z"/><path class="cls-24" d="M190.84,523.57h0a8,8,0,0,1,6.84-6.51s12,2.66,12.26,8.5V526c.33,1.56-.08,4.12-4.14,7.18,0,0-2.69,1.85-7.43-.5s-7-3.12-7.34-5.34A15.85,15.85,0,0,1,190.84,523.57Z"/><path class="cls-24" d="M190.84,523.55v0S190.8,523.54,190.84,523.55Z"/><path class="cls-25" d="M197.61,517.6s11.15,2.54,11.43,7.5-2.83,5.29-10.59,1.36-7.08-3.48-7.08-3.48S192,518.28,197.61,517.6Z"/><path class="cls-26" d="M198.16,517.79s10.27,2.31,10.5,7.06-2.65,5.1-9.77,1.43-6.5-3.26-6.5-3.26A6.38,6.38,0,0,1,198.16,517.79Z"/><path class="cls-27" d="M198.59,518.29s9.57,2.17,9.8,6.49-2.45,4.63-9.09,1.23-6.07-3-6.07-3A5.8,5.8,0,0,1,198.59,518.29Z"/><path class="cls-24" d="M252.2,595.11v0h0a7.92,7.92,0,0,1,2.91-9s11.86-3.38,14.83,1.64l.21.38c1,1.23,1.89,3.67-.23,8.3,0,0-1.49,2.9-6.77,3.09s-7.64.58-9-1.21A16.22,16.22,0,0,1,252.2,595.11Z"/><path class="cls-24" d="M252.2,595.1h0S252.16,595.11,252.2,595.1Z"/><path class="cls-25" d="M255.32,586.65s11-3.08,13.62,1.15,0,6-8.67,6.24-7.88.3-7.88.3S250.67,589.93,255.32,586.65Z"/><path class="cls-26" d="M255.9,586.55s10.13-2.85,12.59,1.22.1,5.75-7.92,5.9-7.27.22-7.27.22A6.38,6.38,0,0,1,255.9,586.55Z"/><path class="cls-27" d="M256.52,586.79s9.44-2.65,11.7,1,0,5.24-7.41,5.41-6.77.24-6.77.24A5.78,5.78,0,0,1,256.52,586.79Z"/><path class="cls-24" d="M245.89,560.63l0,0h0a13.68,13.68,0,0,1,10.82-12.19s21.1,2.83,22.33,12.84c0,.26,0,.51.07.75.78,2.65.45,7.11-6.1,13,0,0-4.35,3.57-12.85.22s-12.49-4.37-13.41-8.13A28,28,0,0,1,245.89,560.63Z"/><path class="cls-24" d="M245.89,560.6v0S245.82,560.59,245.89,560.6Z"/><path class="cls-25" d="M256.67,549.38s19.56,2.75,20.77,11.25-4.12,9.52-18,3.87-12.69-5-12.69-5S247,551.36,256.67,549.38Z"/><path class="cls-26" d="M257.66,549.63s18,2.48,19.08,10.62-3.82,9.18-16.61,3.87-11.66-4.66-11.66-4.66S248.78,551.61,257.66,549.63Z"/><path class="cls-27" d="M258.47,550.43s16.77,2.34,17.79,9.74-3.54,8.32-15.46,3.44-10.88-4.29-10.88-4.29S250.2,552.19,258.47,550.43Z"/><path class="cls-24" d="M107.31,576.48l0,0h0c0-.29-.7-9.86-12.9-13.46,0,0-25.08.73-26.51,10.75,0,.25-.05.5-.08.75-.92,2.59-.51,7.15,7.29,13.75,0,0,5.19,4.06,15.28,1.53s14.84-3.15,15.92-6.87A23.51,23.51,0,0,0,107.31,576.48Z"/><path class="cls-24" d="M107.31,576.45v0S107.39,576.45,107.31,576.45Z"/><path class="cls-25" d="M94.46,564s-23.25.8-24.65,9.28,4.92,10.07,21.44,5.77,15.07-3.74,15.07-3.74S105.92,567,94.46,564Z"/><path class="cls-26" d="M93.29,564.13s-21.39.69-22.65,8.82,4.56,9.69,19.75,5.62S104.24,575,104.24,575,103.85,567.05,93.29,564.13Z"/><path class="cls-27" d="M92.33,564.86s-19.94.67-21.13,8.06,4.24,8.8,18.4,5.06,12.92-3.24,12.92-3.24S102.16,567.49,92.33,564.86Z"/><path class="cls-24" d="M172.56,532.71h0c0-.12-.29-4.05-5.31-5.53,0,0-10.31.29-10.89,4.42,0,.1,0,.2,0,.3-.38,1.07-.21,3,3,5.66,0,0,2.13,1.67,6.28.63s6.1-1.3,6.55-2.83A9.61,9.61,0,0,0,172.56,532.71Z"/><path class="cls-24" d="M172.56,532.7h0S172.59,532.7,172.56,532.7Z"/><path class="cls-25" d="M167.27,527.57s-9.55.33-10.13,3.82,2,4.14,8.82,2.37,6.19-1.54,6.19-1.54S172,528.81,167.27,527.57Z"/><path class="cls-26" d="M166.79,527.64s-8.79.28-9.31,3.62,1.88,4,8.12,2.31,5.7-1.45,5.7-1.45S171.14,528.84,166.79,527.64Z"/><path class="cls-27" d="M166.4,527.94s-8.2.27-8.69,3.31,1.74,3.62,7.57,2.08,5.31-1.33,5.31-1.33S170.44,529,166.4,527.94Z"/><path class="cls-24" d="M117.62,591.65l0,0h0a13.69,13.69,0,0,1,7.48-14.49s21.14-2.45,24.8,7c.1.24.18.47.26.7,1.41,2.37,2.18,6.78-2.71,14.07,0,0-3.35,4.53-12.4,3.37s-13.19-1.14-15-4.57A27.45,27.45,0,0,1,117.62,591.65Z"/><path class="cls-24" d="M117.61,591.62v0S117.54,591.62,117.61,591.62Z"/><path class="cls-25" d="M125.29,578.09s19.63-2.16,22.9,5.77-1.64,10.25-16.52,8.21-13.52-1.69-13.52-1.69S116.44,582.39,125.29,578.09Z"/><path class="cls-26" d="M126.31,578.08s18.05-2,21.11,5.59-1.44,9.83-15.14,7.85-12.45-1.65-12.45-1.65S118.19,582.2,126.31,578.08Z"/><path class="cls-27" d="M127.29,578.66s16.83-1.87,19.65,5.05-1.38,8.94-14.14,7.15-11.6-1.48-11.6-1.48S119.71,582.4,127.29,578.66Z"/><path class="cls-24" d="M96,588.16h0a7.91,7.91,0,0,1,6.83-6.51s12,2.66,12.26,8.49c0,.15,0,.29,0,.44.32,1.56-.09,4.12-4.15,7.18,0,0-2.69,1.85-7.42-.5s-7-3.12-7.35-5.34A16.63,16.63,0,0,1,96,588.16Z"/><path class="cls-24" d="M96,588.15h0S96,588.14,96,588.15Z"/><path class="cls-25" d="M102.79,582.2s11.15,2.53,11.44,7.49-2.84,5.3-10.59,1.37-7.08-3.49-7.08-3.49S97.13,582.87,102.79,582.2Z"/><path class="cls-26" d="M103.35,582.39s10.26,2.3,10.49,7.05-2.65,5.11-9.77,1.43-6.5-3.26-6.5-3.26A6.38,6.38,0,0,1,103.35,582.39Z"/><path class="cls-27" d="M103.78,582.89s9.56,2.16,9.79,6.48-2.44,4.63-9.09,1.24-6.07-3-6.07-3A5.79,5.79,0,0,1,103.78,582.89Z"/></g><g id="Layer_9" data-name="Layer 9"><path class="cls-28" d="M146.24,511.71a.06.06,0,0,1,0,.09l-.16.12a.06.06,0,0,1-.09,0l-.13-.16a.07.07,0,0,1,0-.09l.16-.12a.07.07,0,0,1,.1,0Z"/><path class="cls-29" d="M146.23,511.76a.23.23,0,0,1-.36-.1h0a.07.07,0,0,0,0,.09l.13.16a.06.06,0,0,0,.09,0l.16-.12s0,0,0-.06Z"/><path class="cls-28" d="M152.11,507.15a.09.09,0,0,1-.13.05l-.28-.12a.09.09,0,0,1,0-.13l.12-.28c0-.05.08-.08.13-.05l.28.12a.09.09,0,0,1,0,.13Z"/><path class="cls-29" d="M152,507.18a.35.35,0,0,1-.12-.56h0c-.05,0-.1,0-.13.05l-.12.28a.09.09,0,0,0,0,.13l.28.12a.1.1,0,0,0,.09,0Z"/><path class="cls-28" d="M148.15,509.85a.06.06,0,0,1,0,.07l-.06.15a.05.05,0,0,1-.07,0l-.15-.05a.05.05,0,0,1,0-.07l0-.16a.06.06,0,0,1,.07,0Z"/><path class="cls-29" d="M148.17,509.89a.2.2,0,0,1-.3.09h0a.05.05,0,0,0,0,.07l.15.05a.05.05,0,0,0,.07,0l.06-.15a.07.07,0,0,0,0-.05Z"/><path class="cls-28" d="M144.07,510.21a.09.09,0,0,1,.06.11l-.1.27a.1.1,0,0,1-.12.05l-.26-.09a.09.09,0,0,1-.05-.12l.09-.26a.09.09,0,0,1,.12-.06Z"/><path class="cls-29" d="M144.1,510.28a.33.33,0,0,1-.5.15h0a.09.09,0,0,0,.05.12l.26.09a.1.1,0,0,0,.12-.05l.1-.27a.08.08,0,0,0,0-.08A.08.08,0,0,1,144.1,510.28Z"/><path class="cls-28" d="M149.75,508.83a0,0,0,0,1-.08,0l-.13-.14a.05.05,0,0,1,0-.08l.13-.13a.06.06,0,0,1,.09,0l.12.13a.06.06,0,0,1,0,.09Z"/><path class="cls-29" d="M149.7,508.83a.21.21,0,0,1,.07-.34h0a.06.06,0,0,0-.09,0l-.13.13a.05.05,0,0,0,0,.08l.13.14s0,0,.05,0Z"/><path class="cls-28" d="M147.17,508.16a.06.06,0,0,1-.08,0L147,508a.06.06,0,0,1,0-.08l.14-.13a.06.06,0,0,1,.08,0l.13.14a.06.06,0,0,1,0,.08Z"/><path class="cls-29" d="M147.12,508.16a.23.23,0,0,1,.06-.35h0a.06.06,0,0,0-.08,0l-.14.13a.06.06,0,0,0,0,.08l.13.14a0,0,0,0,0,0,0Z"/><path class="cls-28" d="M95.36,572.86a.21.21,0,0,1-.28.08l-.54-.32a.21.21,0,0,1-.07-.28l.32-.54a.2.2,0,0,1,.28-.07l.54.32a.22.22,0,0,1,.07.28Z"/><path class="cls-29" d="M95.19,572.91a.74.74,0,0,1-.12-1.18h0a.2.2,0,0,0-.28.07l-.32.54a.21.21,0,0,0,.07.28l.54.32a.21.21,0,0,0,.19,0Z"/><path class="cls-28" d="M75.57,573.41h.63a.2.2,0,0,1,.2.2v.63a.2.2,0,0,1-.2.2h-.63a.2.2,0,0,1-.2-.2v-.62a.21.21,0,0,1,.21-.21Z" transform="translate(-455.79 344.85) rotate(-59.16)"/><path class="cls-29" d="M76,574.51a.74.74,0,0,1-.12-1.18h0a.2.2,0,0,0-.28.07l-.32.54a.19.19,0,0,0,.07.27l.54.33a.21.21,0,0,0,.19,0Z"/><path class="cls-28" d="M85.18,574.75a.11.11,0,0,1,0,.15l-.3.18a.11.11,0,0,1-.15,0l-.18-.3a.1.1,0,0,1,0-.15l.29-.18a.12.12,0,0,1,.16,0Z"/><path class="cls-29" d="M85.15,574.84a.4.4,0,0,1-.6-.25h0a.1.1,0,0,0,0,.15l.18.3a.11.11,0,0,0,.15,0l.3-.18a.11.11,0,0,0,0-.09Z"/><rect class="cls-28" x="88.06" y="573.79" width="0.87" height="0.86" rx="0.17" transform="translate(-451.04 358.66) rotate(-59.46)"/><path class="cls-29" d="M88.59,574.7a.62.62,0,0,1-.1-1h0a.18.18,0,0,0-.24.06l-.26.45a.18.18,0,0,0,.06.24l.45.26a.16.16,0,0,0,.15,0Z"/><rect class="cls-28" x="81.12" y="575.01" width="0.87" height="0.86" rx="0.17" transform="translate(-454.81 351.61) rotate(-59.28)"/><path class="cls-29" d="M81.66,575.92a.62.62,0,0,1-.11-1h0a.17.17,0,0,0-.23.06l-.27.45a.17.17,0,0,0,.06.23l.45.27a.15.15,0,0,0,.16,0S81.68,575.94,81.66,575.92Z"/><path class="cls-28" d="M78.36,571.05a.1.1,0,0,1,0,.13l-.13.25a.1.1,0,0,1-.12,0l-.25-.13a.09.09,0,0,1,0-.12L78,571a.1.1,0,0,1,.12,0Z"/><path class="cls-29" d="M78.39,571.13a.32.32,0,0,1-.52.09h0a.09.09,0,0,0,0,.12l.25.13a.1.1,0,0,0,.12,0l.13-.25a.1.1,0,0,0,0-.09A.08.08,0,0,1,78.39,571.13Z"/><path class="cls-28" d="M82.42,570.48a.14.14,0,0,1,.07.2l-.21.43a.15.15,0,0,1-.21.07l-.43-.21a.16.16,0,0,1-.07-.21l.21-.43a.16.16,0,0,1,.21-.07Z"/><path class="cls-29" d="M82.47,570.6a.58.58,0,0,1-.9.16h0a.16.16,0,0,0,.07.21l.43.21a.15.15,0,0,0,.21-.07l.21-.43a.14.14,0,0,0,0-.14S82.48,570.58,82.47,570.6Z"/><path class="cls-28" d="M96.89,569.65a.1.1,0,0,1-.14,0l-.19-.25a.12.12,0,0,1,0-.15l.26-.19a.1.1,0,0,1,.14,0l.19.25a.11.11,0,0,1,0,.15Z"/><path class="cls-29" d="M96.81,569.63a.37.37,0,0,1,.17-.57h0a.1.1,0,0,0-.14,0l-.26.19a.12.12,0,0,0,0,.15l.19.25a.1.1,0,0,0,.09,0Z"/><path class="cls-28" d="M92.71,568.1a.11.11,0,0,1-.15,0l-.19-.25a.11.11,0,0,1,0-.15l.25-.18a.09.09,0,0,1,.14,0l.19.25a.1.1,0,0,1,0,.15Z"/><path class="cls-29" d="M92.62,568.08a.37.37,0,0,1,.17-.57h0a.09.09,0,0,0-.14,0l-.25.18a.11.11,0,0,0,0,.15l.19.25a.1.1,0,0,0,.09,0Z"/><path class="cls-28" d="M84.54,569.75a.11.11,0,0,1-.14,0l-.19-.26a.11.11,0,0,1,0-.14l.26-.19a.11.11,0,0,1,.14,0l.19.26a.1.1,0,0,1,0,.14Z"/><path class="cls-29" d="M84.46,569.74a.37.37,0,0,1,.18-.57h0a.11.11,0,0,0-.14,0l-.26.19a.11.11,0,0,0,0,.14l.19.26a.1.1,0,0,0,.09,0Z"/><path class="cls-28" d="M92.38,573.6a.09.09,0,0,1-.14,0l-.19-.26a.09.09,0,0,1,0-.14l.26-.19a.11.11,0,0,1,.14,0l.19.26a.1.1,0,0,1,0,.14Z"/><path class="cls-29" d="M92.29,573.59a.37.37,0,0,1,.18-.57h0a.11.11,0,0,0-.14,0l-.26.19a.09.09,0,0,0,0,.14l.19.26a.09.09,0,0,0,.08,0Z"/><path class="cls-28" d="M89.33,571.92a.11.11,0,0,1-.15,0l-.19-.25a.11.11,0,0,1,0-.15l.25-.18a.1.1,0,0,1,.15,0l.18.25a.1.1,0,0,1,0,.15Z"/><path class="cls-29" d="M89.24,571.9a.37.37,0,0,1,.18-.57h0a.1.1,0,0,0-.15,0l-.25.18a.11.11,0,0,0,0,.15l.19.25a.1.1,0,0,0,.09,0Z"/><path class="cls-28" d="M139.92,585.42h.48a.16.16,0,0,1,.16.16v.48a.15.15,0,0,1-.15.15h-.48a.16.16,0,0,1-.16-.16v-.48a.15.15,0,0,1,.15-.15Z" transform="translate(-401.09 321.47) rotate(-50.51)"/><path class="cls-29" d="M140.18,586.27a.56.56,0,0,1,0-.9h0a.17.17,0,0,0-.22,0l-.31.38a.16.16,0,0,0,0,.22l.37.3a.15.15,0,0,0,.14,0Z"/><path class="cls-28" d="M125.54,585.22a.16.16,0,0,1-.22,0l-.37-.31a.15.15,0,0,1,0-.22l.3-.37a.15.15,0,0,1,.22,0l.37.3a.15.15,0,0,1,0,.22Z"/><path class="cls-29" d="M125.41,585.24a.57.57,0,0,1,0-.91h0a.15.15,0,0,0-.22,0l-.3.37a.15.15,0,0,0,0,.22l.37.31a.17.17,0,0,0,.14,0Z"/><path class="cls-28" d="M132.35,586.5a.08.08,0,0,1,0,.11l-.25.1a.09.09,0,0,1-.11-.05l-.1-.24a.09.09,0,0,1,0-.12l.25-.1a.1.1,0,0,1,.11,0Z"/><path class="cls-29" d="M132.33,586.56a.31.31,0,0,1-.43-.26h0a.09.09,0,0,0,0,.12l.1.24a.09.09,0,0,0,.11.05l.25-.1a.08.08,0,0,0,0-.06Z"/><path class="cls-28" d="M135.06,586.85a.13.13,0,0,1-.18,0l-.31-.26a.12.12,0,0,1,0-.18l.26-.32a.13.13,0,0,1,.18,0l.31.25a.13.13,0,0,1,0,.19Z"/><path class="cls-29" d="M135,586.86a.47.47,0,0,1,0-.76h0a.13.13,0,0,0-.18,0l-.26.32a.12.12,0,0,0,0,.18l.31.26a.13.13,0,0,0,.12,0S135,586.88,135,586.86Z"/><path class="cls-28" d="M129.65,587a.13.13,0,0,1-.18,0l-.32-.25a.14.14,0,0,1,0-.19l.25-.31a.15.15,0,0,1,.19,0l.31.26a.14.14,0,0,1,0,.18Z"/><path class="cls-29" d="M129.54,587a.47.47,0,0,1,0-.76h0a.15.15,0,0,0-.19,0l-.25.31a.14.14,0,0,0,0,.19l.32.25a.11.11,0,0,0,.11,0Z"/><path class="cls-28" d="M127.61,582.89a.08.08,0,0,1,0,.1l-.13.18s-.06,0-.1,0l-.17-.12a.07.07,0,0,1,0-.1l.12-.18a.07.07,0,0,1,.1,0Z"/><path class="cls-29" d="M127.62,583a.26.26,0,0,1-.41,0h0a.07.07,0,0,0,0,.1l.17.12s.08,0,.1,0l.13-.18a.09.09,0,0,0,0-.07A0,0,0,0,1,127.62,583Z"/><path class="cls-28" d="M130.76,582.93a.11.11,0,0,1,0,.16l-.21.3a.12.12,0,0,1-.17,0l-.3-.21a.13.13,0,0,1,0-.17l.21-.3a.14.14,0,0,1,.17,0Z"/><path class="cls-29" d="M130.78,583a.43.43,0,0,1-.7,0h0a.13.13,0,0,0,0,.17l.3.21a.12.12,0,0,0,.17,0l.21-.3a.11.11,0,0,0,0-.11A.05.05,0,0,1,130.78,583Z"/><path class="cls-28" d="M141.86,584a.08.08,0,0,1-.11,0l-.11-.22a.08.08,0,0,1,0-.11l.22-.11a.08.08,0,0,1,.1,0l.12.22a.08.08,0,0,1,0,.11Z"/><path class="cls-29" d="M141.79,584a.28.28,0,0,1,.21-.41h0a.08.08,0,0,0-.1,0l-.22.11a.08.08,0,0,0,0,.11l.11.22s0,0,.06,0Z"/><path class="cls-28" d="M138.86,582.32a.08.08,0,0,1-.11,0l-.11-.22a.07.07,0,0,1,0-.1l.22-.12a.08.08,0,0,1,.1,0l.12.21a.08.08,0,0,1,0,.11Z"/><path class="cls-29" d="M138.79,582.3a.29.29,0,0,1,.2-.41h0a.08.08,0,0,0-.1,0l-.22.12a.07.07,0,0,0,0,.1l.11.22a.07.07,0,0,0,.06,0Z"/><path class="cls-28" d="M132.46,582.62a.08.08,0,0,1-.11,0l-.11-.22a.08.08,0,0,1,0-.1l.22-.12a.08.08,0,0,1,.11,0l.11.21a.08.08,0,0,1,0,.11Z"/><path class="cls-29" d="M132.4,582.6a.28.28,0,0,1,.2-.41h0a.08.08,0,0,0-.11,0l-.22.12a.08.08,0,0,0,0,.1l.11.22s0,0,.06,0Z"/><path class="cls-28" d="M138,586.47a.07.07,0,0,1-.1,0l-.12-.22a.08.08,0,0,1,0-.11L138,586a.08.08,0,0,1,.11,0l.11.22a.08.08,0,0,1,0,.11Z"/><path class="cls-29" d="M137.9,586.45a.28.28,0,0,1,.2-.41h0a.08.08,0,0,0-.11,0l-.21.11a.08.08,0,0,0,0,.11l.12.22a.09.09,0,0,0,.06,0Z"/><path class="cls-28" d="M135.84,584.83a.08.08,0,0,1-.11,0l-.11-.22a.08.08,0,0,1,0-.11l.22-.11a.09.09,0,0,1,.11,0l.11.22a.08.08,0,0,1,0,.11Z"/><path class="cls-29" d="M135.78,584.81a.28.28,0,0,1,.2-.41h0a.09.09,0,0,0-.11,0l-.22.11a.08.08,0,0,0,0,.11l.11.22.06,0S135.78,584.82,135.78,584.81Z"/><path class="cls-30" d="M306.81,562.74a.37.37,0,0,1-.52.06l-.89-.73a.37.37,0,0,1,0-.52l.73-.89a.38.38,0,0,1,.52-.06l.89.73a.38.38,0,0,1,.05.53Z"/><path class="cls-30" d="M306.5,562.77a1.33,1.33,0,0,1,.11-2.15v0a.38.38,0,0,0-.52.06l-.73.89a.37.37,0,0,0,0,.52l.89.73a.36.36,0,0,0,.33.06Z"/><path class="cls-30" d="M275.23,595.38a.38.38,0,0,1-.52.06l-.89-.74a.37.37,0,0,1-.05-.52l.73-.88a.36.36,0,0,1,.52-.06l.89.73a.38.38,0,0,1,0,.52Z"/><path class="cls-30" d="M274.92,595.41a1.34,1.34,0,0,1,.11-2.16h0a.36.36,0,0,0-.52.06l-.73.88a.37.37,0,0,0,.05.52l.89.74a.39.39,0,0,0,.33,0A.42.42,0,0,1,274.92,595.41Z"/><path class="cls-30" d="M296.82,585.38a.21.21,0,0,1-.12.27l-.58.23a.2.2,0,0,1-.27-.11l-.24-.58a.21.21,0,0,1,.11-.27l.59-.23a.2.2,0,0,1,.27.1Z"/><path class="cls-30" d="M296.75,585.54a.74.74,0,0,1-1-.62h0a.21.21,0,0,0-.11.27l.24.58a.2.2,0,0,0,.27.11l.58-.23a.2.2,0,0,0,.12-.15Z"/><rect class="cls-30" x="312.29" y="555.62" width="1.59" height="1.58" rx="0.31" transform="translate(-315.9 446.9) rotate(-50.76)"/><path class="cls-30" d="M313.13,557.31a1.14,1.14,0,0,1,.09-1.82h0a.31.31,0,0,0-.44,0l-.61.75a.32.32,0,0,0,0,.44l.74.6a.31.31,0,0,0,.29.06Z"/><path class="cls-30" d="M307.93,554.62a.31.31,0,0,1-.44,0l-.74-.6a.32.32,0,0,1,0-.44l.61-.75a.3.3,0,0,1,.43,0l.75.61a.32.32,0,0,1,0,.44Z"/><path class="cls-30" d="M307.67,554.65a1.13,1.13,0,0,1,.09-1.82h0a.3.3,0,0,0-.43,0l-.61.75a.32.32,0,0,0,0,.44l.74.6a.29.29,0,0,0,.28.05A.27.27,0,0,1,307.67,554.65Z"/><path class="cls-30" d="M271.68,598a.16.16,0,0,1,0,.23l-.29.42a.18.18,0,0,1-.24,0l-.42-.31a.17.17,0,0,1,0-.23l.3-.42a.17.17,0,0,1,.23,0Z"/><path class="cls-30" d="M271.71,598.11a.61.61,0,0,1-1,0h0a.17.17,0,0,0,0,.23l.42.31a.18.18,0,0,0,.24,0l.29-.42a.14.14,0,0,0,0-.15Z"/><path class="cls-30" d="M282,592.6a.28.28,0,0,1,.07.39l-.5.72a.29.29,0,0,1-.4.07l-.72-.5a.3.3,0,0,1-.07-.4l.51-.72a.29.29,0,0,1,.4-.07Z"/><path class="cls-30" d="M282,592.83a1,1,0,0,1-1.66,0h0a.3.3,0,0,0,.07.4l.72.5a.29.29,0,0,0,.4-.07l.5-.72a.27.27,0,0,0,0-.26Z"/><path class="cls-30" d="M306.55,580.23a.19.19,0,0,1-.25-.08l-.27-.52a.19.19,0,0,1,.08-.25l.51-.27a.2.2,0,0,1,.26.08l.27.52a.18.18,0,0,1-.09.25Z"/><path class="cls-30" d="M306.4,580.18a.69.69,0,0,1,.48-1h0a.2.2,0,0,0-.26-.08l-.51.27a.19.19,0,0,0-.08.25l.27.52a.15.15,0,0,0,.14.09Z"/><path class="cls-30" d="M299.4,576.26a.19.19,0,0,1-.25-.08l-.27-.52a.2.2,0,0,1,.08-.26l.51-.26a.19.19,0,0,1,.26.08l.27.51a.18.18,0,0,1-.09.25Z"/><path class="cls-30" d="M299.25,576.21a.69.69,0,0,1,.48-1h0a.19.19,0,0,0-.26-.08l-.51.26a.2.2,0,0,0-.08.26l.27.52a.19.19,0,0,0,.14.09Z"/><path class="cls-30" d="M287.72,591.35a.19.19,0,0,1-.25-.08l-.27-.52a.18.18,0,0,1,.08-.25l.51-.27a.19.19,0,0,1,.26.08l.27.51a.19.19,0,0,1-.08.26Z"/><path class="cls-30" d="M287.57,591.3a.69.69,0,0,1,.48-1h0a.19.19,0,0,0-.26-.08l-.51.27a.18.18,0,0,0-.08.25l.27.52a.19.19,0,0,0,.14.09Z"/><path class="cls-30" d="M312.63,568.35a.19.19,0,0,1-.25-.08l-.27-.52a.19.19,0,0,1,.08-.25l.51-.27a.19.19,0,0,1,.26.08l.27.52a.19.19,0,0,1-.09.25Z"/><path class="cls-30" d="M312.48,568.3a.68.68,0,0,1,.48-1h0a.19.19,0,0,0-.26-.08l-.51.27a.19.19,0,0,0-.08.25l.27.52a.15.15,0,0,0,.14.09Z"/><path class="cls-30" d="M292.22,582.23a.2.2,0,0,1-.26-.08l-.27-.52a.19.19,0,0,1,.08-.25l.52-.27a.19.19,0,0,1,.25.08l.27.52a.19.19,0,0,1-.08.25Z"/><path class="cls-30" d="M292.07,582.18a.68.68,0,0,1,.47-1h0a.19.19,0,0,0-.25-.08l-.52.27a.19.19,0,0,0-.08.25l.27.52a.21.21,0,0,0,.15.09S292.08,582.2,292.07,582.18Z"/><path class="cls-30" d="M155.79,607.44a.37.37,0,0,1-.52-.08l-.67-.92a.37.37,0,0,1,.07-.52l.93-.68a.37.37,0,0,1,.52.08l.68.92a.38.38,0,0,1-.08.52Z"/><path class="cls-30" d="M155.49,607.39a1.33,1.33,0,0,1,.63-2.06h0a.37.37,0,0,0-.52-.08l-.93.68a.37.37,0,0,0-.07.52l.67.92a.34.34,0,0,0,.31.14A.53.53,0,0,1,155.49,607.39Z"/><path class="cls-30" d="M203.94,609.87a.37.37,0,0,1-.52-.07l-.68-.93a.38.38,0,0,1,.08-.52l.92-.68a.37.37,0,0,1,.52.08l.68.92a.37.37,0,0,1-.08.52Z"/><path class="cls-30" d="M203.63,609.83a1.36,1.36,0,0,1,.64-2.08h0a.37.37,0,0,0-.52-.08l-.92.68a.38.38,0,0,0-.08.52l.68.93a.34.34,0,0,0,.31.13Z"/><path class="cls-30" d="M117.77,602.93a.21.21,0,0,1-.18.23l-.62.09a.22.22,0,0,1-.24-.18l-.08-.62a.21.21,0,0,1,.17-.24l.63-.08a.2.2,0,0,1,.23.17Z"/><path class="cls-30" d="M117.66,603.07a.74.74,0,0,1-.83-.85h0a.21.21,0,0,0-.17.24l.08.62a.22.22,0,0,0,.24.18l.62-.09a.2.2,0,0,0,.15-.12Z"/><path class="cls-30" d="M123.82,605.34a.31.31,0,0,1-.44-.06l-.57-.78a.31.31,0,0,1,.07-.43l.78-.57a.31.31,0,0,1,.43.06l.57.78a.31.31,0,0,1-.07.43Z"/><path class="cls-30" d="M123.56,605.31a1.13,1.13,0,0,1,.54-1.74h0a.31.31,0,0,0-.43-.06l-.78.57a.31.31,0,0,0-.07.43l.57.78a.34.34,0,0,0,.26.12A.34.34,0,0,1,123.56,605.31Z"/><path class="cls-30" d="M111.25,602.42a.32.32,0,0,1-.44-.06l-.56-.78a.31.31,0,0,1,.06-.43l.78-.57a.3.3,0,0,1,.43.06l.57.78a.3.3,0,0,1-.06.43Z"/><path class="cls-30" d="M111,602.39a1.13,1.13,0,0,1,.54-1.74h0a.3.3,0,0,0-.43-.06l-.78.57a.31.31,0,0,0-.06.43l.56.78a.36.36,0,0,0,.27.12Z"/><path class="cls-30" d="M196.32,609.86a.18.18,0,0,1,0,.24l-.4.34a.18.18,0,0,1-.24,0l-.33-.4a.16.16,0,0,1,0-.23l.39-.34a.18.18,0,0,1,.24,0Z"/><path class="cls-30" d="M196.3,610a.61.61,0,0,1-1-.22h0a.16.16,0,0,0,0,.23l.33.4a.18.18,0,0,0,.24,0l.4-.34a.17.17,0,0,0,0-.15Z"/><path class="cls-30" d="M92.86,595.56a.28.28,0,0,1,0,.4l-.66.57a.3.3,0,0,1-.41,0l-.57-.67a.3.3,0,0,1,0-.41l.67-.57a.28.28,0,0,1,.4,0Z"/><path class="cls-30" d="M92.85,595.8a1,1,0,0,1-1.62-.37h0a.3.3,0,0,0,0,.41l.57.67a.3.3,0,0,0,.41,0l.66-.57a.28.28,0,0,0,.1-.24Z"/><path class="cls-30" d="M141.18,602.75a.18.18,0,0,1-.22-.14l-.14-.57a.18.18,0,0,1,.14-.22l.57-.14a.18.18,0,0,1,.22.14l.14.57a.18.18,0,0,1-.15.22Z"/><path class="cls-30" d="M141.05,602.67a.68.68,0,0,1,.7-.84h0a.18.18,0,0,0-.22-.14l-.57.14a.18.18,0,0,0-.14.22l.14.57a.15.15,0,0,0,.11.12Z"/><path class="cls-30" d="M140.64,605.7a.18.18,0,0,1-.22-.14l-.13-.57a.17.17,0,0,1,.14-.22l.56-.14a.2.2,0,0,1,.23.14l.13.57a.18.18,0,0,1-.14.22Z"/><path class="cls-30" d="M140.51,605.62a.68.68,0,0,1,.7-.84h0a.2.2,0,0,0-.23-.14l-.56.14a.17.17,0,0,0-.14.22l.13.57a.18.18,0,0,0,.11.13A.25.25,0,0,1,140.51,605.62Z"/><path class="cls-30" d="M209.44,608a.18.18,0,0,1-.22-.14l-.14-.57a.19.19,0,0,1,.14-.22l.57-.14a.2.2,0,0,1,.23.14l.13.57a.2.2,0,0,1-.14.23Z"/><path class="cls-30" d="M209.31,607.89a.68.68,0,0,1,.7-.84h0a.2.2,0,0,0-.23-.14l-.57.14a.19.19,0,0,0-.14.22l.14.57a.18.18,0,0,0,.11.13A.64.64,0,0,0,209.31,607.89Z"/><path class="cls-30" d="M130.73,606.18a.18.18,0,0,1-.22-.14l-.14-.57a.18.18,0,0,1,.14-.22l.57-.14a.18.18,0,0,1,.22.14l.14.57a.18.18,0,0,1-.15.22Z"/><path class="cls-30" d="M130.6,606.09a.67.67,0,0,1,.7-.83h0a.18.18,0,0,0-.22-.14l-.57.14a.18.18,0,0,0-.14.22l.14.57a.15.15,0,0,0,.11.12A.64.64,0,0,1,130.6,606.09Z"/><path class="cls-30" d="M233.09,608a.19.19,0,0,1-.23-.14l-.14-.57a.19.19,0,0,1,.15-.22l.56-.14a.19.19,0,0,1,.23.14l.13.57a.18.18,0,0,1-.14.22Z"/><path class="cls-30" d="M233,607.89a.68.68,0,0,1,.71-.83h0a.19.19,0,0,0-.23-.14l-.56.14a.19.19,0,0,0-.15.22l.14.57a.16.16,0,0,0,.12.12S233,607.92,233,607.89Z"/><path class="cls-30" d="M59.73,569.45a.37.37,0,0,1-.52-.08l-.68-.92a.37.37,0,0,1,.07-.52l.93-.68a.37.37,0,0,1,.52.08l.68.92a.37.37,0,0,1-.08.52Z"/><path class="cls-30" d="M59.42,569.4a1.33,1.33,0,0,1,.64-2.06h0a.37.37,0,0,0-.52-.08l-.93.68a.37.37,0,0,0-.07.52l.68.92a.32.32,0,0,0,.31.14A.36.36,0,0,1,59.42,569.4Z"/><path class="cls-30" d="M62.89,561.61a.21.21,0,0,1-.17.24l-.63.08a.21.21,0,0,1-.23-.17l-.09-.63a.22.22,0,0,1,.18-.23l.62-.08a.21.21,0,0,1,.24.17Z"/><path class="cls-30" d="M62.79,561.75a.74.74,0,0,1-.84-.85h0a.22.22,0,0,0-.18.23l.09.63a.21.21,0,0,0,.23.17l.63-.08a.23.23,0,0,0,.15-.12Z"/><path class="cls-30" d="M52.06,564a.28.28,0,0,1,0,.4l-.67.57a.28.28,0,0,1-.4,0l-.57-.67a.28.28,0,0,1,0-.4l.67-.57a.28.28,0,0,1,.4,0Z"/><path class="cls-30" d="M52.05,564.24a1,1,0,0,1-1.62-.38h0a.28.28,0,0,0,0,.4l.57.67a.28.28,0,0,0,.4,0l.67-.57a.3.3,0,0,0,.09-.25A.31.31,0,0,1,52.05,564.24Z"/><path class="cls-30" d="M53.62,558.43a.19.19,0,0,1-.23-.14l-.13-.57a.18.18,0,0,1,.14-.22l.56-.14a.19.19,0,0,1,.23.14l.13.57a.19.19,0,0,1-.14.23Z"/><path class="cls-30" d="M53.48,558.35a.68.68,0,0,1,.71-.84h0a.19.19,0,0,0-.23-.14l-.56.14a.18.18,0,0,0-.14.22l.13.57a.2.2,0,0,0,.12.13Z"/><path class="cls-30" d="M57,578a.18.18,0,0,1-.22-.14l-.13-.58a.18.18,0,0,1,.14-.22l.56-.13a.18.18,0,0,1,.23.14l.13.56a.19.19,0,0,1-.14.23Z"/><path class="cls-30" d="M56.85,577.89a.68.68,0,0,1,.71-.83h0a.18.18,0,0,0-.23-.14l-.56.13a.18.18,0,0,0-.14.22l.13.58a.17.17,0,0,0,.11.12A.25.25,0,0,0,56.85,577.89Z"/><path class="cls-30" d="M61.6,574.75a.18.18,0,0,1-.23-.14l-.13-.57a.18.18,0,0,1,.14-.22l.56-.13a.18.18,0,0,1,.23.13l.14.57a.21.21,0,0,1-.15.23Z"/><path class="cls-30" d="M61.47,574.67a.67.67,0,0,1,.7-.84h0a.18.18,0,0,0-.23-.13l-.56.13a.18.18,0,0,0-.14.22l.13.57a.18.18,0,0,0,.12.13A.19.19,0,0,1,61.47,574.67Z"/><path class="cls-30" d="M67.3,584.23a.19.19,0,0,1-.23-.14l-.13-.56a.18.18,0,0,1,.14-.23l.56-.13a.18.18,0,0,1,.23.13l.13.57a.18.18,0,0,1-.14.22Z"/><path class="cls-30" d="M67.17,584.15a.67.67,0,0,1,.7-.84h0a.18.18,0,0,0-.23-.13l-.56.13a.18.18,0,0,0-.14.23l.13.56a.2.2,0,0,0,.12.13A.14.14,0,0,1,67.17,584.15Z"/><path class="cls-28" d="M256.47,559.58a.37.37,0,0,1-.51-.09l-.64-.94a.38.38,0,0,1,.09-.51l.94-.64a.37.37,0,0,1,.51.09l.64.94a.37.37,0,0,1-.1.51Z"/><path class="cls-29" d="M256.17,559.53a1.33,1.33,0,0,1,.69-2h0a.37.37,0,0,0-.51-.09l-.94.64a.38.38,0,0,0-.09.51l.64.94a.38.38,0,0,0,.3.15A.44.44,0,0,1,256.17,559.53Z"/><path class="cls-28" d="M261.41,560.72a.22.22,0,0,1-.19.22l-.62.06a.2.2,0,0,1-.22-.18l-.07-.62a.2.2,0,0,1,.19-.22l.61-.06a.19.19,0,0,1,.23.17Z"/><path class="cls-29" d="M261.3,560.85a.74.74,0,0,1-.8-.87h0a.2.2,0,0,0-.19.22l.07.62a.2.2,0,0,0,.22.18l.62-.06a.21.21,0,0,0,.16-.11Z"/><rect class="cls-28" x="265.71" y="561.65" width="1.57" height="1.56" rx="0.31" transform="translate(-271.48 249.49) rotate(-34.46)"/><path class="cls-29" d="M266.29,563.3a1.11,1.11,0,0,1,.58-1.69h0a.32.32,0,0,0-.43-.08l-.78.54a.31.31,0,0,0-.08.43l.53.78a.3.3,0,0,0,.26.13A.27.27,0,0,1,266.29,563.3Z"/><path class="cls-28" d="M264.23,558.86h.51a.16.16,0,0,1,.16.16v.51a.17.17,0,0,1-.17.17h-.51a.17.17,0,0,1-.17-.17V559a.16.16,0,0,1,.16-.16Z" transform="translate(-291.74 288.43) rotate(-38.73)"/><path class="cls-29" d="M265,559.36a.6.6,0,0,1-.94-.25h0a.17.17,0,0,0,0,.24l.31.4a.17.17,0,0,0,.24,0l.4-.32a.15.15,0,0,0,.05-.14Z"/><path class="cls-28" d="M259.49,556.3a.27.27,0,0,1,0,.39l-.68.55a.29.29,0,0,1-.4,0l-.54-.68a.29.29,0,0,1,.05-.4l.67-.54a.29.29,0,0,1,.4,0Z"/><path class="cls-29" d="M259.47,556.54a1,1,0,0,1-1.59-.42h0a.29.29,0,0,0-.05.4l.54.68a.29.29,0,0,0,.4,0l.68-.55a.28.28,0,0,0,.1-.23Z"/><path class="cls-28" d="M266.73,557.07h.58a.18.18,0,0,1,.18.18v.58a.19.19,0,0,1-.19.19h-.57a.19.19,0,0,1-.19-.19v-.57a.18.18,0,0,1,.18-.18Z" transform="translate(-105.68 64.34) rotate(-11.49)"/><path class="cls-29" d="M266.7,558a.67.67,0,0,1,.72-.81h0a.19.19,0,0,0-.22-.15l-.56.12a.18.18,0,0,0-.15.21l.12.57a.18.18,0,0,0,.11.13A.19.19,0,0,1,266.7,558Z"/><path class="cls-28" d="M274.15,561.85a.18.18,0,0,1-.22-.15l-.11-.56a.19.19,0,0,1,.15-.22l.55-.11a.19.19,0,0,1,.23.14l.11.57a.19.19,0,0,1-.15.22Z"/><path class="cls-29" d="M274,561.76a.67.67,0,0,1,.72-.8h0a.19.19,0,0,0-.23-.14l-.55.11a.19.19,0,0,0-.15.22l.11.56a.17.17,0,0,0,.11.13A.64.64,0,0,1,274,561.76Z"/><path class="cls-28" d="M263.53,556.74a.19.19,0,0,1-.22-.15l-.12-.56a.19.19,0,0,1,.15-.22l.56-.12a.19.19,0,0,1,.22.15l.12.56a.19.19,0,0,1-.15.22Z"/><path class="cls-29" d="M263.4,556.65a.66.66,0,0,1,.72-.8h0a.19.19,0,0,0-.22-.15l-.56.12a.19.19,0,0,0-.15.22l.12.56a.16.16,0,0,0,.11.13A.14.14,0,0,1,263.4,556.65Z"/><path class="cls-28" d="M269.62,563h.57a.19.19,0,0,1,.19.19v.57a.19.19,0,0,1-.19.19h-.58a.18.18,0,0,1-.18-.18v-.57A.19.19,0,0,1,269.62,563Z" transform="translate(-107.12 65.28) rotate(-11.52)"/><path class="cls-29" d="M269.58,563.86a.67.67,0,0,1,.73-.8h0a.19.19,0,0,0-.22-.15l-.56.12a.19.19,0,0,0-.15.22l.11.56a.2.2,0,0,0,.12.13Z"/><path class="cls-28" d="M199.62,524.34s0,.06-.06.06h-.2a.07.07,0,0,1-.07-.06v-.2a.07.07,0,0,1,.07-.07h.2s.07,0,.07.06Z"/><path class="cls-29" d="M199.59,524.38a.24.24,0,0,1-.24-.3h0a.07.07,0,0,0-.07.07v.2a.07.07,0,0,0,.07.06h.2a.05.05,0,0,0,.05,0Z"/><path class="cls-28" d="M197.55,522.92a.1.1,0,0,1-.13,0l-.16-.27a.09.09,0,0,1,0-.13l.26-.16a.11.11,0,0,1,.14,0l.15.27a.11.11,0,0,1,0,.14Z"/><path class="cls-29" d="M197.47,522.9a.36.36,0,0,1,.23-.53h0a.11.11,0,0,0-.14,0l-.26.16a.09.09,0,0,0,0,.13l.16.27s0,0,.08,0Z"/><path class="cls-28" d="M202,525.2a0,0,0,0,1,0,.07l-.14.1a.05.05,0,0,1-.07,0l-.09-.13a.06.06,0,0,1,0-.08l.14-.09a0,0,0,0,1,.07,0Z"/><path class="cls-29" d="M202,525.24a.19.19,0,0,1-.3-.1h0a.06.06,0,0,0,0,.08l.09.13a.05.05,0,0,0,.07,0l.14-.1a0,0,0,0,0,0,0Z"/><path class="cls-28" d="M198.14,521.15a.1.1,0,0,1,0,.13l-.23.16a.08.08,0,0,1-.12,0l-.16-.23a.09.09,0,0,1,0-.13l.23-.16a.09.09,0,0,1,.13,0Z"/><path class="cls-29" d="M198.12,521.23a.33.33,0,0,1-.5-.17h0a.09.09,0,0,0,0,.13l.16.23a.08.08,0,0,0,.12,0l.23-.16a.09.09,0,0,0,0-.07Z"/><path class="cls-28" d="M204.7,523.83s-.07,0-.07-.05l0-.19a.06.06,0,0,1,.06-.06l.18,0a.08.08,0,0,1,.07,0l0,.19a.05.05,0,0,1-.05.06Z"/><path class="cls-29" d="M204.66,523.8a.21.21,0,0,1,.25-.24h0a.08.08,0,0,0-.07,0l-.18,0a.06.06,0,0,0-.06.06l0,.19s0,0,0,0Z"/><path class="cls-28" d="M201.38,522a.05.05,0,0,1-.06-.05l0-.18s0-.07.05-.07l.19,0a.07.07,0,0,1,.07.06l0,.18a.08.08,0,0,1-.05.07Z"/><path class="cls-29" d="M201.34,521.92a.21.21,0,0,1,.25-.24h0a.07.07,0,0,0-.07-.06l-.19,0s-.05,0-.05.07l0,.18s0,0,0,0A0,0,0,0,0,201.34,521.92Z"/><path class="cls-28" d="M203.49,522.23a.06.06,0,0,1-.06-.05l0-.19a.08.08,0,0,1,0-.07l.19,0a.08.08,0,0,1,.07.05l0,.19a.06.06,0,0,1,0,.06Z"/><path class="cls-29" d="M203.45,522.2a.23.23,0,0,1,.26-.25h0a.08.08,0,0,0-.07-.05l-.19,0a.08.08,0,0,0,0,.07l0,.19s0,0,0,0Z"/><path class="cls-28" d="M204.86,526.4s-.06,0-.07,0l0-.18s0-.07,0-.07l.19,0a.06.06,0,0,1,.06,0l0,.19a.07.07,0,0,1-.06.07Z"/><path class="cls-29" d="M204.82,526.37a.21.21,0,0,1,.25-.24h0a.06.06,0,0,0-.06,0l-.19,0s0,0,0,.07l0,.18s0,0,0,0Z"/><path class="cls-28" d="M162.93,531.72a.06.06,0,0,1,0,.07l-.12.09a0,0,0,0,1-.07,0l-.1-.12a.06.06,0,0,1,0-.07l.13-.09a0,0,0,0,1,.07,0Z"/><path class="cls-29" d="M162.92,531.76a.17.17,0,0,1-.27-.08h0a.06.06,0,0,0,0,.07l.1.12a0,0,0,0,0,.07,0l.12-.09,0,0Z"/><path class="cls-28" d="M168.13,531.6a0,0,0,0,1,0,.06l0,.11s0,0-.05,0l-.12,0s0,0,0,0l0-.12s0,0,0,0Z"/><path class="cls-29" d="M168.14,531.64a.14.14,0,0,1-.22.06h0s0,0,0,0l.12,0s0,0,.05,0l0-.11s0,0,0,0Z"/><path class="cls-28" d="M162,531a.07.07,0,0,1,0,.08l-.07.2s-.06.06-.09,0l-.2-.07s-.05,0,0-.09l.07-.2a.08.08,0,0,1,.09,0Z"/><path class="cls-29" d="M162,531.09a.25.25,0,0,1-.38.11h0s0,.08,0,.09l.2.07s.07,0,.09,0l.07-.2a.07.07,0,0,0,0-.06A0,0,0,0,1,162,531.09Z"/><path class="cls-28" d="M163.73,530.48a.06.06,0,0,1-.07,0l-.09-.1s0,0,0-.06l.1-.1a0,0,0,0,1,.07,0l.09.11a0,0,0,0,1,0,.06Z"/><path class="cls-29" d="M163.69,530.47a.15.15,0,0,1,.05-.25h0a0,0,0,0,0-.07,0l-.1.1s0,0,0,.06l.09.1,0,0Z"/><path class="cls-28" d="M166.88,530.19h-.07l-.09-.11s0-.05,0-.06l.1-.1s.05,0,.07,0l.09.11a0,0,0,0,1,0,.06Z"/><path class="cls-29" d="M166.84,530.19a.16.16,0,0,1,0-.26h0s0,0-.07,0l-.1.1s0,0,0,.06l.09.11h0Z"/><path class="cls-28" d="M161.84,532.17s-.05,0-.07,0l-.09-.11s0,0,0-.06l.1-.1h.07l.09.11s0,0,0,.06Z"/><path class="cls-29" d="M161.8,532.17a.16.16,0,0,1,0-.26h-.07l-.1.1s0,0,0,.06l.09.11h0Z"/></g></g></svg>