<svg xmlns="http://www.w3.org/2000/svg" viewBox="0 0 2694.91 2794.48"><defs><style>.cls-1{opacity:0.25;}.cls-2{fill:#6b184e;}.cls-3{fill:#f7af41;}.cls-4{opacity:0.3;}.cls-5{fill:#6c184e;}.cls-6{fill:#ffce00;}.cls-7{opacity:0.65;}.cls-8{fill:#fff;}.cls-9{fill:#ee1822;}.cls-10{fill:#bd1622;}.cls-11{fill:#f6c547;}.cls-12{fill:#48c75a;}.cls-13{fill:#661a47;}.cls-14{fill:#651b47;}.cls-15{fill:#eb984e;}.cls-16{fill:#6d184e;}</style></defs><title>pizza</title><g id="Layer_2" data-name="Layer 2"><g id="Layer_1-2" data-name="Layer 1"><g class="cls-1"><ellipse class="cls-2" cx="1369.7" cy="2690.89" rx="940.43" ry="103.59"/></g><path class="cls-3" d="M87.37,2083.09s-54,171.83,348.38-74.4,1406.89-434.41,1882.07-374.33S2457.53,565,2104.87,383.62,649.18,985.27,87.37,2083.09Z"/><g class="cls-4"><path class="cls-5" d="M119.33,2045.07s-86,209.85,316.42-36.38,1406.89-434.41,1882.07-374.33S2457.53,565,2104.87,383.62,681.14,947.25,119.33,2045.07Z"/></g><path class="cls-5" d="M156.75,2146.49c-21.14,0-37.86-5-50.27-15.07-37.92-30.67-17.41-90.5-16.52-93a17.59,17.59,0,0,1,1-2.28c258.22-504.59,591.39-874,825.41-1095,296.55-280.07,609.49-486.68,858.55-566.86,143.75-46.27,257.61-48.66,338.43-7.11C2241.39,433,2375,621.33,2470.77,870.87c93.83,244.52,124.65,485.11,80.43,627.89-31.88,102.92-99.93,156.41-197.92,156.42a301.23,301.23,0,0,1-37.78-2.47c-488.92-61.83-1485.13,136.21-1870.1,371.75C312,2106.08,216.64,2146.49,156.75,2146.49ZM124.5,2051.7c-3.43,10.78-8.84,39.66,5.3,51,11.85,9.52,68.25,29.74,296.3-109.8,190.74-116.7,526-227.66,919.86-304.4,381.32-74.32,745.49-101.43,974.17-72.49,99.62,12.54,165.5-30.55,195.74-128.21,41.89-135.23,11.38-366.56-79.62-603.7-91.2-237.69-221.42-423.17-339.83-484.06-70.75-36.37-178-33.12-310.19,9.43C1542.23,488,1234.42,691.61,941.73,968,710,1186.86,380.23,1552.45,124.5,2051.7Z"/><path class="cls-6" d="M2129.8,600c-55.84-12.84,5.57-33.82-68.47-107.65s-155.41-13.13-155.41-13.13c13.21-27.06,16.22-52.19,2-72.07-63.72-89.25-231-33.4-292.21-105s-207.38-5.94-207.38-5.94-872.85,521-1122.73,1121.1S54.84,2201.58,163.44,2160s188.65-135.17,268.18-61.41S411.84,2310.69,508,2378.85c53.86,38.16,178.54-30.35,118.63-132.6s-139.27-291.77-4.87-393.45,443-155.77,424.77-13c-45.18,353.89,331.33,203.81,214.39,54.27-99.3-127-8-350,213.48-227.21,185.86,103,162.23-37.26,345.57-97.5,136.76-44.93,388.41-46.4,388.41-46.4,176.61-103.73,17-154.92,17-154.92s148-114,110.87-192.66-19.12-202.75-15.84-328.3S2185.65,612.8,2129.8,600Z"/><g class="cls-4"><path class="cls-5" d="M2129.8,600c-55.84-12.84,5.57-33.82-68.47-107.65s-155.41-13.13-155.41-13.13c13.21-27.06,16.22-52.19,2-72.07-63.72-89.25-231-33.4-292.21-105s-207.38-5.94-207.38-5.94-20.3,12.12-55.55,34.75c273.08,71.77,836.7,301.83,732.94,1120.85,0,0-1090.06,78.22-1389.73,264.46-215.53,134-432.14,385.74-600.18,418.05,12,30.78,36,37.84,67.6,25.76,108.6-41.54,188.65-135.17,268.18-61.41S411.84,2310.69,508,2378.85c53.86,38.16,178.54-30.35,118.63-132.6s-139.27-291.77-4.87-393.45,443-155.77,424.77-13c-45.18,353.89,331.33,203.81,214.39,54.27-99.3-127-8-350,213.48-227.21,185.86,103,162.23-37.26,345.57-97.5,136.76-44.93,388.41-46.4,388.41-46.4,176.61-103.73,17-154.92,17-154.92s148-114,110.87-192.66-19.12-202.75-15.84-328.3S2185.65,612.8,2129.8,600Z"/></g><g class="cls-7"><path class="cls-8" d="M2177.52,628a102.06,102.06,0,0,1,16.3,5.51c-15.36-11.22-30.12-20-43-26C2152.05,617.17,2156.4,623.19,2177.52,628Z"/><path class="cls-8" d="M2274.53,1396.64l-1-.92-.53.41Z"/><path class="cls-8" d="M1953.63,507.26s47.72-35.52,103.32-19c-32.24-29.78-65.51-35-92.61-31.51C1966.67,472.05,1962.44,489.22,1953.63,507.26Z"/><path class="cls-8" d="M1895.28,392.48c-55.23-53.2-159.07-37.59-229.5-59.85C1713.57,384.05,1819.44,365.81,1895.28,392.48Z"/><path class="cls-8" d="M1408.36,296.17S1019.89,528.05,687.07,860.61a132.65,132.65,0,0,0-28.69,29.06c-154.76,159-294.39,339.41-372.75,527.6C51,1980.82,53.52,2177.58,144.63,2165.06c-31.42-72.51,9.36-289,188.72-719.71,67.46-162,180.34-318.27,309.18-460a51.34,51.34,0,0,0,10.08,13.11c28.62,26.47,82.12,15.19,119.5-25.22S816.59,878.57,788,852.1a50.61,50.61,0,0,0-9.12-6.58c322.07-309.28,654.67-546.22,654.67-546.22s112.92-15.62,181.31,1.85C1553.11,231.18,1408.36,296.17,1408.36,296.17Z"/></g><path class="cls-5" d="M545.15,2408c-17.7,0-34.44-4.56-47.83-14.05-58.57-41.51-55-105-51.81-161.12,2.65-46.95,5.16-91.3-26.46-120.62-44.42-41.19-87.06-20.35-158.6,20-28.34,16-57.64,32.55-90.4,45.07-39.33,15-62.8,2.53-75.56-10.62C13,2082.74,144.15,1709,268.56,1410.17,399.1,1096.66,699.74,806,929,617.4c247.66-203.79,467.74-335.8,469.93-337.11.62-.36,1.25-.69,1.9-1,6.49-2.91,159.6-70.4,229,10.8,24,28.08,72,33.11,122.87,38.44,61.76,6.47,131.75,13.8,170.32,67.83,9.9,13.87,14.09,29.82,12.57,47.67,38.74-12.27,91.69-11.8,138.82,35.19,44.35,44.23,45.77,74,46.62,91.76.11,2.29.25,5.29.51,6.81,1.15.7,4.44,2.31,12.44,4.15h0c64.32,14.78,208.43,130.47,204.9,265.64-.72,27.74-2.16,55.47-3.55,82.29-4.82,92.75-9.37,180.36,17.63,237.63,33.54,71.16-49.27,157.1-92.95,195.76,21.12,11.78,46.32,32,49.68,62.27,4.16,37.53-25.9,74.62-91.91,113.38a18.44,18.44,0,0,1-9.25,2.55c-2.49,0-250.36,2-382.75,45.47-65.94,21.67-103,53.61-135.59,81.79-60.75,52.44-104.11,81.19-224.71,14.32-82.65-45.81-153.73-44.36-195,4-43.29,50.7-41.06,136.64,5.08,195.65,33.8,43.23,35.32,93.75,4,135.12-38,50.25-111.7,71.66-167.87,48.78-40-16.31-104.08-67.77-83.48-229.11,3-23.38-4.5-39.4-23.54-50.43-70.21-40.67-268.24,2.2-371.73,80.49-129.32,97.82-36.32,290.88,9.66,369.35,29.52,50.37,23.48,102.14-16.15,138.48C603.23,2396.67,573,2408,545.15,2408Zm-177.3-355.15c25.64,0,51.17,8.9,76.34,32.25,44.37,41.16,41.11,98.89,38.23,149.82-3,53.22-5.6,99.18,36.28,128.86,20.08,14.23,58,7.08,82.75-15.63,15.42-14.14,37.12-45,9.24-92.54-51-87-153-301.82-.07-417.53,106.26-80.38,321.82-135.57,412.57-83,32.17,18.64,46.58,48.76,41.69,87.1-13,101.41,8.63,168.95,60.76,190.2,40.71,16.59,96.52.08,124.41-36.83,12.25-16.21,28.06-49.47-3.68-90.06-56.58-72.35-58.36-178.84-4.07-242.43,53-62,143.08-66.65,241.08-12.33,104.16,57.76,130.38,35.12,182.62-10,33.52-28.94,75.24-65,148.21-88.92,128.8-42.32,351.64-46.82,389-47.28,63.43-38.13,70.95-63.21,69.68-74.89-2.46-22.58-40.22-39.76-53.25-44a18.51,18.51,0,0,1-5.61-32.24c35.32-27.24,130.49-117,105.43-170.13-31-65.68-26.17-157.79-21.11-255.31,1.38-26.59,2.81-54.09,3.52-81.35,2.93-112.47-124-216.63-176.23-228.64-33.52-7.7-40.48-21.84-41.6-45.23-.67-14-1.58-33.23-35.79-67.33-61.5-61.33-128.54-13.43-131.36-11.37a18.5,18.5,0,0,1-27.61-23c16.89-34.59,6.89-48.61,3.6-53.21-28.9-40.48-84.85-46.34-144.08-52.55-55.82-5.84-113.54-11.89-147.13-51.18-42.46-49.68-146.78-18.34-184.77-1.54-15.72,9.49-227.46,138.28-464.9,333.72C726.21,832.17,430.26,1118,302.7,1424.38,211.25,1644,150.73,1820,122.83,1947.51c-31.47,143.85-11.76,183.18-1.82,193.41,2.73,2.8,11,11.33,35.82,1.85,30.2-11.55,58.28-27.4,85.44-42.74C283.64,2076.68,325.88,2052.83,367.85,2052.83Z"/><path class="cls-5" d="M1540.06,1510.6c105.6-19,211.6-36.18,318.19-50,53.3-6.87,106.75-12.88,160.41-17.57s107.51-8.06,161.66-9.09a16.18,16.18,0,1,1,.62,32.36h-.86c-53.13-1.65-106.52-1-159.92,1s-106.84,5.27-160.24,9.44C1753.12,1485.12,1646.48,1496.88,1540.06,1510.6Z"/><g class="cls-4"><path class="cls-5" d="M1881,383.05s.54-.4,1.49-1c-.25-.18-.5-.37-.75-.54C1881.5,382,1881.27,382.52,1881,383.05Z"/><path class="cls-5" d="M2295.46,751c-3.28,125.55-21.27,249.58,15.84,328.3a61.92,61.92,0,0,1,4.4,13c-7-71.14,2.39-157.77,4.67-245.15.91-34.67-9-68-24.93-98.48C2295.43,749.41,2295.48,750.18,2295.46,751Z"/><path class="cls-5" d="M2317.25,1105.69c1,75.47-116.82,166.24-116.82,166.24s61.73,19.8,66,59.72c40.69-40.05,93.76-105.48,69.83-156.25C2326.57,1155,2320.68,1131.46,2317.25,1105.69Z"/></g><ellipse class="cls-9" cx="1526.78" cy="668.21" rx="269" ry="214.68" transform="translate(-118.15 936.12) rotate(-32.89)"/><g class="cls-7"><path class="cls-8" d="M1566,880c-131.94,34.18-247.71-32.06-258.6-148s87.25-237.58,219.18-271.76c97-25.15,185.26,4.07,229.52,67.37-44.21-74.38-142.07-110-250.22-82-139.92,36.26-244,165.28-232.44,288.19S1407.76,927,1547.68,890.75a328.4,328.4,0,0,0,101.79-46.33A308.77,308.77,0,0,1,1566,880Z"/></g><path class="cls-10" d="M1547.8,496.17l30.55,325.26c85.42-37.37,144.65-121.49,137.08-202.11S1636,488.55,1547.8,496.17Z"/><path class="cls-10" d="M1471.34,516.72c-83.33,38.19-140.67,121-133.22,200.37s77.25,129.24,163.63,123.45Z"/><path class="cls-10" d="M1471.34,516.72c-83.33,38.19-140.67,121-133.22,200.37s77.25,129.24,163.63,123.45Z"/><path class="cls-9" d="M1483.05,625.2c-27.3,12.51-46.09,39.63-43.65,65.65s25.31,42.34,53.61,40.44Z"/><path class="cls-9" d="M1556.59,606.14c28.3-1.9,51.17,14.44,53.61,40.45s-16.34,53.14-43.65,65.65Z"/><path class="cls-5" d="M1475.13,915.94c-50.94,0-98.45-13.79-136.51-40.5-46.7-32.75-75.39-82.52-80.8-140.12-12.21-130.05,97.3-266.8,244.12-304.85,78.68-20.4,156.31-9.27,213,30.5,46.7,32.76,75.39,82.52,80.8,140.12,12.21,130-97.3,266.81-244.12,304.85A305.15,305.15,0,0,1,1475.13,915.94Zm103.36-464.09a274.43,274.43,0,0,0-68.68,9C1377.26,495.21,1278.24,617,1289.07,732.38c4.54,48.3,28.53,90,67.57,117.37,49.14,34.48,117.33,43.87,187.1,25.81C1676.29,841.21,1775.32,719.4,1764.48,604c-4.54-48.29-28.53-90-67.58-117.37C1664.17,463.69,1623,451.85,1578.49,451.85Z"/><path class="cls-11" d="M1442.28,769.55a95.17,95.17,0,0,1,4.1,13.74,41.76,41.76,0,0,1,1.53,13.18,11.32,11.32,0,0,1-22.57-1.72,11.69,11.69,0,0,1,.66-3,41.67,41.67,0,0,1,6.85-11.36A96.21,96.21,0,0,1,1442.28,769.55Z"/><path class="cls-11" d="M1406.36,736.76a97,97,0,0,1-3.16,14,42.16,42.16,0,0,1-5.14,12.31,11.31,11.31,0,0,1-18.85-12.51,12,12,0,0,1,2-2.32,42.36,42.36,0,0,1,11.57-6.63A98,98,0,0,1,1406.36,736.76Z"/><path class="cls-11" d="M1396.79,684.38a88.36,88.36,0,0,1-9.12,10,37,37,0,0,1-9.87,7.45,11.34,11.34,0,0,1-9.68-20.51,11.89,11.89,0,0,1,3.22-1,36.6,36.6,0,0,1,12.34.76A87,87,0,0,1,1396.79,684.38Z"/><path class="cls-11" d="M1416.91,630.77a79.94,79.94,0,0,1-12.52,2.47,32.24,32.24,0,0,1-11.55,0,11.36,11.36,0,0,1,4.9-22.18,11.94,11.94,0,0,1,3.38,1.34,32.44,32.44,0,0,1,8.38,8A79.94,79.94,0,0,1,1416.91,630.77Z"/><path class="cls-11" d="M1459.69,594.75a83.11,83.11,0,0,1-11.42-6.58,35,35,0,0,1-9.11-7.83,11.35,11.35,0,1,1,18.08-13.71,11.66,11.66,0,0,1,1.65,3.06,34.76,34.76,0,0,1,1.56,11.91A85.52,85.52,0,0,1,1459.69,594.75Z"/><path class="cls-11" d="M1625.46,721.62a86,86,0,0,1,11,7.67,36.51,36.51,0,0,1,8.64,8.75,11.34,11.34,0,0,1-19.07,12.28,11.75,11.75,0,0,1-1.38-3.08,36.31,36.31,0,0,1-.82-12.27A86.68,86.68,0,0,1,1625.46,721.62Z"/><path class="cls-11" d="M1653,671.86a78.62,78.62,0,0,1,12.7-1.21,31.93,31.93,0,0,1,11.49,1.13,11.35,11.35,0,1,1-7.1,21.57,11.85,11.85,0,0,1-3.22-1.67,32.19,32.19,0,0,1-7.54-8.75A80,80,0,0,1,1653,671.86Z"/><path class="cls-11" d="M1652.31,616.44a84.38,84.38,0,0,1,9.5-9.14,34.7,34.7,0,0,1,10.06-6.56,11.34,11.34,0,0,1,8.13,21.18,11.7,11.7,0,0,1-3.4.73,34.49,34.49,0,0,1-11.87-1.82A84.13,84.13,0,0,1,1652.31,616.44Z"/><path class="cls-11" d="M1623.75,574.81a94.64,94.64,0,0,1,3.6-13.66,40.85,40.85,0,0,1,5.48-11.83,11.32,11.32,0,0,1,18.31,13.33,11.86,11.86,0,0,1-2.2,2.27,40.44,40.44,0,0,1-11.65,5.86A93.18,93.18,0,0,1,1623.75,574.81Z"/><path class="cls-11" d="M1577.31,561.59a98.11,98.11,0,0,1-3.54-14,42.27,42.27,0,0,1-1-13.29,11.31,11.31,0,1,1,22.47,2.63,12,12,0,0,1-.77,3,42.5,42.5,0,0,1-7.32,11.14A96,96,0,0,1,1577.31,561.59Z"/><path class="cls-10" d="M1578.35,837.12a15.69,15.69,0,0,1-15.63-14.22l-30.54-325.26a15.68,15.68,0,0,1,14.27-17.1c98.73-8.57,176.33,49.22,184.6,137.31,8,85.67-53.53,177.33-146.41,218A15.83,15.83,0,0,1,1578.35,837.12Zm-13.38-326,26.87,286.14c69.65-38.69,114.21-110,108-176.46-6.14-65.4-61.67-109.68-134.6-109.68Z"/><path class="cls-10" d="M1488.25,856.69c-89.38,0-158.07-56.3-165.75-138.13-8-85.18,50.52-174,142.3-216.1A15.7,15.7,0,0,1,1487,515.25l30.41,323.82a15.69,15.69,0,0,1-14.57,17.13C1497.9,856.53,1493,856.69,1488.25,856.69Zm-30.36-315.33c-67.29,39.17-110.22,109.49-104.14,174.26s59,108.35,130.8,109.66Z"/><ellipse class="cls-9" cx="965.96" cy="1248.09" rx="251.62" ry="200.82" transform="matrix(0.84, -0.54, 0.54, 0.84, -522.9, 724.54)"/><g class="cls-7"><path class="cls-8" d="M1002.65,1446.22c-123.42,32-231.72-30-241.9-138.4s81.61-222.23,205-254.21c90.76-23.52,173.29,3.81,214.69,63-41.36-69.58-132.9-102.93-234.06-76.71-130.88,33.91-228.22,154.6-217.42,269.57s125.64,180.68,256.52,146.77a307,307,0,0,0,95.21-43.34A288.51,288.51,0,0,1,1002.65,1446.22Z"/></g><path class="cls-10" d="M985.63,1087.17l28.57,304.24c79.9-35,135.31-113.64,128.23-189.05S1068.14,1080,985.63,1087.17Z"/><path class="cls-10" d="M914.1,1106.39c-78,35.72-131.59,113.16-124.61,187.43s72.26,120.89,153.06,115.47Z"/><path class="cls-10" d="M914.1,1106.39c-78,35.72-131.59,113.16-124.61,187.43s72.26,120.89,153.06,115.47Z"/><path class="cls-9" d="M925.05,1207.86c-25.53,11.7-43.11,37.07-40.82,61.41s23.67,39.61,50.15,37.83Z"/><path class="cls-9" d="M993.85,1190c26.47-1.77,47.86,13.51,50.14,37.84s-15.28,49.7-40.82,61.41Z"/><path class="cls-5" d="M917.65,1481.31c-48,0-92.7-13-128.56-38.14-44-30.9-71.11-77.84-76.21-132.16-11.49-122.35,91.45-251,229.47-286.75,74-19.18,147.1-8.7,200.48,28.75,44,30.9,71.1,77.84,76.2,132.16h0c11.49,122.35-91.45,251-229.46,286.75A287.44,287.44,0,0,1,917.65,1481.31Zm96.68-434.11a255.19,255.19,0,0,0-63.87,8.38c-123.31,32-215.44,145.18-205.37,252.4,4.2,44.74,26.43,83.34,62.58,108.7,45.61,32,109,40.71,173.78,23.92,123.31-31.95,215.44-145.18,205.37-252.4h0c-4.2-44.74-26.42-83.34-62.58-108.71C1093.87,1058.18,1055.64,1047.2,1014.33,1047.2Z"/><path class="cls-11" d="M909.52,1347.6a89.8,89.8,0,0,1,6.33,11,41.21,41.21,0,0,1,4.17,11.09,9.32,9.32,0,0,1-18.34,3.32,9.76,9.76,0,0,1-.12-2.28,41,41,0,0,1,2.89-11.49A89.43,89.43,0,0,1,909.52,1347.6Z"/><path class="cls-11" d="M867.61,1330.73a96.31,96.31,0,0,1-.3,13.23,45.09,45.09,0,0,1-2.24,12.24,9.31,9.31,0,0,1-17.47-6.42,10.25,10.25,0,0,1,1-1.93,45.2,45.2,0,0,1,8.55-9A97.8,97.8,0,0,1,867.61,1330.73Z"/><path class="cls-11" d="M845.33,1289a90.37,90.37,0,0,1-6.39,11,41.5,41.5,0,0,1-7.58,9.23,9.32,9.32,0,0,1-12.06-14.2,9.92,9.92,0,0,1,1.89-1.24,41.74,41.74,0,0,1,11.47-3.32A90.74,90.74,0,0,1,845.33,1289Z"/><path class="cls-11" d="M850.5,1237.11a78.1,78.1,0,0,1-10.49,5.41,34.87,34.87,0,0,1-10.42,3.23,9.33,9.33,0,1,1-2-18.55,9.47,9.47,0,0,1,2.5.08,35,35,0,0,1,10.21,3.83A79.61,79.61,0,0,1,850.5,1237.11Z"/><path class="cls-11" d="M881.3,1193.23a76.59,76.59,0,0,1-11.32-2.54,33.66,33.66,0,0,1-9.86-4.15,9.33,9.33,0,1,1,12.4-13.71,33.89,33.89,0,0,1,5.12,9.4A77.93,77.93,0,0,1,881.3,1193.23Z"/><path class="cls-11" d="M1058.27,1298.05a84.37,84.37,0,0,1,9.62,7.49,38,38,0,0,1,7.65,8.38,9.32,9.32,0,0,1-15.88,9.77,9.93,9.93,0,0,1-1-2.19,37.6,37.6,0,0,1-1.19-11.28A82.5,82.5,0,0,1,1058.27,1298.05Z"/><path class="cls-11" d="M1084,1251.5a78.28,78.28,0,0,1,11.53-.45,33.32,33.32,0,0,1,10.53,1.48,9.34,9.34,0,0,1-6.23,17.6,10.06,10.06,0,0,1-2.28-1.19,33.24,33.24,0,0,1-7.27-7.76A76.44,76.44,0,0,1,1084,1251.5Z"/><path class="cls-11" d="M1083.38,1199.66a80.42,80.42,0,0,1,9-7.79,36.3,36.3,0,0,1,9.51-5.68,9.33,9.33,0,0,1,6.31,17.56,10.29,10.29,0,0,1-2.4.51,35.94,35.94,0,0,1-11-1.24A80.12,80.12,0,0,1,1083.38,1199.66Z"/><path class="cls-11" d="M1056.67,1160.73a90.5,90.5,0,0,1,3.92-12.25,42.4,42.4,0,0,1,5.47-10.74A9.31,9.31,0,0,1,1080.9,1149a9.93,9.93,0,0,1-1.56,1.61,42.6,42.6,0,0,1-10.56,5.81A91.31,91.31,0,0,1,1056.67,1160.73Z"/><path class="cls-11" d="M1013.23,1148.36a96.87,96.87,0,0,1-2.57-12.86,44.33,44.33,0,0,1-.46-12.32,9.31,9.31,0,1,1,17.9,4.64,44.33,44.33,0,0,1-6.39,10.54A94.51,94.51,0,0,1,1013.23,1148.36Z"/><path class="cls-10" d="M1014.2,1407.59a16.15,16.15,0,0,1-16.1-14.66l-28.58-304.25a16.18,16.18,0,0,1,14.72-17.63c93.13-8.08,166.47,46.54,174.29,129.8,7.58,80.75-50.39,167.12-137.84,205.39A16.34,16.34,0,0,1,1014.2,1407.59Zm-10.87-304.95,24.77,263.73c63.5-36.15,103.94-101.54,98.22-162.49C1120.69,1143.94,1070.05,1103.22,1003.33,1102.64Z"/><path class="cls-10" d="M929.9,1425.89c-84.39,0-149.26-53.22-156.52-130.56-7.54-80.3,47.56-164,134-203.65a16.19,16.19,0,0,1,22.85,13.19l28.44,302.91a16.16,16.16,0,0,1-15,17.65Q936.69,1425.9,929.9,1425.89Zm-29.65-294C839,1168.49,800,1232.93,805.6,1292.3s53.65,99.33,119.21,101.19Z"/><path class="cls-12" d="M634.5,1215.25c-170.91,7-174.29,93.68-120,227.38C617.16,1399.76,685.11,1324.39,634.5,1215.25Z"/><path class="cls-13" d="M510.35,1472.54a16.15,16.15,0,0,1-15.3-10.94c-26.1-76.32-45.23-154.13-8.78-206.28,25.36-36.27,73.73-54.67,147.89-56.25A16,16,0,0,1,649,1208c21.59,42.85,25.33,85.28,11.1,126.1-19,54.53-69.77,103.18-142.91,137A16.09,16.09,0,0,1,510.35,1472.54Zm114-240.78c-57.08,2.61-93.64,16.42-111.59,42.1-25.74,36.82-12.34,99.76,7.05,159.81,55.63-29.14,95.17-68.7,109.66-110.26C639.73,1294.05,638,1263.26,624.38,1231.76Z"/><path class="cls-14" d="M639.65,1230.58a147,147,0,0,0-31.95,20,209.76,209.76,0,0,0-28.84,28.8c-17.82,21.8-32.68,47.1-45,74.75,0-15.22,2.36-30.49,6.2-45.45A208,208,0,0,1,556.91,1265c7.38-14,16.5-27.63,28.54-39.2s26.77-21.46,43.9-25.85a16.22,16.22,0,0,1,10.84,30.43Z"/><path class="cls-12" d="M943.88,748.84c151.31-79.79,197.76-6.55,218,136.32C1051.58,899.66,955,868.64,943.88,748.84Z"/><path class="cls-13" d="M1136.89,912.83c-64.17,0-118.47-16.75-155.4-48.42-32.82-28.15-50.9-66.71-53.76-114.61a16.16,16.16,0,0,1,8.33-15.11c64.9-35.9,116-44.29,156.12-25.67,57.71,26.78,80.27,103.67,96,182.77a16.17,16.17,0,0,1-14.36,19.27C1161.24,912.25,1148.89,912.83,1136.89,912.83ZM960.93,758c4.05,34.08,18,61.56,41.62,81.81,33.41,28.66,87.51,43,150.2,40.25-13.4-61.67-33.43-122.82-74.19-141.73C1050.14,725.18,1011.59,731.62,960.93,758Z"/><path class="cls-14" d="M940.63,733c17-4.82,34.86-3.67,51,.29s30.95,11.15,44.36,19.55a208.3,208.3,0,0,1,36.5,29.33c10.84,11,20.59,23,28.19,36.19-24.51-17.74-50.08-32.15-76.44-42.05a210.23,210.23,0,0,0-39.4-10.41,147.3,147.3,0,0,0-37.65-1.21l-.58.06A16.22,16.22,0,0,1,940.63,733Z"/><path class="cls-12" d="M1616.58,1286.47c-117.2-108.67-176.87-53.83-229.74,70.19C1482.86,1396.47,1577.56,1391.88,1616.58,1286.47Z"/><path class="cls-13" d="M1476.18,1398c-32.89,0-69-7-106.44-20.9a15.12,15.12,0,0,1-8.28-20.87c33.4-67.56,72.39-131.47,131-141.65,40.73-7.12,84.78,12.87,134.66,61a15.13,15.13,0,0,1,3.85,15.66c-14.18,42.53-39.84,72.94-76.28,90.39C1531.82,1392.57,1505.24,1398,1476.18,1398Zm-79.88-43.73c55.94,17.69,108.2,17.83,145.29.08,26.2-12.55,45.47-34,57.38-63.74-39.32-36.12-72.53-51.25-101.39-46.25C1456.22,1251.58,1423.33,1301.91,1396.3,1354.3Z"/><path class="cls-14" d="M1609.8,1300a137.28,137.28,0,0,0-34.27-8,195.82,195.82,0,0,0-38.08-.15c-26.18,2.55-52.74,9.35-79.16,19.42a169.93,169.93,0,0,1,34.21-25.83,194.47,194.47,0,0,1,40-17.62c14.14-4.33,29.17-7.25,44.77-6.9s31.85,3.62,46,12.08a15.15,15.15,0,0,1-13,27.22Z"/><path class="cls-12" d="M279.86,1560.84c9.25.54,18,1.32,26.94,2.32s17.85,2.25,26.86,3.85a248.91,248.91,0,0,1,27.36,6.22c9.34,2.83,18.74,5.83,29.22,12.28l1.19.73a22.49,22.49,0,0,1-23.56,38.31,24.34,24.34,0,0,1-3.41-2.57c-3.79-3.47-10.53-7.19-17.4-10.34a212.06,212.06,0,0,0-22.38-8.67c-7.8-2.6-15.81-5-23.93-7.09s-16.45-4.12-24.38-5.76L276,1590a14.77,14.77,0,0,1,3.84-29.2Z"/><g class="cls-4"><path class="cls-5" d="M279.86,1560.84c9.25.54,18,1.32,26.94,2.32s17.85,2.25,26.86,3.85a248.91,248.91,0,0,1,27.36,6.22c9.34,2.83,18.74,5.83,29.22,12.28l1.19.73a22.49,22.49,0,0,1-23.56,38.31,24.34,24.34,0,0,1-3.41-2.57c-3.79-3.47-10.53-7.19-17.4-10.34a212.06,212.06,0,0,0-22.38-8.67c-7.8-2.6-15.81-5-23.93-7.09s-16.45-4.12-24.38-5.76L276,1590a14.77,14.77,0,0,1,3.84-29.2Z"/></g><path class="cls-13" d="M379.59,1640.77a35.23,35.23,0,0,1-18.48-5.23,37.23,37.23,0,0,1-5.29-4c-.93-.85-4.48-3.76-14.14-8.19a197.39,197.39,0,0,0-21-8.14c-7.4-2.47-15.17-4.77-23.15-6.86s-16.33-4.08-23.73-5.61a27.67,27.67,0,0,1,6.85-54.79h0c9,.53,17.74,1.28,27.62,2.38,9.43,1,18.75,2.38,27.69,4a259.87,259.87,0,0,1,28.73,6.54c11,3.34,20.94,6.65,32.34,13.67l1.2.73a35.38,35.38,0,0,1-18.6,65.52ZM279,1573.71a1.89,1.89,0,0,0-1.84,1.5,1.86,1.86,0,0,0,1.45,2.2c8.2,1.7,16.87,3.75,25.41,6s16.83,4.7,24.72,7.33a219.16,219.16,0,0,1,23.72,9.19c9.31,4.27,16.28,8.5,20.69,12.54a12.42,12.42,0,0,0,1.48,1.11,9.59,9.59,0,0,0,10-16.36l-1.2-.74c-8.79-5.41-16.73-8-26.2-10.91a234.56,234.56,0,0,0-25.84-5.86c-8.53-1.52-17-2.74-26.05-3.73-9.42-1-17.77-1.77-26.26-2.26Z"/><path class="cls-12" d="M300.4,1578.37c-52.14-190.62-271.22-35.18-271.22-35.18S201.36,1749.38,300.4,1578.37Z"/><g class="cls-7"><path class="cls-8" d="M299.23,1580.3c.38-.65.78-1.26,1.17-1.93-52.14-190.62-271.22-35.18-271.22-35.18s5.86,7,16,17.37C86.31,1534.45,244.91,1445,299.23,1580.3Z"/></g><path class="cls-13" d="M197.31,1659.09c-94.77,0-189.75-102.72-193.93-107.3a12.91,12.91,0,0,1,2.41-19.47c5.5-3.62,135.63-88.39,228.88-53.28,38.42,14.47,64.72,46.75,78.17,95.93a12.87,12.87,0,0,1-1.28,9.86c-25.68,44.35-59.58,69.09-100.75,73.54A124.47,124.47,0,0,1,197.31,1659.09ZM33.56,1545.65C61.85,1573,139,1640.16,208.08,1632.72c31.13-3.38,57.47-22.27,78.38-56.16-11.48-37.79-31.93-62.46-60.85-73.37C160.56,1478.67,68,1525.81,33.56,1545.65Z"/><line class="cls-12" x1="300.4" y1="1578.37" x2="153.34" y2="1559.3"/><path class="cls-14" d="M298.74,1591.16a307.45,307.45,0,0,1-36.82-4.39c-12.2-2-24.3-4.79-36.4-7.56-24.19-5.66-48.31-11.85-72.18-19.91,25.14-1.71,50-1.54,74.87-.85,12.41.42,24.82.82,37.13,2a305.7,305.7,0,0,1,36.72,5.15,12.94,12.94,0,0,1-3.32,25.58Z"/><path class="cls-13" d="M192.8,1659q24.85-22,50.17-43.54c16.92-14.34,33.92-28.55,51.74-42.32a13,13,0,0,1,15.85,20.51,12.62,12.62,0,0,1-2.07,1.31l-.1,0c-19.43,9.7-38.81,20.31-58.06,31S211.89,1647.8,192.8,1659Z"/><path class="cls-12" d="M301,1580.85s-111.18,6.73-136.65,199.21C164.34,1780.06,391.42,1707.78,301,1580.85Z"/><g class="cls-7"><path class="cls-8" d="M196.38,1762.18c20.89-157.81,110.79-166,114-166.27a139.94,139.94,0,0,0-9.36-15.06s-111.18,6.73-136.65,199.21c0,0,48.91-15.58,92.3-45A349.4,349.4,0,0,1,196.38,1762.18Z"/></g><path class="cls-13" d="M164.34,1793a12.9,12.9,0,0,1-12.79-14.59c26.56-200.71,143.69-210.08,148.66-210.38a12.91,12.91,0,0,1,11.29,5.39c22.88,32.12,29.24,64.14,18.89,95.18-26.62,79.84-156.62,122-162.14,123.79A12.82,12.82,0,0,1,164.34,1793Zm130.54-198.07c-22.25,5-90.44,31.27-114.44,165.45,35.81-14.45,108.64-49.37,125.49-100C313,1639.26,309.34,1617.78,294.88,1594.88Z"/><path class="cls-13" d="M238.21,1664.69q12.27-23.37,25.27-46.45c8.75-15.39,17.61-30.65,27.78-45.81a13,13,0,0,1,21.59,14.47,13.63,13.63,0,0,1-2.1,2.42c-12.57,11.35-24.84,23.93-36.89,36.59S249.92,1651.56,238.21,1664.69Z"/><path class="cls-12" d="M300.07,1580.29s-103.66-40.76-68.39-231.69C231.68,1348.6,425.3,1487.53,300.07,1580.29Z"/><g class="cls-7"><path class="cls-8" d="M261.8,1373.4a388.9,388.9,0,0,0-30.12-24.8c-35.27,190.93,68.39,231.69,68.39,231.69,1.52-1.13,3-2.27,4.39-3.41C283.79,1561.64,230.18,1507.72,261.8,1373.4Z"/></g><path class="cls-13" d="M300.07,1593.19a12.89,12.89,0,0,1-4.72-.9c-4.64-1.82-113.14-46.93-76.35-246a12.89,12.89,0,0,1,20.2-8.13c4.71,3.37,115.3,83.68,115.93,167.85.25,32.71-15.69,61.2-47.39,84.67A12.88,12.88,0,0,1,300.07,1593.19ZM240.9,1372.34c-18.66,135,38.09,181.06,57.69,192.72,20.83-17.31,30.91-36.62,30.75-58.85C329,1452.87,270.49,1397.14,240.9,1372.34Z"/><path class="cls-13" d="M266.28,1481.15q10.61,24.16,21.91,47.9c7.55,15.76,15.34,31.53,23.78,46.2a13,13,0,0,1-22.52,13,13.92,13.92,0,0,1-1.24-3c-5-17.57-8.7-34.82-12.26-52.16S269.24,1498.5,266.28,1481.15Z"/><path class="cls-5" d="M103.62,2101.75a4.63,4.63,0,0,0,1.34,1.61,7.58,7.58,0,0,0,2.91,1.23c2.89.75,7.56.75,12.48,0,10-1.51,21-5.32,31.77-9.82,21.61-9.14,42.86-21.16,63.62-33.88,41.48-25.73,81.56-54.6,120.68-84.63s77.25-61.61,114.51-94.12q14-12.2,27.75-24.6c9.26-8.26,18.08-16.64,27.73-25,4.75-4.15,9.43-8.38,14.24-12.47l14.71-11.87,7.37-5.92,7.58-5.62,15.15-11.25c82.23-58.1,173.36-101.46,267.3-134.75q70.44-25.2,143-43.21a1414.83,1414.83,0,0,1,146.26-29.18c-97.4,19.6-192.75,48.17-285,83.8A1379.14,1379.14,0,0,0,702.1,1723.2a952.43,952.43,0,0,0-125.07,78l-14.51,11.29-7.25,5.64-7,5.91-14,11.84c-4.57,4.07-9,8.27-13.51,12.38-9,8.1-18,17-27,25.54s-18.2,17.06-27.4,25.5q-55.18,50.55-113.36,97.86c-38.92,31.37-78.76,61.78-121.34,89-21.36,13.56-43.23,26.51-67.2,37.15-12.08,5.23-24.55,10.06-39.1,12.59-7.3,1.15-15.28,1.87-24.54-.09a39.92,39.92,0,0,1-14.13-6,37,37,0,0,1-11.1-12,16.17,16.17,0,0,1,28-16.27Z"/><g class="cls-4"><ellipse class="cls-5" cx="1978.41" cy="1339.33" rx="25.83" ry="18.87" transform="translate(-272.7 539.07) rotate(-14.53)"/></g><g class="cls-4"><ellipse class="cls-5" cx="1859.45" cy="1273.33" rx="41.98" ry="30.68" transform="translate(-259.95 507.13) rotate(-14.53)"/></g><g class="cls-4"><ellipse class="cls-5" cx="1591.07" cy="1093.95" rx="32.74" ry="25.72" transform="translate(-283.86 632.57) rotate(-20.69)"/></g><g class="cls-4"><ellipse class="cls-5" cx="1901.31" cy="780.57" rx="22.63" ry="17.78" transform="translate(-153.16 721.95) rotate(-20.69)"/></g><g class="cls-4"><ellipse class="cls-5" cx="1942.16" cy="1015.57" rx="25.71" ry="20.2" transform="translate(-233.54 751.54) rotate(-20.69)"/></g><g class="cls-4"><path class="cls-5" d="M1697.77,934.58c3.25,8.61-3,18.94-14,23.08s-22.47.51-25.72-8.1,3-18.94,14-23.07S1694.52,926,1697.77,934.58Z"/></g><g class="cls-4"><ellipse class="cls-5" cx="1316.81" cy="1234.03" rx="23.36" ry="18.35" transform="translate(-473.05 1003.33) rotate(-35.8)"/></g><g class="cls-4"><ellipse class="cls-5" cx="1368.93" cy="1010.71" rx="23.17" ry="18.2" transform="translate(-332.58 991.63) rotate(-35.8)"/></g><g class="cls-4"><ellipse class="cls-5" cx="659.63" cy="1600.66" rx="30.76" ry="24.17" transform="translate(-811.64 688.2) rotate(-35.8)"/></g><g class="cls-4"><ellipse class="cls-5" cx="674.63" cy="1437.18" rx="26.01" ry="20.43" transform="translate(-713.18 666.09) rotate(-35.8)"/></g><g class="cls-4"><ellipse class="cls-5" cx="425.96" cy="1757.23" rx="17.1" ry="13.44" transform="translate(-947.35 581.09) rotate(-35.8)"/></g><g class="cls-4"><ellipse class="cls-5" cx="680.34" cy="1138.48" rx="26.01" ry="20.43" transform="translate(-537.39 613) rotate(-35.8)"/></g><g class="cls-4"><ellipse class="cls-5" cx="907.55" cy="975.07" rx="33.97" ry="26.69" transform="translate(-398.89 715.03) rotate(-35.8)"/></g><path class="cls-15" d="M2203.87,1386.93c-32.57,185.32,390.53,215.34,390.53,215.34S2862.37,975,2430,439.68,1409.56-14.5,1345.49,111.92s62.87,184.25,62.87,184.25S2380.53,381.79,2203.87,1386.93Z"/><g class="cls-7"><path class="cls-8" d="M2430,439.68C1997.68-95.66,1409.56-14.5,1345.49,111.92c-57.09,112.63,37.43,170.81,58.74,182.17-25.67-27.69-47-73.16-14.08-138.13,14-27.63,54.95-52.93,114.61-69-13.76,8.78-21.45,18.83-19.79,28.12,3.35,18.75,43.41,27.28,89.48,19.05s80.7-30.1,77.35-48.85c-1.2-6.73-7.19-12.11-16.43-15.91,209.88-5.22,514.19,83.18,763,391.3,401.93,497.69,152.81,1080.81,152.81,1080.81s-279.05-19.81-349-129c8.57,162.59,392.15,189.81,392.15,189.81S2862.37,975,2430,439.68Z"/></g><g class="cls-4"><path class="cls-5" d="M2594.4,1602.27s36.49-85.53,60.82-220.29c-44.26-42.08-111.48-76.81-182.13-105.21a152.48,152.48,0,0,1-95.27-154.7c15-172.91,14.23-390.74-135.63-576.31-338-418.55-796.14-361.73-857.42-263.95a152.36,152.36,0,0,0,23.59,14.36s972.17,85.62,795.51,1090.76C2171.3,1572.25,2594.4,1602.27,2594.4,1602.27Z"/></g><path class="cls-5" d="M2594.4,1620.75c-.43,0-.87,0-1.31,0-11.91-.85-292.65-22-381.73-136.07-23.53-30.12-32.17-64.07-25.7-100.9,52.51-298.74,7.17-544.08-134.74-729.19-229.9-299.89-640.07-339.6-644.19-340a18.58,18.58,0,0,1-6-1.6c-2.58-1.17-63.25-29.39-84.54-90.13-12.92-36.86-8.6-77,12.83-119.3,25.16-49.62,110.49-87.81,222.68-99.65,245.09-25.84,608.32,72,892.73,424.15,227,281.13,260.4,587.36,248.4,794.73-13,224.38-78.62,380.21-81.4,386.74A18.49,18.49,0,0,1,2594.4,1620.75Zm-390.53-233.82,18.21,3.2c-4.65,26.46,1.38,49.92,18.42,71.75,68.93,88.27,285.53,115.16,341.77,120.74,15.52-41,63.28-180.22,73.69-363.3,11.39-200.51-21.05-496.52-240.32-768-275.1-340.63-624.71-435.44-860.09-410.61-111.83,11.8-177.8,48.49-193.57,79.6-16.66,32.86-20.36,63.17-11,90.09,13.82,39.78,52.42,62.35,62.62,67.74,19.93,2.08,117.36,14,240.32,57.85C1779,380.57,1954.46,468.1,2080.07,631.79c148.62,193.71,196.4,448.85,142,758.34Z"/><path class="cls-3" d="M2594.4,1602.27s-82.78,93.47-246.32,42.74-201.87-163.77-144.21-258.08S2711.65,1411.53,2594.4,1602.27Z"/><g class="cls-4"><path class="cls-5" d="M2594.4,1602.27s-82.78,93.47-246.32,42.74-201.87-163.77-144.21-258.08S2711.65,1411.53,2594.4,1602.27Z"/></g><path class="cls-5" d="M2442.33,1678.73c-29.37,0-62.61-4.55-99.73-16.06-113.16-35.1-156.22-93.64-172.4-136.57-18-47.68-11.63-100.53,17.9-148.81,22.33-36.52,78-42.83,120.76-41.74,111.7,2.91,261.25,59.48,308,145.82,22.54,41.57,20.2,86.72-6.76,130.58a18.41,18.41,0,0,1-1.91,2.57C2605.33,1617.81,2549.81,1678.73,2442.33,1678.73Zm-142.25-306.32c-41.29,0-71.08,8.87-80.44,24.17-23.78,38.89-28.91,79.17-14.85,116.47,18.77,49.78,71.6,90.37,148.76,114.3,141.64,43.93,216.17-26.14,226-36.31,19.31-32.28,20.88-62.41,4.81-92-39.23-72.37-174.65-123.83-276.5-126.48Q2303.93,1372.41,2300.08,1372.41Zm294.32,229.86h0Z"/><path class="cls-16" d="M1638.22,215.9c-3.86-8.22-5.22-17.25-5.23-26.22a76.9,76.9,0,0,1,4.94-26.65,61.45,61.45,0,0,1,14.76-23.19,46.59,46.59,0,0,1,24-13c-4.33,8.45-9,14.76-12.55,21.89a218.25,218.25,0,0,0-10.34,20.63c-3.07,7.08-5.76,14.45-8.26,22.16S1640.74,207.27,1638.22,215.9Z"/><path class="cls-16" d="M1687.24,248.27c-2.64-12-2-24.42-.07-36.56a116.39,116.39,0,0,1,12.22-35,92.07,92.07,0,0,1,23.7-29c2.52-1.9,5-3.87,7.57-5.57s5.5-3.06,8.29-4.44a44.59,44.59,0,0,1,8.68-3.4c3-.86,6-1.7,9-2.25-8.28,9.5-16.63,16.94-23.37,26a203.69,203.69,0,0,0-19,27.09,248.15,248.15,0,0,0-14.92,30.17C1694.89,225.77,1691.09,236.71,1687.24,248.27Z"/><path class="cls-16" d="M2379.14,1037c10.22-8.22,22.33-13.64,34.84-17.65a126.63,126.63,0,0,1,39.25-5.48,100.13,100.13,0,0,1,39.18,8.11c3,1.44,6.11,2.75,9,4.37,2.84,1.81,5.63,3.66,8.33,5.59a49.23,49.23,0,0,1,7.56,6.45c2.33,2.4,4.62,4.74,6.68,7.3-12.95-3.43-24.13-7.85-36.09-9.91a208.19,208.19,0,0,0-35.28-4.83,255,255,0,0,0-36.16.84C2404.22,1032.88,2392,1034.78,2379.14,1037Z"/><path class="cls-16" d="M2358.61,1122.52c16-8.27,33.69-12.94,51.61-15.58a186.31,186.31,0,0,1,54.63.32c4.52.87,9.11,1.34,13.57,2.55s8.9,2.42,13.31,3.77,8.61,3.34,12.87,5.1l6.34,2.74,6,3.42c3.95,2.39,8,4.62,11.74,7.21,3.65,2.82,7.15,5.81,10.68,8.67a57.4,57.4,0,0,1,5.1,4.52l4.6,5.08c3,3.47,5.9,6.89,8.58,10.49-16.21-8.32-30.73-17.27-46.95-22.87l-5.85-2.45-6.07-1.9c-4.06-1.2-8-2.8-12.05-3.85s-8.18-2.09-12.26-3.14-8.29-1.63-12.43-2.49a311.9,311.9,0,0,0-51-4.59A433.27,433.27,0,0,0,2358.61,1122.52Z"/><path class="cls-12" d="M1830.27,974.08c131-69.11,171.28-5.68,188.81,118.05C1923.55,1104.7,1839.87,1077.83,1830.27,974.08Z"/><path class="cls-13" d="M1997.42,1116.1c-55.57,0-102.59-14.5-134.57-41.93-28.43-24.38-44.09-57.77-46.56-99.26a14,14,0,0,1,7.2-13.09c56.22-31.09,100.45-38.36,135.22-22.23,50,23.18,69.52,89.78,83.19,158.29a14,14,0,0,1-12.43,16.69Q2013,1116.11,1997.42,1116.1ZM1845,982.05c3.5,29.51,15.61,53.32,36,70.85,28.93,24.82,75.75,37.21,130.08,34.85-11.6-53.4-29-106.37-64.25-122.74C1922.31,953.58,1888.92,959.16,1845,982.05Z"/><path class="cls-14" d="M1827.46,960.35c14.74-4.17,30.19-3.17,44.12.25s26.81,9.67,38.43,16.94a180.69,180.69,0,0,1,31.61,25.4,157.63,157.63,0,0,1,24.41,31.34c-21.23-15.36-43.37-27.84-66.2-36.41a181.13,181.13,0,0,0-34.13-9,127.34,127.34,0,0,0-32.61-1.05l-.5.05a14,14,0,0,1-5.13-27.5Z"/></g></g></svg>