<svg id="Layer_1" data-name="Layer 1" xmlns="http://www.w3.org/2000/svg" viewBox="0 0 980 980"><defs><style>.cls-1{fill:#fff;}</style></defs><title>user</title><path class="cls-1" d="M500,990C229.4,990,10,770.6,10,500S229.4,10,500,10,990,229.4,990,500,770.6,990,500,990ZM769,848.9C723.8,744.8,620.8,671.5,500,671.5S276.1,744.6,230.9,848.8A438.21,438.21,0,0,0,500,941c101.4,0,194.5-34.5,269-92.1ZM647,451A147,147,0,1,0,500,598,147,147,0,0,0,647,451ZM500,59C256.5,59,59,256.5,59,500c0,123.8,51.1,235.5,133.3,315.6,44.8-91.8,129-160.8,231-184.2A196,196,0,0,1,304,451c0-108.2,87.8-196,196-196s196,87.8,196,196A196,196,0,0,1,576.7,631.4c102,23.3,186.1,92.4,231,184.2C889.8,735.6,941,623.8,941,500,941,256.5,743.5,59,500,59Z" transform="translate(-10 -10)"/></svg>