<svg xmlns="http://www.w3.org/2000/svg" viewBox="0 0 186 186"><defs><style>.cls-1{fill:#fff;}</style></defs><title>avatar</title><g id="Layer_2" data-name="Layer 2"><g id="Layer_1-2" data-name="Layer 1"><circle class="cls-1" cx="93" cy="93" r="93"/><path d="M58.33,69.4a2.92,2.92,0,0,0-4.19,0C52.61,71.11,45,79.89,45,85.35a11.26,11.26,0,1,0,22.51,0C67.49,79.89,59.86,71.11,58.33,69.4Z"/><path d="M80.84,40.89a2.91,2.91,0,0,0-4.19,0c-1.53,1.7-9.16,10.86-9.16,16.32a11.26,11.26,0,1,0,22.51,0C90,51.75,82.37,42.59,80.84,40.89Z"/><path d="M109.35,40.89a2.91,2.91,0,0,0-4.19,0C103.63,42.59,96,51.75,96,57.21a11.26,11.26,0,1,0,22.51,0C118.51,51.75,110.88,42.59,109.35,40.89Z"/><path d="M131.86,69.4a2.92,2.92,0,0,0-4.19,0c-1.53,1.71-9.16,10.49-9.16,15.95a11.26,11.26,0,1,0,22.51,0C141,79.89,133.39,71.11,131.86,69.4Z"/><path d="M129.44,112.67A19.82,19.82,0,0,0,115,97.21a2.8,2.8,0,0,1-2.13-2.72v-.7a19.88,19.88,0,0,0-39.76,0v.7A2.8,2.8,0,0,1,71,97.21a19.71,19.71,0,0,0-10.18,31.72,20.17,20.17,0,0,0,27.16,3,9.22,9.22,0,0,1,10.06,0,19.7,19.7,0,0,0,27.16-3A19.82,19.82,0,0,0,129.44,112.67Z"/></g></g></svg>