<svg xmlns="http://www.w3.org/2000/svg" viewBox="0 0 28.33 17.5"><defs><style>.cls-1{fill:#fff;}</style></defs><title>dash_1</title><g id="Layer_2" data-name="Layer 2"><g id="Layer_1-2" data-name="Layer 1"><g id="Layer_2-2" data-name="Layer 2"><path class="cls-1" d="M28.33,14.17V15H18.05V13.33h8.59a12.51,12.51,0,0,0-3.07-7.39L22.23,7.29,21.05,6.11l1.33-1.34A12.45,12.45,0,0,0,15,1.71v5H13.33v-5A12.47,12.47,0,0,0,6,4.77L7.28,6.1,6.1,7.28,4.77,5.94A12.39,12.39,0,0,0,1.7,13.33h8.61V15H0v-.83a14.17,14.17,0,1,1,28.33,0Zm-10.83,0a3.34,3.34,0,1,1-5.36-2.63l-3.47-6,1.44-.83,3.57,6.22a3.87,3.87,0,0,1,.49-.05A3.34,3.34,0,0,1,17.5,14.17Zm-1.67,0a1.67,1.67,0,1,0-1.66,1.66A1.67,1.67,0,0,0,15.83,14.17Z"/></g></g></g></svg>