<svg xmlns="http://www.w3.org/2000/svg" viewBox="0 0 29.22 29.22"><defs><style>.cls-1{fill:#fff;}</style></defs><title>logout</title><g id="Layer_2" data-name="Layer 2"><g id="Layer_1-2" data-name="Layer 1"><g id="Layer_2-2" data-name="Layer 2"><path class="cls-1" d="M0,12.78a.91.91,0,0,1,.91-.91H12.48a.92.92,0,0,1,0,1.83H.91A.92.92,0,0,1,0,12.78Z"/><path class="cls-1" d="M4.83,18,.27,13.43a.91.91,0,0,1,0-1.29L4.83,7.57a.92.92,0,1,1,1.3,1.29L2.2,12.78,6.13,16.7a.94.94,0,0,1,0,1.3,1,1,0,0,1-.65.26A.92.92,0,0,1,4.83,18Z"/><path class="cls-1" d="M17.05,26.79V4.87a2.46,2.46,0,0,1,1.66-2.32L26,.11A2.79,2.79,0,0,1,26.79,0a2.43,2.43,0,0,1,2.43,2.44V24.35a2.46,2.46,0,0,1-1.66,2.32l-7.32,2.44a2.46,2.46,0,0,1-3.19-2.32ZM26.59,1.85,19.3,4.28a.64.64,0,0,0-.43.59V26.79a.62.62,0,0,0,.61.61.56.56,0,0,0,.2,0L27,24.94a.64.64,0,0,0,.43-.59V2.44a.61.61,0,0,0-.61-.61Z"/><path class="cls-1" d="M9.74,8.83V3.35A3.35,3.35,0,0,1,13.09,0h13.7a.92.92,0,0,1,0,1.83H13.09a1.52,1.52,0,0,0-1.52,1.52V8.83a.92.92,0,0,1-1.83,0Z"/><path class="cls-1" d="M9.74,22.22V16.74a.92.92,0,0,1,1.83,0v5.48a1.52,1.52,0,0,0,1.52,1.52H18a.92.92,0,0,1,0,1.83H13.09A3.35,3.35,0,0,1,9.74,22.22Z"/></g></g></g></svg>