<svg xmlns="http://www.w3.org/2000/svg" viewBox="0 0 25.96 25.97"><defs><style>.cls-1{fill:#fff;}</style></defs><title>order</title><g id="Layer_2" data-name="Layer 2"><g id="Layer_1-2" data-name="Layer 1"><g id="Layer_2-2" data-name="Layer 2"><path class="cls-1" d="M25.29,22.08,15.11,11.9,3.21,0H2.28L2.09.48a8.52,8.52,0,0,0-.62,3.77A5.31,5.31,0,0,0,3,7.65l9.29,9.29,1.22-1.23,8.59,9.6a2.28,2.28,0,0,0,3.23-3.23Z"/><path class="cls-1" d="M7.94,14.78.67,22.06A2.28,2.28,0,0,0,3.9,25.29L11.17,18Z"/><path class="cls-1" d="M24.86,4.32,20.74,8.45,19.66,7.37l4.13-4.12L22.71,2.17,18.58,6.3,17.51,5.22l4.12-4.13L20.56,0,15.17,5.4a3.75,3.75,0,0,0-1.1,2.46,2.31,2.31,0,0,1-.16.69l3.5,3.5a2.32,2.32,0,0,1,.68-.16,3.79,3.79,0,0,0,2.47-1.11L25.94,5.4Z"/></g></g></g></svg>