<svg xmlns="http://www.w3.org/2000/svg" viewBox="0 0 22 28.92"><defs><style>.cls-1{fill:#fff;}</style></defs><title>user</title><g id="Layer_2" data-name="Layer 2"><g id="Layer_1-2" data-name="Layer 1"><g id="Layer_2-2" data-name="Layer 2"><path class="cls-1" d="M11,14.15c3.22,0,5.82-3.17,5.82-7.08S16,0,11,0,5.18,3.17,5.18,7.07,7.78,14.15,11,14.15Z"/><path class="cls-1" d="M0,25Z"/><path class="cls-1" d="M22,25.13Z"/><path class="cls-1" d="M22,24.66c-.11-6.81-1-8.74-7.8-10A4.08,4.08,0,0,1,11,15.91a4.08,4.08,0,0,1-3.19-1.22C1.08,15.9.14,17.81,0,24.44,0,25,0,25,0,25v.71s1.62,3.26,11,3.26,11-3.26,11-3.26v-.53A3.23,3.23,0,0,1,22,24.66Z"/></g></g></g></svg>