<svg xmlns="http://www.w3.org/2000/svg" width="838.473" height="1022.807" viewBox="0 0 838.473 1022.807">
  <g id="burger" transform="translate(-56.221 0.03)">
    <g id="Layer_1" data-name="Layer 1" transform="translate(0 -0.03)">
      <rect id="Rectangle_68" data-name="Rectangle 68" width="521.707" height="409.077" rx="156.16" transform="translate(215.549 459.751)" fill="#fff"/>
      <path id="Path_2216" data-name="Path 2216" d="M1069.073,1228.951V1515.03a61.5,61.5,0,0,1-61.5,61.507H608.858a61.5,61.5,0,0,1-61.488-61.5v-286.09a61.5,61.5,0,0,1,61.48-61.491h398.724A61.5,61.5,0,0,1,1069.073,1228.951Z" transform="translate(-331.817 -707.705)" fill="#fff"/>
      <g id="Group_173" data-name="Group 173" transform="translate(215.553 494.421)" opacity="0.35">
        <path id="Path_2217" data-name="Path 2217" d="M1069.073,1316.978v251.416a61.5,61.5,0,0,1-61.5,61.507H608.858a61.5,61.5,0,0,1-61.488-61.5V1316.978a61.494,61.494,0,0,1,61.48-61.488h398.724a61.5,61.5,0,0,1,61.5,61.488Z" transform="translate(-547.37 -1255.49)" fill="#371a45"/>
      </g>
      <path id="Path_2218" data-name="Path 2218" d="M997.1,1572.861H598.4a68.373,68.373,0,0,1-68.3-68.3V1218.486a68.373,68.373,0,0,1,68.3-68.3H997.1a68.373,68.373,0,0,1,68.3,68.3v286.078A68.374,68.374,0,0,1,997.1,1572.861ZM598.4,1163.784a54.765,54.765,0,0,0-54.7,54.7v286.078a54.767,54.767,0,0,0,54.7,54.7H997.1a54.765,54.765,0,0,0,54.7-54.7V1218.486a54.762,54.762,0,0,0-54.7-54.7Z" transform="translate(-321.348 -697.236)" fill="#371a45"/>
      <path id="Path_2219" data-name="Path 2219" d="M991.551,1290.85c107.18,187.085,104.711,410.066,104.711,410.066H648.443s-2.469-222.98,104.711-410.066" transform="translate(-393.085 -782.505)" fill="#fff"/>
      <path id="Path_2220" data-name="Path 2220" d="M1092.524,1697.235H631.261l-.075-6.722c0-.563-.477-57.239,12.247-136.033,11.751-72.754,37.486-179.966,93.362-277.486a6.805,6.805,0,1,1,11.814,6.758c-94.708,165.281-103.057,361.408-103.766,399.89h434.1c-.713-38.482-9.057-234.609-103.754-399.89a6.805,6.805,0,1,1,11.814-6.758c55.872,97.528,81.611,204.731,93.362,277.486,12.724,78.795,12.255,135.466,12.247,136.033Z" transform="translate(-382.625 -772.027)" fill="#371a45"/>
      <path id="Path_2221" data-name="Path 2221" d="M943.282,1347.959c-23.514-17.682-18.509-47.138-72.124-72.809H605.738c-53.623,25.672-48.61,55.132-72.124,72.809-33.922,25.475-114.308,23.21-106.743-77.85,2.615-26.936,13.094-54,28.633-80.374C529.239,1064.614,716.793,955.67,716.793,955.67h43.318s187.554,108.944,261.289,234.065c15.539,26.385,26.018,53.438,28.633,80.374C1057.57,1371.17,977.184,1373.434,943.282,1347.959Z" transform="translate(-258.468 -579.318)" fill="#fff"/>
      <path id="Path_2222" data-name="Path 2222" d="M943.316,1347.959c-6.73-5.06-11.129-11.081-15.232-17.721-8.534-13.783-15.791-30.181-40.238-45.877-7.088-7.986-17.181-16.146-33.39-23.915H622.508c-16.209,7.774-26.294,15.929-33.39,23.915-24.443,15.7-31.7,32.087-40.238,45.877-4.1,6.631-8.5,12.653-15.232,17.721-33.922,25.471-114.3,23.2-106.719-77.846,2.615-26.94,13.1-54.013,28.629-80.378C529.257,1064.606,716.8,955.67,716.8,955.67h43.318s187.526,108.936,261.289,234.065c15.527,26.385,26.014,53.438,28.625,80.378C1057.612,1371.162,977.218,1373.43,943.316,1347.959Z" transform="translate(-258.502 -579.318)" fill="#fff"/>
      <g id="Group_174" data-name="Group 174" transform="translate(207.226 401.937)" opacity="0.35">
        <path id="Path_2223" data-name="Path 2223" d="M988.561,1369.631c-8.534-13.783-15.791-30.181-40.238-45.877-7.088-7.986-17.181-16.146-33.39-23.915H682.986c-16.209,7.773-26.294,15.929-33.39,23.915-24.443,15.7-31.7,32.087-40.238,45.877-33.012,14.736-88.6,4.812-82.7-74.192,2.284-23.533,11.444-47.2,25.022-70.238,64.453-109.35,228.348-204.562,228.348-204.562h37.856S981.8,1115.852,1046.233,1225.2c13.578,23.037,22.738,46.7,25.022,70.238C1077.173,1374.443,1021.573,1384.367,988.561,1369.631Z" transform="translate(-526.224 -1020.64)" fill="#371a45"/>
      </g>
      <path id="Path_2224" data-name="Path 2224" d="M479.97,1357.959a70.644,70.644,0,0,1-34.048-8.392c-18.9-10.341-40.561-34.426-36.371-90.44,2.564-26.384,12.5-54.372,29.558-83.308,73.8-125.228,256.016-232.014,263.734-236.5a6.8,6.8,0,1,1,6.832,11.755c-1.863,1.083-186.881,109.523-258.855,231.648-16.039,27.215-25.368,53.312-27.727,77.578-2.871,38.474,7.273,65.272,29.354,77.35,22.214,12.153,50.871,6.19,66.552-5.592,7.581-5.694,11.928-13.05,16.961-21.568,9.164-15.512,20.572-34.82,56.313-51.93,18.753-8.979,28.917-28.862,27.172-53.186-1.536-21.572-13.692-46.673-37.387-54.12-26.944-8.49-57.266,8.049-92.625,50.536l-1.422,1.717c-7.285,8.833-16.362,19.82-26.357,17.587-5.513-1.24-9.376-6.013-11.448-14.177a6.8,6.8,0,1,1,13.173-3.343,15.309,15.309,0,0,0,1.5,4.028c3.355-1.461,10.026-9.554,12.649-12.732l1.461-1.764c39.3-47.2,74.349-65.126,107.164-54.817,25.8,8.1,44.633,34.678,46.862,66.123,2.111,29.653-11.255,55.1-34.875,66.414-32.016,15.327-41.829,31.933-50.485,46.586-5.533,9.341-10.747,18.17-20.5,25.5C515.254,1351.863,497.915,1357.959,479.97,1357.959Z" transform="translate(-247.952 -568.848)" fill="#371a45"/>
      <path id="Path_2225" data-name="Path 2225" d="M1489.589,1357.937c-17.949,0-35.28-6.1-47.193-15.043-9.743-7.321-14.964-16.146-20.477-25.518-8.664-14.653-18.469-31.26-50.481-46.586-23.628-11.31-36.99-36.761-34.879-66.414,2.237-31.445,21.072-58.018,46.862-66.123,32.815-10.31,67.867,7.62,107.164,54.817l1.461,1.764c2.623,3.178,9.294,11.27,12.649,12.731a15.364,15.364,0,0,0,1.493-4.029,6.8,6.8,0,1,1,13.176,3.343c-2.071,8.179-5.907,12.952-11.448,14.177-10.034,2.245-19.072-8.754-26.357-17.587l-1.422-1.717c-35.375-42.483-65.67-59.026-92.641-50.548-23.695,7.447-35.836,32.547-37.387,54.12-1.729,24.325,8.435,44.208,27.172,53.186,35.741,17.11,47.149,36.418,56.313,51.93,5.033,8.518,9.38,15.874,16.957,21.568,15.685,11.782,44.338,17.749,66.552,5.592,22.076-12.078,32.22-38.876,29.334-77.5-2.363-24.1-11.672-50.2-27.711-77.417-72.006-122.176-256.992-230.565-258.855-231.648a6.8,6.8,0,1,1,6.828-11.755c7.722,4.485,189.94,111.283,263.738,236.5,17.055,28.94,26.995,56.916,29.535,83.154,4.2,56.167-17.453,80.252-36.352,90.573A70.186,70.186,0,0,1,1489.589,1357.937Z" transform="translate(-761.685 -568.825)" fill="#371a45"/>
      <path id="Path_2226" data-name="Path 2226" d="M1842.743,562.447h0a5.8,5.8,0,0,1-6.769-4.635L1805.226,393.6a5.8,5.8,0,0,1,4.635-6.765h0a60.846,60.846,0,0,1,71.006,48.614l10.483,55.994a60.85,60.85,0,0,1-48.606,71.006Z" transform="translate(-1094.272 -233.851)" fill="#fff"/>
      <path id="Path_2227" data-name="Path 2227" d="M1839.8,561.884a7.037,7.037,0,0,1-6.9-5.73l-30.744-164.214a7.025,7.025,0,0,1,5.608-8.191,62.059,62.059,0,0,1,72.427,49.591l10.487,55.994a62.059,62.059,0,0,1-49.583,72.427h0A6.9,6.9,0,0,1,1839.8,561.884ZM1819.321,385.12a60.253,60.253,0,0,0-11.1,1.036,4.584,4.584,0,0,0-3.658,5.344l30.748,164.214a4.584,4.584,0,0,0,5.344,3.658h0a59.625,59.625,0,0,0,47.65-69.58L1877.823,433.8a59.669,59.669,0,0,0-58.514-48.677Z" transform="translate(-1092.398 -231.968)" fill="#371a45"/>
      <g id="Group_175" data-name="Group 175" transform="translate(733.511 231.332)" opacity="0.35">
        <path id="Path_2228" data-name="Path 2228" d="M1921.312,587.41l4.922,26.262a60.873,60.873,0,0,1-48.618,71.014,5.817,5.817,0,0,1-6.77-4.647l-8.187-43.648a5.809,5.809,0,0,0,5.82,2.41l3.891-.74A60.8,60.8,0,0,0,1921.312,587.41Z" transform="translate(-1862.66 -587.41)" fill="#371a45"/>
      </g>
      <path id="Path_2229" data-name="Path 2229" d="M1831.214,558.886a12.6,12.6,0,0,1-12.377-10.278l-30.748-164.214a12.6,12.6,0,0,1,10.073-14.693,67.643,67.643,0,0,1,78.941,54.037l10.487,55.994a67.643,67.643,0,0,1-54.037,78.937h0a12.693,12.693,0,0,1-2.339.217Zm-29.578-175.992,30.374,162.245a54.037,54.037,0,0,0,42.2-62.878l-10.483-56a54.049,54.049,0,0,0-62.09-43.369Z" transform="translate(-1083.813 -223.394)" fill="#371a45"/>
      <path id="Path_2230" data-name="Path 2230" d="M364.359,646.026h0a5.8,5.8,0,0,1,6.773,4.655L401.88,814.895a5.8,5.8,0,0,1-4.631,6.769h0a60.85,60.85,0,0,1-71.01-48.638l-10.487-55.994a60.846,60.846,0,0,1,48.606-71.006Z" transform="translate(-190.773 -391.55)" fill="#fff"/>
      <path id="Path_2231" data-name="Path 2231" d="M384.029,822.04a62.106,62.106,0,0,1-60.854-50.662l-10.507-55.994a62.059,62.059,0,0,1,49.583-72.427h0a7.017,7.017,0,0,1,8.179,5.608l30.748,164.214a7.017,7.017,0,0,1-5.608,8.191A62.817,62.817,0,0,1,384.029,822.04ZM362.7,645.355a59.625,59.625,0,0,0-47.65,69.58l10.487,55.994a59.625,59.625,0,0,0,69.58,47.649,4.584,4.584,0,0,0,3.666-5.36L368.037,649.005a4.6,4.6,0,0,0-5.344-3.658Z" transform="translate(-188.891 -389.678)" fill="#371a45"/>
      <g id="Group_176" data-name="Group 176" transform="translate(131.048 357.891)" opacity="0.35">
        <path id="Path_2232" data-name="Path 2232" d="M404.317,928.657l8.522,45.555a5.812,5.812,0,0,1-4.643,6.773,60.822,60.822,0,0,1-71-48.6l-4.418-23.6a60.861,60.861,0,0,0,61.039,24.923l5.994-1.122a5.871,5.871,0,0,0,4.505-3.934Z" transform="translate(-332.78 -908.79)" fill="#371a45"/>
      </g>
      <path id="Path_2233" data-name="Path 2233" d="M375.43,819.025a67.694,67.694,0,0,1-66.355-55.21L298.6,707.821a67.635,67.635,0,0,1,54.037-78.937h0a12.6,12.6,0,0,1,14.72,10.062l30.748,164.214a12.6,12.6,0,0,1-10.062,14.7,68.3,68.3,0,0,1-12.613,1.166ZM354.165,642.439a54.045,54.045,0,0,0-42.2,62.882l10.5,55.994a54.045,54.045,0,0,0,62.09,43.349Z" transform="translate(-180.304 -381.087)" fill="#371a45"/>
      <circle id="Ellipse_62" data-name="Ellipse 62" cx="284.684" cy="284.684" r="284.684" transform="translate(176.378 6.844)" fill="#fff"/>
      <path id="Path_2234" data-name="Path 2234" d="M730.426,586.041c-143.212,0-267.144-107.751-283.838-253.369a285.9,285.9,0,0,1,568.089-65.111c17.953,156.621-94.866,298.648-251.487,316.613a288,288,0,0,1-32.764,1.867Zm.764-569.431A287.814,287.814,0,0,0,698.4,18.487,283.478,283.478,0,0,0,449.018,332.4C465.557,476.762,588.45,583.588,730.426,583.6a284.237,284.237,0,0,0,32.536-1.864c155.234-17.794,267.089-158.608,249.289-313.891A283.541,283.541,0,0,0,731.19,16.617Z" transform="translate(-269.572 -8.588)" fill="#371a45"/>
      <g id="Group_177" data-name="Group 177" transform="translate(176.985 220.275)" opacity="0.35">
        <path id="Path_2235" data-name="Path 2235" d="M1009.143,559.33a283.394,283.394,0,0,1,7.187,38.856c17.878,156.2-94.228,297.341-250.424,315.255s-297.317-94.224-315.255-250.42c-.52-4.493-.929-9-1.221-13.452C484.309,785.047,614.577,877.507,757.5,861.133,909.216,843.735,1019.295,710.111,1009.143,559.33Z" transform="translate(-449.43 -559.33)" fill="#371a45"/>
      </g>
      <path id="Path_2236" data-name="Path 2236" d="M721.836,583c-146,0-272.35-109.87-289.367-258.308a291.483,291.483,0,0,1,579.174-66.39h0c18.3,159.677-96.717,304.473-256.39,322.776A293.9,293.9,0,0,1,721.836,583ZM722.6,13.568a281.937,281.937,0,0,0-32.15,1.842A277.882,277.882,0,0,0,445.972,323.132C462.2,464.663,582.664,569.413,721.847,569.413a279.022,279.022,0,0,0,31.847-1.823C905.924,550.141,1015.569,412.1,998.128,259.869h0A277.965,277.965,0,0,0,722.6,13.576Z" transform="translate(-260.99 0.03)" fill="#371a45"/>
      <path id="Path_2237" data-name="Path 2237" d="M1021.986,407.42c7.179,55.242-4.088,108.861-29.243,155.282C973.883,597.5,886.6,665.484,770.018,681.68,661.925,696.716,555.966,651.811,528.837,623c-36.182-38.45-60.779-87.423-67.958-142.653-19-146.19,98.729-223.118,253.68-243.253S1002.989,261.227,1021.986,407.42Z" transform="translate(-278.165 -140.937)" fill="#371a45"/>
      <path id="Path_2238" data-name="Path 2238" d="M714.607,681.066c-93.984,0-176.748-37.864-201.231-63.886-38.505-40.916-62.614-91.546-69.757-146.434-9.294-71.5,12.208-130.347,63.913-174.921,45.149-38.931,112.8-65.185,195.654-75.948s154.948-2.666,208.547,23.423c61.373,29.877,97.2,81.28,106.495,152.793h0c7.132,54.891-3.245,110.007-30.011,159.4-18.556,34.26-104.411,105.317-227.761,122.471a332.79,332.79,0,0,1-45.85,3.1Zm56.348-452.08a518.01,518.01,0,0,0-66.04,4.367c-80.189,10.424-145.378,35.584-188.507,72.766-48.02,41.4-67.973,96.193-59.306,162.875,6.758,52.036,29.641,100.056,66.158,138.869,25.951,27.566,129.63,71.321,235.294,56.62C875.646,648.2,959.391,580.128,976.238,549c25.392-46.862,35.241-99.135,28.479-151.171h0c-18.39-141.6-141.7-168.841-233.758-168.841Z" transform="translate(-267.646 -130.474)" fill="#371a45"/>
      <g id="Group_178" data-name="Group 178" transform="translate(611.112 206.343)" opacity="0.7">
        <ellipse id="Ellipse_63" data-name="Ellipse 63" cx="50.379" cy="36.505" rx="50.379" ry="36.505" transform="matrix(0.05, -0.999, 0.999, 0.05, 0, 100.631)" fill="#fff"/>
      </g>
      <g id="Group_179" data-name="Group 179" transform="translate(595.435 339.059)" opacity="0.7">
        <ellipse id="Ellipse_64" data-name="Ellipse 64" cx="23.083" cy="19.809" rx="23.083" ry="19.809" transform="matrix(0.19, -0.982, 0.982, 0.19, 0, 45.323)" fill="#fff"/>
      </g>
      <g id="Group_180" data-name="Group 180" transform="translate(373.533 137.191)" opacity="0.35">
        <path id="Path_2239" data-name="Path 2239" d="M1246.539,348.35c38.553,28.271,64.65,70.569,72.285,129.284,7.179,55.269-4.1,108.869-29.232,155.294-18.867,34.8-106.16,102.781-222.736,118.986-41.16,5.738-82,2.757-118.316-4.726,142.874-23,249.132-106.3,272.508-149.462,31.941-58.916,46.255-126.964,37.115-197.064A287.843,287.843,0,0,0,1246.539,348.35Z" transform="translate(-948.54 -348.35)" fill="#111a28"/>
      </g>
      <path id="Path_2240" data-name="Path 2240" d="M466.062,305.189a6.789,6.789,0,0,1-5.942-10.058c40.01-79.039,130.54-133.151,248.423-148.462,117.06-15.208,218.2,12.6,277.588,76.259a6.8,6.8,0,0,1-8.506,10.546l-.736-.465-.461-.551C920.114,171.849,823.11,145.5,710.295,160.154c-113.437,14.728-200.234,66.233-238.129,141.3l-.335.587A6.836,6.836,0,0,1,466.062,305.189Z" transform="translate(-278.417 -86.431)" fill="#371a45"/>
      <g id="Group_181" data-name="Group 181" transform="translate(230.33 136.109)" opacity="0.7">
        <path id="Path_2241" data-name="Path 2241" d="M611.585,627.67s-64.016-138.337,6.238-205.909S799.95,339.894,798.249,347.4c0,0-119.9,46.074-155.621,150.218C615.082,577.945,611.585,627.67,611.585,627.67Z" transform="translate(-584.895 -345.601)" fill="#fff"/>
      </g>
      <g id="Group_182" data-name="Group 182" transform="translate(259.314 688.134)" opacity="0.35">
        <path id="Path_2242" data-name="Path 2242" d="M658.513,1840.179c-1.548-51.473,98.733-92.779,221.1-92.779,121.924,0,221.1,41.305,221.1,92.771-.441,68.473-98.733,92.771-221.1,92.771C757.691,1932.942,660.943,1909.306,658.513,1840.179Z" transform="translate(-658.495 -1747.4)" fill="#371a45"/>
      </g>
      <path id="Path_2243" data-name="Path 2243" d="M1100.706,1747.643a61.649,61.649,0,0,1-15.728,41.4c-32.48,37.21-111.913,51.387-205.373,51.387-95.606,0-175.752-14.539-207.043-54.163a64.425,64.425,0,0,1-14.059-38.62c-1.059-35.489,46.291-66.158,115.918-81.764,31.358-7.013,67.213-11,105.183-11,35.509,0,69.1,3.5,98.843,9.743C1050.911,1679.788,1100.706,1711.162,1100.706,1747.643Z" transform="translate(-399.176 -1003.18)" fill="#ffa539"/>
      <g id="Group_183" data-name="Group 183" transform="translate(252.362 731.652)" opacity="0.35">
        <path id="Path_2244" data-name="Path 2244" d="M1090.022,1857.91c-15.539,57.467-109.87,78.366-224.925,78.366-110.291,0-200.514-18.828-222.232-71.8a40.871,40.871,0,0,0-2.008,13.814c2.5,71.037,101.9,95.323,227.182,95.323,125.736,0,226.729-24.967,227.182-95.323A44.076,44.076,0,0,0,1090.022,1857.91Z" transform="translate(-640.842 -1857.91)" fill="#371a45"/>
      </g>
      <path id="Path_2245" data-name="Path 2245" d="M869.152,1836.78c-66.82,0-119.88-7.025-157.7-20.871-45.33-16.6-68.95-43-70.194-78.456v-.028c-.425-14.153,5.553-27.712,17.768-40.3,35.048-36.127,117.541-59.464,210.127-59.464,127.8,0,227.9,43.735,227.9,99.568C1096.633,1802.366,1017.826,1836.78,869.152,1836.78ZM654.843,1737c2.532,71.234,117.938,86.187,214.309,86.187,79.831,0,213.832-11.176,214.309-86.017,0-46.559-98.142-85.931-214.309-85.931-87.722,0-168.246,22.242-200.372,55.348C659.226,1716.431,654.532,1726.666,654.843,1737Z" transform="translate(-388.719 -992.741)" fill="#371a45"/>
      <path id="Path_2246" data-name="Path 2246" d="M907.038,1744.943c0,32.028-61.85,58.093-138.274,58.093s-138.274-25.845-138.274-58.093c0-8.175,3.977-16.126,11.487-23.195,21.206-20.541,70.021-34.9,126.8-34.9,72.01,0,131.205,22.97,137.609,52.792a21.609,21.609,0,0,1,.65,5.3Z" transform="translate(-382.204 -1022.561)" fill="#d62727"/>
      <g id="Group_184" data-name="Group 184" transform="translate(247.699 699.585)" opacity="0.6">
        <path id="Path_2247" data-name="Path 2247" d="M629,1794.614c111.681,81.571,216.195,25.932,246.021,6.671V1801a17.052,17.052,0,0,0-.154-2.1c-173,68.521-232.435-22.419-232.435-22.419a47.107,47.107,0,0,0-10.581,11.771A27.065,27.065,0,0,0,629,1794.614Z" transform="translate(-629 -1776.48)" fill="#fff"/>
      </g>
      <path id="Path_2248" data-name="Path 2248" d="M756.658,1798.825c-83.312,0-146.138-28.353-146.138-65.957,0-10.325,4.828-20.328,13.96-28.921,23.195-22.47,75.109-37.017,132.178-37.017,76.751,0,137.8,24.754,145.272,58.873a29.756,29.756,0,0,1,.866,7.088c0,18.867-16.087,36.025-45.287,48.307C830.448,1792.555,794.613,1798.825,756.658,1798.825Zm0-116.17c-52.375,0-101.135,13.137-121.313,32.685-4.194,3.938-9.093,10.117-9.093,17.544,0,23.754,53.557,50.225,130.406,50.225s130.406-26.471,130.406-50.225a14.059,14.059,0,0,0-.425-3.395c-.024-.083-.043-.169-.059-.256-4.816-22.415-55.852-46.594-129.922-46.594Z" transform="translate(-370.099 -1010.485)" fill="#371a45"/>
      <path id="Path_2249" data-name="Path 2249" d="M786.81,1770.9c-76.294,0-136.959-24.455-144.252-58.152a6.8,6.8,0,0,1,1.914-6.3c23.084-22.364,74.707-36.816,131.528-36.816,76.353.236,137.01,24.691,144.252,58.152a6.785,6.785,0,0,1-1.914,6.3C895.242,1756.447,843.619,1770.9,786.81,1770.9Zm-129.819-57.455c9.207,21.738,59.144,43.861,129.819,43.861,50.977,0,96.9-11.771,118.994-30.232-9.2-21.572-59.125-43.648-129.835-43.865C725.012,1683.208,679.083,1694.979,656.991,1713.444Z" transform="translate(-389.429 -1012.122)" fill="#371a45"/>
      <path id="Path_2250" data-name="Path 2250" d="M1406.917,1754.487c0,28.716-55.218,51.906-123.471,51.906-68.032,0-123.1-23.037-123.475-51.619v-.287a17.2,17.2,0,0,1,.154-2.1c.091-.618.177-1.256.287-1.875,4.859-26.948,58.093-47.933,123.259-47.933,47.047,0,88.132,11.026,108.9,27.389a47.1,47.1,0,0,1,10.577,11.775,27.048,27.048,0,0,1,2.851,6.36A22.445,22.445,0,0,1,1406.917,1754.487Z" transform="translate(-703.177 -1032.096)" fill="#d62727"/>
      <g id="Group_185" data-name="Group 185" transform="translate(457.443 695.963)" opacity="0.6">
        <path id="Path_2251" data-name="Path 2251" d="M1407.641,1785.414c-111.677,81.575-216.195,25.932-246.021,6.671v-.287a16.278,16.278,0,0,1,.158-2.095c173,68.521,232.435-22.423,232.435-22.423a47.092,47.092,0,0,1,10.577,11.774A27.114,27.114,0,0,1,1407.641,1785.414Z" transform="translate(-1161.62 -1767.28)" fill="#fff"/>
      </g>
      <path id="Path_2252" data-name="Path 2252" d="M1271.349,1802.125c-74.873,0-131.339-25.7-131.339-59.771a31.216,31.216,0,0,1,.551-5.273c5.7-31.622,60.79-54.5,131.009-54.5,47.39,0,90.967,11.141,113.764,29.074l.157.126c11.42,9.451,17.2,19.753,17.2,30.574C1402.689,1776.43,1346.226,1802.125,1271.349,1802.125Zm.221-103.813c-66.729,0-111.913,21.521-115.509,41.463a17.949,17.949,0,0,0-.319,2.579c0,20.832,47.48,44.042,115.607,44.042s115.607-23.21,115.607-44.042c0-5.907-3.843-12.086-11.42-18.4-19.879-15.575-60.661-25.64-103.967-25.64Z" transform="translate(-691.077 -1019.972)" fill="#371a45"/>
      <path id="Path_2253" data-name="Path 2253" d="M1258.978,1774.212c-47.157,0-90.495-11.05-113.1-28.846a6.8,6.8,0,0,1-2.485-6.545c5.592-31.012,60.251-53.521,129.953-53.521,47.149.217,90.463,11.263,113.067,28.814a6.805,6.805,0,0,1,2.52,6.576C1383.327,1751.7,1328.68,1774.212,1258.978,1774.212Zm-101.013-36.844c21.241,14.417,59.286,23.234,101.013,23.234,63.008,0,107.011-19.272,115.383-38.446-21.265-14.24-59.33-23.084-101.037-23.277C1210.3,1698.894,1166.282,1718.186,1157.965,1737.368Z" transform="translate(-693.063 -1021.621)" fill="#371a45"/>
      <path id="Path_2254" data-name="Path 2254" d="M1073.128,1631.781c-21.427,9.057-28.275-8.171-44.621-1.323s-14.133,36.005-44.617,41.085c-30.48,4.639-55-17.674-71.565-17.674s-24.518,29.141-55.663,29.141-38.435-26.506-54.344-28.712c-15.905-1.969-26.948,27.172-56.99,16.343-29.6-10.822-30.48-30.039-45.5-37.328s-31.366,20.985-56.1-7.289c-8.746-9.983-8.372-23.656-4.2-37.2.7-2.339,1.548-4.7,2.473-7.021,8.794-22.088,25.357-41.924,25.357-41.924l375.289,6.183c24.416,14.358,37.375,31.342,42.255,46.5a46.908,46.908,0,0,1,2.3,12.68C1087.7,1617.978,1082.072,1628,1073.128,1631.781Z" transform="translate(-385.951 -933.467)" fill="#86c21f"/>
      <g id="Group_186" data-name="Group 186" transform="translate(253.582 606.429)" opacity="0.6">
        <path id="Path_2255" data-name="Path 2255" d="M1089.306,1592.6c-202.325,92.873-378.282,33.024-445.365-3.733.7-2.339,1.548-4.7,2.473-7.021,8.794-22.088,25.357-41.924,25.357-41.924l375.289,6.183C1071.458,1560.46,1084.426,1577.445,1089.306,1592.6Z" transform="translate(-643.94 -1539.92)" fill="#fff"/>
      </g>
      <g id="Group_187" data-name="Group 187" transform="translate(250.707 656.417)" opacity="0.35">
        <path id="Path_2256" data-name="Path 2256" d="M1086.522,1690.771a35.053,35.053,0,0,1-10.7,5.643c-9.01,2.851-18.753,1.575-28.2,1.9a81.2,81.2,0,0,0-41.455,13.141c-7.8,5.08-14.8,11.574-23.392,15.153-28.668,11.928-62.708-12.259-91.688-1.15-10.8,4.151-19.966,12.968-31.5,13.893-10.491.839-20.119-5.119-29.818-9.187a88.21,88.21,0,0,0-50.382-5.214c-11.026,2.123-22.447,6.383-33.2,3.115-12.46-3.757-20.214-16.48-32.075-21.8-13.783-6.187-30.193-1.217-44.771-5.257a36.807,36.807,0,0,1-20.942-16.1c-2.339-3.714-3.6-13.188-6.427-18.048a73.115,73.115,0,0,0-5.119,19.816,46.913,46.913,0,0,1,.823-13.728c-2.193,11.093-1.2,21.832,6.009,30.066,24.738,28.275,41.085,0,56.1,7.289s15.9,26.506,45.5,37.328c30.039,10.826,41.085-18.331,56.99-16.343,15.9,2.205,23.191,28.712,54.344,28.712s39.1-29.141,55.663-29.141,41.113,22.3,71.589,17.658c30.484-5.08,28.275-34.237,44.617-41.085s23.195,10.38,44.621,1.323c7.876-3.328,13.165-11.511,13.98-22.108A35.135,35.135,0,0,1,1086.522,1690.771Z" transform="translate(-636.639 -1666.86)" fill="#371a45"/>
      </g>
      <path id="Path_2257" data-name="Path 2257" d="M846.29,1679.342c-21.478,0-33.39-11.337-42.093-19.619-4.84-4.6-9.022-8.581-13.18-9.16-3.473-.449-7.876,2.757-12.952,6.486-10.018,7.313-23.742,17.327-45.4,9.522-19.647-7.183-27.96-17.847-34.611-26.412-3.9-5.017-6.982-8.979-11.554-11.2-2.788-1.347-6.446-.083-12.208,2.091-10.892,4.119-27.361,10.345-46.074-11.026-28.239-32.291,21.407-92.432,23.537-94.98a6.667,6.667,0,0,1,5.328-2.438l375.289,6.187a6.8,6.8,0,0,1,3.332.937c31.6,18.575,49.492,44.535,47.85,69.446-.874,13.33-7.667,23.939-18.166,28.377-13.909,5.879-23.116,2.516-30.515-.193-5.907-2.158-9.2-3.182-14.122-1.126-4.418,1.851-7.21,6.828-10.751,13.129-5.883,10.475-13.94,24.809-35.379,28.393-20.686,3.15-38.4-4.662-52.623-10.94-7.742-3.414-15.055-6.639-20.06-6.639-4.064,0-7.99,3.544-14.062,9.313C879.077,1667.871,867.031,1679.342,846.29,1679.342Zm-55.947-42.412a19.418,19.418,0,0,1,2.453.157c8.581,1.181,14.775,7.088,20.769,12.787,8.2,7.8,16.681,15.874,32.725,15.874,15.291,0,23.9-8.187,32.228-16.1,6.75-6.419,13.732-13.054,23.431-13.054,7.876,0,16.063,3.611,25.546,7.793,13.275,5.856,28.322,12.5,45,9.955,14.913-2.489,20.135-11.786,25.664-21.627,4.237-7.545,8.62-15.358,17.351-19.009,10.069-4.218,17.823-1.378,24.049.9,6.458,2.363,11.562,4.233,20.548.437,5.663-2.394,9.361-8.663,9.9-16.748.984-14.964-8.963-37.359-39.655-55.919l-370.17-6.1c-13.176,16.7-37.958,56.254-21.718,74.822,12.483,14.267,20.666,11.168,31.016,7.254,6.915-2.615,14.752-5.58,22.943-1.6,7.419,3.6,11.96,9.451,16.35,15.078,6.179,7.939,12.566,16.146,28.519,21.982,14.838,5.344,23.541-1,32.752-7.722C776.217,1641.569,782.573,1636.93,790.343,1636.93Z" transform="translate(-375.572 -922.995)" fill="#371a45"/>
      <path id="Path_2258" data-name="Path 2258" d="M652.37,1383.621c0-51.465,98.733-92.771,221.106-92.771,121.924,0,221.1,41.305,221.1,92.771s-98.733,92.767-221.1,92.767S652.37,1435.086,652.37,1383.621Z" transform="translate(-395.468 -782.505)" fill="#c4522d"/>
      <path id="Path_2259" data-name="Path 2259" d="M863.013,1472.726c-127.8,0-227.9-43.735-227.9-99.568s100.107-99.568,227.9-99.568,227.9,43.735,227.9,99.568S990.8,1472.726,863.013,1472.726Zm0-185.542c-58.337,0-112.961,9.451-153.813,26.558-38.446,16.114-60.5,37.773-60.5,59.416s22.053,43.318,60.5,59.416c40.853,17.126,95.48,26.558,153.813,26.558s112.957-9.451,153.81-26.558c38.446-16.114,60.5-37.773,60.5-59.416C1077.3,1326.556,979.179,1287.184,863.013,1287.184Z" transform="translate(-385.005 -772.042)" fill="#371a45"/>
      <path id="Path_2260" data-name="Path 2260" d="M1121.135,1450.17s-40.356,53.557-99.355,86.588c-26.329,14.756-56.344,25.4-88.175,25.4-33.079,0-62.531-11.243-87.25-26.507-52.324-32.291-83.485-82.611-83.485-82.611Z" transform="translate(-462.454 -879.085)" fill="#ffc929"/>
      <g id="Group_188" data-name="Group 188" transform="translate(300.416 566.025)" opacity="0.35">
        <path id="Path_2261" data-name="Path 2261" d="M1121.135,1437.32s-40.356,53.557-99.355,86.584a777.431,777.431,0,0,1-175.425-1.1c-52.324-32.291-83.485-82.611-83.485-82.611Z" transform="translate(-762.87 -1437.32)" fill="#371a45"/>
      </g>
      <path id="Path_2262" data-name="Path 2262" d="M914.9,1558.3c-105.723,0-173.665-107.747-176.52-112.335L732,1435.686l384.134-3.076-8.27,10.995C1104.328,1448.291,1020.228,1558.3,914.9,1558.3Zm-157.822-109.22c19.631,26.6,78.24,95.626,157.822,95.626s148.856-70.541,173-98.28Z" transform="translate(-443.74 -868.44)" fill="#371a45"/>
      <path id="Path_2263" data-name="Path 2263" d="M615.317,1215.588c-1.768-54.781,105.581-99.178,236.125-99.178,130.1,0,236.121,44.176,236.121,99.178-.441,73.113-105.581,99.174-236.121,99.174C720.677,1314.762,617.306,1289.583,615.317,1215.588Z" transform="translate(-372.993 -676.759)" fill="#ffa539"/>
      <g id="Group_189" data-name="Group 189" transform="translate(239.883 508.976)" opacity="0.35">
        <path id="Path_2264" data-name="Path 2264" d="M1081.421,1317.476c-.441,73.113-105.581,99.178-236.121,99.178-130.764,0-234.136-25.183-236.125-99.178a44.107,44.107,0,0,1,5.832-22.994c25.932,51.111,117.419,69.379,228.769,69.379,112.429,0,206.015-19.328,230.092-71.411C1078.794,1300.424,1081.421,1308.812,1081.421,1317.476Z" transform="translate(-609.152 -1292.45)" fill="#371a45"/>
      </g>
      <g id="Group_190" data-name="Group 190" transform="translate(246.102 436.816)" opacity="0.6">
        <path id="Path_2265" data-name="Path 2265" d="M625.884,1218.355c10.8-50.012,112.807-89.046,235.2-89.046,122.995,0,224.465,39.486,235.172,90.27a71.275,71.275,0,0,0,.953-11.2c0-55-106.026-99.174-236.125-99.174-130.54,0-237.889,44.416-236.117,99.174A75.573,75.573,0,0,0,625.884,1218.355Z" transform="translate(-624.945 -1109.21)" fill="#fff"/>
      </g>
      <path id="Path_2266" data-name="Path 2266" d="M841,1311.1c-71.62,0-128.378-7.482-168.691-22.253-48.248-17.662-73.219-45.763-74.243-83.513-.477-14.909,5.824-29.224,18.733-42.554,37.411-38.651,125.421-63.626,224.185-63.626,136.215,0,242.918,46.551,242.918,105.975-.224,37.474-25.03,65.512-73.727,83.383C969.33,1303.5,912.406,1311.1,841,1311.1Zm0-198.352c-93.8,0-179.966,23.907-214.419,59.487-10.239,10.589-15.271,21.58-14.913,32.685v.035c2.056,76.5,125.842,92.542,229.328,92.542,85.454,0,228.84-12.007,229.324-92.42-.012-50.024-105.03-92.33-229.32-92.33Z" transform="translate(-362.531 -666.295)" fill="#371a45"/>
      <g id="Group_191" data-name="Group 191" transform="translate(461.047 473.868)" opacity="0.35">
        <ellipse id="Ellipse_65" data-name="Ellipse 65" cx="13.18" cy="5.013" rx="13.18" ry="5.013" fill="#371a45"/>
      </g>
      <g id="Group_192" data-name="Group 192" transform="translate(405.08 487.793)" opacity="0.35">
        <ellipse id="Ellipse_66" data-name="Ellipse 66" cx="13.18" cy="5.013" rx="13.18" ry="5.013" fill="#371a45"/>
      </g>
      <g id="Group_193" data-name="Group 193" transform="translate(462.318 499.997)" opacity="0.35">
        <ellipse id="Ellipse_67" data-name="Ellipse 67" cx="13.18" cy="5.013" rx="13.18" ry="5.013" fill="#371a45"/>
      </g>
      <g id="Group_194" data-name="Group 194" transform="translate(508.448 518.214)" opacity="0.35">
        <ellipse id="Ellipse_68" data-name="Ellipse 68" cx="13.18" cy="5.013" rx="13.18" ry="5.013" fill="#371a45"/>
      </g>
      <g id="Group_195" data-name="Group 195" transform="translate(405.08 522.25)" opacity="0.35">
        <ellipse id="Ellipse_69" data-name="Ellipse 69" cx="13.18" cy="5.013" rx="13.18" ry="5.013" fill="#371a45"/>
      </g>
      <g id="Group_196" data-name="Group 196" transform="translate(528.555 487.793)" opacity="0.35">
        <ellipse id="Ellipse_70" data-name="Ellipse 70" cx="13.18" cy="5.013" rx="13.18" ry="5.013" fill="#371a45"/>
      </g>
      <g id="Group_197" data-name="Group 197" transform="translate(259.31 662.698)" opacity="0.35">
        <path id="Path_2267" data-name="Path 2267" d="M729.6,1778.83c-29.043,9.691-43.779,17.067-57.042,24.364a64.425,64.425,0,0,1-14.059-38.62c-1.059-35.489,46.291-66.158,115.918-81.764C784.164,1719.807,769.806,1765.417,729.6,1778.83Z" transform="translate(-658.486 -1682.81)" fill="#371a45"/>
      </g>
      <g id="Group_198" data-name="Group 198" transform="translate(576.004 661.45)" opacity="0.35">
        <path id="Path_2268" data-name="Path 2268" d="M1588.218,1762.652a61.647,61.647,0,0,1-15.728,41.4c-14.752-8.234-29.3-16.224-62.035-27.141-40.652-13.559-54.872-60.066-44.5-97.268C1538.422,1694.8,1588.218,1726.171,1588.218,1762.652Z" transform="translate(-1462.691 -1679.64)" fill="#371a45"/>
      </g>
      <path id="Path_2269" data-name="Path 2269" d="M455.446,1493.078c-15.535,26.357-26.018,53.434-28.633,80.358-7.557,101.072,72.825,103.336,106.747,77.85,23.518-17.67,31.11-28.917,74.337-53.041,55.317-30.87,40.5-121.75-13.3-139.684-26.975-8.474-58.9,3.442-99.9,52.682-8.3,9.963-22.19,28.4-27.416,7.789" transform="translate(-258.433 -882.652)" fill="#fff"/>
      <path id="Path_2270" data-name="Path 2270" d="M479.97,1661.351a70.644,70.644,0,0,1-34.048-8.392c-18.9-10.341-40.561-34.426-36.371-90.44,2.564-26.384,12.5-54.372,29.558-83.308a6.8,6.8,0,0,1,11.711,6.9c-16.039,27.215-25.368,53.312-27.727,77.578-2.871,38.474,7.273,65.272,29.354,77.35,22.214,12.153,50.871,6.191,66.552-5.592,6.667-5.009,12.121-9.569,17.394-13.98,13.6-11.369,26.44-22.112,57.715-39.561,22.163-12.369,33.784-36.887,31.086-65.591-2.757-29.208-20.115-54.005-43.227-61.708-26.841-8.435-57.152,8.093-92.542,50.583L488,1506.911c-7.285,8.833-16.362,19.82-26.357,17.587-5.513-1.24-9.376-6.013-11.448-14.177a6.8,6.8,0,1,1,13.173-3.343,15.31,15.31,0,0,0,1.5,4.028c3.355-1.461,10.026-9.554,12.649-12.731l1.461-1.764c39.3-47.2,74.349-65.126,107.164-54.817,28.692,9.561,49.288,38.344,52.576,73.368,3.217,34.229-10.991,63.661-38,78.732-30.157,16.831-42.53,27.172-55.62,38.124-5.407,4.521-10.995,9.2-17.945,14.417C515.254,1655.255,497.915,1661.351,479.97,1661.351Z" transform="translate(-247.952 -872.239)" fill="#371a45"/>
      <path id="Path_2271" data-name="Path 2271" d="M1648.844,1493.078c15.535,26.357,26.018,53.434,28.633,80.358,7.557,101.072-72.825,103.336-106.747,77.85-23.518-17.67-31.11-28.917-74.337-53.041-55.317-30.87-40.5-121.75,13.3-139.684,26.975-8.474,58.9,3.442,99.9,52.682,8.3,9.963,22.19,28.4,27.416,7.789" transform="translate(-885.936 -882.652)" fill="#fff"/>
      <g id="Group_199" data-name="Group 199" transform="translate(577.76 671.331)" opacity="0.35">
        <path id="Path_2272" data-name="Path 2272" d="M1574.2,1802.026c-23.518-17.662-31.11-28.909-74.341-53.041-17.894-9.971-28.444-26.227-32.713-44.255a45.29,45.29,0,0,0,24.215,20.277c29.043,10.4,59.523,21.4,82.839,32.382,50.56,23.781,97.725,23.915,106.113-38.592.248,1.784.445,3.587.626,5.391C1688.48,1825.264,1608.106,1827.512,1574.2,1802.026Z" transform="translate(-1467.15 -1704.73)" fill="#371a45"/>
      </g>
      <g id="Group_200" data-name="Group 200" transform="translate(167.882 671.331)" opacity="0.35">
        <path id="Path_2273" data-name="Path 2273" d="M533.552,1802.026c23.518-17.662,31.11-28.909,74.341-53.041,17.894-9.971,28.444-26.227,32.713-44.255a45.291,45.291,0,0,1-24.215,20.277c-29.039,10.4-59.523,21.4-82.839,32.382-50.56,23.781-97.725,23.915-106.113-38.592-.248,1.784-.445,3.587-.626,5.391C419.256,1825.264,499.63,1827.512,533.552,1802.026Z" transform="translate(-426.315 -1704.73)" fill="#371a45"/>
      </g>
      <path id="Path_2274" data-name="Path 2274" d="M1603.346,1661.338c-17.949,0-35.28-6.1-47.193-15.043-6.95-5.222-12.542-9.9-17.949-14.421-13.094-10.948-25.459-21.289-55.616-38.12-27.007-15.071-41.211-44.5-38-78.732,3.288-35.024,23.884-63.8,52.462-73.333,32.933-10.345,67.981,7.584,107.278,54.781l1.461,1.764c2.623,3.178,9.294,11.271,12.649,12.731a15.464,15.464,0,0,0,1.5-4.029,6.8,6.8,0,1,1,13.173,3.343c-2.071,8.179-5.907,12.952-11.448,14.177-10.034,2.245-19.072-8.754-26.357-17.587l-1.422-1.717c-35.375-42.483-65.67-59.026-92.641-50.548-23,7.667-40.376,32.465-43.117,61.673-2.7,28.7,8.927,53.222,31.09,65.591,31.271,17.449,44.105,28.192,57.711,39.561,5.273,4.411,10.727,8.971,17.39,13.98,15.681,11.778,44.338,17.745,66.552,5.592,22.076-12.078,32.22-38.876,29.334-77.5-2.363-24.1-11.672-50.2-27.712-77.417a6.8,6.8,0,1,1,11.715-6.9c17.052,28.936,26.991,56.912,29.535,83.15,4.2,56.167-17.453,80.252-36.352,90.573A70.262,70.262,0,0,1,1603.346,1661.338Z" transform="translate(-875.442 -872.227)" fill="#371a45"/>
      <path id="Path_2275" data-name="Path 2275" d="M1875.357,1772.169a5.1,5.1,0,0,1-3.631-8.664c43.263-43.944,1.493-128.445,1.067-129.3a5.1,5.1,0,1,1,9.1-4.588c1.878,3.729,45.492,91.877-2.906,141.039A5.092,5.092,0,0,1,1875.357,1772.169Z" transform="translate(-1133.761 -986.169)" fill="#371a45"/>
      <path id="Path_2276" data-name="Path 2276" d="M511.4,1772.151a5.083,5.083,0,0,1-3.631-1.52c-48.4-49.162-4.789-137.309-2.91-141.039a5.1,5.1,0,1,1,9.1,4.588c-.425.851-42.191,85.352,1.067,129.3a5.1,5.1,0,0,1-3.631,8.664Z" transform="translate(-294.024 -986.151)" fill="#371a45"/>
      <path id="Path_2277" data-name="Path 2277" d="M445.749,2085.738c-30.035-109.168-97.528-105.652-122.723-91.794-14.7,8.085-31.768,20.084-43.542,48.937-19.765-71.644-115.851-63.768-119.411,33.7-2.1,57.365,18.508,98.477,33.473,116.69,14.787,18,25.813,24,41.565,25.991,14.571,1.851,45.444-.6,59.259-6.518,23.01-9.845,50.863-35.784,109.5-38.415,0,0,79.634.937,168.545.354,88.9.583,168.545-.354,168.545-.354,58.636,2.631,86.49,28.554,109.5,38.415,13.814,5.907,44.68,8.368,59.259,6.518,15.752-2,26.778-8.006,41.565-25.991,14.964-18.213,35.572-59.326,33.473-116.69-3.544-97.469-99.631-105.353-119.415-33.7-11.775-28.838-28.842-40.853-43.542-48.937-25.2-13.858-92.688-17.374-122.719,91.794h0a12.243,12.243,0,0,1-12.243,12.243h-228.4a12.672,12.672,0,0,1-12.665-12.243Z" transform="translate(-96.947 -1204.501)" fill="#fff"/>
      <g id="Group_201" data-name="Group 201" transform="translate(168.534 811.129)" opacity="0.35">
        <path id="Path_2278" data-name="Path 2278" d="M429.856,2063.881c-.961-2.016-1.575-3.454-1.886-4.151C428.3,2060.427,428.947,2061.849,429.856,2063.881Z" transform="translate(-427.97 -2059.73)" fill="#371a45"/>
      </g>
      <g id="Group_202" data-name="Group 202" transform="translate(779.775 811.129)" opacity="0.35">
        <path id="Path_2279" data-name="Path 2279" d="M1980.14,2063.881c.91-2.032,1.556-3.454,1.886-4.151C1981.727,2060.427,1981.1,2061.864,1980.14,2063.881Z" transform="translate(-1980.14 -2059.73)" fill="#371a45"/>
      </g>
      <g id="Group_203" data-name="Group 203" transform="translate(62.985 823.017)" opacity="0.35">
        <path id="Path_2280" data-name="Path 2280" d="M951.27,2255.669c-14.783,18-25.813,24-41.561,25.991-14.571,1.855-45.444-.595-59.255-6.514-23.021-9.845-50.871-35.788-109.5-38.419,0,0-79.65.941-168.545.362-88.892.579-168.526-.362-168.526-.362-58.644,2.631-86.5,28.562-109.5,38.419-13.81,5.907-44.688,8.368-59.259,6.514-15.752-2-26.778-8-41.561-25.991-14.964-18.205-35.572-59.322-33.473-116.694a135.936,135.936,0,0,1,1.292-14.519c4.726,40.27,20.241,69.379,32.181,83.9,14.787,17.993,25.8,24,41.561,25.991l.445.051c45.251,5.907,74.987-29.141,57.62-71.364-12.865-31.208-17.563-54.659-13.692-57.754,7.21-5.8,40.254,82.249,92.483,80.031,68.915-2.926,66.052-60.862,66.052-60.862a98.162,98.162,0,0,1,8.006,12.6,100.5,100.5,0,0,0,88.4,52.875c12.318,0,25.038-.083,37.97-.166,14.661.095,29.066.15,42.924.177,34.1.063,65.611-18.878,80.9-49.363a105.78,105.78,0,0,1,9.845-16.146s-2.859,57.936,66.056,60.862c52.229,2.217,62.086-70.49,99.154-95.37-8.014,5.379-9.7,36.887-19.556,69.789-10.916,36.454,15.512,73.849,53.556,74.778a30.238,30.238,0,0,0,4.43-.161c15.752-2,26.778-8.006,41.561-25.99,11.944-14.52,27.456-43.629,32.185-83.9a136.97,136.97,0,0,1,1.292,14.519C986.846,2196.348,966.239,2237.464,951.27,2255.669Z" transform="translate(-159.943 -2089.92)" fill="#371a45"/>
      </g>
      <path id="Path_2281" data-name="Path 2281" d="M463.291,2175.55l-6.828-26.948c-1.122-4.418-2.4-8.766-3.454-13.121a125.19,125.19,0,0,1-2.757-13.145l-.028-.213a6.092,6.092,0,0,1,11.633-3.225,61.827,61.827,0,0,1,4,13.854,97.318,97.318,0,0,1,1.41,14.287,131.334,131.334,0,0,1-.221,14.307,94.312,94.312,0,0,1-2.016,14.2.886.886,0,0,1-1.721.02Z" transform="translate(-272.894 -1282.236)" fill="#371a45"/>
      <path id="Path_2282" data-name="Path 2282" d="M405.636,2573.032a6.872,6.872,0,1,1,1.835-.256,6.789,6.789,0,0,1-1.835.256Z" transform="translate(-241.718 -1551.434)" fill="#371a45"/>
      <path id="Path_2283" data-name="Path 2283" d="M1923.246,2175.546a94.807,94.807,0,0,1-2.016-14.2,133.315,133.315,0,0,1-.221-14.307,97.845,97.845,0,0,1,1.41-14.287,62.026,62.026,0,0,1,4.009-13.858,6.092,6.092,0,0,1,11.633,3.221l-.031.217c-.6,4.478-1.752,8.766-2.757,13.145s-2.335,8.7-3.454,13.121l-6.832,26.951h0a.886.886,0,0,1-1.725,0Z" transform="translate(-1164.461 -1282.232)" fill="#371a45"/>
      <path id="Path_2284" data-name="Path 2284" d="M686.473,2073.968c3.753-20.167,10.18-40.211,21.088-58.42,1.367-2.268,2.875-4.462,4.332-6.695,1.575-2.162,3.119-4.332,4.773-6.45a109.6,109.6,0,0,1,11.085-11.814c1.969-1.894,4.127-3.568,6.253-5.285,1.079-.847,2.237-1.575,3.355-2.39a38.3,38.3,0,0,1,3.454-2.264,79.786,79.786,0,0,1,14.905-7.317,76.5,76.5,0,0,1,33-4.513,72.761,72.761,0,0,1,16.539,3.395,59.8,59.8,0,0,1,8,3.332c1.374.681,2.524,1.335,3.662,1.969s2.308,1.359,3.461,2.032a93.118,93.118,0,0,1,24.837,21.356,112.678,112.678,0,0,1,16.181,28.145l-13.22.788a86.542,86.542,0,0,1,9.8-22.183,67.473,67.473,0,0,1,16.681-18.162,61.393,61.393,0,0,1,22.6-10.526,59.162,59.162,0,0,1,24.979-.457,62.7,62.7,0,0,1,22.891,9.668,71.875,71.875,0,0,1,17.567,17.118,87.9,87.9,0,0,1,11.208,21.313c.634,1.882,1.445,3.725,1.933,5.643l1.595,5.726c.5,1.91.819,3.851,1.237,5.777a58.829,58.829,0,0,1,1,5.8l.788,5.82c.193,1.945.284,3.887.429,5.832.35,3.91.291,7.711.358,11.55a227.274,227.274,0,0,1-1.083,22.97,206.466,206.466,0,0,1-9.758,45.011c-5.119,14.571-11.692,28.665-21.025,41.467-1.2,1.575-2.438,3.19-3.674,4.7s-2.481,2.973-3.812,4.422a97.3,97.3,0,0,1-8.412,8.455,66.236,66.236,0,0,1-9.971,7.384,53.855,53.855,0,0,1-11.609,5.175,68.537,68.537,0,0,1-12.105,2.524,101.161,101.161,0,0,1-11.936.61,197.159,197.159,0,0,1-23.065-1.406c-3.828-.484-7.648-1.008-11.495-1.772a92.7,92.7,0,0,1-11.648-2.91,48.813,48.813,0,0,1-5.848-2.3c-1.827-.835-3.639-1.677-5.332-2.591-1.752-.89-3.442-1.8-5.088-2.725l-4.934-2.757c-6.494-3.7-12.818-7.3-19.261-10.558a188.036,188.036,0,0,0-19.69-8.573,168.44,168.44,0,0,0-41.719-9.25c-3.544-.2-6.962-.595-10.633-.669l-11.144.024-22.285.047-44.566.095-89.14.189-89.144-.189-44.57-.094-22.285-.047-11.117-.031c-3.654.075-7.088.465-10.633.669a168.421,168.421,0,0,0-41.715,9.25,188.135,188.135,0,0,0-19.717,8.589c-6.443,3.261-12.763,6.86-19.261,10.558l-4.93,2.757q-2.469,1.39-5.088,2.725c-1.7.914-3.5,1.756-5.332,2.591a49.092,49.092,0,0,1-5.848,2.3,92.763,92.763,0,0,1-11.652,2.91c-3.844.764-7.663,1.288-11.491,1.772a197.159,197.159,0,0,1-23.065,1.406,101.163,101.163,0,0,1-11.936-.61,68.628,68.628,0,0,1-12.109-2.524,53.847,53.847,0,0,1-11.605-5.175,66.233,66.233,0,0,1-9.971-7.384,97.922,97.922,0,0,1-8.415-8.455c-1.327-1.449-2.556-2.942-3.812-4.422s-2.473-3.127-3.674-4.7c-9.333-12.8-15.9-26.916-21.025-41.467a206.225,206.225,0,0,1-9.754-45.011,227.3,227.3,0,0,1-1.087-22.97c.067-3.839,0-7.64.362-11.55.142-1.945.232-3.887.425-5.832l.788-5.82a58.829,58.829,0,0,1,1-5.8c.413-1.926.732-3.867,1.237-5.777l1.595-5.726c.484-1.918,1.3-3.761,1.934-5.643A87.907,87.907,0,0,1,161.32,2005.3a71.79,71.79,0,0,1,17.563-17.118,62.718,62.718,0,0,1,22.9-9.668,59.169,59.169,0,0,1,24.959.453A60.838,60.838,0,0,1,249.3,1989.53a67.416,67.416,0,0,1,16.63,18.186,85.808,85.808,0,0,1,9.7,22.179l-12.846-.764a110.5,110.5,0,0,1,16.3-27.96,95.6,95.6,0,0,1,24.79-21.186c1.15-.669,2.292-1.4,3.446-2.036s2.276-1.307,3.631-1.969a59.857,59.857,0,0,1,7.935-3.335,73.129,73.129,0,0,1,16.453-3.442,76.839,76.839,0,0,1,33.016,4.021,80.168,80.168,0,0,1,15.043,7.144c1.213.677,2.363,1.441,3.5,2.229s2.3,1.524,3.4,2.363c2.166,1.693,4.359,3.367,6.34,5.245a108.552,108.552,0,0,1,20.438,24.963c11.026,18.256,17.4,38.474,20.454,58.833a2.284,2.284,0,0,1-4.332,1.248v-.047c-4.048-9.333-7.967-18.556-12.381-27.452a203.415,203.415,0,0,0-14.795-25.376c-1.374-1.969-2.894-3.859-4.281-5.824-1.5-1.863-3-3.729-4.552-5.537a107.153,107.153,0,0,0-10.046-9.971,74.5,74.5,0,0,0-23.628-14.177,63.222,63.222,0,0,0-26.924-3.792,59.173,59.173,0,0,0-13.322,2.631,46.1,46.1,0,0,0-6.124,2.493c-.925.441-1.993,1.031-3.068,1.638s-2.087,1.181-3.127,1.811a81.036,81.036,0,0,0-21.32,18.174,97.233,97.233,0,0,0-14.228,24.5l-7.451,18.032-5.4-18.792a72.063,72.063,0,0,0-8.1-18.536,53.815,53.815,0,0,0-13.255-14.571,46.424,46.424,0,0,0-36.777-8.569c-12.755,2.568-24.215,10.573-32.094,21.446a74.366,74.366,0,0,0-9.451,18.044c-.543,1.638-1.26,3.206-1.678,4.9l-1.418,4.99c-.445,1.682-.717,3.418-1.091,5.119a49.369,49.369,0,0,0-.894,5.178l-.7,5.23c-.173,1.752-.248,3.544-.394,5.289-.327,3.5-.268,7.135-.335,10.731a213.936,213.936,0,0,0,1.008,21.545,192.9,192.9,0,0,0,9.1,41.987c4.726,13.46,10.892,26.573,19.119,37.828,1.059,1.375,2.079,2.717,3.194,4.08s2.28,2.737,3.465,4.025a84.659,84.659,0,0,0,7.3,7.348,44.6,44.6,0,0,0,16.618,9.762,54.97,54.97,0,0,0,9.7,2,88.176,88.176,0,0,0,10.321.512,184.7,184.7,0,0,0,21.427-1.311,114.457,114.457,0,0,0,20.513-4.1,63.245,63.245,0,0,0,9.2-4.084q2.363-1.181,4.726-2.54l4.793-2.69c6.423-3.654,13.023-7.419,19.847-10.869a200.925,200.925,0,0,1,21.171-9.211A182.04,182.04,0,0,1,383,2157.083c3.871-.236,7.876-.646,11.637-.725l11.156.024,22.316.047,44.629.094,89.254.185,89.258-.185,44.629-.094,22.313-.047,11.156-.024c3.777.079,7.766.488,11.637.725A182,182,0,0,1,786.1,2167.1a200.557,200.557,0,0,1,21.171,9.211c6.828,3.449,13.424,7.214,19.847,10.869l4.793,2.69q2.386,1.347,4.726,2.54a63.266,63.266,0,0,0,9.207,4.068,114.409,114.409,0,0,0,20.513,4.1,184.7,184.7,0,0,0,21.427,1.312,88.214,88.214,0,0,0,10.317-.512,54.925,54.925,0,0,0,9.7-2,44.351,44.351,0,0,0,16.622-9.762,84.609,84.609,0,0,0,7.3-7.348c1.181-1.288,2.319-2.666,3.469-4.024s2.134-2.705,3.19-4.08c8.226-11.255,14.393-24.368,19.119-37.828a192.679,192.679,0,0,0,9.116-41.971,212.767,212.767,0,0,0,1.016-21.552c-.067-3.6,0-7.234-.331-10.731-.134-1.764-.213-3.544-.394-5.289l-.7-5.229a48.38,48.38,0,0,0-.894-5.178c-.37-1.705-.642-3.442-1.091-5.119l-1.4-5.017c-.417-1.689-1.134-3.257-1.682-4.895a74.8,74.8,0,0,0-9.451-18.044c-7.876-10.873-19.3-18.934-32.1-21.446a46.276,46.276,0,0,0-36.745,8.6c-10.514,7.876-17.567,19.973-21.19,33.107l-5.367,19.453-7.852-18.67a97.159,97.159,0,0,0-14.338-24.333A82.549,82.549,0,0,0,812.835,1992c-1.04-.6-2.04-1.233-3.111-1.815s-2.13-1.181-3.036-1.634a45.65,45.65,0,0,0-6.053-2.5,59.378,59.378,0,0,0-13.224-2.674,63.538,63.538,0,0,0-26.94,3.3,74.222,74.222,0,0,0-23.939,13.909,95.663,95.663,0,0,0-10.176,9.971c-1.575,1.807-3.111,3.658-4.647,5.513-1.433,1.969-2.938,3.847-4.332,5.844a183.305,183.305,0,0,0-14.787,25.534c-4.3,8.975-8.077,18.272-11.751,27.711v.035a2.272,2.272,0,0,1-4.332-1.237Z" transform="translate(-86.546 -1193.33)" fill="#371a45"/>
      <path id="Path_2285" data-name="Path 2285" d="M2042.728,2217.8c-14.783,18-25.813,24-41.561,25.99-6.482.827-16.146.788-26.144,0a.063.063,0,0,1-.036,0c-24.758-6.58-11.924-41.975-5.076-82.146,6.3-36.9-4.2-65.095,16.8-103.415,25.487-46.5,58.676-26.841,60.68-25.617a.262.262,0,0,1,.1.067c15.776,12.881,27.5,35.556,28.712,68.434C2078.3,2158.479,2057.7,2199.6,2042.728,2217.8Z" transform="translate(-1188.415 -1229.034)" fill="#afafb2"/>
      <path id="Path_2286" data-name="Path 2286" d="M260.967,2243.653h0c-9.845.788-19.4.788-25.8,0-15.752-2-26.778-8-41.561-25.991-14.964-18.205-35.572-59.322-33.473-116.694,1.209-33.079,13.066-55.817,28.991-68.667a.065.065,0,0,0,.051-.031c1.386-.878,34.713-21.139,60.448,25.813,21,38.32,10.518,66.52,16.8,103.415C273.238,2201.627,285.69,2237.038,260.967,2243.653Z" transform="translate(-96.982 -1228.868)" fill="#afafb2"/>
      <g id="Group_204" data-name="Group 204" transform="translate(63.008 798.282)" opacity="0.7">
        <path id="Path_2287" data-name="Path 2287" d="M249.617,2058.014c12.85,23.455,13.909,43.117,14.255,63.311a111.38,111.38,0,0,0-13.562-44.192c-26.3-47.976-60.349-27.271-61.771-26.385a.065.065,0,0,0-.051.031c-14.007,11.333-24.943,30.125-28.487,56.75,0-2.182.051-4.4.134-6.632,1.209-33.079,13.066-55.817,28.991-68.667a.065.065,0,0,0,.051-.031C190.555,2031.323,223.882,2011.062,249.617,2058.014Z" transform="translate(-160 -2027.108)" fill="#fff"/>
      </g>
      <path id="Path_2288" data-name="Path 2288" d="M424.877,2295.466c-.977-10.121-.957-19.69-1.107-29.106C424.727,2276.118,424.711,2285.66,424.877,2295.466Z" transform="translate(-256.89 -1373.861)" fill="#afafb2"/>
      <g id="Group_205" data-name="Group 205" transform="translate(71.27 924.85)" opacity="0.35">
        <path id="Path_2289" data-name="Path 2289" d="M273.7,2438.446h0c-9.845.787-19.4.787-25.8,0-15.752-2-26.778-8-41.561-25.991-8.333-10.136-18.422-27.385-25.353-50.587,1.126,1.536,2.233,2.973,3.308,4.281,14.783,18,25.739,24.549,41.561,25.991,28.389,2.6,48.7-23.915,52.21-43.629q.425,3.82,1.095,7.774C285.966,2396.419,298.418,2431.83,273.7,2438.446Z" transform="translate(-180.98 -2348.51)" fill="#371a45"/>
      </g>
      <path id="Path_2290" data-name="Path 2290" d="M404.512,2505.257l-3.269-3.08a6.789,6.789,0,0,1-2.111-5.43v-5.8l6.128-.48.236-.02c13.232-1.047,24.888-3.288,31.189-5.994a184.35,184.35,0,0,0,17.532-9.25c20.454-11.672,48.469-27.656,94.35-29.716h.386c.788,0,80.591.933,168.4.362,87.9.571,167.711-.354,168.506-.362h.386c45.854,2.06,73.869,18.04,94.322,29.708a184.22,184.22,0,0,0,17.548,9.254c6.3,2.7,17.859,4.93,30.941,5.97a6.8,6.8,0,1,1-1.091,13.551c-6.951-.555-24.3-2.363-35.221-7.03A194.875,194.875,0,0,1,973.817,2487c-20.3-11.577-45.547-25.99-88.01-27.928-4.477.051-82.654.926-168.471.362-85.722.559-163.887-.311-168.364-.362-42.491,1.945-67.733,16.354-88.037,27.936a194.016,194.016,0,0,1-18.9,9.931c-10.4,4.466-26.751,6.3-34.414,6.966Z" transform="translate(-241.944 -1482.45)" fill="#371a45"/>
      <path id="Path_2291" data-name="Path 2291" d="M223.609,2036.3a6.8,6.8,0,0,1-3.82-12.428,6.959,6.959,0,0,1,3.9-1.217,6.8,6.8,0,0,1,3.359,12.7q-.2.118-.394.224A6.842,6.842,0,0,1,223.609,2036.3Z" transform="translate(-131.428 -1226.123)" fill="#371a45"/>
      <path id="Path_2292" data-name="Path 2292" d="M2173.868,2037.989a6.765,6.765,0,0,1-4.808-1.993l4.525-4.525,3.363-6.352a7.649,7.649,0,0,1,1.725,1.264,6.8,6.8,0,0,1-4.8,11.605Z" transform="translate(-1314.889 -1227.621)" fill="#371a45"/>
      <g id="Group_206" data-name="Group 206" transform="translate(783.279 798.281)" opacity="0.7">
        <path id="Path_2293" data-name="Path 2293" d="M2003.3,2058.012c-12.854,23.455-13.909,43.117-14.259,63.311a111.38,111.38,0,0,1,13.562-44.192c26.3-47.976,60.349-27.271,61.771-26.385a.06.06,0,0,1,.051.031c14.007,11.314,24.939,30.118,28.5,56.742,0-2.182-.051-4.4-.134-6.632-1.205-33.079-13.066-55.817-28.991-68.667a.056.056,0,0,1-.047-.031C2062.357,2031.321,2029.03,2011.06,2003.3,2058.012Z" transform="translate(-1989.04 -2027.105)" fill="#fff"/>
      </g>
      <g id="Group_207" data-name="Group 207" transform="translate(771.48 924.85)" opacity="0.35">
        <path id="Path_2294" data-name="Path 2294" d="M1973.771,2438.446h0c9.845.787,19.4.787,25.8,0,15.752-2,26.778-8,41.562-25.991,8.337-10.136,18.426-27.385,25.353-50.587-1.122,1.536-2.233,2.973-3.308,4.281-14.783,18-25.739,24.549-41.561,25.991-28.389,2.6-48.705-23.915-52.21-43.629q-.425,3.82-1.091,7.774C1961.5,2396.419,1949.048,2431.83,1973.771,2438.446Z" transform="translate(-1959.077 -2348.51)" fill="#371a45"/>
      </g>
      <path id="Path_2295" data-name="Path 2295" d="M2094.716,2137.95h-.288l-91.755-4.284a6.049,6.049,0,1,1,.567-12.085l91.755,4.281a6.048,6.048,0,1,1-.28,12.094Z" transform="translate(-1210.53 -1286.091)" fill="#371a45"/>
      <path id="Path_2296" data-name="Path 2296" d="M2086.04,2238.924h-.315l-103.447-5.261a6.051,6.051,0,0,1,.614-12.086l103.447,5.261a6.049,6.049,0,1,1-.3,12.094Z" transform="translate(-1198.18 -1346.709)" fill="#371a45"/>
      <path id="Path_2297" data-name="Path 2297" d="M2077.376,2350.048h-.315L1977.7,2345a6.051,6.051,0,0,1,.614-12.086l99.363,5.045a6.049,6.049,0,0,1-.3,12.094Z" transform="translate(-1195.403 -1414.203)" fill="#371a45"/>
      <path id="Path_2298" data-name="Path 2298" d="M2044.85,2469.691h-.3l-89-4.281a6.049,6.049,0,1,1,.284-12.094h.3l89,4.284a6.049,6.049,0,1,1-.287,12.094Z" transform="translate(-1181.882 -1487.193)" fill="#371a45"/>
      <path id="Path_2299" data-name="Path 2299" d="M1980.367,2241.148c-4.556,0-9.569-.2-14.74-.606h-2.363l-.689-.725c-23.829-7.719-17.957-36.856-11.751-67.666,1.359-6.746,2.757-13.724,3.977-20.84,2.1-12.334,2.264-23.911,2.418-35.107.3-21.557.6-43.854,15.047-70.2,9.782-17.851,21.911-28.8,36.044-32.536,15.878-4.2,29.086,2.363,32.437,4.277l.851.276.847.874c18.619,15.358,29.5,41.156,30.661,72.679,2.024,55.313-16.674,98.65-34.847,120.758-14.964,18.217-27.29,25.849-45.472,28.156A100.389,100.389,0,0,1,1980.367,2241.148Zm-13.389-12.641c9.475.725,18.509.717,24.286-.02,13.082-1.662,22.958-5.954,37.651-23.837h0c5.793-7.045,34.56-45.59,32.106-112.626-1.032-27.96-10.329-50.579-26.191-63.72-1.721-.992-11.629-6.242-23.423-3.127-10.8,2.855-20.4,11.814-28.527,26.652-13,23.707-13.267,43.546-13.558,64.551-.161,11.656-.327,23.711-2.583,36.97-1.245,7.3-2.67,14.366-4.044,21.2-6.4,31.689-9.372,49.946,4.269,53.958Z" transform="translate(-1179.261 -1219.724)" fill="#371a45"/>
      <path id="Path_2300" data-name="Path 2300" d="M598.278,2198.386a5.1,5.1,0,0,1-4.1-8.116c.193-.268,20.19-28.574,14.07-82.406-3.843-33.839-17.768-60.113-39.2-73.979-14.208-9.191-30.129-11.664-44.83-6.966a5.1,5.1,0,1,1-3.1-9.711c17.406-5.561,36.895-2.6,53.47,8.116,24.045,15.555,39.6,44.46,43.8,81.39,6.6,58.1-15.063,88.337-15.988,89.6A5.1,5.1,0,0,1,598.278,2198.386Z" transform="translate(-313.748 -1221.158)" fill="#371a45"/>
      <path id="Path_2301" data-name="Path 2301" d="M1656.425,2198.382a5.082,5.082,0,0,1-4.111-2.075c-.926-1.26-22.592-31.5-15.988-89.6,4.194-36.93,19.749-65.835,43.794-81.386,16.575-10.727,36.068-13.684,53.474-8.12a5.1,5.1,0,1,1-3.1,9.711c-14.7-4.7-30.622-2.225-44.834,6.966-21.434,13.866-35.359,40.14-39.2,73.979-6.155,54.175,13.87,82.126,14.074,82.406a5.1,5.1,0,0,1-4.1,8.116Z" transform="translate(-991.187 -1221.154)" fill="#371a45"/>
      <path id="Path_2302" data-name="Path 2302" d="M237.445,2240.928a101.227,101.227,0,0,1-12.389-.654c-18.178-2.3-30.5-9.936-45.476-28.156-18.174-22.108-36.871-65.445-34.843-120.758,1.158-31.72,12.16-57.613,30.992-72.955l.567-.528.571-.28a43.8,43.8,0,0,1,32.37-4.529c14.232,3.682,26.459,14.693,36.34,32.721,14.441,26.345,14.748,48.638,15.047,70.195.154,11.2.315,22.773,2.414,35.111,1.181,6.852,2.5,13.578,3.788,20.084,6.328,31.9,12.3,62.019-13.629,68.958l-.768.2h-.567C246.813,2240.731,241.914,2240.928,237.445,2240.928Zm14.177-6.635Zm-68.552-206.259c-15.905,13.145-25.2,35.757-26.243,63.768-2.453,67.044,26.31,105.589,32.1,112.626,14.7,17.886,24.573,22.179,37.651,23.836,5.746.729,14.681.74,23.994.032,13.712-4.123,10.755-22.647,4.383-54.77-1.3-6.588-2.654-13.389-3.847-20.407-2.26-13.263-2.426-25.317-2.587-36.973-.287-21.005-.563-40.841-13.558-64.547-8.211-14.984-17.886-24.022-28.747-26.826-10.955-2.835-20.225,1.607-22.576,2.891l-.158.165Z" transform="translate(-87.648 -1219.507)" fill="#371a45"/>
      <path id="Path_2303" data-name="Path 2303" d="M159.983,2137.833a6.048,6.048,0,1,1-.28-12.094l91.7-4.3a6.049,6.049,0,0,1,.567,12.086l-91.708,4.3C160.176,2137.833,160.074,2137.833,159.983,2137.833Z" transform="translate(-93.231 -1286.006)" fill="#371a45"/>
      <path id="Path_2304" data-name="Path 2304" d="M150.832,2238.813a6.049,6.049,0,0,1-.3-12.09l103.447-5.261a6.053,6.053,0,1,1,.618,12.086l-103.451,5.257C151.041,2238.813,150.938,2238.813,150.832,2238.813Z" transform="translate(-87.773 -1346.633)" fill="#371a45"/>
      <path id="Path_2305" data-name="Path 2305" d="M165.838,2349.906a6.053,6.053,0,0,1-.3-12.094l99.379-5.045a6.051,6.051,0,0,1,.614,12.086l-99.379,5.045C166.043,2349.906,165.941,2349.906,165.838,2349.906Z" transform="translate(-96.904 -1414.113)" fill="#371a45"/>
      <path id="Path_2306" data-name="Path 2306" d="M213.77,2469.6a6.049,6.049,0,1,1-.284-12.094l88.892-4.284a6.05,6.05,0,0,1,.583,12.086l-88.9,4.284Z" transform="translate(-125.835 -1487.131)" fill="#371a45"/>
    </g>
  </g>
</svg>
