<svg xmlns="http://www.w3.org/2000/svg" viewBox="0 0 1383.46 1375.25"><defs><style>.cls-1{fill:#dbd9d6;}.cls-2{fill:#fff;}.cls-3{fill:#ffc7d4;}.cls-4{fill:#622066;}.cls-5{fill:#ffee73;}.cls-6{fill:#abf7ff;}.cls-13,.cls-7{fill:#ff9cdc;}.cls-8{fill:#ffe6ed;}.cls-9{fill:#ffe600;}.cls-10{fill:#f9be00;}.cls-11{fill:#ed8ca8;}.cls-12{fill:#e2b369;}.cls-12,.cls-13{fill-rule:evenodd;}.cls-14{fill:#78ecff;}.cls-15{fill:#e8ffbd;}.cls-16{fill:#e27ac9;}.cls-17{fill:#c6914b;}</style></defs><title>dessert</title><g id="Layer_2" data-name="Layer 2"><g id="design"><path class="cls-1" d="M1284.07,1309.7c0,11-124.67,16.68-313,4.27-101-6.66-222.67,61.28-389,61.28-302,0-461.19-56.87-461.19-72.46s469.57-94.13,771.61-94.13S1284.07,1294.12,1284.07,1309.7Z"/><path class="cls-2" d="M779.42,820.33s-30.71,57-164.49,70.3C485.6,903.54,429.3,840.59,449,806c23.77-41.8,51.19-43.37,67.2-42.69,99.44,4.26,140.26-18,140.26-18l77.29,3.18Z"/><path class="cls-3" d="M449,806c-9.2,23.62.18,58.93,68.44,83.42C552.58,871.19,577.25,810,554,764,548.05,763.32,474,741.8,449,806Z"/><path class="cls-4" d="M597.11,904.1c-71.32,0-125.92-18.43-148.34-50.76-11.6-16.72-13.52-36.2-5.42-54.85,8.79-20.21,21-32.51,38.38-38.7s38.49-5.39,58.6-3.57c84.18,7.61,149.86-32.19,150.52-32.59a7.5,7.5,0,0,1,7.89,12.76c-2.84,1.75-70.41,42.85-159.76,34.77-43.93-4-67.38,0-81.87,33.31-6,13.91-4.67,27.85,4,40.32,9.8,14.15,28.16,25.72,53.09,33.48,28.26,8.8,64.54,12.34,104.91,10.25,103.33-5.38,131-37.28,131.32-37.6a7.46,7.46,0,0,1,10.51-1.18,7.54,7.54,0,0,1,1.19,10.57c-1.21,1.52-30.84,37.39-142.24,43.19Q608.24,904.1,597.11,904.1Z"/><path class="cls-5" d="M1295.4,1221.67s-55.23,95.92-192.48,63.87c-116.47-27.21-164.81-149.19-164.81-149.19l17.63-32.67s115.85,38.31,140.9,51.85S1236.17,1242.48,1295.4,1221.67Z"/><path class="cls-4" d="M1156.89,1299.59a245.75,245.75,0,0,1-55.67-6.75c-49.31-11.52-94.35-41.76-130.28-87.46-27-34.36-39.29-65-39.8-66.26a7.51,7.51,0,0,1,.37-6.33l17.63-32.68a7.49,7.49,0,0,1,9-3.55c4.75,1.57,116.77,38.68,142.11,52.38,3,1.61,7.07,4,12.24,7,32.06,18.54,107.14,61.95,158.9,62h0a65.18,65.18,0,0,0,21.55-3.27,7.5,7.5,0,0,1,9,10.82c-.45.77-11.13,19.07-34.39,37.36-21.35,16.8-57.87,36.82-110.61,36.82ZM946.43,1136.73A294.59,294.59,0,0,0,983,1196.46c23.53,29.85,63.73,68.25,121.61,81.77a230.67,230.67,0,0,0,52.26,6.36h0c38.64,0,72.56-11.17,100.81-33.2a150,150,0,0,0,20-18.73q-3.1.19-6.34.2h0c-55.79,0-133.3-44.83-166.41-64-5.06-2.93-9.06-5.24-11.86-6.76-21-11.34-109.78-41.34-133.73-49.35Z"/><path class="cls-6" d="M1306.9,1212.66s-60.91,81.72-190.15,29.67c-94.16-37.93-165.39-130.54-165.39-130.54l20.43-37.86s133.63,19,153.37,37.92S1243.31,1218.74,1306.9,1212.66Z"/><path class="cls-4" d="M1198.54,1267.17c-26.67,0-55.12-6-84.59-17.88-49.73-20-92.89-55.1-120.35-81-29.67-28-47.44-51-48.18-51.93a7.51,7.51,0,0,1-.66-8.13l20.43-37.86a7.51,7.51,0,0,1,7.66-3.86c.33,0,34,4.86,69.68,11.93,73.9,14.65,84.38,24.69,87.82,28,4.22,4,104.17,99,170.09,99h0c2,0,3.9-.09,5.75-.27a7.5,7.5,0,0,1,6.73,12c-1.52,2-38.18,50-114.37,50ZM960.33,1111c14.41,17.56,78.76,92,159.23,124.4,27.67,11.15,54.24,16.8,79,16.8h0c45.84,0,75.91-19.37,91-32.41-26.73-3.27-59.5-18.14-97.63-44.32a628.74,628.74,0,0,1-71.89-58.17c-12.69-12.16-92.91-27.63-144.08-35.16Z"/><path class="cls-7" d="M979.53,1060.62s60.08-40.27,125-10.64c53.13,24.25,93.59,65.8,119.25,108.3,8.91,14.75,4.77-24.52,50.89-27.76,15-1.06,37.68,8.33,42.38,38.11,11.15,70.58-72.57,74.87-132.35,38.83-30.48-18.38-61.31-49.53-98.76-74.8-49.92-33.67-121.86-43.38-121.86-43.38Z"/><path class="cls-4" d="M1259.63,1237.19c-25.52,0-54.25-8.5-78.82-23.31-16.46-9.93-32.79-23.28-50.08-37.43-15.49-12.67-31.5-25.76-49-37.57-47.83-32.27-118-42.07-118.67-42.16a7.51,7.51,0,0,1-5.6-11l15.47-28.66a7.48,7.48,0,0,1,2.42-2.67c1.39-.93,34.53-22.79,78.92-22.79a127.73,127.73,0,0,1,53.36,11.55c47.7,21.78,90,59.47,119.62,106.49,6-9.37,17.86-24.57,46.87-26.61.91-.06,1.85-.09,2.79-.09,20.16,0,42.68,13.76,47.53,44.52,3.21,20.3-.51,36.85-11,49.19C1301.9,1230.09,1283.31,1237.19,1259.63,1237.19Zm-284-153.6c22.22,4.08,74.64,16,114.47,42.85,18.07,12.2,34.35,25.52,50.1,38.4,16.87,13.79,32.79,26.82,48.34,36.19,22.29,13.45,48.2,21.16,71.07,21.16,18.89,0,33.93-5.43,42.35-15.29,7.56-8.85,10.14-21.33,7.65-37.1-3.72-23.52-20-31.86-32.72-31.86q-.89,0-1.74.06c-24.31,1.7-32.13,14.52-36.8,22.17-2.68,4.38-5.44,8.91-11.13,8.91s-8.76-5-9.9-6.93c-28.18-46.67-69.36-84.08-115.94-105.35a112.71,112.71,0,0,0-47.13-10.2c-34.72,0-62.48,15.35-69.08,19.33Z"/><path class="cls-2" d="M1127.32,1084.75a5.11,5.11,0,1,0,7-1.89A5.12,5.12,0,0,0,1127.32,1084.75Z"/><path class="cls-2" d="M1199.65,1159.59a4,4,0,0,1-3.4-1.88c-.21-.33-20.71-32.83-55.26-58.52a4,4,0,0,1,4.77-6.42c35.82,26.63,56.42,59.33,57.28,60.71a4,4,0,0,1-3.39,6.11Z"/><path class="cls-2" d="M1177.1,1235.64a3.38,3.38,0,1,1,.36-4.77A3.38,3.38,0,0,1,1177.1,1235.64Z"/><path class="cls-2" d="M1266.67,1167.78a4.16,4.16,0,1,1,2.27-5.43A4.16,4.16,0,0,1,1266.67,1167.78Z"/><path class="cls-4" d="M1263.71,1199.81c-26.83,0-45.73-36.35-46.63-38.12a7.5,7.5,0,0,1,13.36-6.83c.23.46,19.74,37.08,39.81,28.52,7.56-3.22,6.32-11.7,6.26-12.06a7.5,7.5,0,1,1,14.81-2.34c1.12,7-.63,22-15.19,28.2A31.43,31.43,0,0,1,1263.71,1199.81Z"/><path class="cls-2" d="M763.09,1152.3c-122.73,55.27-156.15,140.33-235.4,113-47-16.23-54-67.31-55.61-88.89-6-79.46,77.67-180.46,268.61-151.71"/><path class="cls-3" d="M655.51,1219.59a129.1,129.1,0,0,0,2.4-26.34c-.8-68-54.22-122.53-119.33-121.77a114.24,114.24,0,0,0-23.33,2.7c-31.81,30.07-45.75,68.11-43.17,102.19,1.63,21.58,8.61,72.66,55.61,88.89C577.2,1282.36,608.82,1255.58,655.51,1219.59Z"/><path class="cls-2" d="M512.58,1197.19a6.6,6.6,0,1,0-8.23-4.4A6.6,6.6,0,0,0,512.58,1197.19Z"/><path class="cls-2" d="M506.38,1177.48a7.51,7.51,0,0,1-7.31-5.84c-6.73-29.67,20-61.73,21.16-63.08a7.5,7.5,0,1,1,11.46,9.68h0c-.23.27-23.06,27.73-18,50.07a7.5,7.5,0,0,1-5.65,9A7.38,7.38,0,0,1,506.38,1177.48Z"/><path class="cls-4" d="M557,1278a96.64,96.64,0,0,1-31.77-5.66c-35.88-12.39-56.85-45.39-60.64-95.41-3-39.18,14-79,46.55-109.22,50.91-47.28,132.83-65.21,230.65-50.48a7.5,7.5,0,1,1-2.23,14.83c-93.22-14-170.72,2.53-218.21,46.64-29.19,27.11-44.42,62.5-41.81,97.1,2.31,30.4,12.95,69.36,50.59,82.36,43.67,15.08,72.12-6.9,115.18-40.18,28.83-22.29,64.72-50,114.69-72.53a7.5,7.5,0,0,1,6.16,13.68c-48.36,21.78-82,47.78-111.68,70.72C620.56,1256.08,592.18,1278,557,1278Z"/><path class="cls-2" d="M1136.48,932c-15.22,281.3-169.6,345.77-355.64,305.36-206.71-44.9-245.09-199.3-194.34-303.13C629,847.38,664.36,810.57,712.78,664.57c35-105.51,73.74-127.92,136-128.65C1034.4,533.75,1149.71,687.59,1136.48,932Z"/><path class="cls-4" d="M870.18,1249.83c-29.41,0-59.33-3.34-94.18-10.52-122.88-25.32-175.6-85.49-198.2-131.5a191.3,191.3,0,0,1-19.48-90.26,211.53,211.53,0,0,1,21.45-86.62c13-26.55,25.43-48.68,37.46-70.08,28.25-50.21,54.93-97.64,88.43-198.64,17.47-52.68,36.53-86.65,60-106.93,21.28-18.39,46.11-26.42,83.05-26.86l4,0c79,0,147.47,28.21,198,81.57,33.5,35.36,58.56,80.79,74.49,135,16.22,55.23,22.54,118.27,18.8,187.38-10.42,192.61-101.8,293.87-187.74,308.79C930.4,1245.68,902.09,1249.83,870.18,1249.83ZM852.66,543.4l-3.79,0c-33.09.39-55,7.33-73.41,23.21-21.32,18.43-39,50.3-55.56,100.3-34,102.38-62.24,152.65-89.59,201.27-11.94,21.22-24.28,43.15-37.07,69.32-26.11,53.41-26.83,113.07-2,163.68,21.11,43,70.83,99.32,187.76,123.41,33.82,7,62.79,10.22,91.15,10.22,30.78,0,58.31-4,83.48-8.41C996.41,1219,1037,1189,1068,1141.94c35.34-53.63,56.42-126.37,61-210.36,7.17-132.45-24.5-243-89.2-311.3C992.15,570,927.44,543.4,852.66,543.4Z"/><path class="cls-8" d="M864.93,1025.36c-3.82,81.74-11.86,143.32-83.6,157.46S624.8,1135.75,609,1055.47c-7.06-35.83-11.86-73.93,38.59-141.61,26.63-35.73,81.88-92,120.66-94.19C841.21,815.5,869.05,937.24,864.93,1025.36Z"/><path class="cls-2" d="M846.55,271c-34.56-7.13-86.45-94.11-75.8-154.31,23.17-131,157.5-92,155.18-22.76C923.54,165.22,882.19,278.31,846.55,271Z"/><path class="cls-4" d="M849.9,278.79a24,24,0,0,1-4.86-.49c-22.88-4.72-46-34.65-60-61.09-18.93-35.76-26.84-72.89-21.71-101.87,5.47-30.92,17.17-54.83,34.77-71.07a80.39,80.39,0,0,1,55.41-21.7c23,0,45.88,9.49,61.26,25.4,12.58,13,19.19,29.4,18.63,46.16-1.17,34.74-11.27,79.64-26.36,117.17C894.68,242.09,874.71,278.79,849.9,278.79Zm3.64-241.22c-38.31,0-66.5,30.05-75.41,80.38-4.49,25.38,3.06,59.87,20.19,92.24,15.1,28.52,35.55,50.49,49.75,53.42a9.38,9.38,0,0,0,1.83.18c9.17,0,26-15.21,43.25-58.09,14.49-36,24.18-79,25.29-112.07C919,77.39,910.9,65.51,904,58.39,891.41,45.35,872.54,37.57,853.54,37.57Z"/><path class="cls-3" d="M845.7,201.78C829.43,198.42,805,157.49,810,129.16c10.91-61.65,74.13-43.29,73-10.71C881.94,152,862.47,205.24,845.7,201.78Z"/><path class="cls-2" d="M1287.55,539.76c37.23-178.27-90.39-332.09-205-378.92C960.45,110.92,724.2,121.52,607,300.7c-47.61,72.79-229.95,215.62,69,386C1175.71,971.52,1264.34,650.93,1287.55,539.76Z"/><path class="cls-4" d="M1018.28,810.76h0c-90.84,0-201.89-36.46-330.07-108.35C630,669.75,584.81,636.18,554,602.65c-27.65-30.1-44.69-61.19-50.64-92.41-14.22-74.6,35.72-136,72.18-180.82,10.15-12.48,18.92-23.25,25.18-32.82,37.85-57.87,89.9-102,154.7-131.21,55-24.76,117.94-37.84,182.18-37.84,53.75,0,106.25,9.35,147.82,26.34,61.85,25.29,122.76,78.8,162.93,143.15,22.42,35.9,38,74,46.33,113.34a316.1,316.1,0,0,1,.22,130.91c-8,38.14-22.3,94.92-54.68,147.44-39.7,64.39-95.49,103.75-165.82,117A304,304,0,0,1,1018.28,810.76ZM937.6,142.55c-65.61,0-228.54,15.81-324.33,162.26-6.68,10.22-16.11,21.81-26.09,34.08-34.61,42.54-82,100.8-69.09,168.54,5.42,28.44,21.22,57.06,46.95,85.07,29.74,32.36,73.65,64.94,130.5,96.83C821.45,760,930,795.76,1018.27,795.76h0a289.63,289.63,0,0,0,53.33-4.77c107.63-20.28,177.81-105.32,208.59-252.76C1318.07,356.89,1183,210,1079.74,167.78,1039.94,151.51,989.45,142.55,937.6,142.55Z"/><path class="cls-6" d="M1246.55,287.32s143.88,142.67,95.59,352C1305.53,798,1217.34,867,1217.34,867l-53.59-90.34s105.35-133,112.8-213.76S1272.92,345.74,1246.55,287.32Z"/><path class="cls-4" d="M1217.34,874.48a8.08,8.08,0,0,1-1.39-.13,7.48,7.48,0,0,1-5.06-3.55l-53.59-90.33a7.52,7.52,0,0,1,.58-8.49c1-1.31,104-132.19,111.21-209.78,3.64-39.54,2.78-93.64-2.32-144.73-5.54-55.56-15.15-100.68-27-127.06a7.49,7.49,0,0,1,12.11-8.41c1.51,1.49,37.23,37.28,67.37,99.56A403.06,403.06,0,0,1,1355,494.85,383.65,383.65,0,0,1,1349.44,641c-19.18,83.17-52.64,141.62-77.34,176-26.94,37.51-49.21,55.12-50.14,55.85A7.51,7.51,0,0,1,1217.34,874.48Zm-44.52-97.26,46.36,78.17c8.33-7.73,23.81-23.45,41.14-47.68,23.75-33.19,56-89.65,74.51-170.06,24.45-106-2.34-194.23-29.13-249.56a416.39,416.39,0,0,0-39.45-65.39c17.43,68.12,24,172.78,17.77,240.87C1277.11,638.54,1190.93,753.74,1172.82,777.22Z"/><path class="cls-7" d="M1243.46,286.92s94.36,92.29,68.68,285.39c-21.14,158.91-103.6,240.76-103.6,240.76s54.93,58.36-3.52,108.45c-66.5,57-208.81-38.07-107.6-178.31C1162.89,652.47,1313.89,509.3,1243.46,286.92Z"/><path class="cls-4" d="M1158.15,945.83c-37.1,0-73.91-23.23-91.6-57.82-12.84-25.1-26.69-77.85,24.79-149.19,8.92-12.37,19.45-25.74,30.59-39.89,73.48-93.33,174.11-221.14,114.38-409.75a7.51,7.51,0,0,1,12.4-7.63c1,1,24.88,24.66,45.61,72.68,19,43.94,38.74,117.62,25.25,219.06-11.08,83.31-39.1,145.36-60.66,182.74-17.16,29.74-32.84,48.84-40.39,57.32,7.69,10,22.26,32.64,20.82,59.48-1.08,20.28-11,38.57-29.43,54.39C1195.7,939.4,1177.8,945.83,1158.15,945.83ZM1260.64,322c16,73.18,10,143.53-18.27,214-28,69.72-72.7,126.55-108.65,172.21-11,14-21.48,27.29-30.22,39.4-46.81,64.86-34.88,111.53-23.6,133.58,15.2,29.7,46.64,49.65,78.25,49.65,16,0,30.54-5.18,42-15,15.19-13,23.33-27.72,24.22-43.7,1.61-29.06-21.06-53.69-21.29-53.93a7.52,7.52,0,0,1,.19-10.46c.19-.19,20.45-20.57,43-59.75,20.76-36.12,47.75-96.1,58.47-176.67,13-98.05-5.94-168.94-24.16-211.15A285.28,285.28,0,0,0,1260.64,322Z"/><path class="cls-4" d="M1175.14,883.8h-.21c-1,0-24.12-.81-36.91-15.88-6.76-8-9.35-18.11-7.69-30.16,4.39-31.89,31.33-46.55,54.47-44.14,26.33,2.73,43.33,34.49,44,35.84a7.5,7.5,0,0,1-13.27,7c-3.83-7.22-17.11-26.33-32.32-27.91-12.87-1.34-34.58,6-38.06,31.26-1.06,7.76.33,13.78,4.26,18.41,8.37,9.86,25.71,10.59,25.88,10.6a7.5,7.5,0,0,1-.19,15Z"/><path class="cls-5" d="M1243.46,286.92s79.35,125.56,22.53,271c-43.79,112-125,133.53-162.68,241.74-26.42,75.85,13.09,128.22,13.09,128.22s-85.26-26.53-55.5-171.89c19.57-95.62,76.17-128.15,139.72-209C1296.77,424.73,1243.46,286.92,1243.46,286.92Z"/><path class="cls-4" d="M1116.4,935.33a7.41,7.41,0,0,1-2.23-.34c-1-.3-24-7.69-42.8-34.26-10.88-15.33-18.2-34-21.76-55.38-4.36-26.27-3-56.86,3.94-90.92,14.47-70.66,49.5-108.87,90.07-153.12,16.39-17.88,33.34-36.38,51.11-59,48.28-61.4,57-126.9,55.87-171-1.26-47.88-14-81.35-14.13-81.68a7.5,7.5,0,0,1,13.33-6.71c.84,1.32,20.62,33,33.5,83.1,11.89,46.29,19.76,117.63-10.33,194.59-22.18,56.75-53.68,90.75-84.15,123.64-30.8,33.24-59.9,64.65-78.43,117.84-23.82,68.42,8.83,116.78,11.79,120.94a7.51,7.51,0,0,1-5.6,12.31Zm148.42-579.69c.37,4.91.64,10,.77,15.27a287.26,287.26,0,0,1-10.5,85.91,273,273,0,0,1-48.57,94.8c-18.12,23-35.26,41.74-51.85,59.82-40.67,44.37-72.79,79.41-86.43,146-11.74,57.35-6.43,103.9,15.36,134.62a90.06,90.06,0,0,0,13.61,15.24c-1.56-3.93-3.08-8.29-4.46-13-6.31-21.64-10.82-56.06,3.48-97.11C1115.79,741,1147.32,707,1177.82,674c29.51-31.85,60-64.79,81.18-118.9,28.55-73,21.14-140.85,9.9-184.88Q1267,362.66,1264.82,355.64Z"/><path class="cls-2" d="M1199.08,780.47a6,6,0,1,0,8,3A6,6,0,0,0,1199.08,780.47Z"/><path class="cls-2" d="M1214.67,774.13a3.94,3.94,0,0,1-2.53-.9,4,4,0,0,1-.57-5.63c.35-.42,34.74-42.73,48.29-84.72a4,4,0,1,1,7.62,2.46c-14,43.45-48.27,85.56-49.72,87.33A4,4,0,0,1,1214.67,774.13Z"/><path class="cls-2" d="M1224.33,553a3.62,3.62,0,1,0,.52-5.1A3.63,3.63,0,0,0,1224.33,553Z"/><path class="cls-2" d="M1238.6,809.15a3.62,3.62,0,1,0,.53-5.1A3.63,3.63,0,0,0,1238.6,809.15Z"/><path class="cls-2" d="M1157.74,910.55a5.67,5.67,0,1,0,.82-8A5.67,5.67,0,0,0,1157.74,910.55Z"/><path class="cls-2" d="M1143.41,918a3.62,3.62,0,1,0,.53-5.1A3.62,3.62,0,0,0,1143.41,918Z"/><path class="cls-6" d="M724.26,186.74s62.84-57.86,203-59.66C1170.54,124,1256.11,284,1256.11,284L813.5,202Z"/><path class="cls-4" d="M1256.11,291.46a8,8,0,0,1-1.37-.13l-442.6-81.92L723,194.13a7.5,7.5,0,0,1-3.81-12.91c.68-.62,17-15.48,51-30.5,31-13.68,83.31-30.19,157-31.14q3.57,0,7.1,0c55.13,0,106.68,8.39,153.2,25A366.4,366.4,0,0,1,1189,199.56c48.87,37.8,70.66,75.31,73.45,80.34a7.5,7.5,0,0,1-6.22,11.55ZM742.87,182.32l71.9,12.32,425.59,78.77c-10.46-14.62-30.23-38.65-61.17-62.46-45.3-34.86-124.57-76.41-245-76.41q-3.44,0-6.9,0C827.51,135.86,767.74,166.16,742.87,182.32Z"/><path class="cls-9" d="M1164.45,260.48c-.54-35.07-5.54-249.45-46.75-252.95-36-3-81.42,207-88.62,241.46Z"/><path class="cls-10" d="M1029.08,249l135.37,11.49c-.36-23.19-1.81-105.26-15.25-172.44l-83.58,28A1227.91,1227.91,0,0,0,1029.08,249Z"/><path class="cls-4" d="M1164.45,268c-.21,0-.42,0-.63,0l-135.37-11.49a7.51,7.51,0,0,1-6.71-9c3.6-17.23,16.65-77.82,33.3-134.16C1084.73,12.88,1103.71,0,1116.92,0c.47,0,.95,0,1.42.06,13,1.11,23.23,14.65,31.16,41.41,5.75,19.37,10.56,46.25,14.28,79.87,6.5,58.67,7.89,121.25,8.17,139a7.48,7.48,0,0,1-7.5,7.61Zm-126.27-25.74,118.61,10.07c-.52-24.32-2.28-78.35-7.92-129.32-11.2-101.16-28.46-107.7-31.8-108h-.15c-1.76,0-18,2.88-47.49,102.56C1055,166.4,1043.27,218.55,1038.18,242.24Z"/><path class="cls-4" d="M1068.43,118.86a7.51,7.51,0,0,1-1.87-14.77l73.38-19a7.5,7.5,0,1,1,3.77,14.52l-73.39,19A7.65,7.65,0,0,1,1068.43,118.86Z"/><path class="cls-2" d="M1136.44,171.09a4,4,0,0,1-4-3.93c-.18-9.56-1-26.67-1-26.84a4,4,0,0,1,8-.37c0,.17.81,17.39,1,27.06a4,4,0,0,1-3.92,4.08Z"/><path class="cls-2" d="M1136.35,120.56a4.11,4.11,0,1,1-5.72,1.09A4.13,4.13,0,0,1,1136.35,120.56Z"/><path class="cls-5" d="M731.41,214.48S803.12,163.05,934.8,158c234.13-9,328,115.67,328,115.67L815.25,238.28Z"/><path class="cls-4" d="M1262.77,281.16l-.59,0L814.66,245.76a7.87,7.87,0,0,1-1.45-.26l-83.85-23.81A7.5,7.5,0,0,1,727,208.38c.76-.54,19.08-13.56,53.94-27.23,31.92-12.52,84.46-28,153.53-30.66,8.12-.31,16.29-.47,24.26-.47,50.09,0,97.5,6.2,140.91,18.43a401.82,401.82,0,0,1,96.14,40.69c47,27.86,69.52,55.61,72.61,59.57a7.5,7.5,0,0,1-5.61,12.45ZM816.59,230.87l427.82,33.82c-11.1-10.92-29.84-27.07-57-43.09C1143.68,195.79,1068.5,165,958.77,165c-7.78,0-15.75.16-23.68.46-66.66,2.57-117.3,17.4-148,29.4a318.52,318.52,0,0,0-37,17.09Z"/><path class="cls-7" d="M1296.77,306.7S1235,224,1029.76,205c-132.31-12.18-242.23,27.49-242.23,27.49s-14-124.73-112.6-75.43c-72.38,36.19-64.37,155,80.89,196.09C931.26,402.77,1057.92,255.53,1296.77,306.7Z"/><path class="cls-4" d="M831,371.05h0a280,280,0,0,1-77.2-10.64c-40.15-11.34-72.22-28.92-95.33-52.25-20.67-20.86-32.86-45.25-35.24-70.51-3.51-37.16,15-70.59,48.37-87.25,16.36-8.18,31.69-12.33,45.58-12.33,27.93,0,50.32,16.55,64.74,47.84a165.63,165.63,0,0,1,11.62,36.73c23.94-7.57,95.27-27.42,184.8-27.42,17.61,0,35.15.79,52.13,2.35,107.32,9.89,175.3,37.46,213.44,58.85,39,21.9,55.82,41.89,58.52,45.3a7.5,7.5,0,0,1-5.48,12.47,7.24,7.24,0,0,1-1.73-.16,472.27,472.27,0,0,0-100.1-10.8c-76.21,0-140.06,18.61-201.8,36.61C938.26,355.89,886.26,371.05,831,371.05Zm-113.84-218c-11.54,0-24.62,3.62-38.88,10.74-27.67,13.83-43,41.59-40.14,72.43,2.06,21.77,12.76,43,31,61.36,21.26,21.47,51.12,37.74,88.75,48.38A265.12,265.12,0,0,0,831,356.05h0c53.12,0,104.11-14.87,158.1-30.61,62.75-18.29,127.64-37.21,206-37.21a480.47,480.47,0,0,1,78.71,6.48,250.27,250.27,0,0,0-38.36-25.82c-36.78-20.44-102.44-46.81-206.38-56.38-16.52-1.52-33.59-2.29-50.75-2.29-105.66,0-187.42,29.07-188.24,29.37a7.5,7.5,0,0,1-10-6.22C780,232.57,770.33,153.07,717.16,153.07Z"/><path class="cls-4" d="M747.11,278.28a67.34,67.34,0,0,1-15.86-2c-30-7.28-38-30.62-38.06-41.94a7.5,7.5,0,0,1,7.47-7.53h0a7.51,7.51,0,0,1,7.5,7.42c0,1,.86,21.23,26.6,27.48,13.68,3.32,26.45,1.19,35-5.85a24.3,24.3,0,0,0,9.11-20.18c-.85-20.51-7.79-39.32-7.86-39.51a7.5,7.5,0,1,1,14-5.24c.32.85,7.85,21.26,8.79,44.14a38.94,38.94,0,0,1-14.58,32.39C770.68,274.59,759.42,278.28,747.11,278.28Z"/><path class="cls-2" d="M707.08,299.2a6.5,6.5,0,1,1-9,1.92A6.51,6.51,0,0,1,707.08,299.2Z"/><path class="cls-2" d="M832.89,343.89q-13.75,0-27-1.24c-42.53-4-71.69-16.8-88.65-26.85a4,4,0,1,1,4.07-6.88c25.34,15,97.24,46.05,217.33,10.41A4,4,0,1,1,940.9,327C903.05,338.23,866.84,343.89,832.89,343.89Z"/><path class="cls-2" d="M716.52,181.94a6.09,6.09,0,1,0-3-8.08A6.1,6.1,0,0,0,716.52,181.94Z"/><path class="cls-2" d="M1149.68,278.48a6.09,6.09,0,1,0-3-8.08A6.1,6.1,0,0,0,1149.68,278.48Z"/><path class="cls-2" d="M730.66,192.12a3.89,3.89,0,1,0-1.89-5.17A3.87,3.87,0,0,0,730.66,192.12Z"/><path class="cls-2" d="M817.5,205.47a3.89,3.89,0,1,0-1.89-5.16A3.89,3.89,0,0,0,817.5,205.47Z"/><path class="cls-2" d="M1153,411.94c19.17,32.32,106.16,37.15,163.58,6.49,113-60.32,37.9-190.48-31-164.12C1214.63,281.48,1133.21,378.62,1153,411.94Z"/><path class="cls-4" d="M1245.85,441.27c-1.07,0-2.12,0-3.19,0a7.5,7.5,0,1,1,.26-15c25.17.43,50.15-4.74,70.37-14.56,58-28.19,63-74.5,48.27-108.44-12.79-29.5-43.69-53.26-73.26-41.93-21.62,8.27-49.48,23.63-74.52,41.08a7.5,7.5,0,1,1-8.57-12.31c26-18.1,55-34.1,77.72-42.78,17.55-6.72,37-4.65,54.62,5.84,16.18,9.6,29.6,25.27,37.77,44.14,9.62,22.19,10.75,46.23,3.19,67.71-8.79,25-29.08,45.8-58.67,60.18C1298.41,435.59,1272.24,441.27,1245.85,441.27Z"/><path class="cls-3" d="M1204.85,372.53c9,15.21,58.71,25.59,85.49,10.71,58.27-32.38,17.84-89.65-14.57-77.24C1242.36,318.78,1195.54,356.85,1204.85,372.53Z"/><path class="cls-4" d="M891.71,626.08A67,67,0,1,0,878,532.3,67,67,0,0,0,891.71,626.08Z"/><path class="cls-2" d="M890.49,605.73a32.08,32.08,0,1,0-6.6-44.89A32.08,32.08,0,0,0,890.49,605.73Z"/><path class="cls-2" d="M956.91,575.17a13.13,13.13,0,1,0-2.7-18.37A13.13,13.13,0,0,0,956.91,575.17Z"/><path class="cls-2" d="M952.26,597.84a6.83,6.83,0,1,0-1.41-9.55A6.82,6.82,0,0,0,952.26,597.84Z"/><path class="cls-3" d="M886.75,673.79c-5.73,13.79,7,32.19,28.46,41.1s43.47,5,49.2-8.84-7-32.2-28.45-41.1S892.48,660,886.75,673.79Z"/><path class="cls-11" d="M901.47,690.44l.65-.94c.39-.57,1-1.39,1.61-2.38l2.23-3.24c.39-.6.84-1.17,1.25-1.8.21-.31.41-.63.63-.93l.62-.86c.44-.65.87-1.31,1.33-1.94s.76-1.2,1.17-1.77.74-1.14,1.1-1.68.68-1.08,1-1.56c.62-1,1.12-1.83,1.48-2.45s.56-1,.56-1,0,.1.08.3a6.18,6.18,0,0,1,.14.85,10.36,10.36,0,0,1,.06,1.33,12.16,12.16,0,0,1-.13,1.72,14.7,14.7,0,0,1-.41,2,16.18,16.18,0,0,1-.73,2.16c-.15.37-.33.74-.5,1.11a7.91,7.91,0,0,1-.55,1.09c-.38.68-.81,1.34-1.23,2l-.08.13,0,.06-.09.12-.19.24-.37.49c-.25.33-.52.64-.77,1a19.21,19.21,0,0,1-1.63,1.73,18.8,18.8,0,0,1-1.68,1.47,16.5,16.5,0,0,1-1.64,1.15,13.56,13.56,0,0,1-1.5.82,9.22,9.22,0,0,1-1.22.51,6.11,6.11,0,0,1-.83.25A2,2,0,0,1,901.47,690.44Z"/><path class="cls-11" d="M917,703.67l.82-1.06c.51-.68,1.23-1.61,2-2.75.41-.56.87-1.15,1.32-1.8s1-1.29,1.45-2,1-1.39,1.53-2.14c.25-.37.5-.75.77-1.11l.75-1c.52-.79,1-1.58,1.57-2.33s.92-1.46,1.4-2.16.86-1.4,1.28-2.06.77-1.31,1.12-1.91.65-1.15.93-1.65.5-.95.7-1.32c.37-.77.59-1.2.59-1.2a2.68,2.68,0,0,1,.08.35,10,10,0,0,1,.11,1,10.22,10.22,0,0,1,0,1.57,14.27,14.27,0,0,1-.22,2,17.67,17.67,0,0,1-.55,2.33,18.15,18.15,0,0,1-.91,2.54c-.18.43-.39.86-.6,1.31a11,11,0,0,1-.66,1.28c-.47.8-1,1.59-1.48,2.39l-.09.14-.06.07-.11.15-.22.29-.44.58c-.29.38-.6.75-.9,1.13a12,12,0,0,1-.94,1.07c-.32.34-.64.68-1,1a21.32,21.32,0,0,1-2,1.78,18.65,18.65,0,0,1-1.91,1.41,13.75,13.75,0,0,1-1.73,1,10.78,10.78,0,0,1-1.41.67,9.91,9.91,0,0,1-.95.34A2.59,2.59,0,0,1,917,703.67Z"/><path class="cls-11" d="M936.34,709.44l.64-.94,1.62-2.38,2.22-3.24c.39-.6.85-1.17,1.25-1.8.21-.31.41-.63.64-.93l.61-.86c.44-.65.87-1.31,1.33-1.94s.77-1.2,1.18-1.77.73-1.15,1.1-1.68.67-1.08,1-1.57c.63-1,1.12-1.82,1.48-2.44s.56-1,.56-1l.08.29a6.47,6.47,0,0,1,.14.85,9,9,0,0,1,.06,1.34,12.16,12.16,0,0,1-.13,1.72,14.7,14.7,0,0,1-.41,2,16.06,16.06,0,0,1-.73,2.15c-.15.38-.32.75-.5,1.12a8.52,8.52,0,0,1-.55,1.09c-.38.68-.8,1.34-1.22,2l-.09.13-.05.06-.09.12-.19.24-.37.49c-.25.33-.51.64-.76,1a20.75,20.75,0,0,1-1.63,1.73,18.89,18.89,0,0,1-1.69,1.47,14.46,14.46,0,0,1-1.64,1.15,15.45,15.45,0,0,1-1.5.82,9.22,9.22,0,0,1-1.22.51,5.72,5.72,0,0,1-.83.25A2.11,2.11,0,0,1,936.34,709.44Z"/><path class="cls-4" d="M658.25,497.83a67,67,0,1,1,90.2-29.13A67,67,0,0,1,658.25,497.83Z"/><path class="cls-2" d="M653.92,476.33a32.08,32.08,0,1,0-13.14-43.43A32.09,32.09,0,0,0,653.92,476.33Z"/><path class="cls-2" d="M715.11,436.3a13.12,13.12,0,1,0-5.38-17.76A13.11,13.11,0,0,0,715.11,436.3Z"/><path class="cls-2" d="M713.85,459.41a6.83,6.83,0,1,0-2.8-9.24A6.82,6.82,0,0,0,713.85,459.41Z"/><path class="cls-3" d="M544.12,476.11c-7.09,13.14,3.72,32.74,24.15,43.77s42.75,9.32,49.84-3.81-3.7-32.75-24.14-43.78S551.22,463,544.12,476.11Z"/><path class="cls-11" d="M557.08,494.17l.74-.87,1.85-2.21,2.54-3c.45-.56,1-1.08,1.43-1.66.24-.29.47-.58.72-.86l.7-.79c.51-.61,1-1.22,1.52-1.8s.88-1.12,1.35-1.64.85-1.07,1.26-1.57.78-1,1.14-1.45c.72-.91,1.3-1.71,1.72-2.28l.66-.93s0,.1,0,.3a6.09,6.09,0,0,1,0,.86,8.24,8.24,0,0,1-.08,1.33,9.69,9.69,0,0,1-.3,1.7,13.77,13.77,0,0,1-.6,1.94,16.38,16.38,0,0,1-1,2.07c-.19.36-.4.71-.61,1.06a9.14,9.14,0,0,1-.66,1c-.45.63-.94,1.25-1.42,1.87l-.1.12-.05.06-.11.11-.21.22-.42.45c-.28.3-.57.58-.86.87a19.85,19.85,0,0,1-1.79,1.55,17,17,0,0,1-1.82,1.29,15,15,0,0,1-1.76,1,13.9,13.9,0,0,1-1.57.67,9.49,9.49,0,0,1-1.27.38,6.5,6.5,0,0,1-.84.17A2.33,2.33,0,0,1,557.08,494.17Z"/><path class="cls-11" d="M571.19,508.9l.92-1c.57-.62,1.38-1.47,2.31-2.52.46-.52,1-1.06,1.49-1.66s1.1-1.19,1.64-1.85,1.18-1.28,1.74-2c.3-.34.58-.69.88-1l.86-1c.6-.73,1.19-1.46,1.8-2.16s1.06-1.35,1.61-2,1-1.31,1.47-1.92.9-1.22,1.31-1.78.76-1.09,1.1-1.56.58-.89.82-1.24c.46-.72.71-1.14.71-1.14a2.19,2.19,0,0,1,0,.36,7.93,7.93,0,0,1,0,1,10.83,10.83,0,0,1-.15,1.56,15,15,0,0,1-.43,2,18.45,18.45,0,0,1-.77,2.27,20.48,20.48,0,0,1-1.17,2.42c-.22.42-.48.83-.73,1.25a10.83,10.83,0,0,1-.79,1.2c-.54.76-1.13,1.49-1.71,2.24l-.1.12-.07.07-.12.13-.25.27-.5.53c-.33.36-.68.7-1,1a11.83,11.83,0,0,1-1,1c-.36.31-.71.61-1.07.9a24.17,24.17,0,0,1-2.13,1.57,20.51,20.51,0,0,1-2,1.21,16.94,16.94,0,0,1-1.83.85,11.56,11.56,0,0,1-1.47.52,7.46,7.46,0,0,1-1,.24A2.69,2.69,0,0,1,571.19,508.9Z"/><path class="cls-11" d="M589.84,516.6l.74-.87,1.85-2.21c.38-.45.79-.91,1.21-1.43s.88-1,1.33-1.57,1-1.08,1.43-1.66c.24-.29.47-.58.72-.86l.7-.79c.5-.61,1-1.22,1.52-1.8s.88-1.11,1.35-1.64.85-1.07,1.26-1.57.78-1,1.14-1.45c.72-.91,1.3-1.71,1.72-2.28s.65-.93.65-.93a2.4,2.4,0,0,1,.06.3,6.09,6.09,0,0,1,.05.86,8.24,8.24,0,0,1-.08,1.33,12,12,0,0,1-.3,1.7,13.86,13.86,0,0,1-.61,1.94,15,15,0,0,1-.94,2.07c-.19.36-.4.71-.61,1.06a9.14,9.14,0,0,1-.66,1c-.45.63-.94,1.25-1.42,1.87l-.1.12-.05.06-.11.11-.21.22-.42.45c-.28.3-.57.58-.86.87a19.85,19.85,0,0,1-1.79,1.55,17,17,0,0,1-1.82,1.29,15,15,0,0,1-1.76,1,13.9,13.9,0,0,1-1.57.67,9.49,9.49,0,0,1-1.27.38,6.5,6.5,0,0,1-.84.17A2.33,2.33,0,0,1,589.84,516.6Z"/><path class="cls-12" d="M838.32,851.09C795.08,633,580.07,491.87,358.09,535.88S-8.79,792.37,34.45,1010.46,272,1364.6,512.92,1316.83C742.66,1271.28,881.56,1069.18,838.32,851.09ZM472.7,1113.94c-90.34,17.91-178.37-42.18-196-130.94S318.1,807.76,408.44,789.85s177.85,39.52,195.45,128.29S563,1096,472.7,1113.94Z"/><path class="cls-4" d="M421.45,1333.48c-197.75,0-356.23-129.22-394.36-321.56a401.3,401.3,0,0,1,1.14-163A408.27,408.27,0,0,1,90.62,703.66a416.16,416.16,0,0,1,113-112,421,421,0,0,1,153-63.18,427.49,427.49,0,0,1,82.95-8.18A419.69,419.69,0,0,1,701,611.91,404.27,404.27,0,0,1,845.68,849.63c21.47,108.33.31,215.91-59.61,302.91-29.7,43.13-67.75,79.75-113.11,108.86-46.9,30.1-100.26,51.22-158.58,62.78A479.33,479.33,0,0,1,421.45,1333.48Zm18.13-798.14a412.36,412.36,0,0,0-80,7.9C142,586.37-.56,795.32,41.81,1009c36.69,185.1,189.26,309.47,379.64,309.47a464.2,464.2,0,0,0,90-9C740.1,1264.14,874.47,1072,831,852.55,794.52,668.75,629.92,535.34,439.58,535.34Z"/><path class="cls-13" d="M833.74,771.68C765.23,577,566.43,476.09,354.57,518.1,152.83,558.09-6.38,733.27,8.45,925.58c10.43,88,85,125.18,131.49,76.54,49.8-52.14,68.38-122.54,120.11-103.24,6,2.22,17.85,6.91,25.41,8.91,17.08-56.86,59.86-105.42,123-117.94a167.38,167.38,0,0,1,151.73,46c32.4-21.54,70.56-25.52,114.17,8.78,51.3,40.35,92.32,57.11,136.81,33.8C836.4,865.19,852.89,828.05,833.74,771.68Z"/><path class="cls-4" d="M92.71,1031.17c-39.41,0-83.56-36-91.71-104.71l0-.31C-6.26,832.37,27,737.78,94.63,659.8a453.15,453.15,0,0,1,114.89-94.69,464.57,464.57,0,0,1,143.59-54.37,494.62,494.62,0,0,1,96-9.56c88.11,0,171.11,24.48,240,70.8,70.47,47.36,122.91,115.55,151.66,197.21,21.75,64-.52,102.42-26.19,115.88-14.73,7.72-29.24,11.48-44.36,11.48h0c-29.49,0-59.56-13.77-100.57-46-20.05-15.77-39.94-23.77-59.13-23.77-15.38,0-31,5.16-46.25,15.33a7.49,7.49,0,0,1-9.48-1,160.35,160.35,0,0,0-113.24-47,163,163,0,0,0-31.7,3.13c-55.53,11-99.36,53.15-117.25,112.73a7.51,7.51,0,0,1-9.1,5.1c-6.63-1.75-15.85-5.25-22.58-7.8l-3.54-1.34a40.17,40.17,0,0,0-14.09-2.79c-21.61,0-37.4,22.88-57.38,51.85-11.47,16.62-24.47,35.46-40.6,52.34C130.45,1022.91,112.24,1031.17,92.71,1031.17ZM15.92,924.84c7.16,60,44,91.33,76.79,91.33,15.34,0,29.79-6.65,41.81-19.23,15.3-16,27.94-34.34,39.09-50.5,21.59-31.3,40.24-58.33,69.73-58.33a55.42,55.42,0,0,1,19.33,3.74l3.62,1.37c4,1.52,9.41,3.56,14.29,5.22C301.4,837.25,348.19,794.15,407,782.5a178.15,178.15,0,0,1,34.62-3.42,175.56,175.56,0,0,1,119.56,47.27c16.19-9.68,32.79-14.59,49.41-14.59,22.63,0,45.64,9.08,68.4,27,37.64,29.6,65.8,42.81,91.3,42.81h0c12.63,0,24.86-3.2,37.4-9.77,20.42-10.7,37.65-42.71,19-97.69C770.65,615,626,516.18,449.14,516.18A480.52,480.52,0,0,0,356,525.45C151.23,566.05,1.87,741.47,15.92,924.84Z"/><path class="cls-4" d="M437.1,1124.93c-37.67,0-72.38-11.33-100.39-32.78-29.92-22.91-50.93-56.74-60.74-97.83-11-46.11-2.15-96.19,24.28-137.4C325.49,817.57,363.4,791.14,407,782.5a178.18,178.18,0,0,1,34.63-3.42,175.3,175.3,0,0,1,109.18,38.24,169.85,169.85,0,0,1,60.45,99.36c9,45.39-.47,91.87-26.67,130.89-26,38.74-65.23,64.93-110.44,73.73A193.86,193.86,0,0,1,437.1,1124.93Zm4.51-330.85a163.12,163.12,0,0,0-31.71,3.13c-39.54,7.84-74,31.92-97,67.81-24.25,37.79-32.38,83.65-22.32,125.82,17.54,73.46,73.69,119.09,146.54,119.09a179.25,179.25,0,0,0,34.16-3.35c41.27-8,77.08-32,100.86-67.37,24-35.69,32.63-78.17,24.41-119.62C582.11,846.87,517,794.08,441.61,794.08Z"/><path class="cls-2" d="M77.34,780.85A7.52,7.52,0,0,1,70,771.6c.54-2.25,14.06-56,88.05-126.9a158.8,158.8,0,0,1,20.76-16.33A7.5,7.5,0,1,1,187,641a146.44,146.44,0,0,0-18.53,14.57C97.63,723.45,84.75,774.58,84.63,775.09A7.51,7.51,0,0,1,77.34,780.85Z"/><path class="cls-2" d="M213.68,624.49A9.75,9.75,0,1,1,210.77,611,9.75,9.75,0,0,1,213.68,624.49Z"/><path class="cls-2" d="M589.83,1078.38a7.5,7.5,0,0,1-4.94-13.14c45.53-39.83,46.74-91.31,47.54-125.37v-.69c.24-10.18-4.7-20.92-4.75-21a7.5,7.5,0,0,1,13.58-6.37c.26.56,6.49,14,6.17,27.75l0,.69c-.81,34.46-2.16,92.13-52.65,136.31A7.48,7.48,0,0,1,589.83,1078.38Z"/><path class="cls-2" d="M617.08,887.65a9.74,9.74,0,1,0,10.77-8.6A9.75,9.75,0,0,0,617.08,887.65Z"/><path class="cls-9" d="M180,738.17a9.83,9.83,0,0,1-4.21,13.25l-28.53,15.09a9.85,9.85,0,0,1-13.34-4h0a9.84,9.84,0,0,1,4.22-13.26l28.53-15.08a9.83,9.83,0,0,1,13.33,4Z"/><path class="cls-4" d="M142.56,772.18A14.2,14.2,0,0,1,130,764.63,14.35,14.35,0,0,1,136,745.29l28.53-15.08a14.54,14.54,0,0,1,6.8-1.69,14.22,14.22,0,0,1,6.52,26.88l-28.53,15.09A14.72,14.72,0,0,1,142.56,772.18Zm28.81-34.66a5.47,5.47,0,0,0-2.59.65l-28.54,15.08a5.34,5.34,0,0,0-2.34,7.17,5.25,5.25,0,0,0,4.66,2.76,5.47,5.47,0,0,0,2.59-.65l28.53-15.09a5.32,5.32,0,0,0,2.34-7.17A5.21,5.21,0,0,0,171.37,737.52Z"/><path class="cls-9" d="M480.87,731.05a9.84,9.84,0,0,1,12.48-6.14L524,735a9.85,9.85,0,0,1,6.37,12.38h0a9.84,9.84,0,0,1-12.48,6.14l-30.65-10.14a9.84,9.84,0,0,1-6.36-12.37Z"/><path class="cls-4" d="M521,758.57a14.64,14.64,0,0,1-4.58-.74l-30.64-10.14a14.42,14.42,0,0,1-8.36-7.13,14.07,14.07,0,0,1-.86-10.92,14.23,14.23,0,0,1,13.59-9.74,14.53,14.53,0,0,1,4.57.74l30.65,10.13a14.23,14.23,0,0,1-4.37,27.8ZM490.19,728.9a5.27,5.27,0,0,0-5.05,3.56,5.14,5.14,0,0,0,.33,4,5.47,5.47,0,0,0,3.17,2.7l30.65,10.13a5.54,5.54,0,0,0,1.75.29,5.25,5.25,0,0,0,5-3.57,5.35,5.35,0,0,0-3.5-6.69l-30.64-10.13A5.52,5.52,0,0,0,490.19,728.9Z"/><path class="cls-14" d="M135.53,922.22a9.84,9.84,0,0,1-13.16,4.5L93.26,912.79a9.83,9.83,0,0,1-4.74-13.08h0a9.85,9.85,0,0,1,13.16-4.51l29.1,13.94a9.84,9.84,0,0,1,4.75,13.08Z"/><path class="cls-4" d="M126.7,932.21a14.38,14.38,0,0,1-6.27-1.43L91.32,916.85a14.43,14.43,0,0,1-7.39-8.13,14,14,0,0,1,.53-11,14.35,14.35,0,0,1,19.16-6.62l29.11,13.93a14.39,14.39,0,0,1,7.38,8.13,14.07,14.07,0,0,1-.52,10.95A14.34,14.34,0,0,1,126.7,932.21Zm-29.36-33.5a5.22,5.22,0,0,0-4.77,2.95,5.12,5.12,0,0,0-.18,4,5.45,5.45,0,0,0,2.81,3.08l29.11,13.93a5.43,5.43,0,0,0,2.39.55,5.21,5.21,0,0,0,4.77-2.94,5.12,5.12,0,0,0,.18-4,5.45,5.45,0,0,0-2.81-3.08L99.73,899.26A5.57,5.57,0,0,0,97.34,898.71Z"/><path class="cls-14" d="M363.25,696.36a9.84,9.84,0,0,1-9.84,9.83l-32.27.29a9.83,9.83,0,0,1-10-9.66h0A9.83,9.83,0,0,1,321,687l32.28-.28a9.84,9.84,0,0,1,10,9.66Z"/><path class="cls-4" d="M321.05,711a14.37,14.37,0,0,1-14.42-14.13,14,14,0,0,1,4.16-10.14,14.44,14.44,0,0,1,10.13-4.23l32.41-.28a14.25,14.25,0,1,1,.12,28.49Zm32.28-19.78-32.33.28a5.47,5.47,0,0,0-3.85,1.6,5.11,5.11,0,0,0-1.52,3.69,5.35,5.35,0,0,0,5.42,5.21v4.5l.05-4.5,32.27-.29a5.25,5.25,0,1,0,0-10.49Z"/><path class="cls-14" d="M751.37,790.17a9.85,9.85,0,0,1-10.22,9.44l-32.26-1a9.82,9.82,0,0,1-9.62-10h0a9.83,9.83,0,0,1,10.22-9.44l32.25,1a9.85,9.85,0,0,1,9.63,10Z"/><path class="cls-4" d="M741.46,804.11H741l-32.26-1a14.47,14.47,0,0,1-10-4.45,14.05,14.05,0,0,1-3.94-10.23,14.29,14.29,0,0,1,14.86-13.8l32.25,1a14.45,14.45,0,0,1,10,4.45,14.08,14.08,0,0,1,3.94,10.24A14.26,14.26,0,0,1,741.46,804.11Zm-32.29-20.48a5.3,5.3,0,0,0-5.4,5.08,5.12,5.12,0,0,0,1.44,3.73,5.46,5.46,0,0,0,3.82,1.68l32.43,1a5.31,5.31,0,0,0,5.41-5.08,5.12,5.12,0,0,0-1.45-3.73,5.46,5.46,0,0,0-3.81-1.68Z"/><path class="cls-15" d="M295.64,779.82a9.83,9.83,0,0,1-3.83,13.37L263.73,809.1a9.84,9.84,0,0,1-13.44-3.59h0a9.83,9.83,0,0,1,3.83-13.37l28.08-15.91a9.84,9.84,0,0,1,13.44,3.59Z"/><path class="cls-4" d="M258.78,814.91a14.27,14.27,0,0,1-12.41-7.18,14.08,14.08,0,0,1-1.28-10.89,14.41,14.41,0,0,1,6.81-8.62L280,772.32a14.59,14.59,0,0,1,7.17-1.9,14.26,14.26,0,0,1,12.41,7.19,14.05,14.05,0,0,1,1.27,10.88,14.4,14.4,0,0,1-6.8,8.62L266,813A14.58,14.58,0,0,1,258.78,814.91Zm28.37-35.49a5.5,5.5,0,0,0-2.73.73l-28.09,15.9a5.47,5.47,0,0,0-2.58,3.27,5.12,5.12,0,0,0,.45,4,5.25,5.25,0,0,0,4.58,2.62,5.5,5.5,0,0,0,2.73-.73l28.08-15.9a5.49,5.49,0,0,0,2.59-3.27,5.09,5.09,0,0,0-.46-4A5.25,5.25,0,0,0,287.15,779.42Z"/><path class="cls-15" d="M444.82,590.43a9.83,9.83,0,0,1-6.77,12.15l-31,9.09a9.83,9.83,0,0,1-12.27-6.56h0A9.84,9.84,0,0,1,401.59,593l31-9.09a9.83,9.83,0,0,1,12.27,6.55Z"/><path class="cls-4" d="M404.23,616.58a14.34,14.34,0,0,1-13.74-10.2,14.1,14.1,0,0,1,1.24-10.89,14.43,14.43,0,0,1,8.59-6.84l31-9.09a14.69,14.69,0,0,1,4.11-.59,14.34,14.34,0,0,1,13.74,10.2,14,14,0,0,1-1.24,10.89,14.37,14.37,0,0,1-8.59,6.84l-31,9.09A14.76,14.76,0,0,1,404.23,616.58ZM435.4,588a5.69,5.69,0,0,0-1.58.22l-31,9.09a5.53,5.53,0,0,0-3.26,2.59,5.14,5.14,0,0,0-.46,4,5.29,5.29,0,0,0,5.1,3.73,5.37,5.37,0,0,0,1.59-.23l31-9.09a5.46,5.46,0,0,0,3.26-2.59,5.11,5.11,0,0,0,.46-4A5.29,5.29,0,0,0,435.4,588Z"/><path class="cls-15" d="M632.67,665.26a9.84,9.84,0,0,1-7,12l-31.14,8.49A9.84,9.84,0,0,1,582.38,679h0a9.84,9.84,0,0,1,7-12l31.14-8.48a9.83,9.83,0,0,1,12.14,6.79Z"/><path class="cls-4" d="M591.86,690.62a14.23,14.23,0,0,1-3.65-28l31.14-8.48a14.25,14.25,0,1,1,7.49,27.49L595.7,690.1A14.33,14.33,0,0,1,591.86,690.62Zm31.33-28a5.79,5.79,0,0,0-1.48.2l-31.14,8.49a5.23,5.23,0,0,0,1.29,10.32,5.66,5.66,0,0,0,1.47-.2l31.14-8.49a5.23,5.23,0,0,0-1.28-10.32Z"/><path class="cls-16" d="M348.47,761.47a7.95,7.95,0,0,1-1.54-15.74,8.06,8.06,0,0,1,1.55-.15A7.95,7.95,0,0,1,350,761.32,8.06,8.06,0,0,1,348.47,761.47Z"/><path class="cls-16" d="M239.4,656.06a7.94,7.94,0,0,1-6.59-12.36,7.87,7.87,0,0,1,5.06-3.37,8.07,8.07,0,0,1,1.55-.16A7.95,7.95,0,0,1,241,655.91,8.24,8.24,0,0,1,239.4,656.06Z"/><path class="cls-16" d="M89,837.09a7.94,7.94,0,0,1-1.54-15.73A8.07,8.07,0,0,1,89,821.2a7.95,7.95,0,0,1,1.54,15.74A8.06,8.06,0,0,1,89,837.09Z"/><path class="cls-16" d="M452.91,663.69A7.95,7.95,0,0,1,451.37,648a8.06,8.06,0,0,1,1.55-.15,7.95,7.95,0,0,1,1.54,15.74A8.06,8.06,0,0,1,452.91,663.69Z"/><path class="cls-16" d="M591,766.24a7.95,7.95,0,0,1-1.54-15.74,8.14,8.14,0,0,1,1.55-.15,7.95,7.95,0,0,1,1.54,15.74A8.06,8.06,0,0,1,591,766.24Z"/><path class="cls-16" d="M701.57,720.53A7.95,7.95,0,0,1,700,704.79a8.06,8.06,0,0,1,1.55-.15,7.94,7.94,0,0,1,1.54,15.73A7.35,7.35,0,0,1,701.57,720.53Z"/><path class="cls-16" d="M788.73,835.75a8,8,0,0,1-7.78-6.4,7.94,7.94,0,0,1,6.24-9.33,8.14,8.14,0,0,1,1.55-.15,7.94,7.94,0,0,1,1.54,15.73A8.06,8.06,0,0,1,788.73,835.75Z"/><path class="cls-16" d="M534,591.41a7.95,7.95,0,0,1-1.54-15.74,8.06,8.06,0,0,1,1.55-.15,7.95,7.95,0,0,1,1.54,15.74A8.06,8.06,0,0,1,534,591.41Z"/><path class="cls-16" d="M203.49,806.09a8,8,0,0,1-7.78-6.4,8,8,0,0,1,6.25-9.34,8.06,8.06,0,0,1,1.55-.15,7.95,7.95,0,0,1,1.54,15.74A8.17,8.17,0,0,1,203.49,806.09Z"/><path class="cls-17" d="M394.09,1281.71a7.81,7.81,0,1,1,1.52-.15,7.82,7.82,0,0,1-1.52.15Z"/><path class="cls-17" d="M292.76,1157.42a7.8,7.8,0,0,1-6.48-12.14,7.83,7.83,0,0,1,6.49-3.46,7.8,7.8,0,0,1,0,15.6Z"/><path class="cls-17" d="M143.83,1113.77a7.8,7.8,0,1,1,1.53-.15,7.93,7.93,0,0,1-1.53.15Z"/><path class="cls-17" d="M510.46,1178.41a7.81,7.81,0,1,1,1.52-.15,7.81,7.81,0,0,1-1.52.15Z"/><path class="cls-17" d="M668.85,1092.64a7.8,7.8,0,1,1,6.49-3.46,7.83,7.83,0,0,1-6.49,3.46Z"/><path class="cls-17" d="M791.71,975.53a7.81,7.81,0,1,1,1.52-.15,7.82,7.82,0,0,1-1.52.15Z"/><path class="cls-17" d="M681.81,920.85a7.81,7.81,0,1,1,1.52-.15,7.8,7.8,0,0,1-1.52.15Z"/><path class="cls-17" d="M614.88,1233.45a7.8,7.8,0,0,1-7.64-6.28,7.81,7.81,0,0,1,6.13-9.17,7.79,7.79,0,0,1,9.17,6.14,7.81,7.81,0,0,1-7.66,9.31Z"/><path class="cls-17" d="M231.8,1005.18a7.83,7.83,0,1,1,1.52-.15,7.8,7.8,0,0,1-1.52.15Z"/><path class="cls-2" d="M1021.21,943.17S988.49,999,854.32,1007.58c-129.71,8.3-183.74-56.61-162.81-90.53,25.24-40.92,52.7-41.52,68.67-40.27,99.22,7.79,140.82-13,140.82-13l77.12,5.92Z"/><path class="cls-3" d="M691.51,917.05c-10,23.28-1.92,58.9,65.42,85.8,35.77-16.91,62.6-77.2,41-124C792,878,718.75,853.84,691.51,917.05Z"/><path class="cls-4" d="M851.35,1020.67c-78.84,0-139-20.83-161.76-56.27-11-17.12-12.22-36.65-3.46-55,9.5-19.89,22.12-31.74,39.72-37.31s38.66-4,58.7-1.49c84.08,10.63,150.91-26.83,151.57-27.21a7.5,7.5,0,0,1,7.44,13c-2.53,1.44-55.48,31.12-128.13,31.12a260.38,260.38,0,0,1-32.77-2c-43.76-5.54-67.34-2.4-83,30.38-6.53,13.68-5.65,27.67,2.55,40.44,9.3,14.48,27.24,26.71,51.87,35.35,27.93,9.8,64.07,14.62,104.48,14C962,1003.92,990.86,973,991.14,972.72a7.46,7.46,0,0,1,10.54-.82,7.54,7.54,0,0,1,.81,10.61c-1.26,1.48-32.15,36.27-143.68,38.1C856.31,1020.65,853.81,1020.67,851.35,1020.67Z"/><path class="cls-2" d="M786.09,906.1a6.41,6.41,0,1,1-.9-9A6.41,6.41,0,0,1,786.09,906.1Z"/><path class="cls-2" d="M710.78,934.58h0a5,5,0,0,1-5-5,32.83,32.83,0,0,1,12.64-25.79c11.36-9.18,28.6-12.45,46.12-8.74a5,5,0,0,1-2.07,9.79c-14.61-3.1-28.72-.58-37.77,6.73a22.73,22.73,0,0,0-8.92,18A5,5,0,0,1,710.78,934.58Z"/><path class="cls-2" d="M955.48,1238c-129.37,37.17-174.58,116.58-249.12,78.17-44.2-22.77-43.81-74.32-42.35-95.91,5.4-79.51,102.65-167.52,287.53-111.8"/><path class="cls-3" d="M839.39,1289.2a128.66,128.66,0,0,0,6.14-25.73c8.93-67.43-36.16-129-100.71-137.56a113.62,113.62,0,0,0-23.48-.66c-35.78,25.22-55,60.87-57.33,95-1.46,21.59-1.85,73.14,42.35,95.91C752.93,1340.14,788.05,1318.15,839.39,1289.2Z"/><path class="cls-2" d="M701.13,1246.61a6.6,6.6,0,1,0-7.52-5.53A6.6,6.6,0,0,0,701.13,1246.61Z"/><path class="cls-2" d="M698.88,1226.3a7.51,7.51,0,0,1-7.47-6.91c-2.43-30.32,28.62-58.23,30-59.41a7.5,7.5,0,0,1,10,11.22c-.29.26-26.79,24.16-25,47a7.5,7.5,0,0,1-6.87,8.07Z"/><path class="cls-4" d="M742.45,1332.45a84.46,84.46,0,0,1-39.52-9.64c-33.75-17.39-49.79-53-46.4-103.09,2.66-39.2,25.14-76.18,61.67-101.45,57.14-39.52,140.78-45.57,235.51-17a7.5,7.5,0,0,1-4.33,14.36c-90.27-27.2-169.34-21.88-222.64,15-32.76,22.66-52.9,55.51-55.24,90.13-2.07,30.41,2.9,70.5,38.3,88.74,41.17,21.21,86.39-4.17,138.77-33.56,35.64-20,76-42.67,120.74-53.24a7.5,7.5,0,1,1,3.45,14.59c-42.65,10.09-80.37,31.26-116.85,51.73-27.27,15.3-53,29.75-77.89,37.5C765.29,1330.46,753.53,1332.45,742.45,1332.45Z"/><path class="cls-2" d="M775.86,631.34c-8.81,14.16-38.41,11.65-66.11-5.6s-43-42.7-34.2-56.85,38.41-11.65,66.11,5.59S784.68,617.19,775.86,631.34Z"/><path class="cls-4" d="M786.84,637.18c-2.07-3.91-34,13.39-72.26-11.49-37.13-24.16-35.62-66-38.36-65.51-3.12.53-1.38,40,35.13,68.48C737,648.66,789.88,642.91,786.84,637.18Z"/><path class="cls-4" d="M762.48,650.1h0c-10.78,0-37.8-1.52-55.74-15.53-34.2-26.71-41.32-64-38.52-75,1.37-5.43,5.52-6.54,6.76-6.75a7.92,7.92,0,0,1,1.29-.1c6.79,0,8,6.45,9,11.64,2.21,11.42,7.37,38.17,33.37,55.08,13,8.44,26.31,12.53,40.81,12.53A101.48,101.48,0,0,0,777.84,630a44.38,44.38,0,0,1,7.25-.94c5.17,0,7.47,2.88,8.38,4.6a8.48,8.48,0,0,1-.24,8.4C789.24,648.7,774.31,650.1,762.48,650.1Z"/><path class="cls-4" d="M748,559.41a9.27,9.27,0,1,1-2.71-12.82A9.27,9.27,0,0,1,748,559.41Z"/><path class="cls-4" d="M780.68,580.67A9.27,9.27,0,1,1,778,567.84,9.27,9.27,0,0,1,780.68,580.67Z"/><path class="cls-2" d="M783.06,661.59c-8-1.17-12.63-14.79-10.35-30.43s10.6-27.38,18.6-26.22,12.62,14.79,10.34,30.43S791.05,662.75,783.06,661.59Z"/><path class="cls-4" d="M781.6,669.73c-.7-3.52-10.16-13.38-6.91-35.9,3.08-21.24,18.08-27.19,20.61-30.28,1.33-1.62-21.66,9.68-24.77,28.79C766.87,654.85,782.65,675,781.6,669.73Z"/><path class="cls-4" d="M781.39,678.07h0c-4,0-6.38-2.87-7.3-3.94-5.82-6.86-13.94-24.59-11-43,1.88-11.59,9.38-20.31,15.33-25.59.11-.1,10.94-9.65,16.81-9.65a7.64,7.64,0,0,1,6.86,4.32,7.55,7.55,0,0,1-1,8.08,21.3,21.3,0,0,1-4.32,3.69c-4.74,3.43-12.68,9.17-14.66,22.91-2.2,15.21,2.07,23.25,4.63,28.06a19.42,19.42,0,0,1,2.21,5.3,8.24,8.24,0,0,1-1.6,7A7.68,7.68,0,0,1,781.39,678.07Z"/></g></g></svg>