<svg xmlns="http://www.w3.org/2000/svg" width="508.715" height="454.55" viewBox="0 0 508.715 454.55">
  <g id="pizza" transform="translate(-0.005 0.001)">
    <g id="Layer_1" data-name="Layer 1" transform="translate(0.005 -0.001)">
      <path id="Path_1716" data-name="Path 1716" d="M85.408,683.208s-10.193,32.436,65.763-14.044,265.574-82,355.272-70.661,26.373-201.859-40.2-236.1S191.459,475.976,85.408,683.208Z" transform="translate(-68.917 -289.99)" fill="#f7af41"/>
      <g id="Group_146" data-name="Group 146" transform="translate(21.069 67.281)" opacity="0.3">
        <path id="Path_1717" data-name="Path 1717" d="M113.075,675.182s-16.234,39.613,59.73-6.867,265.574-82,355.272-70.661,26.373-201.859-40.2-236.1S219.126,467.95,113.075,675.182Z" transform="translate(-111.619 -356.421)" fill="#6c184e"/>
      </g>
      <path id="Path_1718" data-name="Path 1718" d="M97.432,679.136c-3.991,0-7.147-.944-9.489-2.845-7.158-5.789-3.286-17.083-3.118-17.555a3.32,3.32,0,0,1,.189-.43c48.743-95.25,111.635-164.982,155.81-206.7,55.979-52.868,115.051-91.869,162.066-107,27.135-8.734,48.628-9.185,63.884-1.342,24.17,12.427,49.391,47.977,67.469,95.082,17.712,46.157,23.53,91.573,15.182,118.525-6.018,19.428-18.863,29.525-37.361,29.527a56.851,56.851,0,0,1-7.132-.466C412.64,574.255,224.589,611.639,151.919,656.1,126.738,671.508,108.737,679.136,97.432,679.136Zm-6.088-17.893c-.647,2.035-1.669,7.486,1,9.627,2.237,1.8,12.883,5.614,55.932-20.727,36.005-22.029,99.291-42.975,173.639-57.461C393.9,578.654,462.639,573.536,505.806,579c18.8,2.367,31.241-5.767,36.949-24.2,7.907-25.527,2.148-69.194-15.03-113.958-17.215-44.868-41.8-79.88-64.149-91.374-13.355-6.865-33.6-6.252-58.554,1.78C358.964,366.068,300.86,404.5,245.61,456.676,201.867,497.99,139.617,567,91.344,661.243Z" transform="translate(-67.844 -273.95)" fill="#6c184e"/>
      <path id="Path_1719" data-name="Path 1719" d="M472.81,331.247c-10.541-2.424,1.051-6.384-12.925-20.321s-29.336-2.479-29.336-2.479c2.494-5.108,3.062-9.852.378-13.6-12.028-16.847-43.605-6.3-55.159-19.82S336.62,273.9,336.62,273.9,171.855,372.249,124.686,485.528s-43.56,148.044-23.06,140.2,35.611-25.516,50.623-11.592-3.734,40.037,14.418,52.9c10.167,7.2,33.7-5.729,22.393-25.03s-26.29-55.077-.919-74.27,83.624-29.4,80.182-2.454c-8.529,66.8,62.544,38.473,40.47,10.244-18.745-23.973-1.51-66.068,40.3-42.89,35.084,19.443,30.624-7.034,65.232-18.4,25.816-8.481,73.319-8.759,73.319-8.759,33.338-19.581,3.209-29.244,3.209-29.244s27.937-21.519,20.929-36.368-3.609-38.272-2.99-61.972S483.352,333.664,472.81,331.247Z" transform="translate(-70.775 -217.987)" fill="#ffce00"/>
      <g id="Group_147" data-name="Group 147" transform="translate(18.085 50.724)" opacity="0.3">
        <path id="Path_1720" data-name="Path 1720" d="M479.759,331.247c-10.541-2.424,1.051-6.384-12.925-20.321s-29.336-2.479-29.336-2.479c2.494-5.108,3.062-9.852.378-13.6-12.028-16.847-43.605-6.3-55.159-19.82S343.57,273.9,343.57,273.9s-3.832,2.288-10.486,6.56c51.548,13.548,157.941,56.975,138.355,211.579,0,0-205.767,14.765-262.335,49.921-40.685,25.295-81.574,72.815-113.294,78.914,2.265,5.81,6.8,7.143,12.761,4.863,20.5-7.841,35.611-25.516,50.623-11.592s-3.728,40.022,14.424,52.889c10.167,7.2,33.7-5.729,22.393-25.03s-26.29-55.077-.919-74.27,83.624-29.4,80.182-2.454c-8.528,66.8,62.544,38.473,40.47,10.244-18.745-23.973-1.51-66.068,40.3-42.89,35.084,19.443,30.624-7.034,65.232-18.4,25.816-8.481,73.319-8.759,73.319-8.759,33.338-19.581,3.209-29.244,3.209-29.244s27.937-21.519,20.929-36.368-3.609-38.272-2.99-61.972S490.3,333.664,479.759,331.247Z" transform="translate(-95.81 -268.711)" fill="#6c184e"/>
      </g>
      <g id="Group_148" data-name="Group 148" transform="translate(16.472 50.723)" opacity="0.65">
        <path id="Path_1721" data-name="Path 1721" d="M2155.86,611.378a19.273,19.273,0,0,1,3.077,1.04,49.765,49.765,0,0,0-8.117-4.908C2151.052,609.333,2151.873,610.47,2155.86,611.378Z" transform="translate(-1761.29 -543.555)" fill="#fff"/>
        <path id="Path_1722" data-name="Path 1722" d="M2273.289,1395.894l-.189-.174-.1.077Z" transform="translate(-1860.406 -1182.977)" fill="#fff"/>
        <path id="Path_1723" data-name="Path 1723" d="M1953.63,465.516s9.008-6.7,19.5-3.587c-6.086-5.621-12.366-6.607-17.482-5.948C1956.092,458.87,1955.293,462.111,1953.63,465.516Z" transform="translate(-1601.323 -420.485)" fill="#fff"/>
        <path id="Path_1724" data-name="Path 1724" d="M1709.1,343.928c-10.426-10.042-30.027-7.1-43.322-11.3C1674.8,342.336,1694.786,338.893,1709.1,343.928Z" transform="translate(-1367.809 -320.563)" fill="#fff"/>
        <path id="Path_1725" data-name="Path 1725" d="M336.644,273.891s-73.33,43.771-136.156,106.547a25.041,25.041,0,0,0-5.416,5.486c-29.214,30.014-55.571,64.069-70.363,99.593C80.42,591.9,80.9,629.038,98.094,626.675c-5.931-13.687,1.767-54.554,35.624-135.857,12.734-30.58,34.042-60.079,58.363-86.833a9.692,9.692,0,0,0,1.9,2.475c5.4,5,15.5,2.867,22.558-4.761s8.4-17.871,3-22.867a9.554,9.554,0,0,0-1.722-1.242c60.8-58.382,123.58-103.108,123.58-103.108s21.316-2.949,34.225.349C363.968,261.623,336.644,273.891,336.644,273.891Z" transform="translate(-87.266 -268.706)" fill="#fff"/>
      </g>
      <path id="Path_1726" data-name="Path 1726" d="M159.073,657.538a15.51,15.51,0,0,1-9.029-2.652c-11.056-7.836-10.382-19.82-9.78-30.414.5-8.863.974-17.234-4.995-22.769-8.385-7.775-16.434-3.841-29.938,3.775a126.367,126.367,0,0,1-17.064,8.508c-7.424,2.831-11.855.478-14.263-2-15.383-15.841,9.374-86.391,32.859-142.8C131.5,410,188.254,355.133,231.531,319.532A816.208,816.208,0,0,1,320.238,255.9c.117-.068.236-.13.359-.189,1.225-.549,30.127-13.289,43.228,2.039,4.53,5.3,13.591,6.25,23.194,7.256,11.658,1.221,24.87,2.6,32.151,12.8a13.108,13.108,0,0,1,2.373,9c7.313-2.316,17.308-2.227,26.2,6.643,8.372,8.349,8.64,13.969,8.8,17.321.021.432.047,1,.1,1.286a8.482,8.482,0,0,0,2.348.783h0c12.142,2.79,39.345,24.628,38.678,50.144-.136,5.236-.408,10.471-.67,15.534-.91,17.508-1.769,34.046,3.328,44.857,6.331,13.433-9.3,29.655-17.546,36.953,3.987,2.224,8.744,6.04,9.378,11.754.785,7.084-4.889,14.086-17.35,21.4a3.481,3.481,0,0,1-1.746.481c-.47,0-47.26.378-72.25,8.583-12.447,4.091-19.443,10.12-25.595,15.439-11.468,9.9-19.653,15.326-42.418,2.7-15.6-8.647-29.019-8.374-36.809.755-8.172,9.57-7.751,25.793.959,36.932,6.38,8.16,6.667,17.7.755,25.506-7.173,9.485-21.085,13.527-31.688,9.208-7.551-3.079-19.647-12.793-15.758-43.248.566-4.413-.849-7.437-4.444-9.52-13.253-7.677-50.635.415-70.17,15.194-24.411,18.465-6.856,54.908,1.823,69.721,5.572,9.508,4.432,19.281-3.049,26.14A23.209,23.209,0,0,1,159.073,657.538ZM125.6,590.5c4.84,0,9.659,1.68,14.41,6.088,8.376,7.77,7.76,18.667,7.217,28.281-.566,10.046-1.057,18.722,6.848,24.325,3.79,2.686,10.948,1.336,15.62-2.95,2.911-2.669,7.007-8.495,1.744-17.469-9.627-16.423-28.881-56.974-.013-78.816,20.058-15.173,60.749-25.591,77.879-15.668,6.073,3.519,8.793,9.2,7.87,16.442-2.454,19.143,1.629,31.892,11.469,35.9,7.685,3.132,18.22.015,23.484-6.952,2.312-3.06,5.3-9.338-.695-17-10.68-13.657-11.016-33.759-.768-45.763,10-11.7,27.009-12.581,45.508-2.328,19.662,10.9,24.611,6.629,34.473-1.888,6.327-5.463,14.2-12.27,27.977-16.785,24.313-7.989,66.378-8.838,73.43-8.925,11.973-7.2,13.393-11.932,13.153-14.137-.464-4.262-7.592-7.505-10.052-8.306a3.494,3.494,0,0,1-1.059-6.086c6.667-5.142,24.632-22.086,19.9-32.115-5.852-12.4-4.94-29.786-3.985-48.194.26-5.019.53-10.21.664-15.356.553-21.231-23.407-40.893-33.266-43.16-6.327-1.453-7.641-4.123-7.853-8.538-.126-2.643-.3-6.273-6.756-12.71-11.609-11.577-24.264-2.535-24.8-2.146A3.492,3.492,0,0,1,412.8,291.9c3.188-6.529,1.3-9.176.68-10.044-5.455-7.641-16.017-8.747-27.2-9.92-10.537-1.1-21.433-2.244-27.773-9.661-8.015-9.378-27.707-3.462-34.878-.291a812.428,812.428,0,0,0-87.758,63c-42.622,35.09-98.487,89.045-122.566,146.879-17.263,41.457-28.687,74.68-33.953,98.749-5.94,27.154-2.22,34.578-.344,36.509.515.529,2.076,2.139,6.762.349A121.052,121.052,0,0,0,101.9,599.4c7.809-4.408,15.783-8.91,23.705-8.91Z" transform="translate(-56.168 -202.987)" fill="#6c184e"/>
      <path id="Path_1727" data-name="Path 1727" d="M1540.06,1448.408c19.934-3.587,39.943-6.83,60.064-9.438,10.061-1.3,20.151-2.431,30.28-3.317s20.294-1.521,30.516-1.716a3.055,3.055,0,0,1,.117,6.109h-.162c-10.029-.311-20.107-.189-30.188.189s-20.168.995-30.248,1.782C1580.279,1443.6,1560.149,1445.818,1540.06,1448.408Z" transform="translate(-1249.349 -1163.257)" fill="#6c184e"/>
      <g id="Group_149" data-name="Group 149" transform="translate(355.069 72.017)" opacity="0.3">
        <path id="Path_1728" data-name="Path 1728" d="M1881,381.8s.1-.076.281-.189c-.047-.034-.094-.07-.142-.1C1881.094,381.6,1881.051,381.7,1881,381.8Z" transform="translate(-1881 -381.51)" fill="#6c184e"/>
        <path id="Path_1729" data-name="Path 1729" d="M2289.589,749.11c-.619,23.7-4.015,47.112,2.99,61.972a11.673,11.673,0,0,1,.831,2.454c-1.321-13.429.451-29.782.882-46.276a38.037,38.037,0,0,0-4.706-18.59C2289.583,748.81,2289.593,748.955,2289.589,749.11Z" transform="translate(-2211.353 -679.362)" fill="#6c184e"/>
        <path id="Path_1730" data-name="Path 1730" d="M2222.482,1105.69c.189,14.246-22.052,31.381-22.052,31.381s11.653,3.738,12.458,11.273c7.681-7.56,17.7-19.911,13.182-29.495A44.288,44.288,0,0,1,2222.482,1105.69Z" transform="translate(-2140.132 -968.989)" fill="#6c184e"/>
      </g>
      <ellipse id="Ellipse_44" data-name="Ellipse 44" cx="50.778" cy="40.524" rx="50.778" ry="40.524" transform="matrix(0.84, -0.543, 0.543, 0.84, 223.556, 119.667)" fill="#ee1822"/>
      <g id="Group_150" data-name="Group 150" transform="translate(240.217 82.318)" opacity="0.65">
        <path id="Path_1731" data-name="Path 1731" d="M1327.954,519.88c-24.906,6.452-46.759-6.052-48.815-27.937s16.47-44.847,41.374-51.3c18.31-4.747,34.971.768,43.326,12.717-8.345-14.04-26.818-20.764-47.233-15.479-26.412,6.845-46.059,31.2-43.877,54.4s25.355,36.47,51.767,29.627a61.992,61.992,0,0,0,19.215-8.746A58.287,58.287,0,0,1,1327.954,519.88Z" transform="translate(-1272.563 -436.084)" fill="#fff"/>
      </g>
      <path id="Path_1732" data-name="Path 1732" d="M1547.8,495.552l5.767,61.4c16.125-7.054,27.305-22.933,25.876-38.152S1564.449,494.114,1547.8,495.552Z" transform="translate(-1255.628 -401.891)" fill="#bd1622"/>
      <path id="Path_1733" data-name="Path 1733" d="M1362.74,516.72c-15.73,7.209-26.554,22.841-25.147,37.823s14.582,24.4,30.888,23.3Z" transform="translate(-1085.001 -419.18)" fill="#bd1622"/>
      <path id="Path_1734" data-name="Path 1734" d="M1362.74,516.72c-15.73,7.209-26.554,22.841-25.147,37.823s14.582,24.4,30.888,23.3Z" transform="translate(-1085.001 -419.18)" fill="#bd1622"/>
      <path id="Path_1735" data-name="Path 1735" d="M1447.467,625.2c-5.153,2.362-8.7,7.481-8.24,12.393s4.778,7.992,10.12,7.634Z" transform="translate(-1167.518 -507.183)" fill="#ee1822"/>
      <path id="Path_1736" data-name="Path 1736" d="M1556.59,606.019c5.342-.359,9.659,2.726,10.12,7.636s-3.084,10.031-8.24,12.393Z" transform="translate(-1262.759 -491.599)" fill="#ee1822"/>
      <path id="Path_1737" data-name="Path 1737" d="M1298.087,514a44.6,44.6,0,0,1-25.769-7.645,35.871,35.871,0,0,1-15.252-26.45c-2.3-24.549,18.367-50.363,46.082-57.546,14.852-3.851,29.506-1.75,40.207,5.757a35.874,35.874,0,0,1,15.252,26.45c2.3,24.54-18.367,50.365-46.082,57.546A57.6,57.6,0,0,1,1298.087,514Zm19.511-87.6a51.805,51.805,0,0,0-12.965,1.7c-25.021,6.486-43.713,29.476-41.668,51.256A30.035,30.035,0,0,0,1275.72,501.5c9.276,6.509,22.148,8.281,35.318,4.872,25.021-6.484,43.715-29.478,41.668-51.261a30.034,30.034,0,0,0-12.757-22.156A38.7,38.7,0,0,0,1317.6,426.394Z" transform="translate(-1019.632 -341.1)" fill="#6c184e"/>
      <path id="Path_1738" data-name="Path 1738" d="M1428.509,769.55a17.96,17.96,0,0,1,.774,2.594,7.881,7.881,0,0,1,.289,2.488,2.137,2.137,0,1,1-4.261-.325,2.207,2.207,0,0,1,.125-.566,7.862,7.862,0,0,1,1.293-2.144A18.15,18.15,0,0,1,1428.509,769.55Z" transform="translate(-1156.255 -624.284)" fill="#f6c547"/>
      <path id="Path_1739" data-name="Path 1739" d="M1382.8,736.76a18.315,18.315,0,0,1-.6,2.643,7.96,7.96,0,0,1-.97,2.324,2.135,2.135,0,1,1-3.558-2.362,2.265,2.265,0,0,1,.377-.438,8,8,0,0,1,2.184-1.252A18.5,18.5,0,0,1,1382.8,736.76Z" transform="translate(-1117.33 -597.684)" fill="#f6c547"/>
      <path id="Path_1740" data-name="Path 1740" d="M1368.257,680.913a16.69,16.69,0,0,1-1.722,1.888,6.983,6.983,0,0,1-1.863,1.406,2.141,2.141,0,1,1-1.827-3.872,2.241,2.241,0,0,1,.608-.189,6.909,6.909,0,0,1,2.329.143A16.437,16.437,0,0,1,1368.257,680.913Z" transform="translate(-1104.59 -551.724)" fill="#f6c547"/>
      <path id="Path_1741" data-name="Path 1741" d="M1390.154,614.56a15.1,15.1,0,0,1-2.363.466,6.087,6.087,0,0,1-2.18,0,2.144,2.144,0,1,1,.925-4.187,2.256,2.256,0,0,1,.638.253,6.124,6.124,0,0,1,1.582,1.51A15.089,15.089,0,0,1,1390.154,614.56Z" transform="translate(-1122.689 -495.491)" fill="#f6c547"/>
      <path id="Path_1742" data-name="Path 1742" d="M1441,568.077a15.687,15.687,0,0,1-2.156-1.242,6.606,6.606,0,0,1-1.72-1.478,2.142,2.142,0,1,1,3.413-2.588,2.2,2.2,0,0,1,.312.578,6.563,6.563,0,0,1,.294,2.248A16.137,16.137,0,0,1,1441,568.077Z" transform="translate(-1165.459 -455.808)" fill="#f6c547"/>
      <path id="Path_1743" data-name="Path 1743" d="M1623.98,721.62a16.231,16.231,0,0,1,2.076,1.448,6.891,6.891,0,0,1,1.631,1.652,2.141,2.141,0,0,1-3.6,2.318,2.22,2.22,0,0,1-.26-.581,6.853,6.853,0,0,1-.155-2.316A16.353,16.353,0,0,1,1623.98,721.62Z" transform="translate(-1317.148 -585.402)" fill="#f6c547"/>
      <path id="Path_1744" data-name="Path 1744" d="M1653,670.788a14.832,14.832,0,0,1,2.4-.228,6.027,6.027,0,0,1,2.169.213,2.143,2.143,0,0,1-1.34,4.072,2.234,2.234,0,0,1-.608-.315,6.075,6.075,0,0,1-1.423-1.652A15.088,15.088,0,0,1,1653,670.788Z" transform="translate(-1340.97 -543.963)" fill="#f6c547"/>
      <path id="Path_1745" data-name="Path 1745" d="M1652.31,603.09a15.932,15.932,0,0,1,1.793-1.725,6.55,6.55,0,0,1,1.9-1.238,2.141,2.141,0,0,1,1.535,4,2.208,2.208,0,0,1-.642.138,6.512,6.512,0,0,1-2.241-.344A15.875,15.875,0,0,1,1652.31,603.09Z" transform="translate(-1340.41 -486.726)" fill="#f6c547"/>
      <path id="Path_1746" data-name="Path 1746" d="M1623.75,550.351a17.855,17.855,0,0,1,.679-2.579,7.714,7.714,0,0,1,1.035-2.233,2.138,2.138,0,0,1,3.456,2.516,2.244,2.244,0,0,1-.415.429,7.632,7.632,0,0,1-2.2,1.106A17.586,17.586,0,0,1,1623.75,550.351Z" transform="translate(-1317.241 -441.846)" fill="#f6c547"/>
      <path id="Path_1747" data-name="Path 1747" d="M1573.508,531.341a18.512,18.512,0,0,1-.668-2.643,7.974,7.974,0,0,1-.189-2.509,2.135,2.135,0,1,1,4.242.5,2.27,2.27,0,0,1-.145.566,8.023,8.023,0,0,1-1.382,2.1A18.121,18.121,0,0,1,1573.508,531.341Z" transform="translate(-1275.766 -425.331)" fill="#f6c547"/>
      <path id="Path_1748" data-name="Path 1748" d="M1540.839,547.169a2.962,2.962,0,0,1-2.95-2.684l-5.765-61.4a2.96,2.96,0,0,1,2.694-3.228c18.637-1.618,33.285,9.291,34.846,25.92,1.51,16.172-10.1,33.474-27.637,41.151A2.989,2.989,0,0,1,1540.839,547.169Zm-2.526-61.538,5.072,54.014c13.147-7.3,21.559-20.764,20.387-33.31-1.159-12.345-11.641-20.7-25.408-20.7Z" transform="translate(-1242.9 -389.148)" fill="#bd1622"/>
      <path id="Path_1749" data-name="Path 1749" d="M1353.2,568.158c-16.872,0-29.838-10.628-31.288-26.074-1.51-16.079,9.536-32.845,26.861-40.792a2.964,2.964,0,0,1,4.191,2.414l5.74,61.126a2.962,2.962,0,0,1-2.75,3.234C1355.018,568.128,1354.093,568.158,1353.2,568.158Zm-5.731-59.524c-12.7,7.394-20.806,20.668-19.658,32.894s11.137,20.453,24.691,20.7Z" transform="translate(-1072.266 -406.444)" fill="#bd1622"/>
      <ellipse id="Ellipse_45" data-name="Ellipse 45" cx="47.431" cy="37.855" rx="47.431" ry="37.855" transform="matrix(0.841, -0.541, 0.541, 0.841, 121.314, 230.013)" fill="#ee1822"/>
      <g id="Group_151" data-name="Group 151" transform="translate(137.448 194.614)" opacity="0.65">
        <path id="Path_1750" data-name="Path 1750" d="M779.96,1109.362c-23.3,6.041-43.741-5.663-45.663-26.125s15.405-41.95,38.7-47.986c17.132-4.44,32.711.719,40.526,11.892-7.807-13.134-25.087-19.43-44.183-14.48-24.706,6.4-43.08,29.183-41.042,50.886s23.717,34.106,48.422,27.705a57.949,57.949,0,0,0,17.973-8.181A54.461,54.461,0,0,1,779.96,1109.362Z" transform="translate(-728.141 -1030.978)" fill="#fff"/>
      </g>
      <path id="Path_1751" data-name="Path 1751" d="M985.63,1086.586l5.393,57.43c15.082-6.607,25.542-21.451,24.206-35.686S1001.205,1085.232,985.63,1086.586Z" transform="translate(-799.577 -881.364)" fill="#bd1622"/>
      <path id="Path_1752" data-name="Path 1752" d="M812.517,1106.39c-14.724,6.743-24.84,21.361-23.522,35.38s13.64,22.82,28.893,21.8Z" transform="translate(-639.966 -897.54)" fill="#bd1622"/>
      <path id="Path_1753" data-name="Path 1753" d="M812.517,1106.39c-14.724,6.743-24.84,21.361-23.522,35.38s13.64,22.82,28.893,21.8Z" transform="translate(-639.966 -897.54)" fill="#bd1622"/>
      <path id="Path_1754" data-name="Path 1754" d="M891.773,1207.86c-4.819,2.209-8.138,7-7.705,11.592s4.468,7.477,9.467,7.141Z" transform="translate(-717.155 -979.856)" fill="#ee1822"/>
      <path id="Path_1755" data-name="Path 1755" d="M993.85,1189.887c5-.334,9.034,2.55,9.465,7.143s-2.884,9.382-7.705,11.592Z" transform="translate(-806.245 -965.255)" fill="#ee1822"/>
      <path id="Path_1756" data-name="Path 1756" d="M750.823,1102.914a42.014,42.014,0,0,1-24.268-7.2,33.865,33.865,0,0,1-14.386-24.948c-2.169-23.1,17.263-47.38,43.316-54.129,13.969-3.621,27.768-1.642,37.844,5.427a33.862,33.862,0,0,1,14.384,24.947h0c2.169,23.1-17.263,47.38-43.314,54.129A54.253,54.253,0,0,1,750.823,1102.914Zm18.25-81.945a48.165,48.165,0,0,0-12.056,1.582c-23.277,6.041-40.668,27.405-38.767,47.645a27.819,27.819,0,0,0,11.813,20.519c8.61,6.041,20.576,7.685,32.8,4.515,23.277-6.031,40.668-27.405,38.767-47.645h0a27.82,27.82,0,0,0-11.813-20.521,35.9,35.9,0,0,0-20.747-6.1Z" transform="translate(-577.603 -823.292)" fill="#6c184e"/>
      <path id="Path_1757" data-name="Path 1757" d="M903.046,1347.6a16.956,16.956,0,0,1,1.195,2.077,7.778,7.778,0,0,1,.787,2.093,1.759,1.759,0,1,1-3.462.627,1.842,1.842,0,0,1-.022-.43,7.738,7.738,0,0,1,.546-2.169A16.883,16.883,0,0,1,903.046,1347.6Z" transform="translate(-731.36 -1093.218)" fill="#f6c547"/>
      <path id="Path_1758" data-name="Path 1758" d="M850.984,1330.73a18.162,18.162,0,0,1-.057,2.5,8.51,8.51,0,0,1-.423,2.311,1.757,1.757,0,0,1-3.3-1.212,1.934,1.934,0,0,1,.189-.364,8.533,8.533,0,0,1,1.614-1.7A18.463,18.463,0,0,1,850.984,1330.73Z" transform="translate(-687.209 -1079.532)" fill="#f6c547"/>
      <path id="Path_1759" data-name="Path 1759" d="M821.733,1289a17.054,17.054,0,0,1-1.206,2.076,7.836,7.836,0,0,1-1.431,1.742,1.759,1.759,0,0,1-2.276-2.681,1.877,1.877,0,0,1,.357-.234,7.884,7.884,0,0,1,2.165-.627A17.152,17.152,0,0,1,821.733,1289Z" transform="translate(-662.163 -1045.68)" fill="#f6c547"/>
      <path id="Path_1760" data-name="Path 1760" d="M825.156,1229.031a14.748,14.748,0,0,1-1.98,1.021,6.585,6.585,0,0,1-1.967.61,1.761,1.761,0,1,1-.378-3.5,1.782,1.782,0,0,1,.472.015,6.606,6.606,0,0,1,1.927.723A15.025,15.025,0,0,1,825.156,1229.031Z" transform="translate(-664.611 -995.506)" fill="#f6c547"/>
      <path id="Path_1761" data-name="Path 1761" d="M860.813,1173.98a14.442,14.442,0,0,1-2.137-.479,6.355,6.355,0,0,1-1.861-.783,1.761,1.761,0,1,1,2.341-2.588,6.4,6.4,0,0,1,.966,1.774A14.718,14.718,0,0,1,860.813,1173.98Z" transform="translate(-694.454 -948.738)" fill="#f6c547"/>
      <path id="Path_1762" data-name="Path 1762" d="M1057.588,1298.05a15.9,15.9,0,0,1,1.816,1.414,7.165,7.165,0,0,1,1.444,1.582,1.76,1.76,0,1,1-3,1.844,1.876,1.876,0,0,1-.189-.413,7.1,7.1,0,0,1-.225-2.129A15.568,15.568,0,0,1,1057.588,1298.05Z" transform="translate(-857.823 -1053.021)" fill="#f6c547"/>
      <path id="Path_1763" data-name="Path 1763" d="M1084,1251.1a14.781,14.781,0,0,1,2.177-.085,6.292,6.292,0,0,1,1.988.279,1.763,1.763,0,0,1-1.176,3.322,1.9,1.9,0,0,1-.43-.225,6.266,6.266,0,0,1-1.372-1.465A14.423,14.423,0,0,1,1084,1251.1Z" transform="translate(-879.378 -1014.855)" fill="#f6c547"/>
      <path id="Path_1764" data-name="Path 1764" d="M1083.38,1188.285a15.2,15.2,0,0,1,1.7-1.471,6.856,6.856,0,0,1,1.8-1.072,1.761,1.761,0,1,1,1.191,3.315,1.942,1.942,0,0,1-.453.1,6.78,6.78,0,0,1-2.077-.234A15.123,15.123,0,0,1,1083.38,1188.285Z" transform="translate(-878.875 -961.829)" fill="#f6c547"/>
      <path id="Path_1765" data-name="Path 1765" d="M1056.67,1139.091a17.094,17.094,0,0,1,.74-2.312,8,8,0,0,1,1.033-2.027,1.758,1.758,0,0,1,2.8,2.125,1.88,1.88,0,0,1-.294.3,8.048,8.048,0,0,1-1.993,1.1A17.217,17.217,0,0,1,1056.67,1139.091Z" transform="translate(-857.207 -919.983)" fill="#f6c547"/>
      <path id="Path_1766" data-name="Path 1766" d="M1010.584,1121.406a18.3,18.3,0,0,1-.485-2.428,8.366,8.366,0,0,1-.087-2.326,1.757,1.757,0,1,1,3.379.876,8.367,8.367,0,0,1-1.206,1.99A17.827,17.827,0,0,1,1010.584,1121.406Z" transform="translate(-819.321 -904.633)" fill="#f6c547"/>
      <path id="Path_1767" data-name="Path 1767" d="M977.9,1133.936a3.048,3.048,0,0,1-3.039-2.767l-5.4-57.432a3.054,3.054,0,0,1,2.779-3.328c17.58-1.525,31.424,8.785,32.9,24.5,1.431,15.243-9.512,31.547-26.02,38.771A3.081,3.081,0,0,1,977.9,1133.936Zm-2.052-57.564,4.676,49.783c11.987-6.824,19.62-19.167,18.541-30.673C998,1084.168,988.439,1076.481,975.845,1076.372Z" transform="translate(-786.451 -868.23)" fill="#bd1622"/>
      <path id="Path_1768" data-name="Path 1768" d="M802.368,1153.578c-15.93,0-28.175-10.046-29.546-24.645-1.423-15.158,8.978-30.958,25.295-38.442a3.056,3.056,0,0,1,4.313,2.49l5.369,57.179a3.05,3.05,0,0,1-2.832,3.332Q803.65,1153.58,802.368,1153.578Zm-5.6-55.5c-11.562,6.909-18.924,19.073-17.867,30.28s10.127,18.75,22.5,19.1Z" transform="translate(-626.835 -884.417)" fill="#bd1622"/>
      <path id="Path_1769" data-name="Path 1769" d="M511.921,1215.25c-32.262,1.321-32.9,17.684-22.652,42.922C508.648,1250.079,521.474,1235.852,511.921,1215.25Z" transform="translate(-392.149 -985.851)" fill="#48c75a"/>
      <path id="Path_1770" data-name="Path 1770" d="M474.45,1250.686a3.049,3.049,0,0,1-2.888-2.065c-4.927-14.407-8.538-29.095-1.657-38.939,4.787-6.847,13.918-10.32,27.917-10.618a3.02,3.02,0,0,1,2.8,1.686c4.075,8.089,4.781,16.1,2.1,23.8-3.587,10.293-13.17,19.477-26.977,25.861a3.039,3.039,0,0,1-1.291.272Zm21.519-45.451c-10.775.493-17.676,3.1-21.064,7.947-4.859,6.95-2.329,18.831,1.331,30.167,10.5-5.5,17.965-12.968,20.7-20.813a23.169,23.169,0,0,0-.961-17.3Z" transform="translate(-378.114 -972.719)" fill="#661a47"/>
      <path id="Path_1771" data-name="Path 1771" d="M553.83,1205.319a27.751,27.751,0,0,0-6.031,3.775,39.591,39.591,0,0,0-5.444,5.437,62.223,62.223,0,0,0-8.495,14.11,34.613,34.613,0,0,1,1.17-8.579,39.262,39.262,0,0,1,3.181-8.245,28.642,28.642,0,0,1,5.387-7.4,18.93,18.93,0,0,1,8.287-4.88,3.062,3.062,0,0,1,2.046,5.744Z" transform="translate(-433.086 -973.027)" fill="#651b47"/>
      <path id="Path_1772" data-name="Path 1772" d="M943.88,722.18c28.562-15.062,37.331-1.236,41.151,25.733C964.21,750.649,945.979,744.794,943.88,722.18Z" transform="translate(-765.708 -580.823)" fill="#48c75a"/>
      <path id="Path_1773" data-name="Path 1773" d="M967.189,739.7c-12.113,0-22.363-3.162-29.334-9.14-6.2-5.314-9.608-12.593-10.148-21.635a3.051,3.051,0,0,1,1.572-2.852c12.251-6.777,21.9-8.36,29.47-4.846,10.894,5.055,15.152,19.569,18.122,34.5a3.052,3.052,0,0,1-2.711,3.637C971.786,739.59,969.455,739.7,967.189,739.7Zm-33.215-29.227a23.178,23.178,0,0,0,7.856,15.443c6.307,5.41,16.519,8.117,28.353,7.6-2.529-11.641-6.31-23.184-14-26.754C950.814,704.277,943.537,705.493,933.974,710.473Z" transform="translate(-752.583 -567.387)" fill="#661a47"/>
      <path id="Path_1774" data-name="Path 1774" d="M931.06,730.429a18.939,18.939,0,0,1,9.627.055,28.813,28.813,0,0,1,8.374,3.69,39.319,39.319,0,0,1,6.89,5.537,34.069,34.069,0,0,1,5.321,6.831,61.964,61.964,0,0,0-14.429-7.938,39.681,39.681,0,0,0-7.437-1.965,27.805,27.805,0,0,0-7.107-.228l-.109.011a3.062,3.062,0,0,1-1.129-5.993Z" transform="translate(-753.501 -592.063)" fill="#651b47"/>
      <path id="Path_1775" data-name="Path 1775" d="M1430.207,1239.215c-22.123-20.513-33.387-10.161-43.367,13.25C1404.965,1259.98,1422.842,1259.113,1430.207,1239.215Z" transform="translate(-1125.052 -996.373)" fill="#48c75a"/>
      <path id="Path_1776" data-name="Path 1776" d="M1381.845,1248.068a58.32,58.32,0,0,1-20.092-3.945,2.854,2.854,0,0,1-1.563-3.94c6.3-12.753,13.665-24.817,24.729-26.739,7.688-1.344,16,2.429,25.419,11.515a2.856,2.856,0,0,1,.727,2.956c-2.677,8.028-7.52,13.769-14.4,17.063A34.182,34.182,0,0,1,1381.845,1248.068Zm-15.079-8.255c10.56,3.339,20.425,3.366,27.426.015a21.689,21.689,0,0,0,10.831-12.032c-7.422-6.818-13.691-9.674-19.139-8.73-7.807,1.363-14.016,10.864-19.118,20.753Z" transform="translate(-1103.193 -984.172)" fill="#661a47"/>
      <path id="Path_1777" data-name="Path 1777" d="M1486.89,1268.274a25.909,25.909,0,0,0-6.469-1.51,36.966,36.966,0,0,0-7.188-.028,57.922,57.922,0,0,0-14.943,3.666,32.074,32.074,0,0,1,6.458-4.876,36.711,36.711,0,0,1,7.551-3.326,26.8,26.8,0,0,1,8.451-1.3,17.621,17.621,0,0,1,8.683,2.28,2.86,2.86,0,0,1-2.454,5.138Z" transform="translate(-1183.014 -1022.877)" fill="#651b47"/>
      <path id="Path_1778" data-name="Path 1778" d="M267.222,1560.79c1.746.1,3.4.249,5.085.438s3.37.425,5.07.727a46.984,46.984,0,0,1,5.165,1.174,21.869,21.869,0,0,1,5.516,2.318l.225.138a4.245,4.245,0,1,1-4.448,7.232,4.611,4.611,0,0,1-.643-.486,13.9,13.9,0,0,0-3.285-1.952,40.073,40.073,0,0,0-4.225-1.637c-1.472-.491-2.984-.944-4.517-1.338s-3.105-.778-4.6-1.087l-.07-.023a2.788,2.788,0,0,1,.725-5.512Z" transform="translate(-214.395 -1266.156)" fill="#48c75a"/>
      <g id="Group_152" data-name="Group 152" transform="translate(49.887 294.623)" opacity="0.3">
        <path id="Path_1779" data-name="Path 1779" d="M267.222,1560.79c1.746.1,3.4.249,5.085.438s3.37.425,5.07.727a46.984,46.984,0,0,1,5.165,1.174,21.869,21.869,0,0,1,5.516,2.318l.225.138a4.245,4.245,0,1,1-4.448,7.232,4.611,4.611,0,0,1-.643-.486,13.9,13.9,0,0,0-3.285-1.952,40.073,40.073,0,0,0-4.225-1.637c-1.472-.491-2.984-.944-4.517-1.338s-3.105-.778-4.6-1.087l-.07-.023a2.788,2.788,0,0,1,.725-5.512Z" transform="translate(-264.282 -1560.779)" fill="#6c184e"/>
      </g>
      <path id="Path_1780" data-name="Path 1780" d="M275.586,1565.434a6.65,6.65,0,0,1-3.488-.987,7.026,7.026,0,0,1-1-.755,10.8,10.8,0,0,0-2.669-1.546,37.289,37.289,0,0,0-3.964-1.537c-1.4-.466-2.864-.9-4.37-1.295s-3.083-.77-4.479-1.059a5.223,5.223,0,0,1,1.293-10.343h0c1.7.1,3.349.242,5.214.449,1.78.189,3.539.449,5.227.755a49.039,49.039,0,0,1,5.423,1.234,24.064,24.064,0,0,1,6.1,2.58l.227.138a6.679,6.679,0,0,1-3.511,12.368ZM256.6,1552.775a.357.357,0,0,0-.347.283.351.351,0,0,0,.274.415c1.548.321,3.185.708,4.8,1.133s3.177.887,4.666,1.384a41.354,41.354,0,0,1,4.478,1.735,15.526,15.526,0,0,1,3.906,2.367,2.356,2.356,0,0,0,.279.209,1.81,1.81,0,0,0,1.888-3.088l-.227-.14a19.815,19.815,0,0,0-4.946-2.059,44.27,44.27,0,0,0-4.878-1.106c-1.61-.287-3.209-.517-4.917-.7-1.778-.189-3.354-.334-4.957-.427Z" transform="translate(-203.933 -1255.711)" fill="#661a47"/>
      <path id="Path_1781" data-name="Path 1781" d="M80.377,1501.374c-9.842-35.983-51.2-6.641-51.2-6.641S61.682,1533.655,80.377,1501.374Z" transform="translate(-23.673 -1203.43)" fill="#48c75a"/>
      <g id="Group_153" data-name="Group 153" transform="translate(5.507 280.028)" opacity="0.65">
        <path id="Path_1782" data-name="Path 1782" d="M80.156,1501.739c.072-.123.147-.238.221-.364-9.842-35.983-51.2-6.641-51.2-6.641s1.106,1.321,3.02,3.279C39.964,1493.083,69.9,1476.2,80.156,1501.739Z" transform="translate(-29.18 -1483.458)" fill="#fff"/>
      </g>
      <path id="Path_1783" data-name="Path 1783" d="M37.249,1506.131c-17.889,0-35.818-19.39-36.608-20.255A2.437,2.437,0,0,1,1.1,1482.2c1.038-.683,25.6-16.685,43.2-10.057,7.252,2.731,12.217,8.825,14.756,18.108a2.43,2.43,0,0,1-.242,1.861c-4.848,8.372-11.247,13.042-19.018,13.882A23.476,23.476,0,0,1,37.249,1506.131ZM6.339,1484.718c5.34,5.163,19.9,17.84,32.944,16.436,5.876-.638,10.848-4.2,14.8-10.6-2.167-7.134-6.027-11.791-11.486-13.85C30.312,1472.074,12.84,1480.973,6.339,1484.718Z" transform="translate(-0.005 -1192.95)" fill="#661a47"/>
      <line id="Line_2" data-name="Line 2" x1="27.76" y1="3.6" transform="translate(28.945 294.344)" fill="#48c75a"/>
      <path id="Path_1784" data-name="Path 1784" d="M180.787,1564.224a58.064,58.064,0,0,1-6.95-.829c-2.3-.377-4.587-.9-6.871-1.427-4.566-1.069-9.119-2.237-13.625-3.758,4.746-.323,9.438-.291,14.133-.161,2.343.079,4.685.155,7.009.378a57.679,57.679,0,0,1,6.931.972,2.443,2.443,0,0,1-.627,4.829Z" transform="translate(-124.395 -1263.866)" fill="#651b47"/>
      <path id="Path_1785" data-name="Path 1785" d="M192.8,1587.623q4.691-4.153,9.47-8.219c3.194-2.707,6.4-5.389,9.767-7.989a2.454,2.454,0,0,1,2.992,3.872,2.387,2.387,0,0,1-.391.247h-.019c-3.668,1.831-7.326,3.834-10.96,5.852S196.4,1585.509,192.8,1587.623Z" transform="translate(-156.407 -1274.459)" fill="#661a47"/>
      <path id="Path_1786" data-name="Path 1786" d="M190.145,1580.85s-20.987,1.27-25.795,37.6C164.348,1618.454,207.213,1604.81,190.145,1580.85Z" transform="translate(-133.327 -1282.438)" fill="#48c75a"/>
      <g id="Group_154" data-name="Group 154" transform="translate(31.027 298.412)" opacity="0.65">
        <path id="Path_1787" data-name="Path 1787" d="M170.412,1615.079c3.943-29.789,20.913-31.335,21.519-31.386a26.4,26.4,0,0,0-1.767-2.843s-20.987,1.27-25.795,37.6a76.822,76.822,0,0,0,17.423-8.495A65.946,65.946,0,0,1,170.412,1615.079Z" transform="translate(-164.37 -1580.85)" fill="#fff"/>
      </g>
      <path id="Path_1788" data-name="Path 1788" d="M153.874,1610.478a2.435,2.435,0,0,1-2.414-2.754c5.014-37.887,27.124-39.656,28.062-39.713a2.437,2.437,0,0,1,2.131,1.018c4.319,6.063,5.52,12.107,3.566,17.967-5.025,15.071-29.565,23.03-30.607,23.367a2.416,2.416,0,0,1-.738.115Zm24.642-37.389c-4.2.944-17.072,5.9-21.6,31.231,6.76-2.728,20.508-9.319,23.688-18.877,1.335-3.987.644-8.041-2.086-12.364Z" transform="translate(-122.853 -1272.019)" fill="#661a47"/>
      <path id="Path_1789" data-name="Path 1789" d="M238.21,1585.4q2.316-4.412,4.77-8.768c1.652-2.905,3.324-5.786,5.244-8.647a2.454,2.454,0,0,1,4.075,2.731,2.569,2.569,0,0,1-.4.457c-2.373,2.143-4.689,4.517-6.964,6.907S240.42,1582.926,238.21,1585.4Z" transform="translate(-193.245 -1271.166)" fill="#661a47"/>
      <path id="Path_1790" data-name="Path 1790" d="M238.652,1392.335s-19.568-7.694-12.91-43.735C225.743,1348.6,262.292,1374.825,238.652,1392.335Z" transform="translate(-182.01 -1094.029)" fill="#48c75a"/>
      <g id="Group_155" data-name="Group 155" transform="translate(42.351 254.571)" opacity="0.65">
        <path id="Path_1791" data-name="Path 1791" d="M231.428,1353.281a73.431,73.431,0,0,0-5.686-4.681c-6.658,36.041,12.91,43.735,12.91,43.735.287-.213.566-.428.829-.644C235.579,1388.815,225.459,1378.636,231.428,1353.281Z" transform="translate(-224.361 -1348.6)" fill="#fff"/>
      </g>
      <path id="Path_1792" data-name="Path 1792" d="M228.139,1384.335a2.433,2.433,0,0,1-.891-.17c-.876-.344-21.357-8.859-14.412-46.437a2.433,2.433,0,0,1,3.813-1.535c.889.636,21.765,15.8,21.884,31.684.047,6.175-2.962,11.552-8.946,15.983A2.431,2.431,0,0,1,228.139,1384.335Zm-11.169-41.689c-3.522,25.484,7.19,34.178,10.89,36.379,3.932-3.267,5.835-6.913,5.8-11.109C233.6,1357.847,222.555,1347.327,216.969,1342.646Z" transform="translate(-171.496 -1083.594)" fill="#661a47"/>
      <path id="Path_1793" data-name="Path 1793" d="M266.28,1481.15q2,4.561,4.136,9.042c1.425,2.975,2.9,5.952,4.489,8.721a2.454,2.454,0,0,1-4.251,2.454,2.626,2.626,0,0,1-.234-.566c-.944-3.317-1.642-6.573-2.314-9.846S266.839,1484.425,266.28,1481.15Z" transform="translate(-216.016 -1201.558)" fill="#661a47"/>
      <path id="Path_1794" data-name="Path 1794" d="M79.1,1677.086a.873.873,0,0,0,.253.3,1.429,1.429,0,0,0,.549.232,6.49,6.49,0,0,0,2.356,0,26.525,26.525,0,0,0,6-1.854,91.96,91.96,0,0,0,12.009-6.4c7.83-4.857,15.4-10.307,22.78-15.975s14.582-11.63,21.616-17.767q2.643-2.3,5.238-4.644c1.748-1.559,3.413-3.141,5.235-4.719.9-.783,1.78-1.582,2.688-2.354l2.777-2.241,1.391-1.117,1.431-1.061,2.86-2.124c15.522-10.967,32.725-19.152,50.457-25.436a281.145,281.145,0,0,1,26.994-8.157,267.067,267.067,0,0,1,27.609-5.508,330.47,330.47,0,0,0-53.8,15.819,260.325,260.325,0,0,0-25.468,11.539,179.792,179.792,0,0,0-23.609,14.724l-2.739,2.131-1.369,1.065-1.321,1.116-2.643,2.235c-.863.768-1.7,1.561-2.55,2.337-1.7,1.529-3.4,3.209-5.1,4.821s-3.436,3.22-5.172,4.813q-10.416,9.542-21.4,18.473a258.772,258.772,0,0,1-22.9,16.8,97.28,97.28,0,0,1-12.685,7.013,32.005,32.005,0,0,1-7.381,2.377,12.274,12.274,0,0,1-4.632-.017,7.538,7.538,0,0,1-2.667-1.133,6.985,6.985,0,0,1-2.1-2.265,3.056,3.056,0,1,1,5.285-3.071Z" transform="translate(-59.542 -1280.345)" fill="#6c184e"/>
      <g id="Group_156" data-name="Group 156" transform="translate(367.854 248.126)" opacity="0.3">
        <ellipse id="Ellipse_46" data-name="Ellipse 46" cx="4.876" cy="3.562" rx="4.876" ry="3.562" transform="matrix(0.968, -0.251, 0.251, 0.968, 0, 2.447)" fill="#6c184e"/>
      </g>
      <g id="Group_157" data-name="Group 157" transform="translate(341.887 232.748)" opacity="0.3">
        <ellipse id="Ellipse_47" data-name="Ellipse 47" cx="7.924" cy="5.791" rx="7.924" ry="5.791" transform="matrix(0.968, -0.251, 0.251, 0.968, 0, 3.976)" fill="#6c184e"/>
      </g>
      <g id="Group_158" data-name="Group 158" transform="translate(292.85 199.753)" opacity="0.3">
        <ellipse id="Ellipse_48" data-name="Ellipse 48" cx="6.18" cy="4.855" rx="6.18" ry="4.855" transform="translate(0 4.367) rotate(-20.69)" fill="#6c184e"/>
      </g>
      <g id="Group_159" data-name="Group 159" transform="translate(353.722 142.67)" opacity="0.3">
        <ellipse id="Ellipse_49" data-name="Ellipse 49" cx="4.272" cy="3.356" rx="4.272" ry="3.356" transform="translate(0 3.019) rotate(-20.69)" fill="#6c184e"/>
      </g>
      <g id="Group_160" data-name="Group 160" transform="translate(360.731 186.398)" opacity="0.3">
        <ellipse id="Ellipse_50" data-name="Ellipse 50" cx="4.853" cy="3.813" rx="4.853" ry="3.813" transform="translate(0 3.429) rotate(-20.69)" fill="#6c184e"/>
      </g>
      <g id="Group_161" data-name="Group 161" transform="translate(312.821 174.569)" opacity="0.3">
        <path id="Path_1795" data-name="Path 1795" d="M1664.851,926.635c.614,1.625-.566,3.575-2.643,4.357s-4.242.1-4.855-1.529.566-3.575,2.643-4.355S1664.237,925.015,1664.851,926.635Z" transform="translate(-1657.191 -924.786)" fill="#6c184e"/>
      </g>
      <g id="Group_162" data-name="Group 162" transform="translate(242.968 227.535)" opacity="0.3">
        <ellipse id="Ellipse_51" data-name="Ellipse 51" cx="4.41" cy="3.464" rx="4.41" ry="3.464" transform="matrix(0.811, -0.585, 0.585, 0.811, 0, 5.159)" fill="#6c184e"/>
      </g>
      <g id="Group_163" data-name="Group 163" transform="translate(252.85 185.424)" opacity="0.3">
        <ellipse id="Ellipse_52" data-name="Ellipse 52" cx="4.374" cy="3.436" rx="4.374" ry="3.436" transform="matrix(0.811, -0.585, 0.585, 0.811, 0, 5.117)" fill="#6c184e"/>
      </g>
      <g id="Group_164" data-name="Group 164" transform="translate(117.147 295.038)" opacity="0.3">
        <ellipse id="Ellipse_53" data-name="Ellipse 53" cx="5.806" cy="4.562" rx="5.806" ry="4.562" transform="matrix(0.811, -0.585, 0.585, 0.811, 0, 6.793)" fill="#6c184e"/>
      </g>
      <g id="Group_165" data-name="Group 165" transform="translate(121.118 265.276)" opacity="0.3">
        <ellipse id="Ellipse_54" data-name="Ellipse 54" cx="4.91" cy="3.857" rx="4.91" ry="3.857" transform="matrix(0.811, -0.585, 0.585, 0.811, 0, 5.744)" fill="#6c184e"/>
      </g>
      <g id="Group_166" data-name="Group 166" transform="translate(76.319 327.744)" opacity="0.3">
        <ellipse id="Ellipse_55" data-name="Ellipse 55" cx="3.228" cy="2.537" rx="3.228" ry="2.537" transform="matrix(0.811, -0.585, 0.585, 0.811, 0, 3.776)" fill="#6c184e"/>
      </g>
      <g id="Group_167" data-name="Group 167" transform="translate(122.193 208.893)" opacity="0.3">
        <ellipse id="Ellipse_56" data-name="Ellipse 56" cx="4.91" cy="3.857" rx="4.91" ry="3.857" transform="matrix(0.811, -0.585, 0.585, 0.811, 0, 5.744)" fill="#6c184e"/>
      </g>
      <g id="Group_168" data-name="Group 168" transform="translate(163.169 176.209)" opacity="0.3">
        <ellipse id="Ellipse_57" data-name="Ellipse 57" cx="6.412" cy="5.038" rx="6.412" ry="5.038" transform="matrix(0.811, -0.585, 0.585, 0.811, 0, 7.502)" fill="#6c184e"/>
      </g>
      <path id="Path_1796" data-name="Path 1796" d="M1492.868,276.816c-6.148,34.982,73.719,40.649,73.719,40.649s50.584-118.408-31.033-219.458-192.625-85.734-204.719-61.87,11.868,34.78,11.868,34.78S1526.216,87.079,1492.868,276.816Z" transform="translate(-1076.852 -15.009)" fill="#eb984e"/>
      <g id="Group_169" data-name="Group 169" transform="translate(250.571 3.492)" opacity="0.65">
        <path id="Path_1797" data-name="Path 1797" d="M1535.549,98c-81.608-101.054-192.625-85.734-204.719-61.87-10.777,21.261,7.066,32.243,11.088,34.388-4.846-5.227-8.872-13.81-2.658-26.074,2.643-5.216,10.373-9.991,21.635-13.025-2.6,1.657-4.049,3.554-3.736,5.308.632,3.539,8.194,5.15,16.891,3.6s15.234-5.682,14.6-9.221c-.226-1.27-1.357-2.286-3.1-3,39.618-.985,97.062,15.7,144.029,73.864,75.871,93.947,28.846,204.021,28.846,204.021s-52.676-3.739-65.88-24.351c1.618,30.692,74.025,35.83,74.025,35.83S1617.166,199.052,1535.549,98Z" transform="translate(-1327.419 -18.496)" fill="#fff"/>
      </g>
      <g id="Group_170" data-name="Group 170" transform="translate(261.397 39.993)" opacity="0.3">
        <path id="Path_1798" data-name="Path 1798" d="M1613.108,474.328s6.888-16.145,11.481-41.583c-8.355-7.943-21.044-14.5-34.38-19.86a28.783,28.783,0,0,1-17.984-29.2c2.832-32.64,2.686-73.759-25.6-108.788-63.8-79.008-150.285-68.283-161.852-49.825a28.761,28.761,0,0,0,4.453,2.711s183.513,16.162,150.166,205.9C1533.241,468.661,1613.108,474.328,1613.108,474.328Z" transform="translate(-1384.77 -211.866)" fill="#6c184e"/>
      </g>
      <path id="Path_1799" data-name="Path 1799" d="M1551.577,305.942h-.247c-2.248-.16-55.243-4.153-72.058-25.686a23.286,23.286,0,0,1-4.851-19.047c9.912-56.392,1.353-102.7-25.434-137.647-43.4-56.609-120.824-64.105-121.6-64.181a3.508,3.508,0,0,1-1.133-.3c-.487-.221-11.939-5.548-15.958-17.014-2.439-6.958-1.623-14.535,2.422-22.52,4.749-9.367,20.857-16.576,42.035-18.811,46.265-4.878,114.83,13.591,168.518,80.065,42.85,53.068,49.155,110.874,46.89,150.018-2.454,42.355-14.841,71.771-15.366,73A3.49,3.49,0,0,1,1551.577,305.942Zm-73.719-44.137,3.438.6a16.364,16.364,0,0,0,3.477,13.544c13.012,16.662,53.9,21.738,64.515,22.792a241.073,241.073,0,0,0,13.91-68.579c2.15-37.85-3.974-93.726-45.364-144.973C1465.9,20.893,1399.908,3,1355.476,7.684c-21.11,2.227-33.563,9.153-36.54,15.026-3.145,6.2-3.843,11.924-2.076,17.006,2.609,7.509,9.9,11.77,11.821,12.787a207.838,207.838,0,0,1,45.364,10.92c23.611,8.415,56.732,24.938,80.443,55.837,28.054,36.566,37.074,84.728,26.8,143.149Z" transform="translate(-1061.841 0.001)" fill="#6c184e"/>
      <path id="Path_1800" data-name="Path 1800" d="M2257.117,1400.8s-15.626,17.644-46.5,8.068-38.106-30.914-27.222-48.717S2279.25,1364.792,2257.117,1400.8Z" transform="translate(-1767.382 -1098.342)" fill="#f7af41"/>
      <g id="Group_171" data-name="Group 171" transform="translate(411.253 255.575)" opacity="0.3">
        <path id="Path_1801" data-name="Path 1801" d="M2257.117,1400.8s-15.626,17.644-46.5,8.068-38.106-30.914-27.222-48.717S2279.25,1364.792,2257.117,1400.8Z" transform="translate(-2178.635 -1353.917)" fill="#6c184e"/>
      </g>
      <path id="Path_1802" data-name="Path 1802" d="M2213.43,1400.24a63.418,63.418,0,0,1-18.825-3.032c-21.361-6.626-29.489-17.676-32.543-25.78-3.4-9-2.2-18.977,3.379-28.09,4.215-6.894,14.724-8.085,22.8-7.879,21.085.549,49.315,11.228,58.14,27.526,4.255,7.847,3.813,16.37-1.276,24.649a3.465,3.465,0,0,1-.36.485C2244.2,1388.74,2233.719,1400.24,2213.43,1400.24Zm-26.852-57.823c-7.794,0-13.418,1.674-15.185,4.563-4.489,7.341-5.457,14.945-2.8,21.986,3.543,9.4,13.516,17.059,28.081,21.576,26.737,8.292,40.806-4.934,42.661-6.854,3.645-6.093,3.941-11.781.908-17.367-7.405-13.661-32.968-23.375-52.194-23.875Q2187.3,1342.416,2186.578,1342.417Zm55.558,43.39Z" transform="translate(-1752.401 -1083.351)" fill="#6c184e"/>
      <path id="Path_1803" data-name="Path 1803" d="M1633.977,143.652a11.607,11.607,0,0,1-.987-4.949,14.513,14.513,0,0,1,.932-5.031,11.6,11.6,0,0,1,2.786-4.378,8.794,8.794,0,0,1,4.53-2.454c-.817,1.6-1.7,2.786-2.369,4.132a41.2,41.2,0,0,0-1.952,3.894c-.58,1.336-1.087,2.728-1.559,4.183S1634.453,142.022,1633.977,143.652Z" transform="translate(-1324.737 -102.897)" fill="#6d184e"/>
      <path id="Path_1804" data-name="Path 1804" d="M1685.816,153.988a18.567,18.567,0,0,1-.013-6.9,21.972,21.972,0,0,1,2.307-6.607,17.377,17.377,0,0,1,4.474-5.474c.476-.359.944-.731,1.429-1.051a14.42,14.42,0,0,1,1.565-.838,8.417,8.417,0,0,1,1.638-.642c.566-.162,1.133-.321,1.7-.425-1.563,1.793-3.139,3.2-4.412,4.908a38.46,38.46,0,0,0-3.586,5.114,46.837,46.837,0,0,0-2.816,5.7C1687.26,149.741,1686.543,151.806,1685.816,153.988Z" transform="translate(-1367.322 -107.123)" fill="#6d184e"/>
      <path id="Path_1805" data-name="Path 1805" d="M2379.14,1018.219a20.207,20.207,0,0,1,6.577-3.332,23.9,23.9,0,0,1,7.409-1.034,18.9,18.9,0,0,1,7.4,1.531c.566.272,1.153.519,1.7.825.536.342,1.063.691,1.573,1.055a9.3,9.3,0,0,1,1.427,1.218c.44.453.872.895,1.261,1.378-2.445-.647-4.555-1.482-6.813-1.871a39.3,39.3,0,0,0-6.66-.912,48.147,48.147,0,0,0-6.826.159C2383.874,1017.441,2381.567,1017.8,2379.14,1018.219Z" transform="translate(-1930.038 -822.467)" fill="#6d184e"/>
      <path id="Path_1806" data-name="Path 1806" d="M2358.61,1108.375a30.971,30.971,0,0,1,9.742-2.941,35.173,35.173,0,0,1,10.312.06c.853.164,1.72.253,2.562.481s1.68.457,2.512.712,1.625.63,2.429.963l1.2.517,1.133.646c.746.451,1.51.872,2.216,1.361.689.532,1.35,1.1,2.016,1.637a10.75,10.75,0,0,1,.963.853l.868.959c.566.655,1.114,1.3,1.62,1.98a70.118,70.118,0,0,0-8.863-4.317l-1.1-.462-1.146-.359c-.767-.227-1.51-.529-2.275-.727s-1.544-.395-2.314-.593-1.565-.308-2.346-.47a58.863,58.863,0,0,0-9.627-.866A81.806,81.806,0,0,0,2358.61,1108.375Z" transform="translate(-1913.384 -896.481)" fill="#6d184e"/>
      <path id="Path_1807" data-name="Path 1807" d="M1830.27,950.987c24.729-13.046,32.332-1.072,35.641,22.284C1847.878,975.643,1832.082,970.571,1830.27,950.987Z" transform="translate(-1484.777 -767.113)" fill="#48c75a"/>
      <path id="Path_1808" data-name="Path 1808" d="M1850.461,966.158c-10.49,0-19.366-2.737-25.4-7.915-5.367-4.6-8.323-10.905-8.789-18.737a2.643,2.643,0,0,1,1.359-2.471c10.612-5.869,18.962-7.241,25.525-4.2,9.438,4.376,13.123,16.947,15.7,29.88a2.643,2.643,0,0,1-2.346,3.151Q1853.4,966.16,1850.461,966.158Zm-28.772-25.3a20.111,20.111,0,0,0,6.8,13.374c5.461,4.685,14.3,7.024,24.555,6.578-2.19-10.08-5.474-20.079-12.128-23.169C1836.282,935.48,1829.98,936.533,1821.689,940.854Z" transform="translate(-1473.415 -755.475)" fill="#661a47"/>
      <path id="Path_1809" data-name="Path 1809" d="M1818.659,958.127a16.4,16.4,0,0,1,8.329.047,25.067,25.067,0,0,1,7.254,3.2,34.108,34.108,0,0,1,5.967,4.795,29.752,29.752,0,0,1,4.608,5.916,53.655,53.655,0,0,0-12.5-6.873,34.182,34.182,0,0,0-6.443-1.7,24.034,24.034,0,0,0-6.156-.2l-.094.009a2.643,2.643,0,0,1-.968-5.191Z" transform="translate(-1473.697 -776.845)" fill="#651b47"/>
    </g>
  </g>
</svg>
