<svg xmlns="http://www.w3.org/2000/svg" xmlns:xlink="http://www.w3.org/1999/xlink" viewBox="0 0 3326.55 3669.49"><defs><style>.cls-1{fill:#ddd;}.cls-2{fill:#fff;}.cls-3{fill:#e5e5e5;}.cls-4{fill:#bfbfbf;}.cls-5{fill:#515151;}.cls-6{fill:#191919;}.cls-7{fill:#161616;}.cls-8{fill:url(#linear-gradient);}.cls-9{fill:#428715;}.cls-10{fill:#0b4200;}.cls-11{fill:url(#linear-gradient-2);}.cls-12{fill:url(#linear-gradient-3);}.cls-13{fill:url(#linear-gradient-4);}.cls-14{fill:#387c0d;}.cls-15{fill:#bced6e;}.cls-16{fill:#4d961e;}.cls-17{fill:url(#linear-gradient-5);}.cls-18{fill:none;}.cls-19{fill:#efffab;}.cls-20{fill:#245b00;}.cls-21{fill:url(#linear-gradient-6);}.cls-22{fill:url(#linear-gradient-7);}.cls-23{fill:url(#linear-gradient-8);}.cls-24{fill:url(#linear-gradient-9);}.cls-25{fill:#f2ffa6;}.cls-26{fill:url(#linear-gradient-10);}.cls-27{fill:url(#linear-gradient-11);}.cls-28{fill:url(#linear-gradient-12);}.cls-29{fill:#0a3500;}.cls-30{fill:#26a7df;}.cls-31{fill:url(#linear-gradient-13);}.cls-32{fill:url(#linear-gradient-14);}.cls-33{fill:url(#linear-gradient-15);}.cls-34{fill:url(#linear-gradient-16);}.cls-35{fill:#666;}.cls-36{fill:#d1d1d1;}.cls-37{fill:url(#linear-gradient-17);}</style><linearGradient id="linear-gradient" x1="-250.16" y1="-160.02" x2="689.18" y2="-160.02" gradientTransform="matrix(-0.35, -0.94, 0.94, -0.35, 1405.32, 2721.73)" gradientUnits="userSpaceOnUse"><stop offset="0" stop-color="#97c52c"/><stop offset="1" stop-color="#4b9a23"/></linearGradient><linearGradient id="linear-gradient-2" x1="-376.86" y1="174.16" x2="562.48" y2="174.16" gradientTransform="matrix(0.35, -0.94, -0.94, -0.35, 1836.69, 2721.73)" xlink:href="#linear-gradient"/><linearGradient id="linear-gradient-3" x1="-352.92" y1="1176.84" x2="109.31" y2="1176.84" gradientTransform="translate(397.59 733.8) rotate(0.76)" xlink:href="#linear-gradient"/><linearGradient id="linear-gradient-4" x1="1352.95" y1="691.55" x2="1340" y2="950.4" gradientTransform="translate(34.25 -340.18) rotate(-9.13)" xlink:href="#linear-gradient"/><linearGradient id="linear-gradient-5" x1="1232.63" y1="1054.91" x2="1267.14" y2="873.72" gradientTransform="translate(34.25 -340.18) rotate(-9.13)" xlink:href="#linear-gradient"/><linearGradient id="linear-gradient-6" x1="958.95" y1="1104.98" x2="773.45" y2="1372.46" gradientTransform="translate(34.25 -340.18) rotate(-9.13)" xlink:href="#linear-gradient"/><linearGradient id="linear-gradient-7" x1="1229.22" y1="1458.53" x2="1479.45" y2="1833.87" gradientTransform="translate(34.25 -340.18) rotate(-9.13)" xlink:href="#linear-gradient"/><linearGradient id="linear-gradient-8" x1="35.23" y1="1586.36" x2="742.78" y2="1996.23" gradientTransform="translate(34.25 -340.18) rotate(-9.13)" xlink:href="#linear-gradient"/><linearGradient id="linear-gradient-9" x1="5.3" y1="1606.48" x2="475.59" y2="1800.64" gradientTransform="translate(34.25 -340.18) rotate(-9.13)" xlink:href="#linear-gradient"/><linearGradient id="linear-gradient-10" x1="1310.68" y1="1720.33" x2="1901.74" y2="2445.14" gradientTransform="translate(34.25 -340.18) rotate(-9.13)" xlink:href="#linear-gradient"/><linearGradient id="linear-gradient-11" x1="1847.5" y1="1213.17" x2="2006.33" y2="1213.17" gradientTransform="matrix(1, 0.02, -0.02, 1, 15.6, -81.46)" gradientUnits="userSpaceOnUse"><stop offset="0" stop-color="#fff"/><stop offset="1" stop-color="#ccc"/></linearGradient><linearGradient id="linear-gradient-12" x1="1047.87" y1="1233.06" x2="814.55" y2="1214.92" xlink:href="#linear-gradient-11"/><linearGradient id="linear-gradient-13" x1="2171.33" y1="1543.32" x2="2178.02" y2="1207.8" gradientTransform="translate(-213.01 -394.13) rotate(9.2)" gradientUnits="userSpaceOnUse"><stop offset="0" stop-color="#233f83"/><stop offset="1"/></linearGradient><linearGradient id="linear-gradient-14" x1="2171.33" y1="1543.32" x2="2178.02" y2="1207.8" gradientTransform="translate(2507.13 -1191.36) rotate(77.67)" xlink:href="#linear-gradient-13"/><linearGradient id="linear-gradient-15" x1="1568.5" y1="1640.02" x2="1575.18" y2="1304.5" xlink:href="#linear-gradient-13"/><linearGradient id="linear-gradient-16" x1="1568.5" y1="1640.02" x2="1575.18" y2="1304.5" gradientTransform="translate(1949.55 -707.1) rotate(72.46)" xlink:href="#linear-gradient-13"/><linearGradient id="linear-gradient-17" x1="4151.05" y1="2513.57" x2="4822.4" y2="2513.57" gradientTransform="matrix(-0.99, -0.17, -0.17, 0.99, 7489.15, 73.41)" xlink:href="#linear-gradient"/></defs><title>salad</title><g id="Layer_2" data-name="Layer 2"><g id="character"><path class="cls-1" d="M1152.91,3193.83c-105-73.6-199.27-78.51-279.22-71.83,0,0,52-25.12,62.69-35.24,21.79-20.6,36.13-44.77,36.13-44.77s-40.66-33-32.51-87.28,72.16-64.27,103.13-66.47c61.32-4.35,185.67,3,245.8,6.81,39.72,2.52,120.42-4.77,145.79,64,29.49,79.89-61.62,113.46-61.62,113.46s-4,69.93-3.74,93c.71,66.59,7.39,100.31,7.39,100.31l36,15a258.78,258.78,0,0,1,3.11,38.66c.34,40.39-2.86,99.06-10.11,107.55-21.26,24.87-123,77.74-123,77.74C1283.72,3409.61,1270.08,3276,1152.91,3193.83Z"/><path class="cls-2" d="M939.52,2961.92c7.68-58.44,63.68-76.57,116.18-74l238,7.32s106.91-10.18,138.41,57.28c13.73,29.4,9.13,87-41.62,111-69.55,33-209.76,31-266.66,23.55-49.35-6.44-84.19-13.41-111.88-23.55C981.56,3053,932.58,3014.82,939.52,2961.92Z"/><path class="cls-2" d="M617.39,3438s-28.12-178.58,63.16-252.56c82.06-66.5,208.74-65.17,208.74-65.17l31-.42c81.17,2.15,156,18.64,228.8,71.16,116.07,83.68,134.63,218.64,133.64,313.68l-40.26,98.25s-137.67,63-349.45,47.28-304.74-65.69-304.74-65.69a593.29,593.29,0,0,1-3.58-65.94c0-29.28,3.58-65.31,3.58-65.31Z"/><path class="cls-3" d="M1219.72,3463,1256,3399.6l8.31-18.61,55.11-58,45.61-47.77,11.13-10.22,32,10.94s7.69,17.68,7.23,73c-.35,43.28-8.19,74.87-8.19,74.87l-121.57,73.82-42.41,103.52C1243.87,3558.49,1230.65,3502.05,1219.72,3463Z"/><path class="cls-2" d="M599,3446.36l160.18,47.14s51.56,10.17,105.43,13.4,133.32-4.53,133.32-4.53l126.93-10.85,90.79-21.34,4.09-7.15c10.93,39,24.15,95.46,23.47,138.13l-.72,1.74s-137.67,63-349.45,47.28-303.47-69.27-303.47-69.27-4.85-38.82-4.85-66.82c0-29.59,3.58-60.85,3.58-60.85C593,3450.84,594.38,3449,599,3446.36Z"/><path class="cls-4" d="M584.7,3450.86l32.69-12.9s-35.79-162.05,63.16-252.56c62.59-57.24,160.19-68.22,253.18-65.1,93.68,3.14,181.47,42.51,203.3,75.53-47.57-30.54-153.93-44.36-153.93-44.36s-168.05-13.17-263.64,54.91-55.32,259.16-55.32,259.16l-21.77,11.16a190.27,190.27,0,0,0-7.64,55.69c.64,29.7,9.87,69.76,9.87,69.76-34.61-8.51-57.28-21.24-57.28-21.24s-2.93-30.09-4.05-62.52A674.83,674.83,0,0,1,584.7,3450.86Z"/><path class="cls-4" d="M801.39,3578.4s2.3,38.15,58,62.33c-63.51,6.25-179.79-25.19-179.42-32.26,0,0-11.54-17.38-15-58.94-2.29-27.67.42-44,2.05-51.89,45.78,15.35,109.27,24.35,145,29C795.9,3549.53,801.39,3578.4,801.39,3578.4Z"/><path class="cls-4" d="M1108,3380.55c58.51-148.4-51.49-224.87-51.49-224.87,52.07,10,94.59,51.51,94.59,51.51,53-14.67,69.84-74.08,72.84-109.1.22-2.55-1.67-6.42.44-7.23,38.38-14.64,32.51-44.38,32.6-48.82,27.32-4.38,31.38-4.72,58.76-11.35,129.61-31.38,87.93-106.79,87.93-106.79s41,14.72,33.23,80.15c-7,59.44-79.25,77.52-102.63,81-3,18-5,55.06-4.78,70.16,1,86.69,16.59,139,16.59,139L1265,3381.37s-49.39,88.28-52.21,85.88-200.52,42.49-312.78,42.5c-137,0-212.75-40.46-212.75-40.46S1034.72,3566.44,1108,3380.55Z"/><path class="cls-4" d="M1130,3516.08s39.41,1.82,41,22.08c2.18,27.34,17.65,71.58-23.67,86.38s87.54-25.12,87.54-25.12l57.43-96.64s53.87-25,63.88-50.36c11.88-30.09,11.34-124,11.34-124s-7.17-5.75-17.24,0c-7.73,4.42-22.37,20.95-27.12,26.46-12.93,15-40.32,39.89-48,64.18-13.13,41.67-35.7,61.37-44.33,77.07,0,0-15.24,6.15-45,12C1160.44,3513.13,1130,3516.08,1130,3516.08Z"/><path class="cls-5" d="M569.74,3513.52q.1-13.36.53-26.7.48-15.06,1.36-30.1c.29-4.95.47-10.07.71-15.24a111,111,0,0,1,14.12-8.37,123.93,123.93,0,0,1,16.94-7.21,49.66,49.66,0,0,1,9.54-2.08c0,.37,11.79,28,11.83,28.07-5.72,1.89-17.18,5.94-21.21,8.84.11,7.84-1.7,19.32-2.25,34.51-.67,18.91-.09,41.66.31,48,.55,8.78,1.74,27.66,1.74,27.66s24.65,9.69,33,12.35c32,10.15,64.47,19,97.27,26.24q40.3,8.94,81.22,14.62l.89.12-.89-.12,5.09.67,5.46.68c3,.37,6.08.72,9.11,1.07q10,1.13,20,2,20,1.83,40,2.81a926,926,0,0,0,164.6-6.64l1.45-.19,1.28-.17-1.28.17,1.8-.25,5.46-.77c3-.45,6.06-.9,9.09-1.37,6.68-1,13.36-2.1,20-3.24,12.23-2.09,24.43-4.42,36.6-6.83,22.44-4.44,44.62-9.71,66.57-16.17,10.81-3.18,21.5-6.82,32-11h0q7.44-13,14-26.49,4.08-8.43,7.89-17,1.34-3,2.63-6c-.21.52-.19.48.51-1.16l-.51,1.16c.3-.69,1-2.38,1.13-2.65q.9-2.19,1.78-4.4,2.8-7,5.4-14.15c3-8.18,5.32-14.89,8-23.21,5.37-3.2,11.12-5.32,16.58-8.24,7.5-4,14.9-6.75,22.1-11.26-.45,2.87-.62,1.91-1.11,4.77-1.65,9.7-7.37,20.1-9.82,29.69a397.86,397.86,0,0,1-15.8,49.28c-7.11,17.84-12.18,34.62-21.45,51.27-19.76,11.22-41.41,19.93-63.07,26.53l0,0h0l0,0h0l-3,.91c-49.87,14.74-102,24-153.63,29.79a929.2,929.2,0,0,1-165.52,3.74c-90.85-6-180.1-24.91-266.21-53.72q-6.59-2.21-13.15-4.49c-8.16-2.83-27-11.27-27-11.27s-1.12-18.51-1.42-27.4a2.53,2.53,0,0,1,0-.28c-.11-3.37-.19-6.74-.27-10.11Q569.57,3536.85,569.74,3513.52Z"/><path class="cls-5" d="M1429,3275.44a182.53,182.53,0,0,0-38.31-16.3q-3.46-1-7-2c0,.4-18.66,17.11-20.07,20.33,4.94,1.43,30.4,11.16,35.06,12.94.77,9.48,1,20.64,1.24,30.15.42,20.17-1.33,40-2,60.16-.5,15.25-4.21,32.35-4.22,32.37-2.83,4.67-12.87,12.12-22.22,18.51-8.29,5.66-27.91,19.32-28.45,19.71h0c-7.63,5.37-15.51,10.48-23.5,15.39q-3.78,2.33-7.64,4.55-10.79,6.22-22.06,11.75c-5.46,2.7-11,5.37-16.41,8.32q-4,11.51-8.45,22.82l0,0c11.31.52,34.2-5.05,36.26-5.8,8.52-3.13,20-9.34,28.09-13.11,17.59-8.14,52.26-31.18,53.68-32.23q2.43-1.78,4.83-3.63c10.16-7.77,33.39-24.47,33.39-24.47s3.59-24.56,5.62-38.16C1426.93,3396.66,1434.94,3315.54,1429,3275.44Z"/><path class="cls-5" d="M1390.92,3059.17c-.5,5.36-5.9,57.81-6.31,108-.39,46.39,4.18,90.85,4.35,94.44-.43.36-23.83,13.34-24,13.57-3.73-10.88-8.22-55.28-9.49-99-1.25-43,3.52-86,4.62-104.36C1369.38,3069.37,1388,3061,1390.92,3059.17Z"/><path class="cls-6" d="M601,3462.61l.59-.48Z"/><path class="cls-6" d="M594.57,3467.65l.49-.4C594.29,3467.85,594.29,3467.86,594.57,3467.65Z"/><path class="cls-7" d="M1257.23,3534.2l-.51,1.16C1256.51,3535.88,1256.53,3535.84,1257.23,3534.2Z"/><path class="cls-7" d="M1200.41,3633h0l-.16.2-.12.16-.15.19Z"/><path class="cls-7" d="M1200.41,3633h0l-.26.36.12-.16Z"/><path class="cls-7" d="M1060.68,3624.54l1.28-.17Z"/><path class="cls-7" d="M1200.45,3632.94Z"/><path class="cls-7" d="M1200.45,3632.94l0,0h0Z"/><path class="cls-7" d="M1344,3445.28l-.91.69C1342.57,3446.38,1342.5,3446.44,1344,3445.28Z"/><path class="cls-7" d="M1415.82,3372.47c-.29.38-.59.74-.88,1.11C1414.81,3373.76,1415,3373.52,1415.82,3372.47Z"/><path class="cls-7" d="M1414.94,3373.58c.29-.37.59-.73.88-1.11C1415,3373.52,1414.81,3373.76,1414.94,3373.58Z"/><path class="cls-5" d="M1375.91,3270.77c-18.89,18.21-55.43,53.32-56.54,52.19-1.52-1.55,32.12-41.35,50.93-62.69A114.4,114.4,0,0,1,1375.91,3270.77Z"/><path class="cls-5" d="M997.91,3502.37c1.32-1.59,51.58-8.51,75.18-11.8,45.88-6.39,94-13.63,137.69-29.29.73-1.05,1.48-2.09,2.2-3.14,15-21.82,32-41.69,45.29-64.61.72,1-10.15,39.18-19.29,53.91q-8.22,13.24-16.9,26.23-7.39,2.92-14.82,5.53-8.31,2.93-16.72,5.52C1147.42,3498.11,996,3505.68,997.91,3502.37Z"/><path class="cls-5" d="M771.81,3497.64c-54.73-11.19-117.48-25.69-167.1-44.58.3-.32,5-12.31,7.16-17.75.12-.31,27.45,10.59,30.27,11.6C689.34,3463.87,772.55,3492.37,771.81,3497.64Z"/><path class="cls-5" d="M1459,2986.94c.78-25.67-11.25-53.37-29.76-71.73-14.57-14.43-40.49-27.2-73.51-34-30.15-6.2-91.2-4.58-100.07-4.17.47,2.65,12.74,24.3,12.36,31.42,3.12-.23,22.24-.06,24.71.09,5.15.32,18.67-.07,33.53,1.3,17.2,1.58,36.19,5.14,46.1,8.59,14.74,5.14,27.26,15.9,31.08,18.79.1.07,1.21,1,1.43,1.15.74.69,1.46,1.42,2.16,2.14,1.54,1.57,3,3.22,4.4,4.93a42.17,42.17,0,0,1,6.62,10.62c2.47,5.26,2.4,5.16,3.64,10.49q.74,3.2,1.21,6.44c.18,1.24.34,2.48.47,3.73,0,.33.12,2.28.15,2.65a120.53,120.53,0,0,1-.65,13.43c-.21,2.21-.54,4.39-.84,6.59,0,.16-.26,1.42-.32,1.79-.3,1.29-.64,2.57-1,3.84-2.37,8.3-4.79,17.92-9.38,25-5,7.7-11.24,15.22-18.89,20.42-3.4,2.31-13.57,10.43-36.53,18.48-14.58,5.12-47,13.25-57.59,17.32-.92.61,11.94,4.71,34,3.83,15.89-.64,39.12-4.26,57.51-11.44,19.25-7.53,33.39-18.71,37.33-22.6a122.59,122.59,0,0,0,23.32-33.32A93.37,93.37,0,0,0,1459,2986.94Z"/><path class="cls-4" d="M1000.3,3060.59s-21.92,45.9-58.21,65.86l-58.21-12.32s45-10.16,64.91-36.28S972.51,3042,972.51,3042Z"/><path class="cls-5" d="M1244.08,3296.61a191.29,191.29,0,0,0-15.3-41c-6.84-13.36-18.19-28.86-27.7-40.4-18.27-22.18-39.2-38.37-62.85-54.58-53.38-36.58-114.6-53.38-178.62-58.22-34.21-2.58-69.38-1.59-103.53,1.33-35.2,3-66.64,8.34-100.4,19.18-31,10-60.19,24.17-84.84,45.48A197.46,197.46,0,0,0,615.6,3246c-12.68,31.59-18,67.37-19.19,101.22-1.08,30.05,1.72,58.77,5.21,88.65,0,0,37.81,14.94,38.12,15,.15,1.57-5.19-58-5.76-76.16a380.48,380.48,0,0,1,1.64-50.07c.18-1.77.37-3.55.57-5.33.11-.88.23-1.77.32-2.66,0-.06,0-.09,0-.15.61-4,1.22-8.06,2-12.08,1.43-7.8,3.17-15.55,5.28-23.2q3-10.89,7-21.47c.66-1.71,1.36-3.42,2-5.13.29-.63.57-1.27.85-1.9,1.63-3.62,3.38-7.2,5.23-10.71a178.18,178.18,0,0,1,11.55-18.86c1.07-1.54,2.21-3,3.29-4.55l.78-1q3.48-4.32,7.21-8.41a190.42,190.42,0,0,1,15-14.75c2.52-2.2,5.12-4.29,7.72-6.4l.27-.23,1.17-.82c1.44-1.06,2.89-2.09,4.36-3.11a229.43,229.43,0,0,1,35.89-19.93l0,0,2.12-.85q3-1.21,6.08-2.34,6.09-2.24,12.28-4.17c7.91-2.48,15.94-4.6,24-6.43s16.2-3.36,24.37-4.68c3.8-.61,7.61-1.17,11.43-1.71l2.45-.31q3.63-.45,7.28-.87c32.53-3.75,65.32-5.93,98.08-5.29a490.74,490.74,0,0,1,49.37,3.36c.91.11,1.82.24,2.73.34l.22,0,.16,0c1.82.28,3.64.53,5.45.81q6.35,1,12.66,2.15,12.21,2.28,24.26,5.34a340.1,340.1,0,0,1,43.81,14.3l1.83.75c1.58.66,3.16,1.35,4.74,2l.24.1,2.54,1.12q2.63,1.15,5.24,2.37,8.85,4.13,17.44,8.77a313,313,0,0,1,33.46,21c2.2,1.58,4.38,3.21,6.55,4.84-1.46-1.08,1.79,1.4,2.38,1.87,1.36,1.09,2.71,2.18,4,3.29q7.82,6.45,15.17,13.4a333.84,333.84,0,0,1,28,29.89q1.71,2.07,3.38,4.17l1.72,2.19c2.55,3.35,5,6.71,7.75,9.94,4.42,5.28,9,10.47,13.29,15.84s8.46,10.66,12.43,16.19C1237.73,3307.61,1246.18,3304.81,1244.08,3296.61ZM703.53,3188.76c.26-.23.55-.46.84-.67Zm123.33-45.06h0C828.6,3143.45,827.63,3143.59,826.86,3143.7Z"/><path class="cls-5" d="M855.29,3105.93a204.92,204.92,0,0,0,23-6.23c14.5-4.89,28.75-11.72,40.85-21.18a131.48,131.48,0,0,0,29.22-31.73c4-6.27,7.73-12.7,11.16-19.32.18-.36.37-.72.56-1.08a.9.9,0,0,0,1,.4,68.86,68.86,0,0,0,5.46,7.29c4.62,5.46,9.79,9,16.08,12.43-1.38,2.94-16.57,28.54-39,45.9-23.74,18.42-55.69,28.32-58,27.8-17.84-3.88-34.17-5.9-52.22-8.71C839.46,3107.47,848.1,3107.44,855.29,3105.93Z"/><path class="cls-4" d="M1322.65,2998.48c-2.52,4.72-10.8,7.93-15.41,10.23a115.3,115.3,0,0,1-19.53,7.76c-13.53,3.93-27.49,5.94-41.5,7.22-15.65,1.43-30.9,1.58-46.62,1.59-16.21,0-33.25-1.17-48.62-6-14.7-4.65-11-6.11-10.26-6,20.89,2,42.72,3.53,58.34,3.35,15.19-.18,30.41-.76,45.56-1.92a306.45,306.45,0,0,0,41.06-5.55c6.32-1.36,12.71-2.81,18.86-4.76,3.37-1.07,6.7-2.29,10-3.69,2.56-1.1,4.92-2.84,7.73-2.93a.52.52,0,0,1,.44.77Z"/><path class="cls-4" d="M940,2954.71c5.89-54.56,94.54-62,94.54-62l30.86-1.91c-29,8.48-83.12,27.65-90.09,71.16-7.32,45.73,37.64,96.29,46.47,103.88-1.61-.59-37.75-13.52-57.4-36.47C948.63,3010.93,936.86,2983.83,940,2954.71Z"/><path class="cls-5" d="M922.12,2965.21c1.14-25.65,13.37-49.5,33.41-66.18,13.75-11.46,40.12-22.28,73.5-26.57a330.4,330.4,0,0,1,68.27-2l-1,31.33c-8.91-.85-19.37-1.56-29.91-1.66-54.26-.47-100.59,17.23-111.77,48.61-11.3,31.68,15.08,74,35.24,93.24,12,11.46,27.49,20.71,34,24.06,5.94,3.06-15.69,2.64-36.87-5.2-10.74-4-26.08-13.68-37.31-26.07-10.68-11.79-17.44-26.2-20.4-33.29C923.19,2986.94,921.85,2971.24,922.12,2965.21Z"/><path class="cls-8" d="M1299.56,2301.38c-20.88-19.66-47.51-32.92-75.89-41.13-25.94-7.51-51.45-7-77.11-4.61-32.64,69-56.32,139.07-70.4,209.66-32.13,161-21.82,335.9,31,514.16a211.36,211.36,0,0,0,28.46,6.57c23.18,3.5,47.45,3,70.89,3.68,31.79.91,60.69-2.87,89.3-9.84C1192.89,2748.87,1194.81,2497.59,1299.56,2301.38Z"/><path class="cls-9" d="M1299.56,2301.38c-20.35-19.16-46.17-32.22-73.74-40.47-35.15,75.31-59.74,151.74-73.15,228.48-27.56,157.71-14.31,327.62,39.31,500,4.86.09,9.73.17,14.54.31,31.79.91,60.69-2.87,89.3-9.84C1192.89,2748.87,1194.81,2497.59,1299.56,2301.38Z"/><path class="cls-10" d="M1081.35,2466.34c14.68-73.61,39.22-144.13,71.18-211.2-10.84.86-21.7,2.11-32.63,3.31-29.57,64.84-52.35,132.7-66.38,203.21-33.76,169.74-19.12,344,27.53,509.44,10.79,3.5,21.42,7.12,32.38,10.1C1063.8,2814.48,1047,2638.24,1081.35,2466.34Z"/><path class="cls-10" d="M1314.88,2321.3c.13-.73.26-1.59.39-2.36a137,137,0,0,0-19.55-21.1c-111.36,209.4-99.85,467.71-5.13,683.25,8.82-2,17.62-4.3,26.43-6.91.18-.6.38-1.22.53-1.78C1227.54,2768.12,1212.39,2521.82,1314.88,2321.3Z"/><path class="cls-5" d="M1346.66,2929.64c13.25,4,20.66,17.59,14.17,27.39-7.61,11.48-20.38,19.41-32.71,25-27.16,12.28-58,17-87.42,19.9-59,5.75-119.82,0-176.4-18.22-14.73-4.75-33.82-11.52-43.91-23.94-4.76-5.87-8.5-9.58-9.38-18.13-.6-5.8.86-19,11.2-21.2,11.26-2.34,1.18,2.29,3.8,6.95,1.53,2.7.83,3.22,4.06,6.12a34.86,34.86,0,0,0,10.13,5.84l2.68,1c9,3.4,18.18,5.14,27.38,7.82,23.18,6.75,47.5,12.49,70.91,15.66a505.81,505.81,0,0,0,147.73-2.3,253.18,253.18,0,0,0,38.23-9.24c5.48-1.81,11.31-3.6,16-7.18,9.87-7.59-13.41-18-.27-16.33Z"/><path class="cls-1" d="M1731.73,3193.83c105-73.6,199.27-78.51,279.21-71.83,0,0-52-25.12-62.68-35.24-21.8-20.6-36.13-44.77-36.13-44.77s40.66-33,32.51-87.28-72.17-64.27-103.13-66.47c-61.32-4.35-185.67,3-245.81,6.81-39.72,2.52-120.41-4.77-145.78,64-29.5,79.89,61.61,113.46,61.61,113.46s4,69.93,3.75,93c-.71,66.59-7.4,100.31-7.4,100.31l-36,15a258.78,258.78,0,0,0-3.11,38.66c-.35,40.39,2.85,99.06,10.11,107.55,21.26,24.87,123,77.74,123,77.74C1600.92,3409.61,1614.56,3276,1731.73,3193.83Z"/><path class="cls-2" d="M1945.11,2961.92c-7.67-58.44-63.67-76.57-116.17-74l-238,7.32S1484,2885,1452.52,2952.49c-13.73,29.4-9.13,87,41.61,111,69.56,33,209.77,31,266.66,23.55,49.35-6.44,84.2-13.41,111.88-23.55C1903.08,3053,1952.06,3014.82,1945.11,2961.92Z"/><path class="cls-2" d="M2267.24,3438s28.13-178.58-63.16-252.56c-82.06-66.5-208.73-65.17-208.73-65.17l-31-.42c-81.16,2.15-155.95,18.64-228.79,71.16-116.08,83.68-134.63,218.64-133.64,313.68l40.25,98.25s137.68,63,349.45,47.28,304.75-65.69,304.75-65.69a594.93,594.93,0,0,0,3.57-65.94c0-29.28-3.57-65.31-3.57-65.31Z"/><path class="cls-3" d="M1664.92,3463l-36.23-63.43-8.31-18.61-55.11-58-45.62-47.77L1508.52,3265l-32,10.94s-7.69,17.68-7.24,73c.36,43.28,8.19,74.87,8.19,74.87L1599,3497.64l42.41,103.52C1640.76,3558.49,1654,3502.05,1664.92,3463Z"/><path class="cls-2" d="M2285.66,3446.36l-160.18,47.14s-51.56,10.17-105.44,13.4-133.31-4.53-133.31-4.53l-126.93-10.85-90.8-21.34-4.08-7.15c-10.93,39-24.16,95.46-23.47,138.13l.71,1.74s137.68,63,349.45,47.28,303.48-69.27,303.48-69.27,4.84-38.82,4.84-66.82c0-29.59-3.57-60.85-3.57-60.85C2291.66,3450.84,2290.25,3449,2285.66,3446.36Z"/><path class="cls-4" d="M2299.93,3450.86l-32.69-12.9s35.8-162.05-63.16-252.56c-62.58-57.24-160.18-68.22-253.18-65.1-93.67,3.14-181.46,42.51-203.3,75.53,47.58-30.54,153.94-44.36,153.94-44.36s168.05-13.17,263.63,54.91,55.33,259.16,55.33,259.16l21.77,11.16a190.07,190.07,0,0,1,7.63,55.69c-.64,29.7-9.86,69.76-9.86,69.76,34.6-8.51,57.27-21.24,57.27-21.24s2.93-30.09,4.06-62.52C2302.56,3484,2299.93,3450.86,2299.93,3450.86Z"/><path class="cls-4" d="M2083.24,3578.4s-2.3,38.15-58,62.33c63.5,6.25,179.78-25.19,179.41-32.26,0,0,11.55-17.38,15-58.94,2.29-27.67-.42-44-2.06-51.89-45.77,15.35-109.26,24.35-145,29C2088.74,3549.53,2083.24,3578.4,2083.24,3578.4Z"/><path class="cls-4" d="M1776.63,3380.55c-58.51-148.4,51.49-224.87,51.49-224.87-52.07,10-94.59,51.51-94.59,51.51-53-14.67-69.85-74.08-72.84-109.1-.22-2.55,1.67-6.42-.45-7.23-38.37-14.64-32.51-44.38-32.59-48.82-27.33-4.38-31.38-4.72-58.76-11.35C1439.27,2999.31,1481,2923.9,1481,2923.9s-40.94,14.72-33.22,80.15c7,59.44,79.25,77.52,102.63,81,3,18,5,55.06,4.77,70.16-1,86.69-16.58,139-16.58,139l81.06,87.19s49.39,88.28,52.2,85.88,200.52,42.49,312.79,42.5c137,0,212.74-40.46,212.74-40.46S1849.92,3566.44,1776.63,3380.55Z"/><path class="cls-4" d="M1754.67,3516.08s-39.4,1.82-41,22.08c-2.18,27.34-17.65,71.58,23.67,86.38s-87.55-25.12-87.55-25.12l-57.42-96.64s-53.88-25-63.88-50.36c-11.88-30.09-11.34-124-11.34-124s7.16-5.75,17.23,0c7.74,4.42,22.38,20.95,27.13,26.46,12.93,15,40.32,39.89,48,64.18,13.12,41.67,35.7,61.37,44.33,77.07,0,0,15.24,6.15,45,12C1724.2,3513.13,1754.67,3516.08,1754.67,3516.08Z"/><path class="cls-5" d="M2314.9,3513.52q-.11-13.36-.53-26.7-.48-15.06-1.36-30.1c-.29-4.95-.47-10.07-.72-15.24a111.62,111.62,0,0,0-14.11-8.37,124.46,124.46,0,0,0-16.94-7.21,49.66,49.66,0,0,0-9.54-2.08c0,.37-11.8,28-11.83,28.07,5.72,1.89,17.17,5.94,21.2,8.84-.11,7.84,1.71,19.32,2.25,34.51.68,18.91.09,41.66-.31,48-.55,8.78-1.73,27.66-1.73,27.66s-24.65,9.69-33,12.35c-32,10.15-64.46,19-97.26,26.24q-40.3,8.94-81.22,14.62l-.89.12.89-.12-5.09.67-5.47.68c-3,.37-6.07.72-9.11,1.07q-10,1.13-20,2-20,1.83-40.06,2.81a925.91,925.91,0,0,1-164.59-6.64l-1.46-.19-1.27-.17,1.27.17-1.8-.25-5.45-.77c-3-.45-6.07-.9-9.09-1.37-6.69-1-13.37-2.1-20-3.24-12.23-2.09-24.43-4.42-36.6-6.83-22.45-4.44-44.62-9.71-66.57-16.17-10.82-3.18-21.5-6.82-32-11h0q-7.45-13-14-26.49c-2.73-5.62-5.34-11.29-7.89-17-.9-2-1.77-4-2.64-6,.22.52.2.48-.5-1.16.16.39.34.77.5,1.16l-1.12-2.65c-.6-1.46-1.2-2.93-1.78-4.4q-2.8-7-5.4-14.15c-3-8.18-5.32-14.89-7.95-23.21-5.38-3.2-11.12-5.32-16.59-8.24-7.5-4-14.89-6.75-22.09-11.26.45,2.87.61,1.91,1.1,4.77,1.66,9.7,7.38,20.1,9.83,29.69a399.5,399.5,0,0,0,15.79,49.28c7.12,17.84,12.18,34.62,21.46,51.27,19.75,11.22,41.41,19.93,63.06,26.53l0,0c-1.38-1.75-.61-.79,0,0l0,0h0l3,.91c49.87,14.74,102,24,153.62,29.79a929.34,929.34,0,0,0,165.53,3.74c90.85-6,180.1-24.91,266.21-53.72q6.58-2.21,13.14-4.49c8.17-2.83,27-11.27,27-11.27s1.13-18.51,1.43-27.4c0-.09,0-.18,0-.28.11-3.37.19-6.74.27-10.11Q2315.08,3536.85,2314.9,3513.52Z"/><path class="cls-5" d="M1455.64,3275.44a182.08,182.08,0,0,1,38.31-16.3q3.45-1,7-2c0,.4,18.67,17.11,20.08,20.33-4.94,1.43-30.4,11.16-35.07,12.94-.76,9.48-1,20.64-1.24,30.15-.41,20.17,1.33,40,2,60.16.5,15.25,4.2,32.35,4.22,32.37,2.82,4.67,12.87,12.12,22.22,18.51,8.29,5.66,27.9,19.32,28.44,19.71h0c7.64,5.37,15.52,10.48,23.51,15.39q3.78,2.33,7.63,4.55,10.8,6.22,22.06,11.75c5.47,2.7,11,5.37,16.42,8.32q4,11.51,8.45,22.82l0,0c-11.31.52-34.21-5.05-36.26-5.8-8.52-3.13-19.95-9.34-28.1-13.11-17.58-8.14-52.25-31.18-53.67-32.23q-2.44-1.78-4.83-3.63c-10.16-7.77-33.39-24.47-33.39-24.47s-3.59-24.56-5.62-38.16C1457.7,3396.66,1449.69,3315.54,1455.64,3275.44Z"/><path class="cls-5" d="M1493.72,3059.17c.5,5.36,5.9,57.81,6.31,108,.39,46.39-4.18,90.85-4.36,94.44.44.36,23.83,13.34,24,13.57,3.73-10.88,8.22-55.28,9.5-99,1.25-43-3.53-86-4.63-104.36C1515.25,3069.37,1496.68,3061,1493.72,3059.17Z"/><path class="cls-6" d="M2283.62,3462.61l-.6-.48Z"/><path class="cls-6" d="M2290.07,3467.65l-.49-.4C2290.34,3467.85,2290.34,3467.86,2290.07,3467.65Z"/><path class="cls-7" d="M1627.41,3534.2c.16.39.34.77.5,1.16S1628.11,3535.84,1627.41,3534.2Z"/><path class="cls-7" d="M1684.22,3633h0a1.75,1.75,0,0,1,.16.2,1.83,1.83,0,0,1,.13.16l.14.19C1684.57,3633.43,1684.41,3633.22,1684.22,3633Z"/><path class="cls-7" d="M1684.22,3633h0l.27.36a1.83,1.83,0,0,0-.13-.16A1.75,1.75,0,0,0,1684.22,3633Z"/><path class="cls-7" d="M1824,3624.54l-1.27-.17Z"/><path class="cls-7" d="M1684.18,3632.94c-1.38-1.75-.61-.79,0,0Z"/><path class="cls-7" d="M1684.18,3632.94l0,0h0A.1.1,0,0,0,1684.18,3632.94Z"/><path class="cls-7" d="M1540.63,3445.28l.91.69C1542.07,3446.38,1542.13,3446.44,1540.63,3445.28Z"/><path class="cls-7" d="M1468.82,3372.47c.28.38.58.74.87,1.11A11.31,11.31,0,0,1,1468.82,3372.47Z"/><path class="cls-7" d="M1469.69,3373.58c-.29-.37-.59-.73-.87-1.11A11.31,11.31,0,0,0,1469.69,3373.58Z"/><path class="cls-5" d="M1508.73,3270.77c18.89,18.21,55.42,53.32,56.54,52.19,1.52-1.55-32.13-41.35-50.93-62.69A114.4,114.4,0,0,0,1508.73,3270.77Z"/><path class="cls-5" d="M1886.73,3502.37c-1.33-1.59-51.58-8.51-75.18-11.8-45.88-6.39-94-13.63-137.69-29.29-.73-1.05-1.48-2.09-2.2-3.14-15-21.82-32-41.69-45.29-64.61-.73,1,10.15,39.18,19.29,53.91q8.22,13.24,16.89,26.23,7.4,2.92,14.82,5.53,8.31,2.93,16.73,5.52C1737.21,3498.11,1888.6,3505.68,1886.73,3502.37Z"/><path class="cls-5" d="M2112.83,3497.64c54.72-11.19,117.48-25.69,167.1-44.58-.3-.32-5-12.31-7.16-17.75-.12-.31-27.46,10.59-30.27,11.6C2195.29,3463.87,2112.09,3492.37,2112.83,3497.64Z"/><path class="cls-5" d="M1425.64,2986.94c-.79-25.67,11.24-53.37,29.76-71.73,14.56-14.43,40.49-27.2,73.51-34,30.15-6.2,91.2-4.58,100.07-4.17-.47,2.65-12.75,24.3-12.37,31.42-3.11-.23-22.23-.06-24.71.09-5.15.32-18.66-.07-33.52,1.3-17.2,1.58-36.2,5.14-46.1,8.59-14.74,5.14-27.27,15.9-31.09,18.79-.1.07-1.2,1-1.42,1.15-.74.69-1.47,1.42-2.16,2.14-1.55,1.57-3,3.22-4.41,4.93a42.44,42.44,0,0,0-6.61,10.62c-2.48,5.26-2.41,5.16-3.64,10.49-.5,2.13-.89,4.28-1.21,6.44-.19,1.24-.34,2.48-.47,3.73,0,.33-.13,2.28-.16,2.65a120.54,120.54,0,0,0,.66,13.43c.21,2.21.53,4.39.84,6.59,0,.16.26,1.42.31,1.79.3,1.29.65,2.57,1,3.84,2.37,8.3,4.79,17.92,9.38,25,5,7.7,11.24,15.22,18.89,20.42,3.4,2.31,13.57,10.43,36.53,18.48,14.58,5.12,47,13.25,57.59,17.32.92.61-12,4.71-34,3.83-15.89-.64-39.12-4.26-57.51-11.44-19.25-7.53-33.39-18.71-37.34-22.6a122.78,122.78,0,0,1-23.31-33.32A93.37,93.37,0,0,1,1425.64,2986.94Z"/><path class="cls-4" d="M1884.34,3060.59s21.92,45.9,58.21,65.86l58.21-12.32s-45-10.16-64.91-36.28-23.72-35.86-23.72-35.86Z"/><path class="cls-5" d="M1651.41,3301.32c4-5.53,8.16-10.89,12.43-16.19s8.88-10.56,13.3-15.84c2.7-3.23,5.19-6.59,7.74-9.94-.32.43,1.43-1.83,1.72-2.19q1.68-2.1,3.39-4.17a333.84,333.84,0,0,1,28-29.89q7.35-6.95,15.16-13.4c1.34-1.11,2.7-2.2,4.06-3.29.59-.47,3.83-2.95,2.38-1.87,2.17-1.63,4.34-3.26,6.55-4.84a312,312,0,0,1,33.46-21q8.58-4.65,17.44-8.77,2.61-1.22,5.24-2.37l2.54-1.12.24-.1c1.58-.65,3.15-1.34,4.73-2l1.84-.75a340.1,340.1,0,0,1,43.81-14.3q12-3.08,24.25-5.34,6.32-1.18,12.67-2.15c1.81-.28,3.63-.53,5.44-.81l.16,0,.23,0c.91-.1,1.82-.23,2.73-.34a490.74,490.74,0,0,1,49.37-3.36c32.75-.64,65.55,1.54,98.08,5.29,2.43.28,4.85.57,7.28.87l2.45.31c3.81.54,7.63,1.1,11.43,1.71,8.17,1.32,16.3,2.85,24.37,4.68s16.11,3.95,24,6.43q6.2,1.93,12.28,4.17c2,.75,4.06,1.53,6.08,2.34l2.12.85,0,0a230.34,230.34,0,0,1,35.89,19.93c1.46,1,2.92,2.05,4.35,3.11l1.17.82.28.23c2.6,2.11,5.2,4.2,7.71,6.4a187.06,187.06,0,0,1,15,14.75q3.74,4.09,7.22,8.41l.77,1c1.09,1.53,2.23,3,3.3,4.55a178.1,178.1,0,0,1,11.54,18.86c1.86,3.51,3.6,7.09,5.24,10.71l.84,1.9c.68,1.71,1.38,3.42,2,5.13q4,10.56,7,21.47c2.1,7.65,3.84,15.4,5.27,23.2.74,4,1.35,8,2,12.08,0,.06,0,.09,0,.15.1.89.22,1.78.32,2.66.21,1.78.4,3.56.58,5.33a380.48,380.48,0,0,1,1.64,50.07c-.58,18.14-5.91,77.73-5.77,76.16.32,0,38.09-15,38.12-15,3.5-29.88,6.29-58.6,5.21-88.65-1.21-33.85-6.5-69.63-19.18-101.22a197.56,197.56,0,0,0-55.24-77.57c-24.65-21.31-53.86-35.53-84.85-45.48-33.75-10.84-65.2-16.18-100.39-19.18-34.15-2.92-69.33-3.91-103.53-1.33-64,4.84-125.24,21.64-178.63,58.22-23.65,16.21-44.57,32.4-62.84,54.58-9.52,11.54-20.87,27-27.71,40.4a192.36,192.36,0,0,0-15.3,41C1638.45,3304.81,1646.91,3307.61,1651.41,3301.32Zm528.85-113.23a9.49,9.49,0,0,1,.84.67Zm-122.52-44.4h0C2057,3143.59,2056,3143.45,2057.74,3143.69Z"/><path class="cls-5" d="M2029.34,3105.93a205.5,205.5,0,0,1-23-6.23c-14.5-4.89-28.74-11.72-40.84-21.18a131.08,131.08,0,0,1-29.22-31.73c-4-6.27-7.73-12.7-11.16-19.32-.19-.36-.38-.72-.56-1.08a.9.9,0,0,1-1,.4,71.71,71.71,0,0,1-5.46,7.29c-4.62,5.46-9.79,9-16.09,12.43,1.39,2.94,16.58,28.54,39,45.9,23.74,18.42,55.69,28.32,58,27.8,17.85-3.88,34.17-5.9,52.23-8.71C2045.17,3107.47,2036.54,3107.44,2029.34,3105.93Z"/><path class="cls-4" d="M1562,2998.48c2.52,4.72,10.81,7.93,15.41,10.23a115.07,115.07,0,0,0,19.54,7.76c13.53,3.93,27.48,5.94,41.49,7.22,15.66,1.43,30.9,1.58,46.63,1.59,16.21,0,33.24-1.17,48.62-6,14.7-4.65,11-6.11,10.25-6-20.88,2-42.72,3.53-58.33,3.35-15.2-.18-30.41-.76-45.56-1.92a306.81,306.81,0,0,1-41.07-5.55c-6.31-1.36-12.7-2.81-18.86-4.76-3.37-1.07-6.69-2.29-9.94-3.69-2.56-1.1-4.92-2.84-7.73-2.93a.52.52,0,0,0-.45.77Z"/><path class="cls-4" d="M1944.64,2954.71c-5.89-54.56-94.54-62-94.54-62l-30.87-1.91c29,8.48,83.13,27.65,90.09,71.16,7.32,45.73-37.63,96.29-46.46,103.88,1.61-.59,37.75-13.52,57.4-36.47C1936,3010.93,1947.78,2983.83,1944.64,2954.71Z"/><path class="cls-5" d="M1962.52,2965.21c-1.14-25.65-13.37-49.5-33.41-66.18-13.76-11.46-40.13-22.28-73.5-26.57a330.49,330.49,0,0,0-68.28-2l1,31.33c8.9-.85,19.37-1.56,29.91-1.66,54.25-.47,100.58,17.23,111.77,48.61,11.29,31.68-15.08,74-35.24,93.24-12,11.46-27.49,20.71-34,24.06-5.93,3.06,15.7,2.64,36.87-5.2,10.75-4,26.09-13.68,37.32-26.07,10.68-11.79,17.44-26.2,20.4-33.29C1961.44,2986.94,1962.79,2971.24,1962.52,2965.21Z"/><path class="cls-11" d="M1585.07,2301.38c20.88-19.66,47.52-32.92,75.9-41.13,25.93-7.51,51.44-7,77.11-4.61,32.64,69,56.31,139.07,70.4,209.66,32.13,161,21.82,335.9-31,514.16A211.36,211.36,0,0,1,1749,2986c-23.18,3.5-47.45,3-70.89,3.68-31.8.91-60.69-2.87-89.3-9.84C1691.75,2748.87,1689.82,2497.59,1585.07,2301.38Z"/><path class="cls-9" d="M1585.07,2301.38c20.35-19.16,46.18-32.22,73.75-40.47,35.15,75.31,59.74,151.74,73.15,228.48,27.56,157.71,14.3,327.62-39.31,500-4.87.09-9.73.17-14.54.31-31.8.91-60.69-2.87-89.3-9.84C1691.75,2748.87,1689.82,2497.59,1585.07,2301.38Z"/><path class="cls-10" d="M1803.29,2466.34c-14.69-73.61-39.22-144.13-71.19-211.2,10.85.86,21.71,2.11,32.63,3.31,29.57,64.84,52.36,132.7,66.38,203.21,33.77,169.74,19.13,344-27.53,509.44-10.78,3.5-21.42,7.12-32.37,10.1C1820.84,2814.48,1837.59,2638.24,1803.29,2466.34Z"/><path class="cls-10" d="M1569.75,2321.3c-.12-.73-.25-1.59-.38-2.36a137.44,137.44,0,0,1,19.54-21.1c111.37,209.4,99.85,467.71,5.13,683.25-8.81-2-17.61-4.3-26.42-6.91-.18-.6-.38-1.22-.53-1.78C1657.1,2768.12,1672.24,2521.82,1569.75,2321.3Z"/><path class="cls-5" d="M1538,2929.64c-13.25,4-20.66,17.59-14.16,27.39,7.61,11.48,20.38,19.41,32.71,25,27.15,12.28,58,17,87.42,19.9,59,5.75,119.82,0,176.39-18.22,14.74-4.75,33.83-11.52,43.92-23.94,4.76-5.87,8.5-9.58,9.38-18.13.6-5.8-.87-19-11.2-21.2-11.26-2.34-1.18,2.29-3.81,6.95-1.52,2.7-.82,3.22-4,6.12a35,35,0,0,1-10.13,5.84l-2.69,1c-9,3.4-18.17,5.14-27.37,7.82-23.18,6.75-47.5,12.49-70.91,15.66a505.88,505.88,0,0,1-147.74-2.3,253.06,253.06,0,0,1-38.22-9.24c-5.49-1.81-11.31-3.6-16-7.18-9.87-7.59,13.41-18,.28-16.33Z"/><path class="cls-12" d="M491.42,1749.42q-2.54-14.88-6-29.62a386.62,386.62,0,0,0-16.24-53.08c-.47-1.09-.93-2.19-1.4-3.28-1-2.25-2-4.49-3.05-6.71q-2.88-6.09-6.11-12-3.77-6.87-8.12-13.39c-1-1.48-2-2.93-3.06-4.38l-1.32-1.64-55,32.4-6.91,3.36c-233.55,113.6-321.85,217.8-354.8,285.2l-.85,1.75.61,1.84C51.28,2016.18,97,2093.1,165,2178.5l10.35,15.35,2.91-6.44c5.33-10.77,38.63-84.78,56.06-103.15,10.38-10.94,22.14-20.23,33.83-29.68A181,181,0,0,1,287,2041c-73-101.16-143.84-112.65-167.75-113.38,13-4.64,41.28-11.2,75.46,2.3l2.42.95,2.67,1.53c39.09-28.31,117.22-81.45,199-123.31l7.92-4.3,86.61-43.22C492.53,1755.66,492.42,1755.26,491.42,1749.42Z"/><path class="cls-9" d="M186.78,2028.24c18.38,26.51,27,43,37.13,60.9,9.19-9,34.28-26.48,44.27-34.56,10.28-8.31,21.15-16.27,33.43-20.95-21.41-27.23-67.1-74.16-99.07-94.26l15.14-8.7s62.25-44.94,126.92-82.92c73.15-43,149.76-79.7,149.29-82.46-1.7-9.93-6.15-35.68-8.43-45.49q-3.22-13.92-7.4-27.56c-55.34,29.14-223.63,108.92-297.09,179.84,0,0-72,4.05-90.95,68.6C90,1940.68,150.19,1975.46,186.78,2028.24Z"/><path class="cls-10" d="M175.4,2193.88a45,45,0,0,0,2.89-6.47c-72.94-89.58-121.56-169.92-144.56-239,34.23-70,169.67-200.28,416.69-317.22-1-1.42-1.95-2.81-2.94-4.21-.67-.84-1.33-1.69-2-2.52a115.75,115.75,0,0,0-9.34-10.09c-1.51-1.44-3.09-2.81-4.66-4.18-.74-.54-1.48-1.09-2.23-1.61s-1.24-.83-1.86-1.24c-186.57,90.24-348.22,205.9-409.22,304.39A255.82,255.82,0,0,0,.47,1945.06L0,1946.13l.34,1.12c3.86,12.64,8.45,25.51,13.66,38.26,29,71.38,81.19,152.2,155,240.35,0-1.6.08-3.19.14-4.78h0l0-.77c.05-1.06.1-2.13.16-3.19C169.52,2214,175.39,2193.87,175.4,2193.88Z"/><path class="cls-10" d="M283,2043.52c9.07-6.07,18.8-11,29.65-13.06-28.4-40.55-59.2-71.57-91.92-92.51-61-39-110.92-11.59-111.42-11.32l-14.93,8.48,17-2.59C112.31,1932.35,196.31,1923.66,283,2043.52Z"/><path class="cls-10" d="M495.23,1775.58c0-.35-.07-.63-.09-.87s0-.33-.07-.52c-.23-1.78-.45-3.57-.69-5.35q-1.19-8.77-2.65-17.51L463.26,1765c-92.14,44.16-228.09,132.11-273.88,165.58l-1.55,1.14a319.58,319.58,0,0,1,29,18.31c47.91-34,174.06-114.59,257.75-155.17l21.63-10.37C495.88,1781.5,495.55,1778.54,495.23,1775.58Z"/><path class="cls-2" d="M406.38,2034.27l13.68-9.48-19.45,0c-32.78,0-63.74.07-98,15.22-40.65,18-74.37,47.94-95,84.3-21.38,37.74-29.64,84-23.27,130.32,3.58,26.15,13.88,48.71,23.83,70.53,4.43,9.7,9,19.74,12.92,30l.34.87,3.07,3c25.19,40.37,60.13,92.12,107.62,136.21,35.57,33,74.08,57.4,114.45,72.67A302.22,302.22,0,0,0,534.34,2587a263.75,263.75,0,0,0,58.53-2.73c26.33-4.22,51-12.76,77.49-26.88l.87-.46.64-.75c14.07-16.47,27-34,39.41-51.06l1.22-1.66c8.4-11.48,17.85-23.05,27-34.29,28.48-34.83,57.92-70.84,63.81-113.18l1-7.31-7.22,1.51c-21.73,4.54-43.76,6.52-62,5.58-3.15-.25-13.83-3.22-17.91-5.74.61-.18,1.28-.39,2-.66,10.06-3.88,28-8.09,42.35-11.46l1.14-.27c5.87-1.38,11.26-2.65,16.1-3.88,18-4.63,36.53-9.42,53.6-17.27,20.63-9.46,32.55-19.77,44.12-32.34l1.19-1.29.15-1.76c1.84-20.43,3.54-44.2.4-67.77-2.25-17.27-7.61-41.16-15.91-56.39l-.66-1.2-1.16-.73a42.92,42.92,0,0,0-9-4.42l-4.08-1.55c-29-11.42-61-13.63-91.94-15.78-6.27-.44-12.45-.93-18.55-1.43l-17-1.41c-8.68-.72-17.2-1.43-25.7-2-12.77-.8-24.38-1.18-35.5-1.17h-1l-.91.35c-4.35,1.71-12.89,11-16.36,14.92l-6,6.78,11.93,2.44c20.61,4,41.61,6.33,61.92,8.63l2.54.28c19.17,2.15,39,4.36,58.41,8a3.57,3.57,0,0,1,2.78,3.49,3.29,3.29,0,0,1-2,3.16l-.79.23c-33.71,7.65-74.26,7.28-127.61-1.2-5.63-.88-11.37-1.89-17.17-2.92l-1.43-.31c-28.69-5.26-70.51-15-102.39-38.33a4.24,4.24,0,0,1-1.8-3.8,5.57,5.57,0,0,1,.23-1.28,5.35,5.35,0,0,1,5.47-3.43c24.24,2.51,48.39,9,71.74,15.17l13.62,3.64L612,2140a122.74,122.74,0,0,1,17-20.5c1.39-1.41,2.85-2.69,4.45-4.1l.81-.78c4.48-4,8.23-7,11.86-9.64l.57-.42.79-.05c8.09-.53,17-.75,27.28-.69l7.57.05-2.68-7.08c-8.72-23.07-21.25-46.61-34.37-64.58-20.4-28-38.86-37.23-62.24-48.92l-1.61-.8-1.77.36c-34,7.08-78.76,24.87-119.69,47.61-69.67,38.55-115.39,90-132.23,149a5.91,5.91,0,0,1-6.57,4.3,5.36,5.36,0,0,1-4.87-5.39C315,2124.24,344.53,2077.13,406.38,2034.27Z"/><path class="cls-4" d="M388.43,2042.17c2.29.2,4.51.23,6.72.26-30.67,23-52.25,47.35-65,73.31-9-23.61-32.2-36.62-51.91-42.35C309.51,2052.26,355.42,2039.29,388.43,2042.17Z"/><path class="cls-4" d="M609.69,2201.84c-121.64-20.58-131.23-85.59-131.23-85.59l41.25,10.45a5.63,5.63,0,0,0-.65,1.08,5.57,5.57,0,0,0-.23,1.28,4.24,4.24,0,0,0,1.8,3.8c31.88,23.38,73.7,33.07,102.39,38.33l1.43.31c5.8,1,11.54,2,17.17,2.92,53.35,8.48,93.9,8.85,127.61,1.2l.79-.23a3.29,3.29,0,0,0,2-3.16,3.57,3.57,0,0,0-2.78-3.49c-19.41-3.64-39.24-5.85-58.41-8l-2.54-.28c-20.31-2.3-41.31-4.67-61.92-8.63l-11.93-2.44,6-6.78c3.47-3.91,12-13.21,16.36-14.92l.91-.35h1c11.12,0,22.73.37,35.5,1.17,8.5.53,17,1.24,25.7,2l17,1.41c6.1.5,12.28,1,18.55,1.43,31,2.15,63,4.36,91.94,15.78l4.08,1.55a42.92,42.92,0,0,1,9,4.42l1.16.72.48.87C812.76,2208.76,722.65,2221,609.69,2201.84Z"/><path class="cls-4" d="M572.43,2067c30.28-2,20.36-53.75,12.37-82.75,22.5,11.27,40.56,20.76,60.41,48,13.12,18,25.65,41.51,34.38,64.58l2.67,7.08-7.57-.05c-10.27-.06-19.19.16-27.28.69l-.79.05-.57.42c-3.63,2.64-7.39,5.69-11.86,9.64l-.81.78c-1.6,1.41-3.06,2.69-4.45,4.1a122.74,122.74,0,0,0-17,20.5l-2.06,3.15-1.82,4.91c-23.35-6.22-78.69-18.26-88.58-21l-41-10.81S530.26,2069.81,572.43,2067Z"/><path class="cls-4" d="M504.07,2555c31.86-19.36,75.51-58.79,124.75-139l37.82-62.71L748.73,2341l29.35-.81s-13.18,55.17-30.22,76.43c-5.6,7-63.49,80.29-101.8,128.82-11.34,14.35-65.07,22.78-102,21.14C517.7,2565.39,503.05,2555.64,504.07,2555Z"/><path class="cls-5" d="M770.11,2163.61c-19.26-2.1-76.09-5.92-136.34-15.82-51.42-8.44-100.94-22.52-110.31-24.32-2.2-.43-10.34-2.32-11.65.8-1.82,4.33,6.07,11,7.92,12.37,35.26,25.81,80.15,35.4,121.11,42.92,42,7.72,95,6.8,129.45-1,.27-.06.52-.14.77-.22l.56-.2c3.27-1.34,5.54-3.7,5.46-7.33C777,2166.67,774.17,2164.05,770.11,2163.61Z"/><path class="cls-5" d="M714.82,2345.3c70.6-13.27,98.47-25.71,115.35-33.47,19.72-9.09,33.3-18.91,44.46-31,1.86-20.21,3.19-43.77.08-66.83-2.22-16.92-7.46-40.7-15.39-55.22-3.55-2.22-4.68-3.13-8.28-4.5l-4.12-1.6c-15.49-6.08-62.68-16.27-106.83-20-36.36-3.06-71.45-2.68-81.41-.2h0c-3.49,1.43-16.45,14.77-26,28.06-10-3-20-6.66-29.86-9.95,5.75-11.93,14.86-22.9,25.87-33.69,1.47-1.46,3-2.85,4.55-4.22l1-.91c4.56-4,8.42-7.16,12.17-9.93l1.82-1.36,2.28-.13c11.64-.68,20.54-1.91,34.4-1.58,13.25.27,61.61-.65,105.36,6.36,47.44,7.61,90.08,23.25,93.58,25.22l1.9,1.07,1.05,1.9a209.15,209.15,0,0,1,16.79,40.53,238.2,238.2,0,0,1,10,79.32,174.73,174.73,0,0,1-6.61,41l-.58,1.59-.64.85A114.6,114.6,0,0,1,884.47,2318c-11.92,9.36-26.16,17.43-42.46,24.09q-7.38,3-15.31,5.63c-29.52,9.76-63.87,14.72-91.89,13.28-2.63-.09-22.85-4.78-23.83-10.38C710.23,2346.35,712.87,2345.66,714.82,2345.3Z"/><path class="cls-5" d="M801.56,2337.08c3.53,54-31.43,89.53-63.84,129.17-9.21,11.26-18.67,23.32-27.18,34.95l-1.19,1.63c-12.47,17-30.33,41.53-44.17,57.72-25.86,13.82-47,19.25-72.93,23.4a289.18,289.18,0,0,1-146.07-14.85c-39.77-15-83-45.24-118.06-77.71-47.32-43.87-74.63-95.74-99.74-136l-1.46-1.1a9,9,0,0,0-11.4-2.87h0a8.92,8.92,0,0,0-4.45,11.13c38.94,114.71,128.28,205.27,239,242.25,54.19,18.11,120,20.59,176.07,6.62,6.48-1.62,12.86-3.47,19-5.49q8-2.64,15.64-5.76a228.58,228.58,0,0,0,22.12-10.44l1.71-1.35c18.41-19.66,35-41.07,48.8-59.43l8.84-11.83c4.39-5.87,8.65-11.57,12.81-17,4.46-5.88,9.87-12.54,15.76-19.78,35.39-43.49,83.79-103,62.42-155C821.81,2328.7,801.56,2337.08,801.56,2337.08Z"/><path class="cls-5" d="M715.4,2119.45C705,2059,665.25,2002.9,616.48,1971.2a147.93,147.93,0,0,0-31.23-15.7l-1.41-.5-2.31.13a244.19,244.19,0,0,0-38.25,9.27,510.78,510.78,0,0,0-79.85,33c-74,38.26-145.81,95.75-149.07,181.53-.2,5.45,2.3,9.34,7.71,10,5.56.73,9.09-2.75,10.62-8.13,16.4-57.49,61.25-107.93,129.71-145.87,40.51-22.47,84.66-40,118.24-47,23.63,11.82,40.8,20.53,60.4,47.37,17.19,23.6,33,56.51,40.26,83.51C693.89,2119.58,715.4,2119.45,715.4,2119.45Z"/><path class="cls-5" d="M229.45,2362.77c-12.55-37.43-34.39-68.46-39.94-108.82-5.95-43.3,1-88.8,22.64-127,20.77-36.69,54.1-65.12,92.51-82.11,43.86-19.41,82.18-13.33,127.81-15.21,15-.62,30-8,16.59-14.42-40-19.27-109.88-17.64-149.21-2-46.72,18.64-88.4,52.49-113.53,96.35-23.56,41.11-33.08,88.87-28.8,135.94,3.91,43,30.56,98.54,71.21,133,4.34,3.67,3-9.08.72-15.73Z"/><path class="cls-13" d="M525.35,547.1s-24.53-77.34,42.31-144.8S740.77,337.9,805,300.77s141.81-153.91,232.16-170.89,138.1,12.93,138.1,12.93,76.3,31.73,194-26.92S1597.88-8.8,1685.89,19.78,1777.67,111.1,1861.45,131,2004,70.51,2110,146.73s119.87,156,119.87,156,3.54,45.1,54,82.59S2396,439.59,2396,439.59s124.38,39.84,132.7,118.27,31.08,390.22-469.65,590.92-1103.22,12-1281-167.34S525.35,547.1,525.35,547.1Z"/><path class="cls-14" d="M2396,439.59s-61.65-16.72-112.09-54.22-54-82.59-54-82.59S2216,223,2110,146.73s-164.79,4.2-248.57-15.72S1773.9,48.36,1685.89,19.78s-199,37.45-316.66,96.11-194,26.92-194,26.92-47.75-29.9-138.1-12.93S869.17,263.64,805,300.77,634.5,334.84,567.66,402.3s-42.31,144.8-42.31,144.8S600.28,802.05,778,981.44c30.24,30.51,72.79,61.3,125,90.39-57.68-59.21-167.47-185.52-239.95-353.65-102.15-237-49.7-255.61-49.7-255.61s25.84-51.48,108.18-64.71S898.25,323.6,954.18,259.27s140.57-67.73,157.72-69.76,44-2.7,78.56,6.31c0,0,86.4,33.93,193.28,1.22s135.46-75.4,217.17-98.6,145.44,59.27,145.44,59.27,55.22,56.66,177.38,25.38,216.73,46.73,234.95,111.76,58.65,129.34,146.14,166.29,123.42,37,158.75,99.77C2495.3,617.29,2555.39,905.2,2078,1141c481.2-200.88,458.93-505.74,450.72-583.16C2520.35,479.43,2396,439.59,2396,439.59Z"/><path d="M512.64,540.36c0,.12.1.37.25.83C512.8,540.92,512.72,540.64,512.64,540.36Z"/><path class="cls-10" d="M1336.45,187.83c-20.87-1-81.61-15.68-99.3-26.32-18.47-11.12-37.47-22.25-57-31.49-40.13-19-86.87-23.82-130.5-16.76-43.92,7.1-83.59,27-117.21,55.88-31.58,27.1-57.88,59.68-89.13,87.13-14.89,13.07-30.83,24.91-48.78,33.42-21.32,10.12-44.07,20.64-67.35,25-38.46,7.18-76.84,18.16-111.62,36.37C568.89,375.49,527.4,415,513,467.15c-5.31,19.23-8.1,40.46-3.91,60.17.93,4.42,2.19,8.73,3.51,13-.17-.59.89,2.75,1.21,3.65s.69,1.83,1,2.74c.77,1.92,8.15,23.3,21.2,42.56,2.51,3.72,8.22-1,6.77-5.55-7-22-9.76-46-10.31-49.86-.51-3.58-.8-7.19-1-10.8,0,0,0-1.71,0-2.2,0-1.84-.07-3.68-.17-5.52,0-.36,0-.75,0-1.06,0-1.09,0-2.18,0-3.27a140.78,140.78,0,0,1,3.18-27.21c.1-.46.16-.75.19-.94l.13-.49c.31-1.19.63-2.39,1-3.57q1-3.63,2.26-7.18a147,147,0,0,1,5.85-14.45q1.48-3.15,3.11-6.24c.29-.51,1-1.8,1.19-2.15.7-1.21,1.4-2.4,2.13-3.59a161.28,161.28,0,0,1,9.76-14.18c14.6-19,36.36-36.53,57.66-48.75,30.7-17.6,64.56-28.9,99.07-36.21,11.8-2.5,23.59-4.34,35.14-7.9,11.89-3.66,23.26-8.66,34.68-13.55,19.53-8.36,37.89-17.14,55.16-29.7,32.37-23.54,58.54-54.31,86.86-82.3,29.06-28.72,60.93-53.48,100.66-65.28a209.59,209.59,0,0,1,121.54,1.21c19.88,6.18,38.18,15.76,56.61,25.27,18.14,9.35,37,16.83,57.24,20.38,25.57,4.49,60.2,4,70.22,2.89C1342.67,196.23,1344.33,188.19,1336.45,187.83Z"/><path class="cls-10" d="M1171.63,137c19.62,12,42.6,22.23,65.93,22.61,24.69.4,49.17-3.17,73-9.47,49.51-13.09,95.34-35.81,140.5-59.48,40.53-21.24,82.22-41.45,126.78-52.74,39.91-10.1,85.09-12.43,123.78,3.36s64.46,49.37,94.92,76.54c14.8,13.19,31.25,25.22,50,32.25,23.93,9,49.25,8.08,73.65,1.44,22.12-6,43.46-15.44,66.23-18.94,4.87-.74,9.77-1.17,14.68-1.46.67,0,1.33,0,2-.09,2.11-.13-3.26,0-1.14,0,1.2,0,2.39,0,3.58,0,2.8,0,5.6.1,8.4.25,5.87.31,11.73.92,17.54,1.8q4.29.65,8.53,1.49c1.34.26,2.69.54,4,.84l2.32.52c3.79.85-2-.51.26.06a216.29,216.29,0,0,1,37.75,13.59c3.08,1.44,6.11,3,9.13,4.55a17.5,17.5,0,0,1,2.16,1.18c1.84,1,3.67,2.1,5.49,3.2a233.2,233.2,0,0,1,19.34,13.07,225.24,225.24,0,0,1,35.27,32.56,287.86,287.86,0,0,1,32.18,43.7c3.09,5.18,17.79,26.34,30,49.81,10.46,20.17,18.61,43,21.17,47.93,2,3.92,11.33,1.57,10.48-2.77-12.23-62.48-40.61-116.25-52.4-132.91-20.07-28.35-45.27-53.72-74.54-72.58-42.83-27.6-97.12-44.52-148.21-34.44-27,5.33-52.09,18-79.46,21.57-20.25,2.64-38.4-2.73-54.32-13-34.6-22.28-58.37-57-92.49-80.63-80.4-55.74-182-26-263,12.13-45.18,21.27-88,47-134,66.58-22.83,9.7-46.32,17.92-70.69,22.78-23.41,4.67-47.45,5.32-71.26,5.46a172.67,172.67,0,0,1-36.34-3.71c-1.57-.32-2.47,2.1-1.13,2.92Z"/><path class="cls-10" d="M2348.21,425.92c7,2.51,28.18,13.26,32.1,15.23,4.41,2.22,8.85,4.39,13.24,6.65,18.63,9.61,36.82,19.85,54.79,30.64,15.78,9.48,32,19.82,45,33.06,14.78,15.14,21.41,36.52,25.84,58.28,3.37,16.5,4.57,33.16,5.48,49.93.42,7.79.4,15.57.56,23.37.17,8-4.4,26.18,2.29,31.57,2.55,2.05,3.28,1.12,5.75-.48,11.59-7.48,16-40.58,15.9-52.41a268.78,268.78,0,0,0-4.34-46.77c-4.45-24.42-11.78-52.58-28.17-72-12.59-14.9-29.3-26.4-45.79-36.54-19.17-11.78-39.4-21.42-60.13-30.13-10.6-4.45-50.27-17.08-58.86-19.78-6.11-1.92-9.74,7.15-3.62,9.35Z"/><path class="cls-10" d="M640.81,430.61c-17.66.7-31.74,16.76-40.51,30.67a108.69,108.69,0,0,0-11.92,25.26c-1.3,4.13-2.92,26.09,2,41.87,6.59,21.08,20.54,36.23,20.73,32.34.73-14.66-3.8-35.93-2.22-54.61,1.39-16.54,8.86-31.26,10.28-34.6,6-14.05,17-25,23.4-38.75.57-1.23-.65-2.22-1.77-2.18Z"/><path class="cls-10" d="M2412.69,508.18c18.53,16.65,35.49,37.49,46.19,60.05,5.22,11,10.9,23.2,14,35,3.33,12.75,11.89,56.22,9.45,80.28-1.19,11.7,12.13,0,13.38-41.44a142.39,142.39,0,0,0-5.8-43.5c-4.22-13.75-9.34-26.93-16.76-39.3a170,170,0,0,0-25.06-32.62c-9.64-9.72-20.79-16.74-33.07-22.7-2.68-1.29-4.19,2.53-2.3,4.23Z"/><path class="cls-10" d="M1637.17,102c10,.27,19.16,3,28.21,7.16,38.08,17.28,62.62,52.84,98,74.17,5.12,3.09,32.34,17.37,64.93,8.86,1.87-.49,2-3.8-.14-4.47-4.77-1.52-18.07-4.13-30.27-9.7-11.44-5.22-21.9-13.43-24.06-14.86-17.65-11.72-33.11-26.47-49.55-39.77-15.52-12.57-32.88-25.61-52.11-31.84-21.7-7-61.43-6.12-82.59,1.78-28.32,10.57-68.61,30.37-65,36.37,2.41,4,27.91-11.17,54.93-19.5C1604.37,102.57,1630.72,101.86,1637.17,102Z"/><path class="cls-10" d="M958.68,262.5c9.24-7.23,19.68-13.19,29.21-20.1,19-13.76,40.47-25.91,64.05-32.57,14.14-4,55.24-12.32,92.17-12.66,29.69-.27,57.11,7.33,62.53,6,3.29-.84,3.88-4,1.52-5.6-4.91-3.34-37.65-18.33-73.84-20-37.39-1.73-78.4,10-92.17,14.71-24.5,8.43-46.68,21.86-66.15,37.13-10.16,8-17.86,17.6-26.25,26.8-8.13,8.91-25.81,28.89-23,30.44S949.05,270,958.68,262.5Z"/><path class="cls-15" d="M659.78,626c-3.17-11.4-5.28-23.24-8.28-34.74a345.81,345.81,0,0,1-7.94-36.44c-3.19-21.36-2.87-42.54,3.54-63.27,5.39-17.39,14.95-33.64,29.69-44.65,18.91-14.12,42.62-13.52,64.74-17.93,19.14-3.81,42.88-12.4,50.4-32.4a2.31,2.31,0,0,0-3.59-2.6C770,407.38,750.2,411,728.1,414c-22.61,3.11-45.16,6.58-63.58,21.16-33.17,26.26-42.26,71-36.17,110.93,2.1,13.75,6,27.16,10.42,40.32,2.23,6.58,4.82,13,7.56,19.37,3.13,7.29,7.32,13.9,10.64,21.05.68,1.46,3.28.81,2.81-.85Z"/><path class="cls-15" d="M936.83,328.58c7.3-6.27,13.35-14,20.22-20.72a214.56,214.56,0,0,1,22-18.89,334.42,334.42,0,0,1,50.23-31.2c34.64-17.39,73-27.42,111.7-28.25,10.5-.23,21.06.4,31.54-.24,5.74-.35,11.23-.22,17-.09,5.17.12,10.57,1.92,15.64.67a1,1,0,0,0,.38-1.69c-3.42-2.94-7.5-3.43-11.61-4.75-5.14-1.65-10.43-2.89-15.55-4.6a95.61,95.61,0,0,0-29.67-4.87,267,267,0,0,0-61,6.32c-40,8.94-78.09,26.85-109.68,53.93a272.58,272.58,0,0,0-25,25.15c-7.27,8.13-14.81,16.55-19.48,26.68-1,2.06,1.8,3.87,3.34,2.55Z"/><path class="cls-15" d="M1265.15,236.72c18.18,7.76,40.68,8.25,60.19,8a253.52,253.52,0,0,0,61.71-8.29,248.69,248.69,0,0,0,58.21-22.91c17-9.41,35.86-20.44,47.85-36.06a2,2,0,0,0-2.39-2.93c-9,3.88-17.65,9.38-26.31,14.08-8.5,4.61-17.09,9.07-25.94,13a380.34,380.34,0,0,1-56.26,20A383.69,383.69,0,0,1,1325,231.87c-9.94,1-20,1.8-29.94,1.9s-19.74-.69-29.66.36a1.36,1.36,0,0,0-.27,2.59Z"/><path class="cls-15" d="M1711.93,183c17,33.47,62.65,46.41,97.26,48.72,47.5,3.17,94-11.88,141-15.94,12.59-1.09,25.08-.9,37.69-.86,6.26,0,12.28-.57,18.55,0s13,1.44,19.44,1.49a1.08,1.08,0,0,0,.75-1.94c-8.11-6-17.92-8.11-27.33-11.06-10.11-3.18-20.24-4-30.82-3.77-21.9.36-43.53,3.44-65.08,7.11-43.7,7.43-89.76,18-133.65,5.92-21.55-5.93-38.62-17.43-55.69-31.43a1.43,1.43,0,0,0-2.12,1.74Z"/><path class="cls-15" d="M2057.49,235.46c10.43,6.51,19.88,16.87,27.58,26.39a162.54,162.54,0,0,1,20.3,32.77c6.24,13.2,11.08,27.07,15.9,40.84,2.66,7.58,6.3,13.71,10.08,20.7,3.51,6.49,5.67,13.74,11,19a.75.75,0,0,0,1.3-.59c-.37-8.08-4.42-15.31-5.77-23.22a140.9,140.9,0,0,0-5.35-22.56c-5.18-15.17-10.61-30.27-18.16-44.45-6.23-11.69-13.64-22.61-23.27-31.79-9.95-9.49-20.19-14.29-33.25-17.83-.41-.11-.8.44-.38.71Z"/><path d="M1128.75,537.76l-5.61,1.32a1.21,1.21,0,0,0,.39,2.39l5.74-.51c2.08-.19,1.52-3.67-.52-3.2Z"/><path d="M1129,539.42l-18-3c-1.29-.21-1.51,1.83-.22,2l18,2.59c1,.15,1.2-1.43.18-1.6Z"/><path class="cls-16" d="M1761.89,487c-104.89-31.93-123.16,40.18-195.65,46.73s-94.31-61.3-190.22-78.1-93.6,36.41-169.75,53.79-68.41-8.8-163.08.16C991.34,514.5,951.49,537,926,556.33c-31.29,223.07,203.57,271.31,498.74,301.08,302.48,30.51,421.07-50.06,469.66-146.91C1882.46,629.7,1835.14,509.31,1761.89,487Z"/><path class="cls-17" d="M1780.33,372.33s.33-23.6-82.93-55.41-110.58,12.72-177.86,8.25-90.89-32.74-172.51-42.63S1013.9,399.93,1013.9,399.93L930.78,530.05q-3,13.53-4.74,26.28c25.45-19.34,65.3-41.83,117.15-46.74,94.67-9,86.92,17.22,163.08-.16s73.85-70.58,169.75-53.79,117.73,84.65,190.22,78.1S1657,455.08,1761.89,487c73.25,22.3,120.57,142.69,132.55,223.49.64-1.26,1.26-2.52,1.87-3.79C1943.71,608.19,1780.33,372.33,1780.33,372.33Z"/><path class="cls-18" d="M1904.93,663.42c0,16.12-2.61,30.81-8.62,43.29a244.13,244.13,0,0,1-12.5,22.84c1.24,22-1.45,43.82-9.24,64.49-48.18,127.87,41.34-81.3,41.34-81.3S1913.49,692.78,1904.93,663.42Z"/><path class="cls-14" d="M1904.93,663.42c-15-51.6-49.09-132.26-122.52-184.81,0,0-35.12-41.68-105.13-15.14s-76,33.36-113,35.63-106.71-43.23-106.71-43.23-66.15-49.15-125.07-37.49-88.86,63.3-163,70.91-81.07-15.29-164.95,6.61c-29.33,7.66-54.56,23-75,39.74a312.78,312.78,0,0,0-6,46.18c25.44-26.1,90.15-78.82,177-50.58,113.2,36.81,191.18-30.72,191.18-30.72s55.86-48.13,129.07-3.35,105.54,60.2,132.55,58.3c72.72-5.13,77.64-47,150.46-53.81,61-5.72,173.58,113.77,180,227.89a244.13,244.13,0,0,0,12.5-22.84C1902.32,694.23,1904.93,679.54,1904.93,663.42Z"/><path class="cls-2" d="M1209.2,422.61c9.32-8.67,17.12-18.48,25.27-28.23,7.93-9.48,16.42-18.51,24.21-28.11,16.13-19.91,32.14-39.91,48.34-59.77l-13.75,6.1c10.75.65,17.55-4.84,22.71-13.66,11.6-19.81-13.83-38.5-28.93-20.92-6.61,7.69-9.85,16-5.74,25.93q.75-7.49,1.49-15c-13.52,21.8-27.23,43.47-40.81,65.22-6.55,10.5-12.33,21.48-18.73,32.08-6.57,10.89-13.33,21.48-18.5,33.12-1.13,2.54,2.38,5.13,4.44,3.21Z"/><path class="cls-2" d="M1504.74,415.89c-5.86-8.59-22.55-45.31-27.78-54.06-10.09-16.9-19.54-34.18-27.36-52.25-.4-6.12-2-11.53-6.83-16.4-12.33-12.35-30.42-3.59-29.72,13.41.3,7.31,3.83,12.57,8.88,17.09a449.5,449.5,0,0,0,34.56,50.93c6.8,8.72,38.73,35.84,46.07,43.08A1.41,1.41,0,0,0,1504.74,415.89Z"/><path class="cls-15" d="M1247.49,429.33c15.56-8.11,29.62-18.41,45.45-26.16,15-7.34,31-12.77,47.65-14.8,14.38-1.76,27.61.91,41.6,3.79,14.35,2.95,26.17,10.58,36.77,20.32,1.89,1.74,4.75-.94,3.73-3.05-6.83-14.15-19.48-24-33-31.29-14.26-7.73-31.89-8.79-47.8-7.49-18.75,1.52-36.7,8.69-52.73,18.27s-32.71,22.4-44.18,37.38c-1.2,1.57.68,4,2.48,3Z"/><path class="cls-19" d="M1133.14,465.55c-7.66.08-15.81-2-23.52-2.7-8-.69-15.9-1.86-23.82-3.09-15.59-2.44-31.38-4.54-47.18-4.17-26.26.61-54.43,7.48-73.77,26.37-10.46,10.22,5.34,25.26,14.69,13.8,15.7-19.25,42.48-23.82,66.1-23.52,14.69.19,29.32,1.33,44,1.62,6.75.13,13.5.17,20.25-.05,8.47-.28,15.24-2.82,23.34-4.52,2-.41,2.14-3.76-.09-3.74Z"/><path class="cls-19" d="M1596.17,466.62c12.45,1.77,26.51-2.84,38.27-6.54C1647.29,456,1660,451.44,1673,448a168.06,168.06,0,0,1,74.39-2.48A153.52,153.52,0,0,1,1856,529.5c4.18,8.65,17.57,2.61,13.62-6.22a165,165,0,0,0-32.35-48.19c-14-14.32-29.75-24.64-47.12-34.29-36.74-20.42-83.89-20.82-122.92-7.43-12.08,4.14-23.68,9.58-35.43,14.53s-24.93,8.69-36.27,14.61a2.18,2.18,0,0,0,.66,4.11Z"/><path class="cls-20" d="M1883,536.78c-2.8-11.67-7.23-22.88-12.09-33.84a643,643,0,0,0-32.06-63.5c-6.8-11.66-13.83-23.44-21.22-35.06-18-28.31-38.27-55.6-63.15-77.54-1.45-1.29-2.94-2.56-4.45-3.82a262.84,262.84,0,0,0-50.17-20.69c-5.53-1.64-11.12-3.13-16.75-4.42a230.23,230.23,0,0,0-82.15-3.78c-32.42,4.42-63.82,18.12-97,13.8-28.27-3.68-54.2-17.27-80.63-27.12-30.37-11.32-61.24-16.25-93.62-13.79-32,2.44-63.3,12.29-93.15,23.6-32,12.11-63.17,26.44-94.52,40.1-26.48,11.54-53.06,22.85-79.37,34.77q-14.34,6.5-28.56,13.27-11.19,5.36-22.46,10.5-13.4,16.42-26.24,33.27c-1.73,2.28-3.49,4.53-5.2,6.82-14.88,19.85-29.28,40.11-42.79,60.92-6.9,10.61-14.59,21.33-19,33.24a168.91,168.91,0,0,0-5.51,17c-1.42,5.51-3.84,12.36-.68,17.64a5.77,5.77,0,0,0,5.84,3.12c5.68-.53,9.43-5.47,13-9.47,4.25-4.78,8.15-9.79,12.09-14.82,7.35-9.36,12.55-20.43,18.68-30.64,12.57-20.94,26.15-41.22,40.42-61,10-13.91,20.31-27.62,30.7-41.26,30.85-11.37,61.32-23.47,91.78-35.85,31.39-12.76,62.69-25.78,94.21-38.19,28.73-11.31,57.94-21.74,88.42-27.14,28.77-5.1,58.24-6,86.49,2.44,27.25,8.14,52.61,21.57,80,29.37,14.23,4.05,28.74,6.9,43.58,6.77,17.64-.15,34.69-3.36,51.81-7.32,27.54-6.38,54.59-11.94,83-9.93a209.27,209.27,0,0,1,107.5,39c5.62,7.8,11,15.77,16.5,23.64a818.3,818.3,0,0,1,68.5,119.4c5.6,11.89,10.6,24.22,17.18,35.6,6.47,11.19,11.31,22.84,18.68,33.48,3.39,4.89,9.92.5,9.61-4.34C1889.34,559.05,1885.72,548.35,1883,536.78Z"/><path class="cls-21" d="M625.55,560.57s-148.12,232.52-15.12,525.8S1058.84,1431,1268,1363.87s245.2-549,210.28-642.13-116.2-81.52-116.2-81.52-116.61,34.8-190.3-16-3.91-188.51-140.4-209.63-162-3.6-162-3.6-19.33,44.31-98.6,72.17S649.44,524,625.55,560.57Z"/><path class="cls-16" d="M1184.94,1091.61s-113.2,2.55-116.35-102.72-11-257-154.68-263.9-172.69-73.61-177.8-105.37c-3.87-24.08-6.19-75.6-40.72-109-33.26,13.69-55,27.28-69.84,49.94,0,0-148.12,232.52-15.12,525.8S1058.84,1431,1268,1363.87c88-28.25,145.31-129.86,179.63-245C1329.17,1006.93,1184.94,1091.61,1184.94,1091.61Z"/><path class="cls-14" d="M1478.28,721.74c-34.92-93.08-116.2-81.52-116.2-81.52s-116.61,34.8-190.3-16-3.91-188.51-140.4-209.63-162-3.6-162-3.6-17.46,40-87.24,67.9c81.31-19.15,214.17-40.14,256.84,13.63,63,79.39,25.75,110.41,62.34,165.92s95.38,48.25,167.21,39.13,112.8-7.93,143.06,32.35,38.23,295.32-5,443c-15.64,53.43-41.43,104.42-68,147.75C1485.06,1182.17,1508.83,803.18,1478.28,721.74Z"/><path class="cls-20" d="M1479.5,695.76c-13.47-24.4-33.72-44.71-58.76-57.14-57.87-28.71-123.12,0-183.06-8.24-24.12-3.31-48.12-11.32-67.38-26.26-8.19-6.36-16.06-15.07-20.73-24-6.76-12.87-8.25-25.85-9-40.63-.86-16.47-2.38-32-7.89-47.67a130.3,130.3,0,0,0-20.78-36.93c-17.76-22.58-42.19-39.69-68.44-51-33.64-14.5-70.6-17.66-106.84-15.56a358.3,358.3,0,0,0-43.72,4.8c-4.5.82-9,1.77-13.33,2.88-5.83,1.49-11.56,3.15-17.23,4.92-5.58,8.69-11.19,17.33-18.08,25.09-.26.29-.5.58-.75.87-16.18,17.81-38.31,29-60.4,37.64-45.88,18-94.83,26.4-136.14,54.79-22,15.11-41.7,36.07-40,64.35.31,5.24,8.1,8.28,11.81,4.47,14.8-15.21,27.88-32.4,45.09-45.06,18-13.24,38.95-22.27,59.86-29.85,45.77-16.57,97-28,132.21-64.13a137.37,137.37,0,0,0,19.45-26l1.83-.19c16.54-1.76,32.9-4.76,49.49-6.18,30.45-2.62,62.24-1.44,91.42,8.35,24.21,8.13,47.22,21.5,64.5,40.5a111.42,111.42,0,0,1,20.27,30.85c5.68,13.15,7.38,26.85,8,41.07.75,16.06,1.85,31.58,7.68,46.74a97.17,97.17,0,0,0,19.22,30.54c17.1,18.51,39.86,31.13,63.8,38.51,25.87,8,52.62,10.51,79.58,8.69,32.3-2.19,64.43-10.1,96.93-6.39a107.1,107.1,0,0,1,71.19,39.14c18.31,22.42,25.23,48.57,25.93,77,.3,12.08,15.85,13.93,18.66,2C1500,748.14,1492.05,718.49,1479.5,695.76Z"/><path class="cls-2" d="M963.21,616.56c-11.45,39-15,80.6-18.33,120.94-4.46,53.24-7.08,106.47-6.51,159.9,1.26,117,8.86,234.33,28.23,349.76,5,29.75,11.29,59.34,18.52,88.62,4,16.31,8.15,32.71,13.26,48.75a102.38,102.38,0,0,1,10.81,1.2c-3.65-14.64-7.36-29.26-10.55-44-5.57-25.73-10.2-51.65-14.19-77.67q-13-84.51-20.41-169.7-7.71-87.78-9.53-176c-1.11-53.8-2-107.91-.27-161.7,1.51-46.78,5.83-93.17,10.92-139.66C965.28,615.93,963.54,615.43,963.21,616.56Z"/><path class="cls-2" d="M887.13,588.53c-1,8.39-2.86,17.12-2.28,25.56.7,10,1.57,20,2.44,30,1.7,19.6,3.71,39.11,6.61,58.57,5.7,38.24,13.25,76.25,24.51,113.27,2.53,8.32,4.81,16.7,9.16,24.27,2.46,4.27,4.71,8.5,6.8,13,1.31,2.79,2.79,7.4,5.91,8.77,5.17,2.28,6.48-3.56,5.61-7.25-1.1-4.67-3.17-9.06-4.18-13.78s-1.47-9.37-2.86-14c-11.33-37.22-20.58-74.36-26.8-112.82-3.48-21.54-6.5-43.18-9.48-64.8q-2.24-16.17-4.23-32.38c-1.25-10-4.72-19.33-7.75-29-.56-1.79-3.27-1.09-3.46.56Z"/><path class="cls-2" d="M1230.92,818.16c-.44,14.36-.86,28.78-2.28,43.07-1.61,16.17-4,32.3-5.24,48.49-2.83,37.4-7.17,74.64-11.51,111.89-9.87,84.77-25.05,169.25-46.57,251.86q-9.49,36.42-20.9,72.32c-4.87,15.24-10.44,30.41-15.2,45.75,5.49-.29,11-.52,16.47-.74,4.14-10.23,7.8-20.69,11.33-31q11-32.14,20.32-64.82,18.36-64.08,31.07-129.6c15.3-79.55,25.42-159.85,28.82-240.8,1.49-35.39-.67-71.11-2.31-106.49C1234.82,815.8,1231,815.89,1230.92,818.16Z"/><path class="cls-2" d="M1118.48,851.32c-.78-2-4.24-2-4.84.14-3.34,12.11-1.08,26-.73,38.52.43,15.3,1.41,30.59,2.07,45.88,1.55,36.12,2.7,72.27,3.17,108.42,1.07,81.65-1,163.55-10,244.76-2.49,22.58-5.65,45-9.8,67.34-2.2,11.87-4.89,23.65-7.5,35.44.33,0,.65,0,1,0,3.45.37,6.91.62,10.38.72,1.36,0,2.72,0,4.08.05,1.52-8.27,2.84-16.57,4.14-24.85,3.14-20,5.7-40.2,8.1-60.35,4.94-41.49,7.89-83.2,9.54-124.94,3.07-77.56,1.62-155.23-1.81-232.75q-1.18-26.7-2.63-53.39c-.42-7.8-1.08-15.58-1.67-23.37C1121.39,865.41,1121.27,858.41,1118.48,851.32Z"/><path class="cls-20" d="M951.94,460.69a90.09,90.09,0,0,0-36.45-13.59c-13.8-1.88-28.77.57-42.37,3-15.18,2.78-30.13,6.77-45.08,10.58-8.19,2.08-16.33,4.27-24.6,6-8,1.71-16.88,2-24.25,5.82-8.52,4.36-5.69,15.25,2.77,17.26,7.28,1.73,14.88-.29,22.07-1.75,7.81-1.58,15.56-3.48,23.25-5.54,14.76-4,29.27-8.79,44.13-12.37a241.12,241.12,0,0,1,38.52-5.91c6.76-.52,13.67-.86,20.38-1.57,7.2-.76,13.44-.25,20.65.55a1.43,1.43,0,0,0,1-2.56Z"/><path class="cls-15" d="M907.72,491.34c19.91-2.44,38.59-1.52,57.35,6.15,17.85,7.29,33.51,18.38,45,34,27.57,37.29,20.55,88.84,35.43,131,7,20,19.18,42.41,39.9,50.2a2.11,2.11,0,0,0,2.37-3.28c-6.53-8.33-13.66-17.16-18.52-26.63a132.57,132.57,0,0,1-10.65-30c-5.55-23.44-7.25-47.33-11.28-71-3.92-23-11.4-46.16-26.37-64.46-12.51-15.29-30.65-27.53-49.69-33-20.74-6-45.1-6.87-65,2.38a2.5,2.5,0,0,0,1.43,4.73Z"/><path class="cls-15" d="M1166.54,743.54c2.87,2.63,6.5,3.07,10.25,3.89,5.56,1.23,11.15,2.32,16.7,3.58,9.52,2.16,19.68.8,29.28-.2,20.87-2.18,41.3-7.42,62.26-9,19.07-1.45,39-.23,56.18,8.88,16.1,8.53,29.44,19.8,35.67,37.37.58,1.65,3.47,1.22,3.47-.56,0-42.14-44.2-61.42-80.42-61.86-23-.28-45.53,4.71-68.11,8.51-10.94,1.83-22,3-32.94,4.89-6.45,1.14-12.28,2.76-18.92,2.73-4.51,0-8.93-1.27-13.26.15-.75.25-.62,1.2-.16,1.62Z"/><path class="cls-22" d="M1131,1185.66s-95.64,275.56-87,311.53,61.6,521.86,432,491.85,823.91-484.9,863.13-569.73,82-175.1,73.68-337.77S2361.11,727,2361.11,727l-19.73-158.33S2257,436.6,2172.58,421.48s-157.36-18.69-211.71-53.65-154.28-.41-181.74,38.27-11.82,178.27-123.05,253.42-142.43,13.38-212.77,68.27-13.92,188.55-80.1,241.9-102.5,7.54-167.55,71.49S1131,1185.66,1131,1185.66Z"/><path class="cls-16" d="M2330.71,553.1l-1.44-.22s-54.39-24.27-147.86,43.65-57.45,227-97.85,250.19-85-7.69-94.07-21.77-93.18-118.24-200.41-17.17-53.28,323.47-105.27,371.53-120.2-32-195.63,24.15-42.2,90.86-72,188.84-255.47,130-255.47,130-58,6.84-103.17,46.54c30.7,143.42,124.76,444,418.47,420.23,370.39-30,823.91-484.9,863.13-569.73s82-175.1,73.68-337.77S2361.11,727,2361.11,727l-19.73-158.33S2337.54,562.67,2330.71,553.1Z"/><path class="cls-14" d="M1121.33,1593.57c-11.38-225.35,54.71-287.43,78.39-425.21s123.23-98.93,184.71-139.24,85.16-95.39,74.46-165,18.37-124.31,98.12-138.58S1729.94,696,1775.72,646.8s17.57-123,48.66-194.59c19.47-44.85,102.59-63.24,162-70.71a188.38,188.38,0,0,1-25.51-13.67c-54.36-34.95-154.28-.41-181.74,38.27s-11.82,178.27-123.05,253.42-142.43,13.38-212.77,68.27-13.92,188.55-80.1,241.9-102.5,7.54-167.55,71.49S1131,1185.66,1131,1185.66s-95.64,275.56-86.94,311.53c5.41,22.41,28,219.34,133.73,357.46C1153.71,1797.79,1127.23,1710.55,1121.33,1593.57Z"/><path class="cls-2" d="M1709.58,810.94c-.33,17.55,14.8,34.59,25.3,47.37,19.86,24.19,42.63,46.15,66.52,66.31,66,55.68,141.66,103.85,221.89,136.06,50.57,20.31,104.65,36.58,159.09,41.58,19.23,1.77,22.33-27.08,3.27-29.75-46.29-6.5-91.35-16.36-135.49-31.94a849.17,849.17,0,0,1-123-54.49c-62.65-34.07-123.54-76.49-173.84-127.34-14.26-14.4-29.24-30.68-38.75-48.6-1.11-2.09-5-2-5,.8Z"/><path class="cls-2" d="M1551.36,1209.68a2284.57,2284.57,0,0,1-5.21,253c-2.83,36.77-5.17,73.62-12.56,109.81-3.23,15.82-6.16,27.5-10.71,43.34-5.53,19.22-11.91,38.2-19,56.92a1021,1021,0,0,1-67.23,142.76c-18.59,32.88-38.73,64.89-60.06,96.06q-18,26.36-37.15,51.94-4.9,6.57-9.87,13.16a186.13,186.13,0,0,0,22.88,9.08c12.07-15.82,23.43-32.2,34.61-48.25,20.4-29.27,39.77-59.26,57.83-90,28.41-48.42,54-98.7,74.16-151.14a733.51,733.51,0,0,0,33.38-111.13c6.37-30.18,9.14-60.4,11.32-91.15,6.74-95.23,5.57-190.93-2-286.06C1561.19,1201.16,1551.13,1203.08,1551.36,1209.68Z"/><path class="cls-2" d="M1470.93,1331.75c6,18.13,11.59,36.38,18.2,54.31s12.83,35.83,18.75,53.91,11.43,36.06,16.63,54.25,9.07,37.3,15.47,55.25c2.48,7,13.45,3.35,12.27-3.72-3.12-18.71-9.74-37.17-15.36-55.28s-11.57-36.16-17.86-54.07-12.92-35.72-19.87-53.4c-7.15-18.18-15.91-35.44-24.92-52.76a1.82,1.82,0,0,0-3.31,1.51Z"/><path class="cls-2" d="M2106.55,756.06c15.48,44.3,28.65,89.41,40.21,134.88,16.14,63.53,29,127.9,38.87,192.69A2117.12,2117.12,0,0,1,2208.36,1325a2097,2097,0,0,1-6.3,259.17c4.91-4.59,10.14-8.89,15-13.16q5-4.39,10-8.72,5.91-101.79,1.94-203.84a2066,2066,0,0,0-25-248.59,2046.37,2046.37,0,0,0-42.52-200.41c-12.74-47.92-27.21-95.43-44.05-142.08-9.09-25.16-18.55-50.44-30.19-74.56-.65-1.33-1.3-2.66-2-4-1.41-2.77-5.79-.82-4.41,2C2091.06,711.81,2098.87,734.09,2106.55,756.06Z"/><path class="cls-20" d="M2420.8,931.35c-13.35-69.1-28.59-137.64-39.29-207.26-6-39.22-10.91-78.87-18.22-117.86l-.06-.35c-2.83-15-5.34-30.12-7.75-45.22-4.09-5.73-8.38-11.33-12.51-17q-8.47-11.54-17.33-22.76c-4.66-5.91-9.41-11.76-14.28-17.49-21.74-25.54-46.6-49.16-74.8-67.47-30.42-19.76-63.65-31.77-99.42-37.47-36.56-5.82-74.37-4.91-110.21-15-15.51-4.35-51.74-24.14-53.25-25.33-3.12-1.27-6.38-2.3-9.54-3.36A143.31,143.31,0,0,0,1937.5,349c-1.68-.23-3.35-.45-5-.65a253.4,253.4,0,0,0-60.86-.17c-35.42,4.37-69.93,18.39-96.75,42.23a141.88,141.88,0,0,0-47.56,92.05c-2.11,19-1.34,38.17-3.8,57.13a157.54,157.54,0,0,1-13.11,45,180.59,180.59,0,0,1-29,45c-6,6.73-11.81,13.57-18.33,19.76-6.72,6.4-11.9,13.5-19.48,19.06-1.89,1.39.1,3.92,2,3.26,7.15-2.41,15.36-3.8,22.11-7a123.22,123.22,0,0,0,21.36-13.49c12.32-9.47,23-21.84,31.88-34.51,19.21-27.26,29.09-59.17,31.94-92.19,1.63-18.84,1.38-38.3,5.87-56.77,3.59-14.73,10.75-28.24,20.11-40.1,19-24,47.28-40.48,76.87-47.43a203.83,203.83,0,0,1,63.12-4.28c10.48.84,20.68,2.85,31.06,4.23,5.15.68,37.08,12.76,45.38,16.62,32.93,15.29,70.26,20.31,105.94,25,35.47,4.65,70.47,11.22,101.81,29.41,28.48,16.52,52.25,38.75,74.33,62.94,13,14.23,25.1,29.22,36.75,44.55,4.21,5.54,17.8,104.89,22.11,139.45,8.64,69.29,22.83,137.84,37.42,206.08,7.25,33.91,14.16,68,17.5,102.55,3.22,33.42,2,66.92.58,100.4-2.72,64.39-4.51,130.45-19.17,193.44a413,413,0,0,1-33.57,91.95c-7.43,14.77-16.65,28.43-24.47,42.94s-15.16,29.12-22.93,43.58c-2.31,4.3,4,8,7.29,5.27a257.57,257.57,0,0,0,32.79-31.41c9.66-11.19,17.16-24.52,24.46-37.33a547.47,547.47,0,0,0,38.07-81.9c22.75-61.85,32.53-127.45,36.07-193,1.85-34.07,3.71-68.26,2.91-102.39C2432.41,1002.28,2427.64,966.76,2420.8,931.35Z"/><path class="cls-20" d="M1844.16,429c5.23-4,28.8-13.56,34.79-15.84a250,250,0,0,1,36.12-10.39c11.86-2.57,23.85-4.28,35.81-6.29s25-5.31,36.9-1.48c5,1.6,10.57,4.8,16,3.6,3.92-.86,8.22-4,7.51-8.54-.67-4.3-5.49-6.05-9-7.22-5.8-1.89-11.37-4.27-17.42-5.27-12.09-2-24.64.56-36.57,2.46s-23.89,4.42-35.63,7.45c-13.06,3.38-25.83,7.47-37.89,13.56s-22.39,16.72-31.93,26.29a1.08,1.08,0,0,0,1.37,1.67Z"/><path class="cls-19" d="M1240.3,1165.9c5.88-13,13.35-23.44,24.4-32.52a121.84,121.84,0,0,1,36.55-20.34c32.54-11.75,67.65-13.64,99.25-28.54,55.39-26.14,95.8-78.12,107.16-138.28a153.56,153.56,0,0,0,1.28-52.5,133.15,133.15,0,0,0-6.66-24.74c-3.11-8.71-4.71-17.27-10.3-24.85-2.1-2.85-6-.39-5.81,2.62.61,8,3.56,15.34,4.64,23.25s.91,16.26,1,24.14a262.88,262.88,0,0,1-3,45.2,170.31,170.31,0,0,1-37.13,81.34,174.93,174.93,0,0,1-68.4,50.12c-31.59,12.88-67,14.23-98,28.8-13.16,6.2-26.84,14.82-35.6,26.68a99.66,99.66,0,0,0-10.69,18.79c-3.2,7.23-3.59,12.65-2.77,20.41.22,2.18,3.21,2.19,4,.42Z"/><path class="cls-15" d="M1500.3,796.37c2.92-3.39,4.56-7.61,7.75-11a81.33,81.33,0,0,1,11.85-9.9A103.1,103.1,0,0,1,1548.81,761c12.74-4,25.63-5.62,38.82-7.17,6.42-.75,12.86-1.63,19.29-2.19,3.41-.3,6.8-.36,10.19-.89,4.09-.65,7.74-2.44,11.78-3.17a1.69,1.69,0,0,0-.08-3.34c-4.52-.84-8.63-2.88-13.24-3.58-3.78-.57-7.63-.62-11.43-1a144.86,144.86,0,0,0-21.34-.9,122.62,122.62,0,0,0-45.37,11.3A94.29,94.29,0,0,0,1510,769.72c-5.68,5.78-15.91,16.51-14.54,25.5.38,2.46,3.39,2.85,4.85,1.15Z"/><path class="cls-15" d="M1769.74,687.44c14.62-.63,28.66-11.14,38.59-21.2A126.75,126.75,0,0,0,1835,626.52c7-16.63,10.78-34.45,12.74-52.33,2.11-19.16.19-37.55-2.4-56.58-.44-3.19-5-2.85-5.48.14-2.81,17-5.46,33.8-7.18,50.9-1.68,16.73-4.58,33.61-10.33,49.45-4.87,13.4-11.53,26.47-20.51,37.59-9.62,11.91-21.87,19.14-33.47,28.67-1.46,1.19-.24,3.15,1.39,3.08Z"/><path class="cls-15" d="M2016.08,472.48c-57.52-35.43-99.6-36.39-109.25,36.5S2067.33,504.05,2016.08,472.48Z"/><path class="cls-15" d="M2051,485c-.49-11.58,27.81-26.31,35.77-22.13s17,25,6.77,33.1C2084.82,502.84,2051.52,497.27,2051,485Z"/><path class="cls-23" d="M342.62,480.16s77,195.25,4.17,475.53S294.14,1506.45,317,1631c0,0,103.88,268,373.31,484.33s402.48,199.82,577.88,191,263.22-277.86,218-423.49c0,0-26.77-48.77-110.15-90.34S1220.71,1678,1201.8,1596.59s52.24-168.69,30.45-271.41C1202,1182.79,1055.83,1219.39,1021,1119.4c-45.66-131.2,2.17-179-53.76-322.68s-277.1-21.4-312.58-162.23C623.33,510,525.58,447.73,342.62,480.16Z"/><path class="cls-24" d="M682.91,1108.09c31-155.51,31.31-306.24,25.39-410-25.46-10.74-45-29.42-53.61-63.59C623.33,510,525.58,447.73,342.62,480.16c0,0,77,195.25,4.17,475.53S294.14,1506.45,317,1631c0,0,103.88,268,373.31,484.33q38.85,31.18,74.07,56.13C518,1725.45,633.83,1354.33,682.91,1108.09Z"/><path class="cls-15" d="M418.33,1624.43c-21.14-47.35,55.1-111.5,89.44-108.55s62.75,100.71,44.67,126.53S431.55,1654.06,418.33,1624.43Z"/><path class="cls-15" d="M462.74,1437.91c8.37-24.54,65.46-29,81.21-17.94s8.51,62.71-20.22,71.21S451.53,1470.82,462.74,1437.91Z"/><path class="cls-9" d="M952.34,1309.58s46,403.55-103.79,555.23-213.08,124.72-213.08,124.72,227,266.51,469.25,272.73,290.18-57.76,290.18-57.76l53.94-108.4s-11.78-109.57-48.35-161.95-256.45-115.68-289.2-180.52-56.51-127-43.09-225.31,14.82-186.24-81.62-248.71c0,0-38-19.44-47.32-47.07C939.26,1232.54,949.82,1281.46,952.34,1309.58Z"/><path class="cls-14" d="M1486.15,1882.85s-26.77-48.77-110.15-90.34S1220.71,1678,1201.8,1596.59s52.24-168.69,30.45-271.41C1202,1182.79,1055.83,1219.39,1021,1119.4c-45.66-131.2,2.17-179-53.76-322.68s-277.1-21.4-312.58-162.23C623.33,510,525.58,447.73,342.62,480.16c0,0,10.59,26.89,20.21,75a529.45,529.45,0,0,1,75.94-.58c71.38,4.7,103.69,26.45,115.86,53.62S587.39,726,659.37,748.63c0,0,29.81,10,87.33,11.65s122.62,38.84,164.35,126.31-30.25,92.72,55.69,286.19c0,0,12.62,49.43,65.64,82.78s101.95,84.85,92.54,182.58-44.9,130.52,12.3,254.34,283,157.59,311,234.82c12.39,34.21,29.07,91.7,34.22,154.67C1501.3,2011.83,1503.4,1938.37,1486.15,1882.85Z"/><path class="cls-2" d="M925.56,1898.51c-14.15,15.7-27.66,31.7-39.79,49s-24.67,34.14-37.73,50.65-26.62,32.67-40.62,48.4q-10.36,11.66-21.06,23l-1.26,1.3q4.89-11.68,9.7-23.42c8.48-20.75,16.7-41.61,24.38-62.67C834.65,1942.39,847,1899.47,855,1855a351.81,351.81,0,0,0,5.58-73.37c-.07-2.44-3.58-1.94-4,.1-9,42.86-19,85.8-33.7,127.11s-30,82.34-47.6,122.67q-7.28,16.59-14.74,33.1c-.39.86-.8,1.72-1.2,2.58-.4-.6-.8-1.18-1.19-1.78-1.25-1.88-2.48-3.77-3.71-5.67l-2.31-3.61c-.52-.84-2.18-3.52-2.55-4.13-1.38-2.26-2.73-4.52-4.08-6.79q-14.64-24.76-27-50.79a946.4,946.4,0,0,1-49.2-127.13c-.35-1.13-.7-2.27-1-3.41-.07-.22-.16-.52-.28-.93q-1.17-3.93-2.3-7.86-2.48-8.52-4.8-17.09-4.49-16.47-8.53-33.07-2.45-10-4.83-20.08c20.75-103.4,54.35-203.42,103.13-297.55,8.24-15.89,16.44-31.84,25-47.55,4.08-7.47,6.38-15.54,10-23.28,4.21-8.92,9.12-17.57,13.86-26.21,1.35-2.45-1.78-4.92-3.6-2.6q-7.56,9.63-14.91,19.41c-5,6.59-10.66,12.38-15.94,18.61-5.09,6-8.9,14-13,20.66-4.28,6.94-8.45,13.92-12.36,21.08q-23.5,43-43.3,87.91A1114.88,1114.88,0,0,0,635.85,1733c-9-43-17.47-86.31-24.82-129.63-14.4-85-22.46-171.35-22.68-257.57q-.08-33,1.59-66a8.26,8.26,0,0,0,1.81-7.47l-1.08-5.36q1.58-25.2,4.24-50.3c4.61-42.85,13.08-84.63,22.63-126.59a306.48,306.48,0,0,0,5.8-30.77c.7-5.63-6.62-6.54-9-2.19-10.43,19.4-16,40.75-21.22,62.07s-9.69,42.55-13.36,64.07q-1.53,9-2.85,17.93c-5.78-27-11.59-53.93-16.92-81-4.95-25.2-10.22-50.33-15.09-75.54-5-25.7-9.19-51.52-15.43-76.94a5.26,5.26,0,0,0-10.38,1.67c1.74,25.65,5.84,51,9.72,76.41,3.94,25.83,7.93,51.68,12.67,77.37,8.54,46.21,17.22,92.52,28.39,138.18q-2.25,26.31-3.22,52.75c-3.26,88.65,4.66,176.43,12.31,264.62,6.15,70.8,13,141.79,25.48,211.8-8.88-12.31-17.68-24.66-26.08-37.3-19.56-29.4-38.66-58.93-55.8-89.82-17.21-31-33.62-62.48-48.15-94.87s-26.85-65.53-38.62-99c-6.41-18.23-12-36.72-18.48-54.93-6.92-19.52-14.49-38.57-20.27-58.49a1.41,1.41,0,0,0-2.79.45c1.95,18.42,3,37.12,6,55.38a486,486,0,0,0,11.65,51.65c9.61,34.7,21.87,68.69,35.54,102q4.71,11.48,9.71,22.8a335.62,335.62,0,0,1-29.65-24.5c-16.73-15.77-32.75-32.54-46.85-50.72a1,1,0,0,0-1.71,1.07c21.71,40.09,52.73,77.6,91.3,102.63a977.5,977.5,0,0,0,81.26,138.89c11.6,16.55,24.39,32.37,37.28,47.92a341.8,341.8,0,0,0,23.31,26c.88,4.14,1.77,8.27,2.7,12.4-.23,1.7-.47,3.4-.68,5.1a9.89,9.89,0,0,0,4.1,9.84c11,46.18,24.36,92.31,43.15,135.94A676.38,676.38,0,0,0,720.18,2101,530.75,530.75,0,0,0,795,2190.71a501.59,501.59,0,0,0,47.48,40.47c16.56,12.26,33.9,24.54,53.48,31.26a195,195,0,0,0,30.62,7.82c7.78,1.34,16-4.29,18.76-11.39,3-7.81-.08-15.9-6.24-21.08-7.08-6-14.26-11.69-21.49-17.46-7.65-6.12-15.54-11.15-23.75-16.48a433.33,433.33,0,0,1-45.47-34.07q-5.08-4.37-10.06-8.86-1.87-1.71-3.73-3.44c-.3-.3-2.9-2.77-3.67-3.52q-10-9.78-19.52-20.11-13.33-14.54-25.54-30.06c2.39-2.56,4.5-5.35,7-8.07q5.29-5.82,10.53-11.71,10.85-12.24,21.32-24.81,20.21-24.22,39-49.61t36.08-51.86c11.86-18.14,20.85-37.49,28.14-58A1.34,1.34,0,0,0,925.56,1898.51Z"/><path class="cls-10" d="M562.82,641.57c.9,1,19.06,63.48,36.43,84.78,15.38,18.88,39.24,29.59,62.12,36.06,21.14,6,42,8.25,63.8,8.7,19.62.41,39.48,1.71,58.62,6.34a179.64,179.64,0,0,1,34.27,12.38c12.54,5.92,23.77,10.36,33.4,20.92,1.46,1.6,4.59,0,3.4-2.12a175.55,175.55,0,0,0-19.11-27.2c-7.3-8.65-18.67-14.34-29-18.49-20.1-8.05-41.82-11.94-63.3-13.9-18.91-1.72-38-1.27-56.83-4.15-23.43-3.59-50.21-10.58-69.31-25.25-22-16.88-44.72-81.67-47.34-82.85C563,633.66,562.82,641.57,562.82,641.57Z"/><path class="cls-25" d="M1317.09,2276.79c-175.31,9.34-308.34,26-576.58-182.93s-370.8-468.78-370.8-468.78c-22.26-120.86-26.2-379.88,32.88-656.13,61.17-286-2-461.93-2-461.93,68.68-12.14,125.3-11.26,170.87,1C519.21,473.32,444,462.19,342.62,480.16c0,0,77,195.25,4.17,475.53S294.14,1506.45,317,1631c0,0,103.88,268,373.31,484.33s402.48,199.82,577.88,191c40.11-2,75.64-17.64,106.06-42.29A176.78,176.78,0,0,1,1317.09,2276.79Z"/><path class="cls-10" d="M1173.39,2302.2c-54.52.15-114.64-16.25-138.43-22.83-54.88-15.18-107.46-37.81-157.62-64.59-43.73-23.35-88.89-52.29-130.11-82.45q-30.72-22.47-59.94-46.88-15.24-12.72-30.06-25.94-6.59-5.87-13.08-11.84c-5-4.59-8.5-7.86-11.89-11.07a1255,1255,0,0,1-195.78-237.52c-4.18-6.55-4.73-7.43-8.14-13s-6.9-11.32-10.29-17q-9.87-16.62-19.23-33.54-18.74-33.81-35.39-68.73-16-33.54-30-68a1669.28,1669.28,0,0,1-13.81-194.46c-1.22-104.23,8-207.79,24.55-310.63,16.72-103.72,37.42-207,45-312,3.78-52.57,4.06-134.2-2.08-186.61a824.11,824.11,0,0,0-14.68-85.65c-.37-1.66-3.19-16.11-3.58-17.77.86-1.14,16.82-1.36,18.2-1.43,36.89-1.89,74.3-3.18,110.89,2.84,55.84,9.19,114.65,41.51,130.25,99.65,8.1,30.21,10.17,63.84,31,88.92,22.46,27.08,58.13,31.4,91,34.58,36.11,3.5,101.72,7.73,158.53,35.12,6.21,3,11.69-5.13,6.58-9.75l-1-.91a210.94,210.94,0,0,0-120-53.27l-5.75-.57c-14.68-1.41-29.39-2.64-44.05-4.26-15.52-1.71-31.91-3.35-45.95-10.79-26.74-14.17-29.22-49.27-35.74-75.72-8.05-32.67-23.14-60.12-48.19-82.83-23.63-21.41-53.52-36.22-84.28-44.15-42.35-10.91-86.33-11.09-129.67-7.49-13.27,1.1-26.62,2.16-39.91,3.56-8.34.87-16.66,1.88-24.93,3.1l-5.51.82q3.54,11.69,6.54,23.51c21.31,83.93,22.85,172.54,17.2,258.46-6.91,105-29.08,208-46.5,311.51-17.31,103-28.65,206.36-29,310.88q-.12,33.21,1,66.4,2.82,84.67,13.71,168.81A1232.56,1232.56,0,0,0,360.25,1752q10.62,19.33,21.92,38.33c54.25,91.1,119,175.74,194,250.83,74.68,74.84,158.77,140.3,250.51,192.95,58,33.3,187.76,85,300.79,91.75,82.75,5,164.29-30,163.59-34.42C1290,2285.12,1234.91,2302,1173.39,2302.2Z"/><path class="cls-10" d="M499.27,561.4c-13.16-8.29-30-10.42-45-13.37-16.23-3.18-52.52-8.42-85.76-6-19,1.35-16.3,25.87,3.14,24.07,37.49-3.48,62.49-1.79,78.13-.91,15.3.86,28.53,3.06,47.71,3.89,3.49.15,5-5.62,1.81-7.63Z"/><path class="cls-19" d="M485.14,603.67c39.86,21.15,46.69,74.07,62.61,111.83,8.88,21,21.45,40.17,39.48,54.45,16.75,13.27,37,22.19,57.59,27.35a214.87,214.87,0,0,0,41.71,6.47c6.67.32,13.85,1,20.5.35,7.41-.72,14.57-2.65,21.89-3.85.81-.13,1.05-1.43.18-1.68-5.76-1.62-11.34-3.71-17.1-5.34s-11.37-2.19-17.23-3.14c-12.3-2-24.71-4-36.86-6.85-21.29-4.94-42.25-13.25-59.62-26.7-36.52-28.3-41.48-77-64-114.67-11.06-18.52-27-35-47.13-43.5-3.45-1.45-5.17,3.62-2.05,5.28Z"/><path class="cls-19" d="M781.08,813.82c25.49,10.67,47.62,28.3,64.46,50.19a171.08,171.08,0,0,1,20.17,34c2.75,6.12,5.42,12.39,7.91,18.61,2.1,5.26,3.4,13.4,8.56,16.5a3.73,3.73,0,0,0,5.08-.82c3.83-4.91,1.73-13.26.52-18.86A102.4,102.4,0,0,0,881,892.22a153.4,153.4,0,0,0-24.23-37.45,157.73,157.73,0,0,0-73.17-47.49c-4.28-1.29-6.74,4.78-2.53,6.54Z"/><path class="cls-15" d="M913.71,1177.91c-2.91,52.93,42.72,91,78.87,122.59,19.47,17,38.68,34.13,53.24,55.67,15,22.12,23.62,46.84,23.13,73.63a1.15,1.15,0,0,0,2.2.53c10.32-22.18,6.18-48.83-4-70.37-11.2-23.74-30.09-42.8-49.49-60-20.1-17.82-41.72-33.75-60.15-53.41s-33.21-42.54-39.94-68.73c-.51-2-3.74-2.26-3.87.1Z"/><path class="cls-19" d="M1062.84,1641.86c-3.44,8.3.14,19.73,1.84,28.16a215.37,215.37,0,0,0,8.31,28.59,229.59,229.59,0,0,0,27.71,55,261,261,0,0,0,93,82c19.18,10.08,43.46,16.81,65.27,14.42a.88.88,0,0,0,.37-1.57c-16.32-9.48-33.92-16.93-50.54-25.93-16.86-9.13-33.06-18.87-48-31a276.81,276.81,0,0,1-72.32-90.85,238.46,238.46,0,0,1-12.2-29.88c-1.75-5.18-3.45-10.36-4.86-15.64-1.27-4.79-2.25-9.94-5.45-13.84a1.84,1.84,0,0,0-3.11.49Z"/><path class="cls-26" d="M1159.49,2363.29s-93.55-205.42-75.52-400.85,159-315.68,159-315.68,41.59-33.78,148.71-72.39,137.54-118.11,158.1-172.94-6-147.13,60.24-179.39,108.75,29.58,166.94-9.74-20.37-371.6,124-405.11c0,0,80.85-35.93,111.09,73.77,0,0,43.47,39.81,82.74,31s82-46.67,96.06-169.85,135.92-169.4,190.06-152.16,51.77,53.66,121.11,36.64,127-119.42,244-54.77S2782,681.53,2782,681.53s-139.21,38-163.32,240.45-13.38,588.16-135.66,807.53-242.6,435.56-535.34,602C1947.63,2331.5,1488.42,2478.45,1159.49,2363.29Z"/><path class="cls-9" d="M1903.71,2294.07s289.19-191.54,453.17-469.69,160.67-515.17,188.26-805.69,125.2-325,125.2-325c-38.49.63-72.43,29.58-93.57,47.54s-74,24.27-128.59,19.94-65.18-52.15-101.6-29.55-25,57.18-41.8,115.94c-12,41.95-51.86,76.51-73.7,92.85-21.51,194-13.42,551.28-127.45,755.84-115.83,207.78-229.78,412.55-507.06,570.19,0,0-153.12,49-342.74,66.07,23.66,6.18,47.83,11.13,72.29,15C1640.38,2353.35,1903.71,2294.07,1903.71,2294.07Z"/><path class="cls-14" d="M2746,571.8c-117-64.65-174.69,37.74-244,54.77s-67-19.4-121.11-36.64-176,29-190.06,152.16-56.79,161-96.06,169.85-82.74-31-82.74-31C1981.81,771.26,1901,807.19,1901,807.19c-144.34,33.51-65.77,365.79-124,405.11s-100.75-22.52-166.94,9.74-39.68,124.56-60.24,179.39-51,134.33-158.1,172.94S1243,1646.76,1243,1646.76,1102,1767,1084,1962.44s75.52,400.85,75.52,400.85a711.9,711.9,0,0,0,98.22,26.35c-18.82-35.85-35-78.52-47.29-129.32-75.08-311.72,22.95-461.45,22.95-461.45s32.26-88.92,175.26-142.48S1588,1530,1588,1530s50.31-102.28,35.29-178.38,20-84.63,51.31-80.2,78.61,17.95,129.46,6.63,69.08-62.56,72.82-116.31-9.94-208.36,37.32-258.67S2001.72,889,2001.72,889s119.17,96.63,215.49,16.35,40.43-163.05,111.24-205,78.9,19.34,156.21,13,94.65-30.26,94.65-30.26S2653,608.19,2746.24,654A169.72,169.72,0,0,1,2785,679.61C2798.58,670.41,2849,628.69,2746,571.8Z"/><path class="cls-2" d="M1740.29,2284.94l.07-.05c-2.58,1.6-2.32,1.44-1.52,1l1.43-.89Z"/><path class="cls-2" d="M2513.51,1455.75c-12.89,20.93-28.29,40-41.82,60.42a571.68,571.68,0,0,1-40.17,53.21c-28.11,33.3-61.32,61.77-97.05,86.58q-16,11.1-32.54,21.33l-1,.64q10.27-26,19.46-52.46c31.26-90.19,52.79-184,61.8-279.1,1.12-11.79,1.34-23.67,1.63-35.51.24-9.57-13.29-11.23-14.88-1.63-7.71,46.68-15.46,93.37-26,139.52q-4.15,18.18-8.92,36.22c-1-13.27-2-26.54-3.5-39.75-3.56-32.34-8.53-64.59-14.21-96.62a1672.69,1672.69,0,0,0-45.38-190.1c-5.3-17.61-11.39-34.91-17.75-52.16s-15.17-33.9-22.53-50.78c-.8-1.83-4-1-3.45,1,4.49,15.57,7.79,31.14,11.44,46.9s8.26,31.4,12.58,47c8.57,30.9,16.51,62,23.41,93.28q14,63.7,23.05,128.39l-16.78-20.65c-12.32-15.17-24.5-30.48-37.06-45.46l-37.7-44.94c-6.17-7.36-12.11-14.74-19.09-21.35-7.69-7.29-15-14.74-22.1-22.57a.41.41,0,0,0-.63.51c6,8.94,11.58,18,16.9,27.35,4.68,8.25,10.46,15.69,16.07,23.34q17.36,23.7,34.69,47.41c11.56,15.79,23.53,31.28,35.33,46.89l17.27,22.84c4.85,6.41,10.07,16.61,17.48,20.72q1.71,14.46,3.18,29c1.76,17.59,3.6,35.18,5.1,52.79,1.57,18.47,1.79,37.25,4.17,55.61.2,1.5-6.23,27.26-10.24,38.84a1319.17,1319.17,0,0,1-69.27,163.45q-2.1-9-4.49-17.95a618.84,618.84,0,0,0-25.2-74.75,598.17,598.17,0,0,0-34.07-69.6c-6.27-11-13.14-21.5-20.4-31.84-7.66-10.92-16.8-20.58-26-30.2-.59-.62-1.81,0-1.36.85q17.85,34,35.32,68.3a598,598,0,0,1,29.69,68.77,575.14,575.14,0,0,1,20.67,71.9q4.14,18.92,7.15,38.06c.5,3.17,1,6.34,1.41,9.51q-15.24,28.15-31.79,55.5c-24.24,40-50.06,79.64-79.26,116.2-29.49,36.93-60.59,73-92.69,107.65l-4.67,5-4,4.2q-6.46,6.8-13,13.5-12,12.29-24.33,24.27c-6,5.86-12.11,11.63-18.23,17.37-15-49.41-30.49-98.72-44.8-148.33-14.37-49.81-20.8-99.83-17.94-151.65,1.61-29.31,5-58.65,5.94-88,.08-2.61-3.73-3.9-4.67-1.15-8.19,23.92-13.62,50-16.66,75.14a486.53,486.53,0,0,0-3.11,79.31c2.34,54.19,20,105.18,35.42,156.72q13.34,44.68,26.68,89.36a14.12,14.12,0,0,0,2.09,4.28q-8.32,7.53-16.75,14.95-21.66,19-44.06,37.14c-10.63-8.5-21.41-16.83-31.9-25.46-19.06-15.7-37.84-31.75-56.75-47.62l-56.76-47.62c-18.16-15.24-36.06-33.07-57.13-44.1-4.08-2.13-7,3.58-4.81,6.66,14,19.3,34.8,34.6,52.58,50.39l55.52,49.33c18.5,16.44,37.16,32.73,55.52,49.33,8.58,7.76,17,15.76,25.41,23.7q-23.41,18.39-47.57,35.77-28.76,20.63-58.6,39.67-3.46,2.22-7,4.41l.31-.18-.4.24-1.43.89-1.71,1.06q-8,4.92-16,9.72-15.18,9.08-30.62,17.73c-20.29,11.37-41,22-61.77,32.38-21.85,10.9-44.14,21.5-64.38,35.23-1.11.75-2.22,1.49-3.33,2.25,3.1-2.11-2.76,1.78-3.33,2.17l-2,1.21-4.65,2.89c-5.19,3.23-10.31,6.58-15.46,9.86-12.76,8.13-1.8,28.38,11.71,26,24.64-4.37,49.19-9.49,72.34-19.16,21.84-9.14,43-19.29,64-30.35a1339,1339,0,0,0,126-76c80.09-54.39,152.89-117.88,219-188.49,24.37-26,47.82-52.79,69.67-80.89,3-.37,6.05-.74,9-1.07q24.71-2.69,49.22-6.71,23.82-3.92,47.43-9.06,11.79-2.58,23.52-5.46c8.2-2,15.43-5.63,23.21-8.79,6.74-2.74,3.23-12.72-3.6-11.89-8.07,1-15.94,1.14-23.9,2.9q-11.08,2.44-22.23,4.62-23.68,4.63-47.59,8-18.88,2.67-37.88,4.55c1.23-1.69,2.48-3.36,3.7-5.06,27.67-38.73,54.47-78.3,79.08-119a1391,1391,0,0,0,88.41-172.14c7.78-4.29,15.31-9.89,22.34-14.27,10.59-6.61,21.09-13.38,31.39-20.45a580.78,580.78,0,0,0,54.39-41.91,461.45,461.45,0,0,0,86.53-101.25,238.2,238.2,0,0,0,19-35.74c5.69-13.64,11-27.45,16.35-41.22C2517.41,1455.6,2514.62,1454,2513.51,1455.75Z"/><path d="M1745,1292.11a1.11,1.11,0,0,0,0-2.21,1.11,1.11,0,0,0,0,2.21Z"/><path class="cls-10" d="M2757.4,675.49c9.85,6.53,31.07,8.7,26.87-10.84-.29-1.36-24.59-29.72-67.13-37.69-43-8.06-79.18.65-114.57,24.79-17.91,12.22-32.81,29.11-51.83,39.67-20,11.11-43.32,13.61-65.84,14.13-10.89.25-22,.5-32.82-.28s-19.38-4.41-28.56-10.07c-17.14-10.6-35.57-15.72-55.8-14.36-41.85,2.81-77.43,34.86-81.4,77-.3,3.19,4.13,3.49,4.82.53,8.47-36.28,40.89-65.83,79.13-64,19.48.91,33.7,9.51,50,19.08,17.43,10.25,36.43,10.15,56.07,10.31,21.43.17,43-.63,63.63-7,19.94-6.12,35.79-18.19,51.81-31.11,29.64-23.92,68.48-39.36,107-36.07a94.31,94.31,0,0,1,48.45,18.09C2750.73,670.16,2754.1,672.77,2757.4,675.49Z"/><path class="cls-10" d="M2833.07,668.1q-1.32-6.78-3.19-13.43c-9.13-32.68-27.81-62.16-54.67-83.35-28.64-22.61-66-35.32-102.46-35.34a170,170,0,0,0-56.11,9.18c-20.87,7.19-39.47,19.71-57.57,32.08-29,19.84-67.88,47.92-104.74,32-8.79-3.81-16.4-10-24.28-15.34a138.7,138.7,0,0,0-26.85-14.64c-18.07-7.1-37.3-9.31-56.58-8.32a149,149,0,0,0-64.86,18.57c-25.81,14.23-45.26,37.48-57.93,64.09-2.43,5.11-5.27,10.49-8.14,15.91-3.22,6,4.71,11.83,9.44,6.87,24.66-25.88,58.32-52.05,82.85-62.24,29.48-12.26,64.7-15,93.52,1.15,18.45,10.33,33.47,24.53,54.77,29.51,20.41,4.76,41.44,1.27,60.93-5.62,39.77-14.06,69.28-46.77,108.42-62,29.26-11.36,63.73-10.55,93.73.59,31.4,11.67,57,34.25,71.21,65.09a135.47,135.47,0,0,1,5.51,14c-66.51,11.8-121,66.31-152.38,124.74-39.81,74-52.14,161.35-61.25,243.84-18.61,168.45-13.6,339.48-53.79,505.14.23-.92.68-2.71-.35,1.45-.55,2.21-1.1,4.42-1.67,6.62q-1.4,5.52-2.85,11-3.5,13.21-7.29,26.33-7.26,25.14-15.63,50-16.34,48.52-36.7,95.56a1219.88,1219.88,0,0,1-96.21,180c-75,116.29-166,216.31-272.21,304.18-56,46.37-115.77,86.85-178.31,122.64q-83,22.11-168.23,36.09a1719.75,1719.75,0,0,1-253.91,22.75c-42.57.57-85.18-.46-127.69-2.82-37-2.06-74.26-4.63-110.84-11-27.28-4.75-52.77-10.12-78.12-20l-.07-.07A896.17,896.17,0,0,1,1134,2225.21q-9.51-36.18-16.2-73.11c-2-11.24-18.16-11.1-19.9.19-.07.42-.13.84-.2,1.25A292.07,292.07,0,0,0,1108,2285.77q5.15,16.32,10.9,32.45,5.06,14.19,10.54,28.21,4.78,12.21,9.93,24.28c18.87,11.77,39.46,20.9,60.51,28.09q7,2.38,14,4.5c34.71,10.43,70.88,14.85,106.85,18.23q64.92,6.1,130.13,7A1778.88,1778.88,0,0,0,1766,2404.27q68.87-11.55,136.65-28.63c52.26-26,102.4-56.41,150-89.31q11.42-7.9,22.63-16c112.34-80.89,210.48-181.66,291-294.16,80.24-112.08,143.36-237.1,183.73-369a1247.68,1247.68,0,0,0,45.31-215.81c10.64-88.22,13.68-177.1,19.82-265.69,3.07-44.25,6.9-88.47,12.79-132.45,5.47-40.88,12.15-82,23.83-121.58,21.47-72.87,62.38-141.69,133.85-174.11q8.47-3.86,17.33-6.94a211,211,0,0,1,32.29-8.53Q2834.41,675,2833.07,668.1Z"/><path class="cls-15" d="M1239,1956.31c13.11-41,23.11-82.87,44-120.88a314.94,314.94,0,0,1,82.76-96.4c18.81-14.65,40-26.69,58-42.23a2.44,2.44,0,0,0-1.92-4.27c-21.54,3-42.18,14.88-59.8,27-18.65,12.86-35.46,28.34-50.68,45.07a318.47,318.47,0,0,0-67.36,116.16,248.53,248.53,0,0,0-8.93,37.09c-2,12.91-1.63,25.08-.13,38,.23,2,3.38,2.39,4,.42Z"/><path class="cls-19" d="M1542.09,1636.41a.74.74,0,0,0,0-1.47.74.74,0,0,0,0,1.47Z"/><path class="cls-15" d="M1536.34,1634.65c18.84-6,38.21-18.19,53.54-30.56a213.56,213.56,0,0,0,42.35-46,235.89,235.89,0,0,0,28-56.21c6.61-19.47,11.33-40.6,6-60.88a2.66,2.66,0,0,0-5-.53c-7.47,17.81-11,36.86-17.21,55.12a239.14,239.14,0,0,1-26.16,53.39,277.53,277.53,0,0,1-37.08,45.63,257.78,257.78,0,0,1-21.72,19.67c-7.93,6.25-16.46,11.35-24.68,17.16-1.9,1.33.11,3.76,2,3.17Z"/><path class="cls-15" d="M1872.06,1285c8.42-5.47,17.55-10.4,24.46-17.76a161.72,161.72,0,0,0,17.39-22.48,166.52,166.52,0,0,0,22.84-55c10.25-47.54,4.75-96.55,4-144.68-.2-13.24-1.2-26.54-.64-39.76.6-14.13,1.83-27.9,1.47-42.08a2,2,0,0,0-3.9-1c-10.7,20-12.72,44-13.73,66.39-1,23.2.58,46.46,1.25,69.65,1.23,43,.33,89.45-17.3,129.53a142.36,142.36,0,0,1-15.66,28c-6.84,9.24-13.65,19-22.88,25.89-2.19,1.64.45,4.66,2.66,3.23Z"/><path class="cls-15" d="M2132.76,965.45c2.26,4.18,6.45,3.56,10.82,3.93a137.12,137.12,0,0,0,18.46.51,175.06,175.06,0,0,0,38.41-6.62c24.79-6.91,47-18.06,66.53-35a189.08,189.08,0,0,0,42.83-54.1c10.4-19.53,19.17-43.85,15.73-66.33-.59-3.87-5.9-4.19-7.37-.77-8.4,19.48-13.49,40-23.42,58.91a169.35,169.35,0,0,1-38.73,49,194.52,194.52,0,0,1-59.57,35.1,177.73,177.73,0,0,1-33.81,8.26c-5.59.86-11.23,1.74-16.86,2.27-4.46.43-10.06-.89-12.85,3.21a1.64,1.64,0,0,0-.17,1.68Z"/><path class="cls-15" d="M1484.83,1921.81c-49.85-40.17-172.38,8.29-180.24,86.25s135.17,121,165,90S1526,1955,1484.83,1921.81Z"/><path class="cls-15" d="M1456.78,1773.9c13.5-29.55,89.58-7.12,102.07,4s-18.59,71.44-56.21,77.48S1448.16,1792.76,1456.78,1773.9Z"/><path class="cls-2" d="M1982.13,1050.51s13.11,42.36,11.16,117.7-24.69,124.26-63.64,141.89-260.3,65.49-389,23.93c0,0-47.5-172.22,10.1-228.09S1755.71,965.72,1982.13,1050.51Z"/><path class="cls-27" d="M1982.13,1050.51c-52.33-19.59-100.42-30.14-144.18-34.11,19.8,30.73,48.18,91.42,46,184.69-1.25,53.79-18.84,97.73-40.22,131.59,41.54-8,73.3-16.87,85.91-22.58,38.95-17.62,61.69-66.56,63.64-141.89S1982.13,1050.51,1982.13,1050.51Z"/><path class="cls-2" d="M817.05,1044.11s-13.53,42.23-12.34,117.58,23.43,124.51,62.2,142.53,259.62,68.11,388.77,27.85c0,0,47.34-173.64-7.8-228.17C1190.82,1047.47,1044.32,961.62,817.05,1044.11Z"/><path class="cls-28" d="M1016.48,1011.55c-83.9-3.21-141.48,11.53-199.43,32.56,0,0-13.53,42.23-12.34,117.58s23.43,124.51,62.2,142.53c14.68,6.83,55.52,18.26,107.59,27.63a329.94,329.94,0,0,1-31.73-148.43C944.73,1099.33,975.76,1042.58,1016.48,1011.55Z"/><path class="cls-29" d="M2019.07,1150.82c-.22-58-12.46-103.63-13-105.55l-2-7.52-6.94-3.58c-4.31-2.22-107.54-54.27-267.74-30.74-84.53,12.42-139.14,45.8-173.18,71.72-7.09,5.4-23.06,21.36-24.42,25.75a290,290,0,0,0-12.18,59.37,201.47,201.47,0,0,0-.48,28.65c.45,10-.18,19.52,2.23,29.38.46,1.86,3.25,1.85,3.61.09,3.51-17.08,8.46-37.58,12.78-54.79a233.66,233.66,0,0,1,17-47.53,242.32,242.32,0,0,1,22.12-18.67c30.56-23,81.17-49.22,157.4-60.42,77.41-11.37,140.09-3.61,179.14,5.08,29.14,6.49,51.89,14.79,62,19.11,7.56,34.33,38.5,181.54-45.74,248.93,0,0,51.14-2.75,77.07-64.85C2018.05,1218.12,2019.21,1185.28,2019.07,1150.82Z"/><circle class="cls-30" cx="1736.78" cy="1208.3" r="96.1" transform="translate(-345.71 1581.99) rotate(-45)"/><path class="cls-31" d="M1715.24,1315a110.35,110.35,0,1,1,126.58-91.29A110.47,110.47,0,0,1,1715.24,1315Zm31.36-193.65a85.82,85.82,0,1,0,71,98.44A85.92,85.92,0,0,0,1746.6,1121.36Z"/><circle class="cls-32" cx="1732.88" cy="1206.08" r="64.02" transform="translate(-25.09 2375.29) rotate(-68.47)"/><circle class="cls-2" cx="1783.85" cy="1148.54" r="36.91" transform="translate(-289.66 1597.77) rotate(-45)"/><circle class="cls-2" cx="1797.61" cy="1206.83" r="16.93" transform="translate(-366.31 1279.56) rotate(-35.8)"/><circle class="cls-30" cx="1122.36" cy="1205.14" r="96.1" transform="translate(-523.43 1146.61) rotate(-45)"/><path class="cls-33" d="M1104.72,1314.08a110.36,110.36,0,1,1,126.58-91.3A110.48,110.48,0,0,1,1104.72,1314.08Zm31.36-193.66a85.82,85.82,0,1,0,71,98.44A85.92,85.92,0,0,0,1136.08,1120.42Z"/><circle class="cls-34" cx="1122.36" cy="1205.14" r="64.02" transform="translate(-458.95 1665.06) rotate(-63.25)"/><circle class="cls-2" cx="1173.33" cy="1147.6" r="36.91" transform="translate(-430.13 797.45) rotate(-32.05)"/><circle class="cls-2" cx="1187.09" cy="1205.89" r="16.93" transform="matrix(0.81, -0.58, 0.58, 0.81, -481.11, 922.25)"/><path class="cls-29" d="M779.1,1143.86c.88-58,13.64-103.49,14.18-105.4l2.14-7.5,7-3.49c4.34-2.18,108.15-53.05,268.07-27.71,84.39,13.37,138.61,47.36,172.36,73.67,7,5.47,22.82,21.62,24.13,26a290.66,290.66,0,0,1,11.5,59.51,200,200,0,0,1,.17,28.65c-.57,10,0,19.52-2.57,29.36-.48,1.85-3.35,1.82-3.61,0-2.44-16.57-10.72-46.9-13.15-56.12-3.62-13.73-6.63-26.66-12.73-42.37-6.78-8.93-13.82-15.6-23-22.71-30.3-23.34-82.51-49-158.61-61-77.28-12.25-140.18-5-179.33,3.27-29.21,6.16-49.94,13.76-60.13,18-8,34.24-40.11,177.94,41.26,248.11,0,0-51.1-3.33-76.32-65.72C779.36,1211.16,778.58,1178.32,779.1,1143.86Z"/><path class="cls-2" d="M1112.42,1570.67s127.89,82.2,321.63,80,401.32-142.6,401.32-142.6l17.2,18.14s-44.56,269.36-324,325.44c-235.15,47.2-350.69-117.19-350.69-117.19S1102.42,1658.58,1112.42,1570.67Z"/><path class="cls-29" d="M1719.21,1493.67c9.84-2,20.84-1.56,30.9-1.69a103.4,103.4,0,0,1,27.56,3c18.63,4.81,37.51,10.67,53.74,21.13,15.42,9.94,28.71,21.87,39.41,36.69a194.27,194.27,0,0,1,14.24,22.58c3.56,6.74,9.56,27.81,14.61,33.06,1.53,1.58,3.49-1.92,4.45-3.75,5.8-11,1.89-29.83-.56-37.37a113.79,113.79,0,0,0-13.72-28.17c-11.5-17.33-27.23-33.2-45.37-43.83-19.16-11.22-40.86-19.26-63.41-19a223.21,223.21,0,0,0-32.48,2.38c-11.24,1.77-20.37,6.43-30.65,10.8-2.3,1-1.26,4.73,1.28,4.2Z"/><path class="cls-29" d="M1411.31,1924.28c6.21,4.66,12,8.76,19.16,12s13.81,6.45,21.37,8.49c15.07,4.07,31.37,9,47,9.37,31.42.78,62.76-4.45,91.27-17.58,7.85-3.61,17.73-10.35,24.84-15.2a56.72,56.72,0,0,0,16.84-17.76c1.92-3.1,8.75-12.75,4.69-11.78-7,1.66-22.54,10-29,13-6.77,3.08-13.65,6-20.61,8.65a287,287,0,0,1-40.91,12.28,250.4,250.4,0,0,1-85.78,3.1c-8-1-16-2-24-3.18-3.94-.57-7.78-1.68-11.7-2.35s-8.15-.94-12.2-1.72c-1.58-.3-2,1.89-1,2.7Z"/><path class="cls-35" d="M1319.25,1738.63a590,590,0,0,1-95.53-28,471.68,471.68,0,0,1-82.59-40.7c4.31,8.48,9.89,16.13,14,24.7,49.85,28.6,108.69,52.69,163.86,47.42C1320.83,1741.87,1320.83,1739,1319.25,1738.63Z"/><path class="cls-29" d="M1821,1496.08l-6.51,4.75c-10.8,7.8-22,15.07-33,22.58a626,626,0,0,1-66.92,39.71,640.12,640.12,0,0,1-148.12,54.38c-111.82,25.77-229.42,20.06-338.76-14.9a944.64,944.64,0,0,1-186.54-82.37c-6-3.47-9.22,2.3-4.19,6.9a375.08,375.08,0,0,0,34.42,27.94c12.5,9.12,26.83,19.55,40.49,26.9,32.4,17.43,57.68,28.13,87,39.66,58.43,23,117.24,36.55,179.87,40.86,113.71,7.83,225.12-12.29,327.55-61,28.6-13.59,61.11-31.63,87.42-49.1,12.75-8.47,24.56-18.66,36.3-28.44,4.72-3.94,6.66-7.45,11.2-11.54C1833.57,1505.56,1827.83,1503.61,1821,1496.08Z"/><path class="cls-36" d="M1562,1669s42.59,57.54,13,137.06c0,0,178.31-58.62,239.78-251.43C1814.75,1554.65,1741.53,1632.11,1562,1669Z"/><path class="cls-35" d="M1822.49,1624.34a408.08,408.08,0,0,1-84.75,57.27c-39,19.55-80.61,32.92-121,44a1.87,1.87,0,0,0,.39,3.67c69.83,3.31,141.24-33.25,197.67-77.78C1817.58,1642.52,1820.17,1633.47,1822.49,1624.34Z"/><path class="cls-29" d="M1863.11,1535.52c-9.22-8-18.87-12.77-27.86-21.06.49,12.31,0,22.82-3.07,33.94-11.2,40.46-28,79.62-50.65,115.15A399.45,399.45,0,0,1,1615,1810.1c-70.51,33-148.07,42.87-225.07,29.65s-149.65-50.26-199.27-110.15c-37.76-45.58-62.78-101.2-73.62-159.07l-4.63.14a64.11,64.11,0,0,1-19.93-5.35c4.41,56.43,26.27,111.25,59.81,157.55,47.58,65.64,119.71,116.27,198.37,138.79,81.79,23.42,169,18.88,248.29-11a429,429,0,0,0,188.94-141.29A444.57,444.57,0,0,0,1852.05,1590C1857.89,1573.56,1862.77,1554.26,1863.11,1535.52Z"/><path class="cls-37" d="M2304,1868.16c12-24.9,27.6-43.18,46.41-54.32l1.07-.63,1.62-.85c82.56,55.62,192.37,76.22,282.12,52.06,93.16-25.09,175.72-111.92,200.28-213,.5-2,1.14-4,.77-5.77,0,0,50-9.8,94.61.92,42.13,10.12,78.93,40.8,78.9,40.86-68.13,166.45-162.72,265.08-289.53,301.23-71.17,20.29-146.07,22.67-219.85,10.31-69.47-11.64-139.42-35-207.47-75l-.64-3.16-.05-1C2291.32,1903.62,2295.28,1886.26,2304,1868.16Z"/><path class="cls-9" d="M2306.67,1863c120.58,57.33,259.91,99.34,366.85,61.77,179.41-63,239.74-230.73,253.66-279,1.23.26,2.47.48,3.69.78,42.13,10.12,78.93,40.8,78.9,40.86-68.13,166.45-162.72,265.08-289.53,301.23-71.17,20.29-150,24.83-223.8,12.47-69.47-11.63-136.55-34.82-203.52-77.15l-.64-3.16-.05-1c-.91-16.14,3.05-33.5,11.76-51.6C2304.85,1866.37,2305.77,1864.69,2306.67,1863Z"/><path class="cls-10" d="M2636.65,1867.56c-93.32,25.13-205.76,1.51-285.25-52a81.84,81.84,0,0,1,39.06-11.67c68,38.21,157.55,53.52,232,35.7,85-20.33,156.21-96.5,181.53-179.43a123.41,123.41,0,0,1,34.17-14.91,14.75,14.75,0,0,1-.2,6.6C2814.3,1749.29,2735.31,1841,2636.65,1867.56Z"/><path class="cls-10" d="M2293.94,1924.56c129.34,76.06,276.83,102.84,424.41,60.77,147.13-41.94,233.35-165.21,288.58-300.31a116.46,116.46,0,0,1,22.15,26.41c-58.46,136.78-150.45,259.79-299.85,302.55-143.55,41.09-287.92,20.61-416.79-46.51C2303.78,1957.58,2295.08,1945,2293.94,1924.56Z"/><path class="cls-2" d="M3314.19,1160.17a187.35,187.35,0,0,0-5.23-36.56l-.31-1.3-.85-1a136.13,136.13,0,0,0-12.68-13.42c-29.72-27.89-67.22-43.74-109.57-45.68a130.31,130.31,0,0,0-17.21.08l-2.18.15-1.55,1.56a177,177,0,0,0-12.71,14.7c-1.28-5.82-10.79-20.4-10.79-20.4l-1.31-1.06a146.16,146.16,0,0,0-22.41-14.91c-37.72-20.33-86.46-25.8-133.74-15a203.24,203.24,0,0,0-22.69,6.37l-2.52.87-2.38,5.9c-2.16,5.35-7.53,21.26-9.63,26.7-1,2.76-2.11,5.57-3.16,8.39,4.45-84.1-10-184.35-36.75-271.27-2.08-6.77-4.24-13.55-6.48-20.25l-1-2.89-2.91-.85c-7.72-2.27-15.35-4.21-22.68-5.76-38.19-8.17-70-8.24-104.3-2.58-7,1.22-14.25,2.8-21.44,4.72l-1.36.36-1.06.95a141.15,141.15,0,0,0-18.58,21c-1,1.34-2.11,2.77-3.11,4.2-4.35,6.22-9,12.91-13.14,20.19a119.84,119.84,0,0,0-11,24.17l-.44,1.41.29,1.45c1.69,8.39,3.45,16.87,5.29,25.34,2.38,11.38,4.84,22.8,7.31,34.23,8.31,38.54,16.91,78.4,22.52,118.08,9,63.61,12.94,136.4,15,202.24-5.81-1.13-15.73-4.44-21.5-5.51l-2.92-.53-2.14,2c-5.34,5-5,5.42-10.42,11.25-8.62,9.13-16.19,17.76-23.07,25.72-15.75,18-33.78,39.25-48.26,62.31v0a206.43,206.43,0,0,0-14.78,27.9l-.88,2,.72,2.11c3,8.79,6.16,17.61,9.72,27,21.45,56.37,47.68,107.45,78,151.85,14.91,21.87,29.54,39.07,44.15,52.41-1.87,28.9,1.63,62.78,19.63,92.86,24.3,40.62,69.1,64.93,133.14,72.23,3.49.4,6.94.73,10.36,1,60.39,4.91,109.32-8.92,145.54-41.17,35.46-31.56,50.83-73.92,57.51-105,36.9-13.78,64.31-35.63,87.1-67.58,20.92-29.34,35.62-66.71,43.68-111.06,4.75-26.08,10.33-62.27,9.4-97.52,6.46-13,12.3-25.81,17.74-37.73l1.26-2.78C3305.9,1242.91,3316,1199.74,3314.19,1160.17Z"/><path class="cls-4" d="M2972.59,1046l48.34-6.84s4,138.17-40.77,218.93c0,0-92.23,6.52-91.55-1.83.4-4.92,24.06-77.12,47.87-135.51A701.8,701.8,0,0,1,2972.59,1046Z"/><path class="cls-4" d="M3176.31,1069.88s58.07,80.66-91.08,312.38l-11.48-56.67s30.36-36.93,50.28-109.89,18.5-109.12,18.5-109.12Z"/><path class="cls-4" d="M3194.33,1422.33s-18.31,2.93-65.57-16.36c-42.12-17.19-60.38-37.49-60.38-37.49s-40.06,42.86-112.37,54.16c-85.05,13.28-166.79-14.58-166.79-14.58.52-5,32.72,206.93,217.84,184.83S3194.33,1422.33,3194.33,1422.33Z"/><path class="cls-5" d="M3131.73,1602.44c-1.34,1-12.95,9.16-14.54,10-1.14.59-15.12,5.5-16.38,5.88a43.24,43.24,0,0,1-5.25,1.18c-6.42,26.39-19.8,60.09-47.7,84.93-32.19,28.66-77.69,39.86-135.31,33.3-55.3-6.3-93.24-26-112.79-58.54-13-21.71-16.57-46.76-16-69.48-12.44-7.65-23.59-17-31.17-28.85-4.84,33.26-4.53,77.28,18.28,115.41,25.17,42.06,71.54,67.22,137.84,74.78,3.62.41,7.19.76,10.73,1,62.52,5.08,113.18-9.24,150.67-42.62,44.85-39.93,58.67-96.55,62.94-128.12C3132.64,1601.71,3132.19,1602.08,3131.73,1602.44Z"/><path class="cls-4" d="M2869.62,804.19c-47-6.42-84.35-3.75-112.35-.28,17.59,51.64,49.82,185.93,46.79,445.45l77.4,6.29s21.19-126.42,20.4-241.36C2901.14,910.8,2871.77,810.62,2869.62,804.19Z"/><path class="cls-4" d="M2739.19,1265.39c-20.74,14.44-43.17,49.88-55,70.29,63.57,15.15,235.83,49.24,348,5.21-8.73-30.11-37-63.68-37-63.68C2863.08,1294.7,2739.19,1265.39,2739.19,1265.39Z"/><path class="cls-4" d="M2911.9,1729.22c-11.87-8.55-21.12-18.78-20.77-38.07.88-48.2,50.26-51.15,50.26-51.15-55.79,1.56-88-5-88-5l-56.56-22.87C2794.75,1632.18,2793.55,1710,2911.9,1729.22Z"/><path class="cls-4" d="M2995.87,1254.62c11.92-26.49,19.37-57.12,19.37-57.12s30.69,13.72,83.52,22.21c0,0-19,72.92-43.58,89.53l-48.42-58.85Z"/><path class="cls-4" d="M3184.41,1394s46.06-54.49,67.92-108.88c-55.48-15.95-83.63-36.87-83.63-36.87-14.42,42.65-43.75,91.41-60.2,117C3126.05,1375.06,3162.7,1393.93,3184.41,1394Z"/><path class="cls-5" d="M2690,832.6a124.71,124.71,0,0,1,11.34-25c4.34-7.54,9.1-14.47,13.61-20.91,1-1.47,2.16-2.95,3.22-4.34a145,145,0,0,1,19.24-21.77l1.09-1,1.41-.38c7.44-2,14.89-3.62,22.19-4.88,35.48-5.87,75.14-4.5,114.67,4,7.6,1.6,15.5,3.61,23.49,6l3,.88,1,3c2.32,6.94,4.55,14,6.7,21,35.39,114.85,44.47,232.21,27.18,339.61-5.58,34.68-12.1,43.33-23.18,75.51-1.54,4.51-12.42,30.76-16.92,29.56-4.66-1.21-2.87-4.53-2-9.31,28.56-161.53,24.26-305.46-17.71-432.43-14.33-3.1-28.71-6.31-42.48-7.45-30.12-2.45-55.78.14-85,3.9-4.41,5.59-10.46,14.33-14.35,20.41-6.21,9.79-13.76,19.67-18.29,29.82,18,59.7,30,135.27,39.17,198.73,10.11,70.29,16.46,129.07,17.51,206.57l.12,8.59-8.12-2.81a27.75,27.75,0,0,0-8.12-1.8l-.68,0a37,37,0,0,0-7,.49l-6.84,1.07-.13-6.91a1857,1857,0,0,0-17.84-223.12c-5.82-41.08-14.72-82.35-23.32-122.25q-3.84-17.75-7.57-35.43c-1.9-8.77-3.72-17.55-5.47-26.24l-.3-1.5Z"/><path class="cls-5" d="M3028.46,1624.38c69.47-15.08,139.39-40,180.26-119.48,16.05-31.23,25.64-68.66,29.31-114.46,1-12.93.85-25.69.5-41l.32-2.5,1.21-1.65a70,70,0,0,0,5.55-9.07l3.34-6.9,1.38-2.65c4.73-8,8.18-14.1,11.19-19.85l8.84-16.94,2.49,18.94c5.77,43.88-1.67,93.53-7.76,127-8.35,45.91-23.57,84.6-45.23,115-33.06,46.36-75.51,72.19-141.27,83.22-11.9,2-36.17,4.44-53.49.08-3.13-.79-3,.3-2.63-3A7.76,7.76,0,0,1,3028.46,1624.38Z"/><path class="cls-5" d="M2920.91,1126.57l.53-1.35c4-10.35,7.14-18.51,9.16-24.64,6-18,12.14-35.37,18.34-51.61,2.18-5.63,4.4-11.14,6.64-16.67l2.47-6.11,2.6-.9a209.54,209.54,0,0,1,23.49-6.59c49-11.14,99.41-5.47,138.46,15.57a151.84,151.84,0,0,1,23.2,15.44l1.36,1.09.56,1.65a166.82,166.82,0,0,1,7.28,30.93c4.77,31.73,2.31,69.17-7.11,108.26l-2.13,8.92c-12.64,52.83-31.73,132.67-82.11,163.86l-12.79,7.92,3.78-14.57a32.1,32.1,0,0,0,.79-11.68l-.16-1.4.48-1.32a27.72,27.72,0,0,0,1.91-8.71,33.47,33.47,0,0,0-.69-7.76l-.6-3.08,2.18-2.25c33.92-35.13,51.53-110.49,58.16-138.85,8.76-37.82,9.72-74.06,3-113.82-37.3-23.05-85.92-29.69-137.56-18.8-5.53,14.31-11.23,28.57-16.94,42.82l-6.78,17c-8,20.19-23.45,55-37.36,82.33l-20.28,39.89Z"/><path class="cls-5" d="M2614.28,1356.39a212.55,212.55,0,0,1,15.3-28.88v0c15-23.88,33.66-45.83,50-64.51,7.13-8.25,15-17.18,23.89-26.63,5.62-6,11.27-11.75,16.79-17l2.22-2.1,3,.55c8.55,1.58,17.19,3.25,25.78,4.93l11.14,2.26c32.49,6.61,66.09,13.44,99.88,15.41,41.74,2.35,82.25-.11,127.1-3.37l9.31-.67c3.48-.25,7-.52,10.49-.75l2.66-.18,1.93,1.86c4.45,4.28,8.91,9,14.06,14.83a288.2,288.2,0,0,1,37.06,54.63c3.3,6.11,6,11.66,8.39,17l.48,1.82a149.48,149.48,0,0,1-2.64,45.12,117.13,117.13,0,0,1-5.16,18.82,88.68,88.68,0,0,1-4.9,12.14l-.89,1.84-1.83.92a301,301,0,0,1-28.51,12.59c-84.89,33.43-173.28,32.35-236.61-3a8.89,8.89,0,0,1-3.47-11,8.25,8.25,0,0,1,9.46-5.24c78.91,16.68,146.54,26,236.82-17.49a54.9,54.9,0,0,0,3.71-11.3c.27-1.09.51-2.06.73-2.84,1.37-4.84,3.16-22.18,3-28.54l-2.06-4.78c-6-13.93-9-20.92-18.29-35.46-7.09-11-15-21.43-22.55-31.1-42.35,6.32-90.69,7.38-147.61,3.3-39.63-2.89-81.55-6.51-121-16.08-7.3,7.16-14.64,14.75-21.85,22.6-24.1,26.11-41.32,53-59.47,85.12,34.75,102.13,98.71,230.4,207,267.65,3.65,1.24,10.51,3.37,10.08,7.34-.41,3.8-5.08,4.07-8.72,4.47a110.56,110.56,0,0,1-21.19.51c-46.19-4.92-88.42-30-133-95.37-31.35-46-58.5-98.86-80.72-157.21-3.68-9.72-7-18.86-10.06-28l-.74-2.19Z"/><path class="cls-5" d="M3089,1300.6l2,15.4a162,162,0,0,1,.89,21.82,171.78,171.78,0,0,0,.51,17.75,109.26,109.26,0,0,0,2.24,12.71c2.64,1.55,5.25,3.11,7.87,4.67,16.64,9.92,32.37,19.29,51.47,25a232.24,232.24,0,0,0,34.15,6.94c34.81-40,117-159.43,106.13-273.85-8.27-10.15-14.64-15.29-29.28-23.89-29.66-17.27-52.86-24-84.32-24.59-1.17,1.24-2.67,2.78-4.24,4.4-3.24,3.34-7.68,7.91-8.78,9.31a139.35,139.35,0,0,0-9.84,14.88,219.83,219.83,0,0,1-13.74,20.76l-11.53,15.27-2.4-47.2c5.21-8.7,11.69-16.72,17.41-23.79l3.33-4.13a207.08,207.08,0,0,1,14.91-17.43l1.6-1.61,2.26-.16a136.15,136.15,0,0,1,17.82-.09c43.84,2,88.42,20.49,119.19,49.35a139,139,0,0,1,13.12,13.9l.89,1.08.32,1.34a193.06,193.06,0,0,1,5.41,37.85c1.84,41-8.58,85.66-31.85,136.62l-1.31,2.88c-18.13,39.78-40.69,89.28-74.61,123a156.58,156.58,0,0,1-17.36,15.14l-1.54,1.16-1.93,0q-4.6.11-9.22-.06c-4.67-.17-9.34-.54-13.94-1.11-30-3.37-61.1-14.44-85.27-30.33a126.68,126.68,0,0,1-13.24-9.77l-1.12-1-.56-1.35c-3.56-8.57-5.17-18.1-6.69-27.09l-1-6.39c-1.42-8.54-3-18.21-3.2-27.7l-.07-3.67Z"/><path class="cls-5" d="M2905.73,1415.63a134,134,0,0,0,19.38,0,73.35,73.35,0,0,0,16.51-3.41l2.61-.85,2.36,1.42c45,27.15,62,73.12,67,131.8.86,10.07-5.1,11.09-6.13,8.45-2.53-6.47-4.86-12.93-7.18-19.33-9-24.8-17.43-48.24-35.56-68.22-17.38-19.16-37.08-27.67-59.89-37.52l-33.44-14.45Z"/><path class="cls-5" d="M2923.65,1260.24c6.09-42.54,30-117.83,70.7-181.49,2.06-3.22,6.76-3.74,10.12-1.84s.15,3.45-1.15,7l-5.6,15.18c-19.78,53.52-38.47,104.07-48.41,160.74l-1.06,6.05-6-1.18a35.14,35.14,0,0,0-12.66-.09h0a14.12,14.12,0,0,0-2.3.68l-8.68,2.87,5.22-5.44-.29-1.24Z"/></g></g></svg>