<svg xmlns="http://www.w3.org/2000/svg" viewBox="0 0 2551.33 2351.85"><defs><style>.cls-1{fill:#f2101c;}.cls-2{fill:#390075;}.cls-3{opacity:0.6;}.cls-4{fill:#fff;}.cls-5{opacity:0.3;}.cls-6{fill:#af5504;}.cls-7{opacity:0.4;}.cls-8{fill:#65ce21;}.cls-9{opacity:0.35;}.cls-10{fill:#7cd344;}.cls-11{fill:#fef26b;}.cls-12{fill:#102770;}.cls-13{fill:#fd6ccb;}.cls-14{fill:#39d5ff;}.cls-15{fill:#ffa73e;}.cls-16{fill:#ff9797;}.cls-17{fill:#f883a0;}.cls-18{fill:#fdd800;}.cls-19{fill:#ff5722;}</style></defs><title>taco</title><g id="Layer_2" data-name="Layer 2"><g id="Layer_1-2" data-name="Layer 1"><path class="cls-1" d="M475.43,757.58c78.26,80.65,76.32,209.49-4.33,287.75s-209.49,76.32-287.75-4.34A203.49,203.49,0,1,1,475.43,757.58Z"/><path class="cls-2" d="M329.48,1105.25c-1.07,0-2.13,0-3.19,0a204.62,204.62,0,0,1-144.72-62.51,206.76,206.76,0,0,1-44.59-217A206.35,206.35,0,0,1,261.61,704.75a206.8,206.8,0,0,1,215.6,51.1c79.09,81.51,77.12,212.17-4.39,291.26A204.53,204.53,0,0,1,329.48,1105.25ZM329,698.34a201,201,0,1,0,140.37,345.21c79.55-77.19,81.47-204.7,4.28-284.25A201.75,201.75,0,0,0,329,698.34Z"/><g class="cls-3"><path class="cls-4" d="M475.44,757.57c3.73,3.84,7.27,7.81,10.64,11.86A203.49,203.49,0,0,0,194.89,1052c-3.95-3.49-7.81-7.16-11.54-11A203.5,203.5,0,1,1,475.44,757.57Z"/></g><path class="cls-2" d="M328.86,1118.12l-3.4,0A219.47,219.47,0,1,1,486.27,745.81c84.28,86.85,82.18,226.07-4.67,310.35A218,218,0,0,1,328.86,1118.12Zm-.17-407a187.51,187.51,0,1,0,130.65,322.08c74.2-72,76-191,4-265.15a186.31,186.31,0,0,0-131.74-56.91Z"/><g class="cls-5"><path class="cls-4" d="M293,780.72l22,63.11c8.73,25-15.81,48.85-40.58,39.38L212,859.33a31.22,31.22,0,0,1-14.64-46.7,170.22,170.22,0,0,1,49.42-48A31.22,31.22,0,0,1,293,780.72Z"/><path class="cls-4" d="M365.79,1017.85l-22-63.1c-8.73-25,15.81-48.86,40.58-39.38l62.42,23.87a31.22,31.22,0,0,1,14.64,46.7,170.09,170.09,0,0,1-49.42,48A31.23,31.23,0,0,1,365.79,1017.85Z"/><path class="cls-4" d="M448,862.88l-63.11,22c-25.05,8.73-48.86-15.81-39.38-40.58l23.88-62.42a31.22,31.22,0,0,1,46.7-14.64A169.89,169.89,0,0,1,464,816.65,31.21,31.21,0,0,1,448,862.88Z"/><path class="cls-4" d="M210.82,935.69l63.11-22c25.05-8.72,48.86,15.82,39.38,40.59l-23.88,62.41a31.23,31.23,0,0,1-46.7,14.65,170.22,170.22,0,0,1-47.95-49.42A31.22,31.22,0,0,1,210.82,935.69Z"/></g><g class="cls-5"><path class="cls-2" d="M475.44,757.57c78.25,80.65,76.31,209.5-4.33,287.76s-209.5,76.31-287.76-4.34a208.15,208.15,0,0,1-19.14-22.81c78.77,60.55,192.12,55.79,265.55-15.46s81.61-184.41,23.46-265A208.67,208.67,0,0,1,475.44,757.57Z"/></g><path class="cls-6" d="M132.4,1403.46s-98.27-18.21-114.34-88c-17.33-75.23,83.15-109,86.62-134s-146.35-170.77-29.86-258.1,275.24,26.3,275.24,26.3L146.57,1403.46"/><g class="cls-7"><path class="cls-4" d="M340.06,939.7,333,955.49c-55.83-27.1-151.61-57.51-228.85.39C-12.35,1043.2,137.46,1189.05,134,1214s-104,58.74-86.64,134a82.57,82.57,0,0,0,6.2,17.54c-20.54-13.5-39.24-32.84-45.52-60-17.34-75.21,83.16-109,86.6-134s-146.34-170.75-29.85-258.1S340.06,939.7,340.06,939.7Z"/></g><path class="cls-2" d="M146.57,1419.45A16,16,0,0,1,140,1418l-.54-.26a15.92,15.92,0,0,1-10,1.39c-4.43-.82-108.79-21-127-100.12C-11.35,1259,35.78,1222.29,67,1198c7.67-6,17.86-13.91,21.22-18.3-2.39-5.79-10.25-18.21-16.72-28.43-34.18-54-105.32-166.4-6.24-240.69,124.42-93.29,287.27,21.18,294.14,26.09L370,944.29,161.16,1410A16,16,0,0,1,146.57,1419.45Zm30.59-512.89c-31.57,0-63.8,7.9-92.75,29.61-69.63,52.2-31.23,126.44,14.07,198,15.28,24.15,23.71,37.45,22,49.5-2.05,14.75-16.11,25.7-33.9,39.56-27.73,21.58-62.23,48.45-53,88.64,13.56,58.88,100.8,75.7,101.68,75.86l.73.15L329.88,955.63C305.32,940.56,242.67,906.56,177.16,906.56Z"/><path class="cls-6" d="M2203,1072.8s68.35-72.92,39.92-138.64c-30.64-70.86-131.6-38.52-149.18-56.56s16.63-224.28-129-225.57-206.08,184.35-206.08,184.35l432.87,244.82"/><g class="cls-7"><path class="cls-4" d="M2238.29,1018.15c1.72-14.94.32-30.49-6.23-45.63C2201.41,901.67,2100.47,934,2082.89,916s16.62-224.25-128.95-225.57c-104.5-.92-165.16,94.47-191,148.37l-4.24-2.4s60.5-185.61,206.08-184.33,111.37,207.51,128.95,225.57,118.56-14.3,149.21,56.55C2255.36,963.05,2249.16,993.3,2238.29,1018.15Z"/></g><path class="cls-2" d="M2191.51,1097.19a16,16,0,0,1-7.85-2.07L1739.41,843.85l4-12.43c2.62-8,66-196.81,221.42-195.37,123.83,1.09,133.16,133.78,137.65,197.54.85,12.06,1.88,26.73,3.38,32.81,5.31,1.54,18.23,1.89,28,2.16,39.51,1.07,99.22,2.68,123.68,59.25,32.22,74.49-39.85,152.63-42.93,155.92a15.94,15.94,0,0,1-8.88,4.81c-.09.18-.19.36-.29.53A16,16,0,0,1,2191.51,1097.19Zm-413.07-268,412.35,233.22c.15-.18.31-.36.48-.53h0c.61-.66,60.8-66.19,36.93-121.39-16.37-37.85-60.08-39-95.21-40-22.54-.61-40.35-1.09-50.75-11.75-8.49-8.72-9.6-24.42-11.6-52.93-5.94-84.49-19-167.05-106-167.81h-1.33C1852.85,668,1794.45,789.79,1778.44,829.2Z"/><path class="cls-1" d="M974.4,606.25c0,112.38-91.11,203.49-203.49,203.49S567.42,718.63,567.42,606.25a203.49,203.49,0,1,1,407,0Z"/><path class="cls-2" d="M770.91,812.22c-113.57,0-206-92.4-206-206A206.76,206.76,0,0,1,684.08,419.44a206.31,206.31,0,0,1,173.65,0A206.75,206.75,0,0,1,976.88,606.25C976.88,719.82,884.48,812.22,770.91,812.22Zm0-407a199.41,199.41,0,0,0-84.74,18.69A201.79,201.79,0,0,0,569.9,606.25c0,110.84,90.17,201,201,201s201-90.18,201-201A201.79,201.79,0,0,0,855.64,423.93,199.37,199.37,0,0,0,770.91,405.24Z"/><g class="cls-3"><path class="cls-4" d="M974.41,606.25c0,5.35-.21,10.67-.62,15.93a203.49,203.49,0,0,0-405.75,0c-.4-5.26-.62-10.58-.62-15.93a203.5,203.5,0,1,1,407,0Z"/></g><path class="cls-2" d="M770.9,824.83c-121,0-219.47-98.46-219.47-219.47S649.89,385.89,770.9,385.89s219.48,98.45,219.48,219.47S891.92,824.83,770.9,824.83Zm0-407c-103.39,0-187.5,84.12-187.5,187.51s84.11,187.5,187.5,187.5,187.51-84.11,187.51-187.5S874.29,417.85,770.9,417.85Z"/><g class="cls-5"><path class="cls-4" d="M821.94,506.39l-25.47,54.8c-10.1,21.74-41,21.74-51.13,0l-25.46-54.8a28.22,28.22,0,0,1,19.9-39.52,153.49,153.49,0,0,1,62.26,0A28.23,28.23,0,0,1,821.94,506.39Z"/><path class="cls-4" d="M719.88,706.11l25.46-54.79c10.11-21.75,41-21.75,51.13,0l25.47,54.79A28.24,28.24,0,0,1,802,745.64a154,154,0,0,1-62.26,0A28.23,28.23,0,0,1,719.88,706.11Z"/><path class="cls-4" d="M870.77,657.28,816,631.82c-21.74-10.11-21.74-41,0-51.13l54.8-25.47a28.23,28.23,0,0,1,39.52,19.9,153.49,153.49,0,0,1,0,62.26A28.22,28.22,0,0,1,870.77,657.28Z"/><path class="cls-4" d="M671.05,555.22l54.79,25.47c21.75,10.1,21.75,41,0,51.13l-54.79,25.46a28.23,28.23,0,0,1-39.53-19.9,154,154,0,0,1,0-62.26A28.24,28.24,0,0,1,671.05,555.22Z"/></g><g class="cls-5"><path class="cls-2" d="M974.41,606.25c0,112.37-91.12,203.5-203.49,203.5s-203.5-91.13-203.5-203.5a208.06,208.06,0,0,1,2.15-29.7c14.37,98.31,99,173.83,201.35,173.83s187-75.52,201.35-173.83A208.07,208.07,0,0,1,974.41,606.25Z"/></g><path class="cls-1" d="M1738.23,623.06c0,112.38-91.11,203.49-203.49,203.49s-203.49-91.11-203.49-203.49a203.49,203.49,0,1,1,407,0Z"/><path class="cls-2" d="M1534.74,829c-113.57,0-206-92.4-206-206a206.75,206.75,0,0,1,119.15-186.81,206.31,206.31,0,0,1,173.65,0,206.76,206.76,0,0,1,119.14,186.81C1740.71,736.63,1648.31,829,1534.74,829Zm0-407A199.22,199.22,0,0,0,1450,440.74a201.79,201.79,0,0,0-116.28,182.32c0,110.84,90.17,201,201,201s201-90.17,201-201a201.79,201.79,0,0,0-116.27-182.32A199.26,199.26,0,0,0,1534.74,422.05Z"/><g class="cls-3"><path class="cls-4" d="M1738.25,623.06c0,5.35-.22,10.67-.63,15.93a203.49,203.49,0,0,0-405.74,0c-.41-5.26-.63-10.58-.63-15.93a203.5,203.5,0,1,1,407,0Z"/></g><path class="cls-2" d="M1534.74,841.64c-121,0-219.48-98.46-219.48-219.47s98.46-219.47,219.48-219.47,219.47,98.45,219.47,219.47S1655.75,841.64,1534.74,841.64Zm0-407c-103.39,0-187.51,84.12-187.51,187.51s84.12,187.5,187.51,187.5,187.5-84.11,187.5-187.5S1638.13,434.66,1534.74,434.66Z"/><g class="cls-5"><path class="cls-4" d="M1591.18,512.62,1563,573.22c-11.18,24-45.38,24-56.55,0l-28.17-60.6a31.22,31.22,0,0,1,22-43.71,169.67,169.67,0,0,1,68.86,0A31.21,31.21,0,0,1,1591.18,512.62Z"/></g><g class="cls-5"><path class="cls-4" d="M1478.3,733.5l28.17-60.6c11.17-24,45.37-24,56.55,0l28.16,60.6a31.23,31.23,0,0,1-22,43.72,170.14,170.14,0,0,1-68.86,0A31.23,31.23,0,0,1,1478.3,733.5Z"/></g><g class="cls-5"><path class="cls-4" d="M1645.18,679.5l-60.6-28.16c-24-11.18-24-45.38,0-56.56l60.6-28.16a31.23,31.23,0,0,1,43.72,22,170.14,170.14,0,0,1,0,68.86A31.23,31.23,0,0,1,1645.18,679.5Z"/></g><g class="cls-5"><path class="cls-4" d="M1424.3,566.62l60.6,28.16c24,11.18,24,45.38,0,56.56l-60.6,28.16a31.21,31.21,0,0,1-43.71-22,169.67,169.67,0,0,1,0-68.86A31.22,31.22,0,0,1,1424.3,566.62Z"/></g><g class="cls-5"><path class="cls-2" d="M1738.25,623.06c0,112.37-91.13,203.5-203.5,203.5s-203.5-91.13-203.5-203.5a208.06,208.06,0,0,1,2.15-29.7c14.37,98.31,99,173.83,201.35,173.83s187-75.52,201.35-173.83A208.06,208.06,0,0,1,1738.25,623.06Z"/></g><path class="cls-1" d="M2337.85,1164.37C2297.6,1269.3,2179.9,1321.73,2075,1281.49s-157.36-158-117.11-262.88a203.49,203.49,0,1,1,380,145.76Z"/><path class="cls-2" d="M2147.63,1297.47a206,206,0,1,1,192.54-132.21C2308.77,1247.11,2230.48,1297.47,2147.63,1297.47Zm.44-407q-7,0-14,.49a201.8,201.8,0,0,0-173.86,128.58,201,201,0,0,0,375.36,144,201.78,201.78,0,0,0-43.27-211.87,201.55,201.55,0,0,0-144.2-61.18Z"/><g class="cls-3"><path class="cls-4" d="M2337.86,1164.38c-1.91,5-4,9.88-6.28,14.65a203.49,203.49,0,0,0-378.83-145.32q2.25-7.59,5.12-15.09a203.49,203.49,0,1,1,380,145.76Z"/></g><path class="cls-2" d="M2147.93,1310.14a219.49,219.49,0,0,1-204.67-298.09c43.34-113,170.53-169.65,283.52-126.31s169.65,170.53,126.31,283.52h0C2319.63,1256.48,2236.21,1310.14,2147.93,1310.14Zm.18-407.09A187.56,187.56,0,0,0,2081,1265.72c96.53,37,205.19-11.38,242.22-107.91h0c37-96.53-11.38-205.19-107.91-242.22A187.38,187.38,0,0,0,2148.11,903.05Zm190.06,260.49h0Z"/><g class="cls-5"><path class="cls-4" d="M2240.11,1008.59l-48,46.49c-19.05,18.46-51,6.21-52.8-20.25l-4.59-66.67a31.21,31.21,0,0,1,36.2-32.93,169.83,169.83,0,0,1,64.3,24.67A31.22,31.22,0,0,1,2240.11,1008.59Z"/><path class="cls-4" d="M2055.61,1174.4l48-46.5c19-18.45,51-6.21,52.8,20.25l4.59,66.67a31.22,31.22,0,0,1-36.2,32.93,170,170,0,0,1-64.3-24.66A31.21,31.21,0,0,1,2055.61,1174.4Z"/><path class="cls-4" d="M2230.76,1183.74l-46.49-48c-18.46-19-6.21-51,20.25-52.8l66.67-4.59a31.23,31.23,0,0,1,32.93,36.21,169.9,169.9,0,0,1-24.66,64.29A31.22,31.22,0,0,1,2230.76,1183.74Z"/><path class="cls-4" d="M2065,999.24l46.49,48c18.45,19,6.21,51-20.25,52.8l-66.67,4.59a31.21,31.21,0,0,1-32.93-36.2,169.9,169.9,0,0,1,24.66-64.29A31.22,31.22,0,0,1,2065,999.24Z"/></g><g class="cls-5"><path class="cls-2" d="M2337.86,1164.38c-40.24,104.92-158,157.36-262.88,117.12s-157.36-158-117.11-262.88a208.49,208.49,0,0,1,12.64-27c-21.79,96.94,30.2,197.77,125.74,234.41s201.62-3.54,250.25-90.18A208.22,208.22,0,0,1,2337.86,1164.38Z"/></g><path class="cls-8" d="M235.93,1349.4c-19.51-74.14-107.77-105.65-105.64-187.1,2.07-79.47,89.35-92.45,112.7-159.66,22.48-64.7-39-127.15,5-188.35,43.83-61,123-23.63,176.18-66.72S454.86,621.23,523,589.92c67.65-31.11,117,39.88,183.94,27.66,67.52-12.32,90.08-96.75,165.34-90.29,74.64,6.4,82.69,93.81,146.25,118.8,66.51,26.14,132.43-32.15,194.56,18.38,63.22,51.42,29.7,138.94,73.27,202"/><g class="cls-3"><path class="cls-4" d="M933,559.37a83.54,83.54,0,0,0-24.34-5.63c-75.24-6.48-97.82,78-165.31,90.27-66.93,12.22-116.33-58.74-184-27.66C491.24,647.64,513.58,731,460.59,774c-53.15,43.07-132.35,5.75-176.18,66.73-44,61.18,17.46,123.64-5,188.33-23.33,67.21-110.61,80.2-112.69,159.68-1.75,67,57.71,100.26,89.67,151.25l-20.41,9.39c-19.51-74.12-107.78-105.61-105.66-187.09,2.08-79.44,89.35-92.43,112.69-159.64,22.5-64.7-39-127.16,5-188.37,43.84-60.94,123-23.62,176.19-66.7,53-43,30.69-126.35,98.78-157.64,67.65-31.13,117,39.84,183.93,27.65,67.54-12.34,90.07-96.78,165.36-90.31C899.31,529.6,917.61,542.59,933,559.37Z"/></g><g class="cls-3"><path class="cls-4" d="M1225.67,676.57c-55.07-22.81-112.73,18.79-170.79-4-15.43-6.08-27.58-15.83-38.21-27.17l1.8.71C1085,672.22,1150.94,614,1213,664.47A104.87,104.87,0,0,1,1225.67,676.57Z"/></g><g class="cls-9"><path class="cls-4" d="M1016.67,645.37c-39.24-16.43-57.06-57-83.71-86C971.4,574.56,988.78,615.56,1016.67,645.37Z"/><path class="cls-2" d="M1026.47,652.18l-10.76-4.51c-27.87-11.66-45.17-35.19-61.91-57.94-7.18-9.77-14.62-19.88-22.68-28.67l-7.35-8,10.11,4c26.85,10.6,43.86,33.74,60.31,56.11,7.63,10.38,15.52,21.1,24.31,30.5Zm-83.8-85.34c5.27,6.48,10.27,13.28,15.16,19.93,13.89,18.88,28.19,38.32,48.51,50.55-5.66-6.9-11-14.13-16.17-21.19C975.85,596.66,962.22,578.12,942.67,566.84Z"/></g><path class="cls-2" d="M235.92,1365.39a16,16,0,0,1-15.45-11.92c-7.63-29-27.63-51.18-48.81-74.65-28.86-32-58.71-65.09-57.35-116.94s34.27-79.58,63.31-104.11c21.32-18,41.46-35,50.27-60.38,8.49-24.44,2.6-49.63-3.65-76.31C215.88,885.32,206.39,844.8,235,805c28.31-39.38,69.39-43.8,105.64-47.7,27.38-3,53.24-5.73,73.45-22.11s27.76-40.85,35.79-66.78c10.57-34.14,22.55-72.83,66.36-93,43.54-20,80.78-4,113.63,10.17,25,10.77,48.62,20.95,74.12,16.29s44.51-22.49,64.48-41.34c26.47-25,56.51-53.32,105.1-49.16s73.27,37.74,95,67.36c16.27,22.13,31.65,43,55.68,52.49,25.07,9.86,51,5.6,78.46,1.08,37.44-6.16,79.87-13.13,120.34,19.78,40.24,32.73,45.93,76.93,51.44,119.68,4,31.36,7.85,61,24.9,85.66a16,16,0,0,1-26.31,18.17c-21.45-31.07-26-66-30.3-99.74-5.13-39.87-9.56-74.29-39.9-99-29.31-23.83-59.74-18.83-95-13-29.1,4.78-62.08,10.2-95.34-2.88C980,648.14,960.3,621.32,942.9,597.65c-20.32-27.64-37.87-51.51-72-54.44-34.32-3-55.7,17.21-80.43,40.56C769,604,744.74,626.92,709.78,633.31s-65.56-6.77-92.51-18.38c-30.6-13.17-57-24.55-87.64-10.49-30.84,14.18-39.33,41.62-49.17,73.38-8.67,28-18.48,59.69-46.2,82.16-27.53,22.32-60.81,25.9-90.16,29.06-33.88,3.65-63.13,6.79-83.11,34.58-20.16,28-13.42,56.84-5.62,90.18,6.68,28.54,14.25,60.89,2.72,94.09-11.69,33.62-36.17,54.3-59.84,74.3-27.37,23.12-51,43.09-52,80.52-1,39.09,22.23,64.86,49.14,94.7,22.8,25.28,46.38,51.41,56,87.92A16,16,0,0,1,240,1364.86,16.36,16.36,0,0,1,235.92,1365.39Z"/><path class="cls-8" d="M979.91,889.1c53.34-68.12,21.46-169,96.14-222.61,72.86-52.35,144.06,17.26,220.42-7.6,73.5-23.93,87.71-121.78,172.75-124,84.7-2.19,105.17,94.48,180.17,112.86,74.78,18.33,134.5-58.61,209.1-18.76,74.12,39.61,44,132.43,100.62,184.24,57.14,52.29,148.42,15,194,87,45.16,71.47-27.94,138.34-7,212.52,21.87,77.62,119.24,97.13,116.2,187.45-3.09,91.91-104.64,121.48-131.62,203.69"/><g class="cls-3"><path class="cls-4" d="M2123.61,1500.19a240.38,240.38,0,0,1,19.9-24.18A137.16,137.16,0,0,0,2130.6,1504Z"/><path class="cls-4" d="M2218.31,1392.42a117.76,117.76,0,0,0,16.91-57.06c3.07-90.31-94.31-109.85-116.17-187.46-20.94-74.16,52.19-141.06,7-212.5-45.56-72.09-136.87-34.77-194-87-56.62-51.83-26.49-144.65-100.62-184.25-74.57-39.84-134.31,37.08-209.07,18.74-75-18.38-95.47-115.05-180.18-112.85-85,2.2-99.26,100.06-172.75,124-76.36,24.85-147.57-44.72-220.42,7.59-3.35,2.4-6.47,4.91-9.43,7.47a116.4,116.4,0,0,1,36.45-42.52c72.84-52.34,144,17.27,220.42-7.63,73.48-23.89,87.71-121.76,172.74-124,84.72-2.2,105.18,94.46,180.18,112.84,74.77,18.34,134.51-58.58,209.07-18.74,74.13,39.6,44,132.43,100.62,184.26,57.15,52.27,148.45,14.94,194,87,45.19,71.45-27.93,138.34-7,212.51,21.89,77.6,119.24,97.14,116.2,187.45C2260.91,1339.27,2241.85,1367.08,2218.31,1392.42Z"/></g><g class="cls-9"><path class="cls-4" d="M2218.31,1392.42c-18.54,31.49-49,55.62-74.8,83.59C2162.81,1443.77,2193.14,1419.47,2218.31,1392.42Z"/><path class="cls-2" d="M2128.89,1495.57l12.47-20.84c13.79-23,33.26-42.18,52.08-60.68,7.71-7.59,15.68-15.43,23-23.34l15.62-16.77-11.63,19.75c-13,22.09-32.12,40.89-50.59,59.08-8.19,8.06-16.65,16.39-24.53,24.94Zm67.28-77.2c-10,9.8-20.08,19.79-29.38,30.42C2177.13,1438.61,2187.15,1428.73,2196.17,1418.37Z"/></g><path class="cls-2" d="M2130.62,1520a16,16,0,0,1-15.19-21c13.13-40,41.27-67.69,68.48-94.46,32.65-32.11,60.85-59.85,62.36-104.78,1.46-43.52-24.11-67.76-53.72-95.84-25.13-23.82-51.11-48.46-61.89-86.73-10.57-37.51-.45-71.69,9.33-104.75,11.13-37.61,20.74-70.08-.43-103.57-21.27-33.67-54.38-39.18-92.72-45.57-34.11-5.67-69.38-11.55-98.52-38.22s-37.72-61.25-46-94.67c-9.15-37-17-68.92-51.38-87.26-34.6-18.49-65.45-7.27-101.18,5.73-32.29,11.75-65.68,23.9-104.18,14.46-38.27-9.38-62.86-35.45-86.63-60.65-26.73-28.33-49.85-52.88-89.33-51.77-39.89,1-61.46,27.07-86.43,57.21-22,26.5-44.64,53.89-81.78,66-37.67,12.26-72.68,4.42-106.54-3.16-39.94-8.94-74.43-16.66-109.5,8.54-36.5,26.22-43.88,65.07-52.43,110.06C1025.83,827,1018.46,865.8,992.5,899a16,16,0,1,1-25.17-19.71c21.17-27,27.51-60.38,34.21-95.68,9-47.38,18.32-96.38,65.19-130,46.71-33.56,93.69-23,135.13-13.77,31,6.94,60.33,13.5,89.66,4,28.33-9.22,47.14-31.94,67.06-56,26.16-31.58,55.8-67.37,110.23-68.77,53.72-1.38,85.46,32.17,113.4,61.78,21.54,22.84,41.89,44.4,71,51.54s56.55-2.87,85.64-13.45c37.5-13.63,80-29.1,127.18-3.88,46.88,25.05,57.75,69,67.34,107.77,7.46,30.14,14.5,58.6,36.54,78.77s51.32,25.13,82.19,30.27c40.11,6.68,85.57,14.25,114.5,60s15.7,90.36,4,129.72c-8.88,30-17.28,58.39-9.21,87,8.4,29.8,30.12,50.4,53.12,72.2,30.75,29.17,65.62,62.22,63.67,120.12-1.94,57.68-37.5,92.66-71.89,126.49-25.62,25.2-49.82,49-60.53,81.64A16,16,0,0,1,2130.62,1520Z"/><path class="cls-10" d="M772.33,766.6c22.75-56.52-18.56-118.5,21.46-169.41,39-49.67,100.83-16.52,147.62-48.29,45-30.57,35.51-99.55,92.6-117.68,56.87-18.06,89.65,43.33,144,41.08s79.52-66,137.78-53.61c57.9,12.28,55.69,81,104.14,104.94,48.89,24.18,103.34-18.93,148.26,20.91,44.54,39.51,8.18,99.05,36.84,145.15,30,48.23,99.68,42.36,115.3,104.06,15.9,62.78-47,102.67-49.17,163.56"/><path class="cls-2" d="M1673.63,957.4l-5-.18c1-27.51,14.06-50.8,26.72-73.32,16-28.52,31.16-55.46,22.53-89.54-8.5-33.54-33.31-46.37-59.57-60-20.61-10.65-41.92-21.67-55.44-43.4-13.15-21.16-13-45-12.87-68,.18-28.51.34-55.44-23.5-76.59s-50.42-18.11-78.48-14.82c-22.92,2.69-46.62,5.47-69.23-5.72s-34.46-31.72-45.94-51.58c-13.88-24-27-46.66-57.61-53.16-30.83-6.54-52,8.87-74.31,25.18-18.49,13.49-37.6,27.45-62.85,28.49s-45.74-11.11-65.66-22.86c-24.38-14.37-47.39-27.95-77.66-18.34-30.58,9.71-41.3,34.37-52.65,60.47C973,515.15,963.48,537,942.82,551c-21.1,14.32-45.1,15.8-68.31,17.23-29.59,1.82-57.54,3.54-78.76,30.54-21.72,27.63-18.82,58.38-15.75,91,2.42,25.72,4.92,52.31-5.35,77.85L770,765.67c9.82-24.41,7.38-50.39,5-75.52-3-32.1-6.15-65.3,16.8-94.51,22.61-28.76,53-30.63,82.38-32.43,22.54-1.39,45.85-2.82,65.81-16.37,19.46-13.22,28.64-34.34,37.52-54.76,11.3-26,23-52.84,55.73-63.24,32.38-10.29,57.46,4.49,81.71,18.79,19.3,11.39,39.26,23.2,62.92,22.18s42.22-14.48,60.11-27.54c22.25-16.24,45.26-33,78.29-26,32.81,7,47.09,31.66,60.9,55.54,11.11,19.23,22.6,39.1,43.83,49.61s44.23,7.84,66.43,5.24c27.91-3.28,56.78-6.66,82.37,16s25.37,52,25.19,80.36c-.13,22.32-.27,45.41,12.12,65.34,12.79,20.57,33.48,31.26,53.48,41.6,26.09,13.49,53.07,27.44,62.12,63.17,9.12,36-7.21,65.09-23,93.21C1687.35,908.35,1674.57,931.1,1673.63,957.4Z"/><path class="cls-2" d="M1671.15,973.3h-.58a16,16,0,0,1-15.41-16.54c1.09-30.79,15-55.53,28.44-79.46,15.31-27.24,28.52-50.76,21.21-79.62-7-27.66-27.16-38.08-52.69-51.28-21.19-11-45.21-23.37-60.69-48.26-15.21-24.47-15-51.43-14.9-75.22.18-30.58-.63-50.14-19-66.41-19.4-17.2-40.82-14.69-68-11.52-23.71,2.78-50.59,5.93-76.78-7s-39.73-36.32-51.64-56.91c-13.39-23.17-24-41.46-48.72-46.72-25-5.29-42,7.14-63.57,22.88-19.18,14-40.91,29.86-70.24,31.07-29.11,1.23-52.47-12.56-73.07-24.72-23.58-13.9-42.2-24.89-66.73-17.1-23.54,7.48-32.2,25-44.37,53-9.47,21.78-20.2,46.46-44.09,62.68-24.15,16.39-51.2,18.06-75.06,19.53-28.77,1.77-51.49,3.16-69,25.41-18.4,23.4-15.87,50.25-12.94,81.35,2.57,27.32,5.23,55.58-6.26,84.15a16,16,0,1,1-29.66-11.94c8.6-21.36,6.41-44.6,4.09-69.21-3.12-33.13-6.65-70.67,19.63-104.11s61.3-35.66,92.15-37.56c21.68-1.34,42.16-2.6,59.06-14.07,16.23-11,24.25-29.45,32.74-49,11.91-27.4,25.42-58.46,64-70.72,38.15-12.1,67.1,5,92.65,20,18.42,10.87,35.82,21.09,55.51,20.32s35.7-12.54,52.72-25c23.49-17.15,50.14-36.6,89-28.33,38.68,8.21,55.2,36.78,69.77,62,10.57,18.29,20.56,35.57,38.13,44.26s37.71,6.41,58.89,3.93c29.43-3.45,62.78-7.36,92.89,19.35s29.91,60.62,29.73,90.53c-.13,21.35-.25,41.52,10.08,58.14,10.83,17.41,29,26.8,48.23,36.74,27.4,14.17,58.46,30.23,69,71.84,10.44,41.23-8,74.11-24.34,103.12-12.11,21.55-23.54,41.91-24.36,64.93A16,16,0,0,1,1671.15,973.3Z"/><path class="cls-11" d="M2520.47,2168.1a2.1,2.1,0,0,1,.92,3.37,49.4,49.4,0,0,1-35.89,15.78c-69.28,1.13-165,11.16-243.58,51.06-140.66,71.49-376.51,168.71-538.35,19.19-187.73-173.41-199.57-504-199.57-504l40.13-27.49c22.23,103,107.35,418.7,322.78,466.49C2133.13,2251.51,2264.7,2082.22,2520.47,2168.1Z"/><path class="cls-12" d="M1914.66,2338.51c-74.55,0-149.61-20.46-213-79-186.41-172.2-200.33-502.64-200.45-505.95a2.78,2.78,0,0,1,1.2-2.38l40.12-27.48a2.75,2.75,0,0,1,4.25,1.69c20.9,96.89,105.81,416.72,320.69,464.38,126.58,28.07,223.08,4.14,316.39-19,104.47-25.91,203.14-50.38,337.45-5.28h0a4.84,4.84,0,0,1,3.18,3.43,4.74,4.74,0,0,1-1.11,4.43,52.22,52.22,0,0,1-37.87,16.65c-67.13,1.1-163.68,10.79-242.37,50.77C2185.25,2270.2,2050.82,2338.5,1914.66,2338.51Zm-407.83-583.63c1.22,24.47,20.34,335.91,198.61,500.59,176.23,162.83,446.44,25.51,535.23-19.62,79.63-40.45,177.07-50.26,244.79-51.36a46.78,46.78,0,0,0,33.16-14.1c-132.29-44.14-230-19.91-333.39,5.74-93.93,23.29-191.06,47.4-318.92,19-215.19-47.73-301.5-362.39-324-464.59Zm1012.76,415.84h0Z"/><g class="cls-5"><path class="cls-2" d="M2521.4,2171.49a49.57,49.57,0,0,1-35.91,15.74c-69.26,1.15-165,11.19-243.58,51.09-140.64,71.47-376.49,168.69-538.36,19.17-187.71-173.4-199.55-504-199.55-504l40.14-27.46c5.41,25.07,14.53,62.71,28.37,106,18,109.91,59.62,252.83,155.58,352.68,152.6,158.92,393.86,75.91,538.53,12.94,74.52-32.44,162.21-38.6,229.65-37q11.91,3.3,24.18,7.44A2.13,2.13,0,0,1,2521.4,2171.49Z"/></g><path class="cls-2" d="M1914.5,2351.85c-77.3,0-155.46-21.34-221.78-82.61C1502.3,2093.33,1488.52,1767.81,1488,1754l-.32-8.79,67-45.9,5,23.26c20.48,95,103.43,408.3,310.62,454.25,123.55,27.41,218.52,3.86,310.35-18.92,101.7-25.23,206.87-51.31,344.82-5h0a18.08,18.08,0,0,1,7.55,29.42,65.38,65.38,0,0,1-47.37,20.87c-65.7,1.07-160.12,10.49-236.55,49.33C2190.21,2282.52,2053.78,2351.83,1914.5,2351.85Zm-394-590.29c3.57,52.76,30,332.79,193.93,484.19,114,105.37,284.23,98.26,520.27-21.69,77.83-39.54,171.64-50.6,240.08-52.56-109.28-26.46-195.56-5.05-286.35,17.46-95.41,23.67-194.07,48.14-325,19.11-210.56-46.7-301-336-329.68-455.62Zm994.88,421.69h0Z"/><path class="cls-13" d="M2534.31,2146.46a51.5,51.5,0,0,1-9.93,21.52,2.11,2.11,0,0,1-2.32.66c-256.82-87.12-388.38,83-655.15,23.83C1651.48,2144.68,1566.36,1829,1544.13,1726l59-40.39c27.63,84.78,121.63,318.28,328.2,354.86,231.17,40.93,362.57-127.57,602.32,104.06A2.15,2.15,0,0,1,2534.31,2146.46Z"/><path class="cls-12" d="M1981.66,2208a528.69,528.69,0,0,1-115.35-12.86c-218.08-48.37-303.8-370.9-324.88-468.6a2.75,2.75,0,0,1,1.14-2.85l59-40.4a2.76,2.76,0,0,1,4.18,1.42c30.7,94.22,123.94,317.21,326.06,353,80.64,14.27,148.71,3,214.53-8C2266,2010,2379,1991.2,2535.61,2142.53a4.92,4.92,0,0,1,1.4,4.48h0a54.34,54.34,0,0,1-10.47,22.67,4.86,4.86,0,0,1-5.36,1.57c-133.59-45.31-231.88-20.93-335.95,4.88C2121.68,2191.89,2056.66,2208,1981.66,2208Zm-434.45-480.81c21.56,99,106.75,415.2,320.3,462.57,126.58,28.07,223.08,4.14,316.39-19,104.77-26,203.72-50.53,338.61-4.89a48.77,48.77,0,0,0,9-19.62c-154.51-149.16-261-131.47-384.26-111-66.28,11-134.81,22.38-216.39,7.94-202.6-35.88-297.05-256.18-329.2-353.24Z"/><g class="cls-5"><path class="cls-2" d="M2534.31,2146.45a51.59,51.59,0,0,1-9.92,21.53,2.12,2.12,0,0,1-2.34.66c-256.82-87.11-388.35,83-655.12,23.82C1651.5,2144.69,1566.36,1829,1544.14,1726l34.28-23.46c30.08,133.27,109,375,292,423.64,259.12,68.88,397.39-88.26,641.54-1.82q10.71,9.55,21.69,20.16A2.09,2.09,0,0,1,2534.31,2146.45Z"/></g><path class="cls-2" d="M1981.8,2221.29a542.33,542.33,0,0,1-118.35-13.22C1637.69,2158,1550,1829,1528.5,1729.36l-2.26-10.5,85.51-58.52,6.61,20.29c30,91.95,120.73,309.53,315.8,344.08,78.4,13.89,145.33,2.78,210.06-8,123-20.41,239.16-39.69,400.58,116.27a18,18,0,0,1,5.17,16.62h0a67.46,67.46,0,0,1-13,28.22,18.13,18.13,0,0,1-20,5.92c-129.92-44.08-226.39-20.15-328.52,5.18C2124,2204.94,2058.1,2221.29,1981.8,2221.29Zm-419.73-488.21c24,105.55,108.17,399.39,308.3,443.78,123.55,27.41,218.52,3.86,310.35-18.92,99.39-24.65,202.07-50.12,335.47-8-146.41-138.17-248.64-121.22-366.74-101.62-67.38,11.19-137.06,22.75-220.86,7.91-198.63-35.18-296.1-239.67-333.76-345.53Z"/><path class="cls-14" d="M2535.11,2141.16a2.09,2.09,0,0,1-3.53,1.32c-238.41-228.62-369.72-61.22-600.21-102-206.57-36.58-300.57-270.08-328.2-354.86l35.84-24.54s147,289.88,405.46,243.64c212.73-38.11,315.11-48.69,482.31,203.61A50.41,50.41,0,0,1,2535.11,2141.16Z"/><path class="cls-12" d="M2533,2145.83a4.82,4.82,0,0,1-3.34-1.36c-153.52-147.22-259.58-129.62-382.39-109.24-66.28,11-134.81,22.38-216.39,7.94-205.06-36.32-299.33-261.57-330.35-356.73a2.78,2.78,0,0,1,1.07-3.13l35.84-24.54a2.75,2.75,0,0,1,4,1c.36.72,37.41,72.93,105.4,138.53C1809.4,1858.68,1911.7,1925.64,2044,1902c216.56-38.8,319.27-45.4,485.09,204.79a53,53,0,0,1,8.77,34.65h0a4.83,4.83,0,0,1-3.15,4.1A4.72,4.72,0,0,1,2533,2145.83Zm2.1-4.67h0Zm-268.38-124.59c79.4,0,163.22,25,265.74,123a47.54,47.54,0,0,0-8-29.7C2360.23,1862,2264.57,1868.05,2045,1907.41c-134.64,24.07-238.56-43.92-302-105.22-61-58.94-97.37-123.16-104.9-137.12l-31.59,21.62c31.35,95.31,124.69,315.5,325.42,351,80.64,14.27,148.71,3,214.53-8C2186.61,2023.12,2226.1,2016.57,2266.73,2016.57Z"/><g class="cls-5"><path class="cls-2" d="M2535.1,2141.17a2.1,2.1,0,0,1-3.53,1.33c-238.41-228.65-369.71-61.24-600.22-102-206.53-36.57-300.54-270.09-328.2-354.88l33.59-23c38.89,107,120.65,259.53,278.1,299.17,227,57.13,369.93-100.48,591.38,144.58a2.09,2.09,0,0,0,3.62-1.05,50,50,0,0,0-2.15-25.11q9.39,13.44,19.11,28.09A50.48,50.48,0,0,1,2535.1,2141.17Z"/></g><path class="cls-2" d="M2533,2159.06a17.94,17.94,0,0,1-12.46-5c-148.73-142.62-251.76-125.53-371.06-105.73-67.38,11.19-137.06,22.75-220.86,7.91C1716.47,2018.63,1619.72,1788,1588,1690.54l-3.71-11.38,60.74-41.59,8.26,16.23c1.42,2.8,144.91,278.76,388.4,235.16,111.94-20,190.93-31.34,266-6.55,79.45,26.23,148.95,91.14,232.4,217.06a66.07,66.07,0,0,1,10.91,43.22h0a18.13,18.13,0,0,1-18.05,16.37Zm2.14-17.9h0Zm-267.27-138c69.06,0,141.38,18.39,225.95,85.06-147.94-211.42-241.9-204.45-446.5-167.79-110.92,19.84-219.35-17.75-313.56-108.72-51.47-49.71-85.22-102-100.17-127.56l-11.41,7.81c33.43,97.33,124.56,299.55,312,332.75,78.4,13.89,145.33,2.78,210.06-8C2185.53,2009.89,2226.1,2003.16,2267.84,2003.16Z"/><path class="cls-15" d="M1168.39,569.32c775.81,0,1101.82,786.6,1101.82,976.3,0,166.31-550.91,316.09-1101.82,316.09S66.56,1711.93,66.56,1545.62C66.56,1355.92,392.57,569.32,1168.39,569.32Z"/><g class="cls-9"><path class="cls-4" d="M2270.22,1545.62a81.57,81.57,0,0,1-5,27.58C2221.55,1324.65,1889,646,1168.4,646S115.22,1324.65,71.54,1573.2a81.34,81.34,0,0,1-5-27.58c0-189.69,326-976.3,1101.86-976.3S2270.22,1355.93,2270.22,1545.62Z"/></g><g class="cls-5"><path class="cls-2" d="M2270.22,1500.62c0,166.32-550.93,316.09-1101.82,316.09S66.54,1666.94,66.54,1500.62c0-43.19,16.91-117.4,52.19-206.19-12,43.08-17.86,78.84-17.86,103.86,0,161.12,533.75,306.25,1067.53,306.25s1067.54-145.13,1067.54-306.25c0-25-5.84-60.58-17.79-103.54C2253.36,1383.42,2270.22,1457.47,2270.22,1500.62Z"/></g><path class="cls-2" d="M1168.39,1877.69c-527.66,0-1117.81-142-1117.81-332.07,0-98.38,83.76-347.37,263.54-569.35,156.27-192.94,431.33-422.94,854.27-422.94s698,230,854.26,422.94c179.78,222,263.54,471,263.54,569.35C2286.19,1735.68,1696,1877.69,1168.39,1877.69Zm0-1292.39C758.05,585.3,490.85,808.85,339,996.39,164,1212.37,82.55,1451.8,82.55,1545.62c0,69.67,124.36,146.31,332.67,205,214.36,60.42,488.88,95.08,753.17,95.08s538.8-34.66,753.16-95.08c208.31-58.72,332.67-135.36,332.67-205,0-93.82-81.49-333.25-256.41-549.23C1845.92,808.85,1578.72,585.3,1168.39,585.3Z"/><path class="cls-15" d="M1496.83,719.57s209.8-231.64,420.36-252.3A63.35,63.35,0,0,1,1984,512.19c60.34,202.78-72.69,458.24-72.69,458.24"/><g class="cls-9"><path class="cls-4" d="M1496.83,719.59h0a43,43,0,0,0,51.17-4.93c77.54-70.13,218.26-178.62,359.32-192.48a63.38,63.38,0,0,1,66.84,44.93c18.84,63.46,18.81,132,9.83,196.4,17.18-78.81,24.41-169.4,0-251.33a63.41,63.41,0,0,0-66.84-44.94C1706.65,487.92,1496.83,719.59,1496.83,719.59Z"/></g><path class="cls-2" d="M1492.88,716c9.26-22.07,23.79-39.39,39.54-55.34,15.61-16.13,32.83-30.55,50.44-44.42s35.17-27.8,53.26-41.1,36.66-26,55.72-38c38.06-24,78.38-45,121.06-61.1a467.06,467.06,0,0,1,66-19.05c5.68-1,11.33-2.18,17-3.13l17.22-2.22A90.4,90.4,0,0,1,1923,451a83.44,83.44,0,0,1,10.36.68,75.61,75.61,0,0,1,20,5.28,79.16,79.16,0,0,1,43.08,42.7,49.66,49.66,0,0,1,1.82,4.85c.57,1.63,1.18,3.36,1.48,4.65l2.23,8.38a389.49,389.49,0,0,1,11.83,67.92c3.9,45.66,1.28,91.35-5.75,136s-18,88.46-31.87,131.17c-3.48,10.68-7.17,21.29-10.94,31.86s-7.16,21.3-11.07,31.84a178.27,178.27,0,0,1-14.52,30.47c-6,9.64-13.13,18.74-23.6,26.13a6,6,0,0,1-8.35-1.44,5.92,5.92,0,0,1-1.1-3.23V968c-.45-12.31,1.71-23.27,4.67-33.82a269.34,269.34,0,0,1,11.25-30.58c4.39-9.94,8.9-19.85,12.65-30.05s7.24-20.49,10.62-30.82c13.45-41.31,24.06-83.51,30.68-126.18s9.12-85.82,5.49-128.25a357.17,357.17,0,0,0-10.86-62.5l-2-7.64a28,28,0,0,0-1-3.24A24,24,0,0,0,1967,512a46.87,46.87,0,0,0-6.21-10.64,47.38,47.38,0,0,0-19.51-14.82,43.39,43.39,0,0,0-11.92-3.15,53,53,0,0,0-6.16-.42,62.16,62.16,0,0,0-6.66.51l-15.65,2-15.57,2.88A435.39,435.39,0,0,0,1824,506c-40,15.1-78.55,35.07-115.18,58.2-18.33,11.55-36.32,23.74-53.8,36.67s-34.73,26.24-51,40.7-32.23,29.29-48.93,43.3c-16.49,14.26-33.52,27.91-54.31,38.24l-.18.09a5.65,5.65,0,0,1-7.72-7.24Z"/><path class="cls-16" d="M1686.78,724.37c-18-11-19.62-36.48-2.85-49.27,57.25-43.67,164.85-118.34,205.55-96.68,41,21.83,5.81,167.76-16.47,245.78a29.81,29.81,0,0,1-49.71,12.95C1789.55,803.62,1736.33,754.44,1686.78,724.37Z"/><path class="cls-2" d="M1844.23,848.37a32.06,32.06,0,0,1-22.69-9.44c-35.21-35-87.4-82.9-136.06-112.43a32.58,32.58,0,0,1-15.68-26.13,31.69,31.69,0,0,1,12.62-27.26c59.9-45.7,166.62-119,208.23-96.9,42.13,22.42,8.54,165.43-15.23,248.68a32,32,0,0,1-22.91,22.41A32.73,32.73,0,0,1,1844.23,848.37ZM1688.08,722.23c49.07,29.78,101.58,78,137,113.15a27.31,27.31,0,0,0,45.55-11.86c39.74-139.2,46.19-227.73,17.7-242.89s-102.54,19.94-202.86,96.45a26.8,26.8,0,0,0-10.66,23,27.58,27.58,0,0,0,13.29,22.12Z"/><path class="cls-17" d="M1686.78,724.38c34.94,21.17,71.65,51.84,102.07,79.88,12.78,11.72,24.44,23,34.44,32.88A29.83,29.83,0,0,0,1873,824.21c22.28-78,57.46-223.94,16.45-245.8-20.89-11.12-59.39,3.15-99.65,25.56-38.19,21.26-78,49.85-105.89,71.13C1667.18,687.88,1668.73,713.4,1686.78,724.38Z"/><g class="cls-5"><path class="cls-2" d="M1686.78,724.38c34.94,21.17,71.65,51.84,102.07,79.88,19.8-79,37.64-181,3.92-199a23.08,23.08,0,0,0-2.94-1.33c-38.19,21.26-78,49.85-105.89,71.13C1667.18,687.88,1668.73,713.4,1686.78,724.38Z"/></g><path class="cls-2" d="M1844.18,861.86A45.43,45.43,0,0,1,1812,848.49C1777.34,814,1726,766.87,1678.49,738h0a45.8,45.8,0,0,1-4.25-75.64c111-84.67,185.94-117.67,222.75-98.08,14.35,7.64,58,30.89-8.61,264.28a45.35,45.35,0,0,1-32.47,31.75A46.35,46.35,0,0,1,1844.18,861.86ZM1695.07,710.7c50.21,30.47,103.57,79.42,139.5,115.12a13.84,13.84,0,0,0,23.08-6c47.09-164.95,36.5-220.8,24.32-227.28-17.24-9.17-76.9,10.28-188.34,95.28a13.48,13.48,0,0,0-5.38,11.58,14,14,0,0,0,6.82,11.31Z"/><path class="cls-15" d="M846.71,719.57S636.9,487.93,426.35,467.27a63.36,63.36,0,0,0-66.83,44.92C299.19,715,432.21,970.43,432.21,970.43"/><g class="cls-9"><path class="cls-4" d="M846.7,719.59h0a43,43,0,0,1-51.17-4.93C718,644.53,577.28,536,436.22,522.18a63.39,63.39,0,0,0-66.85,44.93c-18.84,63.46-18.81,132-9.82,196.4-17.19-78.81-24.42-169.4,0-251.33a63.43,63.43,0,0,1,66.85-44.94C636.88,487.92,846.7,719.59,846.7,719.59Z"/></g><path class="cls-2" d="M842.76,723.15c-20.8-10.33-37.83-24-54.32-38.24-16.7-14-32.59-28.87-48.92-43.3s-33.53-27.8-51-40.7S653,575.79,634.68,564.24c-36.63-23.13-75.13-43.1-115.18-58.2a435.27,435.27,0,0,0-61.23-17.68l-15.58-2.88-15.64-2a62.54,62.54,0,0,0-6.66-.51,52.67,52.67,0,0,0-6.16.42,43.39,43.39,0,0,0-11.92,3.15A47.25,47.25,0,0,0,376.58,512a25.76,25.76,0,0,0-1.08,2.9,30.28,30.28,0,0,0-1,3.24l-2,7.64a358.12,358.12,0,0,0-10.87,62.5c-3.62,42.43-1.23,85.63,5.5,128.25s17.22,84.87,30.68,126.18q5.06,15.49,10.61,30.82c3.75,10.2,8.26,20.11,12.65,30.05a267.44,267.44,0,0,1,11.25,30.58c3,10.55,5.13,21.51,4.67,33.82v.25a6,6,0,0,1-6.21,5.76,5.9,5.9,0,0,1-3.23-1.09c-10.47-7.39-17.58-16.49-23.6-26.13a177.57,177.57,0,0,1-14.53-30.47c-3.9-10.54-7.17-21.31-11.07-31.84s-7.46-21.18-10.93-31.86c-13.91-42.71-24.94-86.48-31.87-131.17s-9.65-90.31-5.75-136a388.54,388.54,0,0,1,11.82-67.92l2.24-8.38c.29-1.29.91-3,1.47-4.65s1.07-3.29,1.82-4.85A79.27,79.27,0,0,1,390.17,457a75.68,75.68,0,0,1,20-5.28,83.28,83.28,0,0,1,10.35-.68,90.22,90.22,0,0,1,9.86.69l17.22,2.22c5.7,1,11.35,2.09,17,3.13a466.67,466.67,0,0,1,66,19.05c42.68,16.08,83,37.07,121.07,61.1q28.57,18,55.72,38c18.08,13.3,35.61,27.27,53.25,41.1s34.84,28.29,50.45,44.42c15.75,16,30.28,33.27,39.54,55.34a5.65,5.65,0,0,1-7.7,7.25Z"/><path class="cls-16" d="M656.76,724.37c18-11,19.61-36.48,2.84-49.27-57.25-43.67-164.85-118.34-205.55-96.68-41,21.83-5.81,167.76,16.47,245.78a29.81,29.81,0,0,0,49.71,12.95C554,803.62,607.2,754.44,656.76,724.37Z"/><path class="cls-2" d="M499.3,848.37A32.79,32.79,0,0,1,491,847.3a32,32,0,0,1-22.9-22.41c-23.77-83.25-57.36-226.26-15.24-248.68,41.6-22.15,148.33,51.21,208.24,96.9a31.72,31.72,0,0,1,12.62,27.26,32.59,32.59,0,0,1-15.69,26.13h0C609.39,756,557.2,803.94,522,838.93A32.07,32.07,0,0,1,499.3,848.37ZM471.49,577.15c-6.44,0-11.88,1.15-16.26,3.48-28.5,15.16-22.05,103.69,17.69,242.89a27.32,27.32,0,0,0,45.55,11.86c35.4-35.18,87.9-83.36,137-113.15a27.62,27.62,0,0,0,13.29-22.12,26.82,26.82,0,0,0-10.66-23C573.13,612.29,507.09,577.15,471.49,577.15Z"/><path class="cls-17" d="M656.76,724.38c-35,21.17-71.66,51.84-102.08,79.88-12.77,11.72-24.44,23-34.44,32.88a29.83,29.83,0,0,1-49.73-12.93c-22.29-78-57.47-223.94-16.46-245.8,20.89-11.12,59.39,3.15,99.66,25.56,38.19,21.26,78,49.85,105.89,71.13C676.35,687.88,674.81,713.4,656.76,724.38Z"/><g class="cls-5"><path class="cls-2" d="M656.76,724.38c-35,21.17-71.66,51.84-102.08,79.88-19.8-79-37.64-181-3.91-199a22.47,22.47,0,0,1,2.94-1.33c38.19,21.26,78,49.85,105.89,71.13C676.35,687.88,674.81,713.4,656.76,724.38Z"/></g><path class="cls-2" d="M499.36,861.86a46.42,46.42,0,0,1-11.74-1.52,45.38,45.38,0,0,1-32.47-31.75c-66.64-233.39-23-256.64-8.6-264.28,36.8-19.59,111.74,13.41,222.74,98.08a45.59,45.59,0,0,1,17.91,38.7A46.08,46.08,0,0,1,665.05,738h0c-47.53,28.85-98.86,76-133.55,110.46A45.41,45.41,0,0,1,499.36,861.86Zm-27.47-271.4c-4.37,0-7.8.73-10.32,2.07-12.19,6.48-22.78,62.33,24.32,227.28a13.83,13.83,0,0,0,23.08,6c35.92-35.7,89.27-84.64,139.49-115.12a13.94,13.94,0,0,0,6.82-11.31,13.5,13.5,0,0,0-5.37-11.58C554.79,615.25,497.38,590.46,471.89,590.46ZM656.76,724.37h0Z"/><path class="cls-18" d="M952,624.76c5.6-338,150.73-609.68,205.19-608.77s190.5,277.24,184.89,615.24"/><g class="cls-3"><path class="cls-4" d="M1131,117.89c-30.92,12.43-114,192.92-74.64,262,6.51,11.44,21.44-1,37.27-20.43,36.84-45.31,57-101.8,59.46-160.14C1155,154.47,1152,109.45,1131,117.89Z"/></g><g class="cls-5"><path class="cls-2" d="M1342.11,631.24,952,624.76A1264.4,1264.4,0,0,1,966.6,454L1073,455.78c97,1.61,173.65-82.92,161.26-179.1C1221.82,179.78,1199.43,93,1174.11,23,1235.41,68,1347.2,324.18,1342.11,631.24Z"/></g><path class="cls-2" d="M1342.11,647.21h-.27A16,16,0,0,1,1326.12,631c3.27-196.9-41.81-352.89-69-428.35C1214.44,84,1170.13,32.19,1157,32h-.09c-13.29,0-59.19,50.29-105.72,167.22C1021.49,273.71,971.26,428.12,968,625a15.78,15.78,0,0,1-16.25,15.72A16,16,0,0,1,936,624.49c3.35-202,54.94-360.57,85.4-437.12C1057.54,96.65,1112,0,1157,0h.52c45,.75,96.55,99.56,129.75,191.78,27.9,77.52,74.21,237.72,70.85,439.72A16,16,0,0,1,1342.11,647.21Z"/><path class="cls-2" d="M958,537.5a16,16,0,0,1-1.48-31.9c233.49-21.94,345.72-160,346.83-161.35a16,16,0,0,1,25.07,19.83c-4.82,6.12-121.11,150.06-368.91,173.34C959,537.47,958.54,537.5,958,537.5Z"/><path class="cls-2" d="M994.81,335.37a16,16,0,0,1-2.1-31.83h0c1.75-.24,176.11-25,257-140.39a16,16,0,0,1,26.18,18.35c-89.08,127-271.27,152.69-279,153.72A15.5,15.5,0,0,1,994.81,335.37Z"/><path class="cls-11" d="M929.29,547.78c-145.67-14-279.29,82.45-308.12,225.93C609.5,831.79,612.34,898.82,648.35,968c87.23,167.49,292.12,174.2,506,128.93,0,0-215.29-390-147.4-534.38C1007,562.51,975.91,552.26,929.29,547.78Z"/><path class="cls-12" d="M951.2,1123.74c-150.89,0-251.49-51.21-305.29-154.5-32-61.45-41.24-127.42-27.44-196.08,29-144.32,162.75-242.38,311.09-228.12,46.38,4.46,77.94,14.75,78.25,14.86a2.75,2.75,0,0,1,1.63,3.79c-66.52,141.47,145.18,528,147.33,531.86a2.78,2.78,0,0,1,.09,2.48,2.75,2.75,0,0,1-1.94,1.55Q1041,1123.72,951.2,1123.74ZM901,549.17c-134,0-250.49,92.7-277.1,225.08-13.54,67.39-4.48,132.14,26.93,192.44,73.51,141.16,236.86,183.13,499.35,128.26-21.89-40.22-208.31-390.12-147-530.72-8.76-2.59-36.45-10.08-74.11-13.71C919.61,549.62,910.24,549.17,901,549.17Z"/><g class="cls-3"><path class="cls-4" d="M965,638.84s-31-10.25-77.67-14.73C786.14,614.42,690.84,658,632.37,733.5c43.57-120.85,165.31-198.36,296.94-185.69,46.6,4.48,77.62,14.73,77.62,14.73C939,706.92,914,747.31,965,638.84Z"/></g><g class="cls-5"><path class="cls-2" d="M1154.33,1096.9c-213.85,45.28-418.72,38.55-505.95-129-36-69.16-38.88-136.15-27.22-194.24a280.41,280.41,0,0,1,37-93.28c-5.36,50.84,1.55,107.09,31.62,164.91C764,987.88,923.46,1014,1101.19,990.74,1130.47,1053.7,1154.33,1096.9,1154.33,1096.9Z"/></g><path class="cls-2" d="M952.7,1136.89c-36.67,0-70.5-3-101.84-9-101.1-19.29-174-70.62-216.68-152.56-33.44-64.2-43.08-133.1-28.68-204.79,30.34-151,170.18-253.58,325.32-238.69,47.85,4.6,79.8,15,81.14,15.47l17.12,5.65-7.67,16.33c-63.65,135.38,144.82,516,146.93,519.84l10.43,18.89-21.11,4.47C1080.82,1128.79,1013,1136.89,952.7,1136.89ZM901,562.4c-127.78,0-238.8,88.32-264.15,214.46-12.93,64.35-4.29,126.16,25.69,183.72,68.8,132.1,221.86,173.05,467.58,124.93-41.22-78.31-187.15-371-144.34-512.21a425.67,425.67,0,0,0-58-9.61h0C918.78,562.83,909.84,562.4,901,562.4Z"/><path class="cls-13" d="M989.09,503.41a174.81,174.81,0,0,0-101,129.35c-16.51,94.58-21.09,251.57,86.77,378.43,166.65,196,507.07,51.29,507.07,51.29S1313,666.31,1332.62,563.15C1332.62,563.15,1203.86,407.35,989.09,503.41Z"/><path class="cls-12" d="M1229,1116.6c-87,0-186.75-21.89-256.24-103.62C861.68,882.37,870.32,718.4,885.35,632.28A177.31,177.31,0,0,1,988,500.89h0c214.22-95.81,345.48,58.93,346.78,60.51a2.74,2.74,0,0,1,.59,2.27c-19.28,101.16,147.42,493.77,149.11,497.73A2.76,2.76,0,0,1,1483,1065c-.85.36-86.69,36.47-191.82,48.06A570.79,570.79,0,0,1,1229,1116.6ZM989.09,503.41l1.12,2.52a171.79,171.79,0,0,0-99.43,127.3c-18.16,104-17.95,253.74,86.15,376.18,66.31,78,161.24,101.24,250.84,101.24,121,0,232.34-42.4,250.5-49.67-15.72-37.1-166-395.59-148.6-497-11.34-12.81-138-148.16-339.46-58Z"/><g class="cls-3"><path class="cls-4" d="M1308.73,625.62S1180,469.86,965.2,565.88A176.16,176.16,0,0,0,888,633a.29.29,0,0,0,.06-.21,174.77,174.77,0,0,1,101-129.37c214.75-96.07,343.53,59.75,343.53,59.75C1313,666.29,1293.24,706.93,1308.73,625.62Z"/></g><g class="cls-5"><path class="cls-2" d="M1481.88,1062.49s-340.41,144.7-507.07-51.32C867,884.36,871.54,727.31,888.06,632.73a173.87,173.87,0,0,1,34.57-77.5c-10.94,95.32-3.46,231.06,91.9,343.19,117.57,138.32,321.72,107,431.7,76.48C1466.82,1027.18,1481.88,1062.49,1481.88,1062.49Z"/></g><path class="cls-2" d="M1228.45,1129.88c-114,0-205.06-36.9-265.8-108.33C848.11,886.83,856.89,718.41,872.31,630A190.53,190.53,0,0,1,982.56,488.82h0c116.39-52.06,208.61-32.05,265.47-6.1,61.67,28.14,95.5,68.54,96.91,70.25l4.79,5.79-1.41,7.39c-15.38,80.7,101.83,381.12,148.29,490.06l6.27,14.72-14.72,6.26c-3.57,1.52-88.5,37.23-195.55,49A587.6,587.6,0,0,1,1228.45,1129.88ZM995.61,518a158.6,158.6,0,0,0-91.8,117.51c-17.67,101.24-17.58,246.8,83.2,365.33,63.26,74.41,154.36,96.7,240.78,96.71,101.85,0,197.21-31,233-44-30.52-73.19-155.29-380.32-145-485.21C1291.8,542.87,1177,436.88,995.61,518Z"/><path class="cls-14" d="M1370.5,511.4a114.29,114.29,0,0,0-118.15,86.78C1236.7,661.85,1226.85,757.24,1264,860c55.43,153.52,171.74,204.23,265.22,216.89,228.15,30.89,296.59-228.59,296.59-228.59s-148.39-18.85-203.18-180.17A198.33,198.33,0,0,0,1522.65,554C1481.93,533.91,1429.26,515.08,1370.5,511.4Z"/><path class="cls-12" d="M1565.8,1082.19a276.45,276.45,0,0,1-37-2.55c-90.4-12.24-210.19-60.12-267.45-218.69-37.6-104.13-27.11-200.73-11.7-263.43a117,117,0,0,1,121-88.87c50.36,3.15,101.9,17.57,153.19,42.86a199.71,199.71,0,0,1,101.35,115.75C1678.78,825,1824.67,845.4,1826.13,845.59a2.75,2.75,0,0,1,2.32,3.44C1827.8,851.5,1764.5,1082.18,1565.8,1082.19ZM1363.26,513.93A111.46,111.46,0,0,0,1255,598.84c-15.24,62-25.6,157.4,11.53,260.24,56.32,156,174.1,203.06,263,215.09,210,28.44,284.2-195.25,292.72-223.63-22-4-152-33.5-202.29-181.5a194.23,194.23,0,0,0-98.56-112.58c-50.64-25-101.48-39.2-151.11-42.31h0C1368,514,1365.6,513.93,1363.26,513.93Z"/><g class="cls-3"><path class="cls-4" d="M1799.94,842.35c-40.6-2.93-149.71-22.16-215.31-142.09A198.29,198.29,0,0,0,1466.51,605c-43.55-12.77-98.67-22.29-157.23-15.79a114.07,114.07,0,0,0-60.76,26q1.83-8.85,3.83-17a114.24,114.24,0,0,1,118.17-86.76c58.72,3.66,111.42,22.5,152.12,42.58a198.29,198.29,0,0,1,99.95,114.15C1663.14,787.54,1754.94,828.86,1799.94,842.35Z"/></g><g class="cls-5"><path class="cls-2" d="M1825.76,848.32s-68.4,259.5-296.58,228.56c-93.46-12.63-209.79-63.33-265.21-216.85-37.12-102.78-27.25-198.17-11.62-261.85a114,114,0,0,1,11-28.1c-3.29,52.32,1.67,113.22,24.7,177,55.42,153.52,171.75,204.22,265.21,216.85,125.81,17,203-54.17,247-121.51A175.32,175.32,0,0,0,1825.76,848.32Z"/></g><path class="cls-2" d="M1565.75,1095.41a288.23,288.23,0,0,1-38.7-2.67c-94-12.73-218.61-62.5-278.12-227.29-38.72-107.25-28-206.61-12.1-271.08a130.24,130.24,0,0,1,134.67-98.93c52.11,3.27,105.34,18.14,158.21,44.21a212.83,212.83,0,0,1,108,123.36c51,150.13,188.68,169.28,190.07,169.46l18.09,2.3-4.65,17.63c-.73,2.77-18.44,68.6-65.4,131.37C1720.84,1057.31,1648.79,1095.41,1565.75,1095.41ZM1363.27,527.15a98.25,98.25,0,0,0-95.4,74.85c-14.8,60.19-24.88,152.86,11.13,252.59,54.07,149.74,167.06,194.93,252.33,206.47,88.12,11.94,161.6-20.26,218.35-95.69,30.14-40,47.55-82.46,55.46-104.94-43.66-10.95-151.51-51.2-197.68-187.14a181.06,181.06,0,0,0-91.88-105c-49.06-24.19-98.21-38-146.08-41h0Q1366.38,527.16,1363.27,527.15Z"/><g class="cls-5"><circle class="cls-2" cx="1891.95" cy="1456.66" r="31.55"/><circle class="cls-2" cx="2000.49" cy="1318.12" r="23.08" transform="translate(-346.12 1800.63) rotate(-45)"/><circle class="cls-2" cx="2043.17" cy="1427.26" r="20.24"/></g><g class="cls-5"><circle class="cls-2" cx="476.86" cy="1501.66" r="31.55"/><circle class="cls-2" cx="368.31" cy="1363.12" r="23.08" transform="translate(-856 659.69) rotate(-45)"/><circle class="cls-2" cx="325.63" cy="1472.26" r="20.24"/></g><path class="cls-2" d="M1213.35,1418.43c-1.83,0-3.69-.08-5.6-.23-21.27-1.68-40.16-12.88-53.9-31.44-13.74,18.56-32.63,29.76-53.9,31.44-55.09,4.42-77.38-56.57-78.3-59.17a15.37,15.37,0,0,1,29-10.28c.13.36,15.31,41.27,46.89,38.8,22.06-1.75,34-20.75,39.13-31.92a18.93,18.93,0,0,1,34.41,0c5.14,11.16,17.06,30.16,39.12,31.91,31.57,2.52,46.76-38.44,46.91-38.86a15.38,15.38,0,0,1,29,10.34C1285.16,1361.54,1264.36,1418.43,1213.35,1418.43Z"/><path class="cls-2" d="M1466,1223.08c32.34.13,60.38,22.16,74.65,54.49a24.37,24.37,0,0,0,2.32,1c4.73,2.12,9.7,3.07,15.28,4,11.22,1.61,24.92.09,40.82-3.65-5.64,13.46-19.65,24.41-38.09,28.26a71.25,71.25,0,0,1-11.63,1.29,125.77,125.77,0,0,1,1.35,18.37c-.22,57.09-38.5,103.24-85.49,103.06s-84.92-46.62-84.7-103.72S1419,1222.9,1466,1223.08Z"/><ellipse class="cls-4" cx="1446.71" cy="1306.17" rx="30.96" ry="22.93" transform="translate(134.98 2747.85) rotate(-89.78)"/><path class="cls-2" d="M846.08,1223.17c-32.34,0-60.46,21.92-74.86,54.2a24.27,24.27,0,0,1-2.32,1c-4.74,2.11-9.71,3-15.3,3.92-11.22,1.57-24.92,0-40.8-3.8,5.59,13.48,19.56,24.49,38,28.41a72.23,72.23,0,0,0,11.63,1.34,124.07,124.07,0,0,0-1.42,18.35c0,57.1,38.1,103.39,85.09,103.39s85.09-46.29,85.09-103.39S893.08,1223.17,846.08,1223.17Z"/><ellipse class="cls-4" cx="865.03" cy="1306.34" rx="22.93" ry="30.96"/><ellipse class="cls-19" cx="1610.88" cy="1460.85" rx="26.83" ry="62.61" transform="translate(125.71 3049.33) rotate(-89.13)"/><ellipse class="cls-19" cx="721.97" cy="1460.85" rx="26.83" ry="62.61" transform="translate(-749.68 2160.52) rotate(-89.13)"/></g></g></svg>